<?xml version="1.0" encoding="UTF-8"?>
<svg id="Layer_2" data-name="Layer 2" xmlns="http://www.w3.org/2000/svg" viewBox="0 0 1180.64 370.79">
  <g id="Layer_1-2" data-name="Layer 1">
    <g>
      <path d="M211.39,280.75l858.76-.32c51.9,4.96,58.04,75.36,7.69,88.76-290.2,2.13-581.25,2.13-871.45,0-48.81-12.88-45.02-81.02,5-88.44ZM595.61,289.47l-13.08,7.42-.91,10.58-6.07.43-.94,10.57c2.16.12,6.04-.88,6.87,1.63,1.81,20.25-8.37,48.82,24.03,40.25l-.35-9.94c-1.13-1.74-9.54,1.58-9.54-2.46v-29.5h9.01s.01-10.42.01-10.42l-9.02-.58v-18ZM320.61,307.47v53h14v-31.5c0-.37,1.74-5.18,2.14-5.86,3.23-5.59,8.9-3.97,13.85-1.63l3.58-12.04c-8.35-5.72-14.39-2.49-20.56,4.04l-.95-5.56-12.06-.44ZM407.61,338.47h34c1.49-16.43-6.24-32.06-24.5-32.07-30.83-.03-32.54,51.18-4.91,54.99,12.29,1.69,26.58-2.24,28.42-15.91l-12.57-1.67c-5.78,13.08-20.99,7.86-20.43-5.33ZM483.61,345.48c4.6,22.48,50.61,22.1,49.64-2.36-.62-15.71-22.89-13.72-31.91-18.88-1.39-.79-2.65-1.44-2.79-3.28,4.81-7.17,16.6-5.4,20.49,2.19l12.54-3.17c-5.87-19.33-47.02-18.17-45.91,3.85.38,7.58,5.35,10.84,11.67,13.4,4.13,1.67,18.55,4.28,20.27,5.72,4.04,3.39-1.06,8.03-5.49,8.54-7.87.9-11.36-1.45-15.17-7.91l-13.35,1.9ZM671.39,306.75c-30.98,2.97-31.81,50.72-2.19,54.64,43.28,5.71,43.09-58.56,2.19-54.64ZM747.61,307.47v53h14v-31.5c0-.37,1.74-5.18,2.14-5.86,3.23-5.59,8.9-3.97,13.85-1.63l3.58-12.04c-8.53-5.4-14.33-2.65-20.56,4.04l-.95-5.56-12.06-.44ZM869.61,360.47c-10.11-20.45,10.86-54.06-24.5-54.06-10.77,0-20.23,3.66-23.45,14.58.13,1.55,9.6,2.86,11.44,2.52,3.7-.69,2.98-7.72,13.96-5.97,4.1.65,7.65,5.27,5.41,8.8-2.11,3.32-28.8,2.09-31.65,14.85-4.6,20.64,19.9,26.52,32.3,14.3,2.13-.93,1.96,3.84,2.49,4.99h14ZM963.61,360.47v-40.5c0-3.66-4.07-8.88-7.29-10.71-10.05-5.69-19.68-1.82-27.7,5.21v-7s-13.01,0-13.01,0v53h14v-32.5c0-7.27,9.96-13.54,16.4-9.4.86.55,3.6,4.92,3.6,5.4v36.5h14Z" fill="#fff"/>
      <path d="M65.11,102.47c-6.48.73-23.73,6.31-26.05,12.95-.34.96-1.47,5.09.54,5.04,3.49-14.92,19.57-11.97,20.91,2.63C64.19,162.99.08,167.65,0,123.8c-.08-42.02,63.86-52.55,95.58-47.81,25.65-32.21,62.15-59.14,103.82-65.24,8.4-1.23,27.78-3.81,34.55.86,12.17,8.39-8.7,20.45-6.38,31.31l.54,186.53c5.67,4.45,11.57,6.24,11.57,14.51.01,15.1-17.31,9.55-26.53,9.45s-20.19,1.96-28.05,1.05c-7.23-.84-12.46-6.57-10.05-14.06,1.57-4.87,10.77-9.2,12.03-11.96,2.53-5.54,1.28-20.02.4-26.36-5.7-41.17-37.75-80.77-77.79-92.54-7.58,17.5-15.08,35.62-17.82,54.7-3.45,24.04-3.71,78.37,15.71,95.74,7.01,6.27,25.78,11.17,16.86,23.83-2.85,4.05-13.97,6.41-19.2,8.8-7.51,3.42-13.53,9.32-19.74,12.25-18.94,8.95-15.59-22.98-17.04-33.75-2.64-19.62-7.85-39.26-8.9-59.1-2-37.39,4.35-75.63,20.05-109.55-4.65.37-9.94-.51-14.5,0ZM187.61,42.47c-23.32,7.4-46.66,22.58-61,42.49,23.45,10.57,44.14,26.17,61,45.51V42.47Z" fill="#fff"/>
      <path d="M600.62,218.47c7.53-6.82,18.06-1.59,17.91,8.34-.05,3.15-1.92,8.04-1.96,11.21-.07,6.46,4.37,17.2-3.59,21.32s-15.66-4.95-24.88-5.86c-8.61-.85-25.6,3.3-31.45-1.55-1.99-1.65-3.89-5.49-3.99-8.04-.2-5.15,14.13-25.88,17.46-32.39,13.17-25.72,20.58-51.18,11.97-80.01-6.32-21.16-24.65-28.07-42.14-13.55,1.64,6.85,2.99,14.03,3.64,21.05,3.2,34.49-6.1,64.58-22.47,94.51-5.17,9.45-14.18,28.76-27.57,18.52-9.1-6.96.25-19.42,3.07-28.03,8.39-25.65,14.52-81.13-2.59-103.45-13.54-17.67-32.84-6.02-38.46,11.41l.04,96c.76,3.85,10.43,6.59,11.04,15.03.29,3.97-1.64,7.93-5.14,9.9-5.96,3.35-23.44.44-31.46.54-7.26.08-19.66,4.31-23.52-5.38-4.73-11.85,10.13-15.45,10.62-21.03l-.61-99.99c-1.19-14.64-32.64-17.92-18.59-34.22,2.09-2.42,13.22-13.18,15.61-14.88,12.54-8.94,24.59,13.71,31.54,21.52,19.57-28.83,58.87-30.63,82-5,25.14-29.45,70.56-21.44,88.67,11.35,14.24,25.78,10.24,59.98-1.31,86.03l-13.85,26.64Z" fill="#fff"/>
      <path d="M945.61,84.47v-26c-8.2,4.12-19.41,2.69-19.04-8.47.3-9.1,18.49-22.33,25.07-29.01s21.38-30.99,31.43-16.48c4.51,6.51.74,14.29.5,21.42-2.01,60.6,1.59,122.32.04,183.04-.67,12.4,25.67,16.84,13.55,30.54-2.02,2.28-13.8,13.4-16.04,14.96-12.68,8.78-22.08-8.29-28-16.98-28.74,33.67-79.57,26.73-104.92-7.1-26.54-35.42-23.15-91.47,4.45-125.39,23.05-28.33,59.78-36.84,92.97-20.53ZM905.37,102.73c-51.04,6.68-52.2,108.63-1.8,120.28,24.75,5.72,40.4-8.79,42.08-33,.98-14.05,1.65-56.55-2.87-68.21-5.34-13.76-23.46-20.89-37.42-19.07Z" fill="#fff"/>
      <path d="M1021.27,76.63c2.69-.86,25.76-.59,29.88-.21,1.45.13,2.89.05,4.22.78,12.46,14.15,23.04,26.55,21.22,46.75-2.63,29.14-20.97,44.32-5.17,78.2,15.14,32.45,53.16,23.41,61.32-11.05,7.34-31-7.04-42.31-9.12-68.15-1.56-19.38,9.36-32.09,21.22-45.75,4.53-.88,33.99-1.63,35.34.21,1.08,1.47,0,3.1-.71,4.42-2.18,4.04-10.87,11.89-14.27,16.72-27.04,38.46,2.13,48.27,4.45,84.37,1.7,26.43-5.53,42.09-25.03,59.06-7.03,6.12-13.77,11.69-23.48,12.52-14.82,1.28-45,1.88-57.26-5.81-23.54-14.77-35.23-37.86-33.26-65.71,2.58-36.5,32.52-47.54,3.4-86.43-2.56-3.42-13.62-14.4-14.26-16.76-.42-1.55-.1-2.65,1.51-3.17Z" fill="#fff"/>
      <path d="M688.11,76.47c3.61.78,16.65,19.2,18.68,23.32,11.34,23.01-1.65,38.68-5.73,60.63-5.21,28.02,6.6,68,42.61,60.61,19.45-3.99,27.2-36.08,25.81-52.93-2.04-24.82-19.87-43.19-6.7-68.95,1.75-3.43,14.85-21.68,17.53-22.47l35.29.81c-5.42,10.71-15.24,18.41-21.17,29.32-15.17,27.93.16,35.79,6.89,60.46,4.59,16.83,4.35,39.48-4.52,54.91-4.66,8.1-23.99,27.33-32.47,30.53s-37.47,2.46-47.27,1.83c-29.07-1.87-52.23-35.86-52.49-63.6-.22-24.25,10.94-34.37,15.57-54.41,5.62-24.29-13.01-40.45-26.42-57.68l1.38-2.35h33Z" fill="#fff"/>
      <path d="M322.26,234.82c6.38,7.21,4.99,17.66-5.39,19.41-7.7,1.3-20.08-.93-28.81-.81-7.35.1-20.55,4.25-23.04-6.9s10.55-14.2,11.57-19.58l.03-95.98c-.22-2.08-1.28-5.97-2.24-7.76-4.48-8.36-17.63-9.48-20.66-14.34-2.03-3.25-1.56-9.16.44-12.35,1.2-1.9,11.91-13.02,14.06-14.94,13.37-11.96,28.06,9.8,37.38,17.9,3.01-5.93,11.21-12.03,17.1-15.42,15.81-9.1,40.63-11.52,55.83,0,27.67,20.98,7.66,65.62-28.19,52.19-9.92-3.72-16.88-17.97-5.13-22.68,3.19-1.28,12.51-1.04,6.36-5.56-11.9-8.73-31.91,11.1-36.19,21.72l-.78,98.24c.52,2.72,5.83,4.76,7.66,6.84Z" fill="#fff"/>
      <path d="M737.6,105.46l-17.79-24.69c-11.37-20.6-2.02-21.14,7.63-35.98,7.93-12.18,2.79-19.88-.82-32.33,6.9,6.88,22.18,18.55,22.76,28.76.56,9.83-13.42,15.46-14.7,23.8-2.02,13.14,4.62,27.09,2.93,40.43Z" fill="#fff"/>
      <path d="M1107.6,105.47c-8.1-11.64-26.81-29.32-22.21-44.72,2.62-8.76,14.4-14.95,15.99-25.03,1.25-7.92-4.22-15.43-4.76-23.25,6.61,9.37,23.82,18.54,21.93,31.43-.96,6.55-8.09,9.84-11.37,14.63-8.5,12.4,2.27,32.76.43,46.94Z" fill="#fff"/>
      <polygon points="1159.61 258.47 1159.46 264.81 1158.11 266.47 1044.61 266.47 1044.61 258.47 1159.61 258.47" fill="#fff"/>
      <path d="M792.61,258.47l-.11,6.89c-14.6,2.65-29.64.14-44.44.06-9.49-.05-20.39.99-29.91,1.09-5.32.06-39.27.65-40.4-1.18l-.14-6.86h115Z" fill="#fff"/>
      <path d="M665.95,321.81c3.06-3.08,7.9-3.96,12.11-3.28,12.87,2.1,13.59,30.37-2.07,31.89-13.96,1.36-18.25-20.36-10.04-28.61Z" fill="#fff"/>
      <path d="M852.61,335.47c-.19,3,.45,6.36-.2,9.29-1.93,8.63-18.89,10.38-17.87-.8.63-6.89,12.89-6.31,18.08-8.48Z" fill="#fff"/>
      <path d="M427.61,329.47h-20c-.38-15.62,20.72-16.23,20,0Z" fill="#fff"/>
    </g>
  </g>
</svg>