<?xml version="1.0" encoding="UTF-8"?>
<svg id="Layer_2" data-name="Layer 2" xmlns="http://www.w3.org/2000/svg" viewBox="0 0 287.04 158.84">
  <g id="Layer_1-2" data-name="Layer 1">
    <path d="M287.04,57.86v77.46l-25.73,19.11-24.13,4.41-69.54-31.63-14.3,6.24-20.4-.1-14.03-6.91-68.06,32.38-24.32-4.32L1.94,135.74l-.62-.67c-.11-4.82-.08-9.64-.17-14.46-.35-18.64-.78-37.28-1.01-55.94,0-.24.09-.64-.15-.79v-4.16l25.55-14.27,21.72-7.64,70.42,39.77h.73s14.71-5.23,14.71-5.23h19.37s15.62,7.13,15.62,7.13l70.05-43.27,22.56,7.85,26.31,13.8ZM258.61,46.55l-19.5-6.76-14.07,31.99,34.59-6.81-1.03-18.42ZM61.86,73.35l-15.5-31.99-18.63,6.62-.45,18.62,34.59,6.74ZM170.07,81.82l3.8,9.16,47.2-18.22.41-.45,13.32-30.37-64.73,39.88ZM115.95,80.11L50.81,43.37c.27.69.57,1.39.88,2.06,4.51,9.7,9.46,19.28,14.2,28.84l46.34,16.86,3.73-11.02ZM261.78,48.11l1.01,16.42.22.93,13.05,9.04,7.38-14.99-21.66-11.4ZM24.08,67.01l.17-7.08.29-10.39L3.6,61.17l6.74,14.91,13.75-9.07ZM283.88,127.86v-62.11l-5.58,11.56.1,40.04,5.49,10.51ZM224.05,125.69l36.51,4.46c.84.2,1.47-.54,2.08-1.07,3.82-3.35,7.77-7.51,11.4-11.12.4-.4,1.03-.62,1.19-1.25l.04-38.56-.14-.58c-4.38-2.89-8.56-6.15-12.97-8.99-.4-.26-.85-.67-1.32-.69l-36.81,7.18v50.62ZM4.45,127.86l4.96-10.32c-.07-12.7-.87-25.34-1.1-38.07l-.53-1.76-4.4-9.52,1.07,59.67ZM63,76.65l-36.94-7.17-14.69,9.64c.37,12.61.77,25.16,1.29,37.74l13.75,13.37,36.16-3.23.43-50.35ZM153.42,90.28l-2.57-14.85-16.06-.04-2.89,14.75,21.53.14ZM220.88,76.22l-46.22,17.71-.15,16.51,46.37,14.55v-48.77ZM131.32,76.37l-10.62,3.8,8.25,8.24,2.37-12.05ZM165.19,81.53l-10.91-5.02,2.01,12.19,8.9-7.17ZM65.59,126.28l45.78-14.84.08-17.15-45.29-16.63-.57,48.63ZM126.59,90.42l-8.18-8.03-3.01,9.04,11.19-1ZM167.63,83.82l-8.61,6.74,11.48.57-2.87-7.31ZM153.57,93.15h-21.89l-.36,20.8h22.25v-20.8ZM114.67,94.58v16.64l13.5,2.23.13-12.64.15-7.52-13.78,1.29ZM171.36,94.29l-14.64-1v20.22l14.64-3.01v-16.21ZM233.94,153.96l-12.64-25.6-47.48-14.7-4.04,11.1,64.16,29.19ZM170.5,113.8l-11.77,2.51,8.32,6.53,3.45-9.04ZM53.82,153.96l62.86-29.91-4.38-9.54-.22-.08-46.89,15.18-11.37,24.35ZM126.15,116.39l-10.33-1.87,3.44,7.6,6.89-5.74ZM153.42,116.96h-21.67l2.95,13.35h17.14s1.58-13.35,1.58-13.35ZM128.88,118.39l-7.17,6.02,9.47,4.59-2.3-10.61ZM155,129.29l9.61-4.23-8.11-6.52-1.5,10.75ZM262.36,149.81l21.08-15.73-7.02-13.96c-4.41,4.06-8.71,8.27-12.98,12.48l-1.08,17.21ZM25.26,149.66c-.32-5.75-.46-11.49-.93-17.21l-12.77-12.2-6.66,13.82,20.37,15.58ZM238.11,155.53l21.02-3.85,1.15-18.37-35.1-4.3,12.93,26.53ZM61.43,130.16l-33.74,3.07.79,18.45,21.18,3.8,11.77-25.33Z" fill="#fff"/>
    <path d="M244.08,13.6V.17h4.8v20.39l-4.8,1.33-10.32-13.81v13.43h-4.8V1.13c1.28.12,3.95-1.65,4.94-.98l10.18,13.45Z" fill="#fff"/>
    <path d="M0,21.52V.17h9.72c2.22,0,4.91,2.41,5.16,4.68.29,2.63-.52,3.88-2.16,5.75,3.81,2.35,3.58,8.09-.47,10.09-.37.18-2.03.83-2.29.83H0ZM4.56,8.57h4.2c.07,0,.96-.73,1.05-.86.57-.87.47-2.27-.32-2.98-.88-.79-3.99-1.06-4.93-.35v4.2ZM4.56,12.76v4.56c1.02.65,3.47.47,4.56,0,2.01-.86,2-3.7-.02-4.54-.74-.31-4.31-.76-4.54-.02Z" fill="#fff"/>
    <path d="M104.16,21.52V.17h9.72c2.22,0,4.91,2.41,5.16,4.68.29,2.63-.52,3.88-2.16,5.75,3.81,2.35,3.58,8.09-.47,10.09-.37.18-2.03.83-2.29.83h-9.96ZM108.72,8.57h4.2c.07,0,.96-.73,1.05-.86.57-.87.47-2.27-.32-2.98-.88-.79-3.99-1.06-4.93-.35v4.2ZM108.72,12.76v4.56c1.02.65,3.47.47,4.56,0,2.01-.86,2-3.7-.02-4.54-.74-.31-4.31-.76-4.54-.02Z" fill="#fff"/>
    <path d="M79.8.17c5.56.75,8.18,7.72,4.2,11.63-.42.41-1.69.91-1.69,1.43l4.09,6.36-3.93,2.39-5.47-8.09-2.35-.05v7.68h-4.8V.17c3.1.3,6.95-.41,9.96,0ZM74.64,9.52h4.44c.85,0,1.98-1.57,1.96-2.48s-1.09-2.56-1.96-2.56h-4.44v5.04Z" fill="#fff"/>
    <path d="M179.88.17c5.56.75,8.18,7.72,4.2,11.63-.42.41-1.69.91-1.69,1.43l4.09,6.36-3.93,2.39-5.47-8.09-2.35-.05v7.68h-4.8V.17c3.1.3,6.95-.41,9.96,0ZM174.72,9.52h4.44c.85,0,1.98-1.57,1.96-2.48s-1.09-2.56-1.96-2.56h-4.44v5.04Z" fill="#fff"/>
    <path d="M279.09.2l7.95,20.11-4.56,1.68-1.91-5.17-8.2.04-1.9,5.13-4.56-1.68L273.87.2h5.22ZM278.88,12.64l-2.16-6.48c-.35.02-.37.37-.48.59-.89,1.75-1.48,4.02-2.15,5.88h4.8Z" fill="#fff"/>
    <path d="M44.61.2l7.95,20.11-4.56,1.68-1.91-5.17-8.2.04-1.9,5.13-4.56-1.68L39.39.2h5.22ZM44.4,12.64l-2.16-6.48c-.35.02-.37.37-.48.59-.89,1.75-1.48,4.02-2.15,5.88h4.8Z" fill="#fff"/>
    <polygon points="151.68 .17 151.68 4.25 142.56 4.25 142.56 8.81 150.72 8.81 150.72 12.64 142.56 12.64 142.56 17.2 151.68 17.2 151.68 21.52 137.76 21.52 137.76 .17 151.68 .17" fill="#fff"/>
    <rect x="204.72" y=".17" width="5.04" height="21.35" fill="#fff"/>
  </g>
</svg>