<?xml version="1.0" encoding="UTF-8" standalone="no"?>
<!DOCTYPE svg PUBLIC "-//W3C//DTD SVG 1.1//EN" "http://www.w3.org/Graphics/SVG/1.1/DTD/svg11.dtd">
<svg width="100%" height="100%" viewBox="0 0 218 45" version="1.1" xmlns="http://www.w3.org/2000/svg" xmlns:xlink="http://www.w3.org/1999/xlink" xml:space="preserve" xmlns:serif="http://www.serif.com/" style="fill-rule:evenodd;clip-rule:evenodd;stroke-linejoin:round;stroke-miterlimit:2;">
    <g transform="matrix(0.258823,0,0,0.258823,-21.2395,-21.5)">
        <path d="M230.819,224.536L215.723,224.536L215.723,181.906L173.002,138.693L130.245,181.906L130.245,224.522L115.185,224.522L115.185,178.887C115.186,176.899 115.953,174.988 117.327,173.551L167.596,122.65C169.062,121.293 170.986,120.539 172.984,120.539C174.982,120.539 176.906,121.293 178.373,122.65L228.641,173.446C230.01,174.888 230.787,176.793 230.819,178.781L230.819,224.536Z" style="fill:white;fill-rule:nonzero;"/>
        <path d="M200.67,224.536L185.61,224.536L185.61,194.874L173.043,181.71L160.476,194.874L160.476,224.536L145.381,224.536L145.381,188.906L173.043,159.84L200.67,188.906L200.67,224.536Z" style="fill:white;fill-rule:nonzero;"/>
        <path d="M238.37,254.69L107.642,254.69C101.643,254.69 95.89,252.309 91.644,248.071C87.399,243.832 85.009,238.082 85,232.084L85,172.933C85.041,166.947 87.422,161.214 91.635,156.961L156.999,91.597C161.248,87.372 166.996,85 172.988,85C178.981,85 184.729,87.372 188.978,91.597L254.342,156.961C258.554,161.214 260.936,166.947 260.977,172.933L260.977,232.083C260.967,238.076 258.582,243.821 254.345,248.058C250.107,252.296 244.362,254.68 238.37,254.69ZM173.006,100.057C171.005,100.061 169.087,100.856 167.67,102.268L102.306,167.632C100.899,169.039 100.105,170.944 100.095,172.933L100.095,232.083C100.095,233.075 100.29,234.056 100.669,234.972C101.048,235.887 101.604,236.719 102.305,237.42C103.006,238.121 103.838,238.677 104.754,239.056C105.67,239.436 106.651,239.631 107.642,239.631L238.37,239.631C240.365,239.622 242.276,238.822 243.684,237.408C245.092,235.994 245.882,234.079 245.882,232.084L245.882,172.933C245.872,170.944 245.078,169.039 243.67,167.632L178.307,102.268C177.612,101.569 176.787,101.013 175.877,100.633C174.967,100.254 173.992,100.058 173.006,100.057Z" style="fill:white;fill-rule:nonzero;"/>
        <path d="M368.344,136.824L368.344,151.382L329.78,151.382L329.78,172.881L364.198,172.881L364.198,187.407L329.941,187.407L329.941,209.902L368.505,209.902L368.505,224.556L314.74,224.556L314.74,136.824L368.344,136.824Z" style="fill:white;fill-rule:nonzero;"/>
        <path d="M373.614,204.18L387.496,204.18C388.011,209.74 393.474,213.371 400.609,213.371C407.743,213.371 411.761,210.414 411.761,205.98C411.761,192.354 375.06,203.408 375.06,179.274C375.06,168.219 384.252,159.799 399.034,159.799C412.146,159.799 423.587,166.805 425.001,179.66L410.474,179.66C409.795,177.166 408.236,175.001 406.087,173.566C403.937,172.131 401.341,171.522 398.777,171.85C393.088,171.85 389.136,174.325 389.136,178.278C389.136,191.132 425.964,179.338 425.964,205.786C425.964,217.227 415.455,225.775 401.444,225.775C385.826,225.84 374.932,217.806 373.614,204.18Z" style="fill:white;fill-rule:nonzero;"/>
        <path d="M457.81,174.844L457.81,200.553C457.666,202.13 457.883,203.718 458.444,205.199C459.004,206.679 459.894,208.013 461.045,209.099C462.197,210.185 463.58,210.996 465.09,211.469C466.601,211.943 468.199,212.067 469.765,211.833C471.333,211.86 472.899,211.687 474.424,211.319L474.424,224.559C471.864,225.075 469.259,225.333 466.647,225.33C452.636,225.33 443.284,216.75 443.284,200.682L443.284,174.972L431.233,174.972L431.233,161.089L443.284,161.089L443.284,144.089L457.81,144.089L457.81,161.089L474.424,161.089L474.424,174.844L457.81,174.844Z" style="fill:white;fill-rule:nonzero;"/>
        <path d="M545.706,161.085L545.706,224.555L531.308,224.555L531.308,215.974C528.981,219.132 525.924,221.678 522.398,223.396C518.873,225.114 514.983,225.953 511.062,225.84C506.873,225.71 502.752,224.746 498.94,223.004C495.128,221.262 491.701,218.777 488.861,215.695C486.021,212.612 483.825,208.994 482.4,205.053C480.976,201.111 480.352,196.925 480.565,192.739C480.354,188.562 480.981,184.384 482.408,180.453C483.835,176.521 486.035,172.915 488.876,169.846C491.718,166.777 495.144,164.307 498.954,162.582C502.765,160.856 506.881,159.91 511.062,159.799C514.983,159.686 518.873,160.525 522.398,162.243C525.924,163.961 528.981,166.508 531.308,169.665L531.308,161.085L545.706,161.085ZM531.308,202.605L531.308,183.163C529.505,180.206 526.969,177.765 523.946,176.076C520.922,174.387 517.514,173.507 514.051,173.522C508.937,173.522 504.032,175.553 500.416,179.169C496.8,182.785 494.769,187.69 494.769,192.804C494.769,197.918 496.8,202.822 500.416,206.438C504.032,210.054 508.937,212.086 514.051,212.086C517.492,212.084 520.878,211.214 523.894,209.557C526.911,207.9 529.461,205.509 531.308,202.605Z" style="fill:white;fill-rule:nonzero;"/>
        <path d="M580.318,174.844L580.318,200.553C580.175,202.13 580.392,203.718 580.952,205.199C581.513,206.679 582.402,208.013 583.554,209.099C584.705,210.185 586.088,210.996 587.599,211.469C589.109,211.943 590.708,212.067 592.273,211.833C593.842,211.86 595.408,211.687 596.933,211.319L596.933,224.559C594.373,225.079 591.768,225.337 589.156,225.33C575.144,225.33 565.793,216.75 565.793,200.682L565.793,174.972L553.741,174.972L553.741,161.089L565.793,161.089L565.793,144.089L580.318,144.089L580.318,161.089L596.933,161.089L596.933,174.844L580.318,174.844Z" style="fill:white;fill-rule:nonzero;"/>
        <path d="M667.025,197.56L618.498,197.56C619.106,201.967 621.359,205.98 624.805,208.794C628.251,211.608 632.633,213.013 637.073,212.728C644.85,212.728 650.956,209.097 652.242,203.666L666.703,203.666C664.389,217.003 652.306,225.84 636.752,225.84C632.37,225.897 628.022,225.071 623.967,223.411C619.912,221.75 616.233,219.29 613.149,216.177C610.066,213.063 607.641,209.361 606.02,205.29C604.399,201.219 603.615,196.863 603.715,192.482C603.663,188.176 604.473,183.902 606.097,179.914C607.722,175.925 610.127,172.302 613.172,169.256C616.218,166.211 619.841,163.806 623.83,162.182C627.819,160.557 632.092,159.747 636.398,159.799C640.538,159.754 644.644,160.547 648.469,162.13C652.295,163.713 655.76,166.053 658.657,169.01C661.554,171.967 663.823,175.48 665.327,179.337C666.832,183.194 667.54,187.315 667.41,191.453C667.426,193.495 667.298,195.536 667.025,197.56ZM651.727,185.219C651.021,181.556 648.995,178.279 646.033,176.01C643.071,173.742 639.38,172.639 635.659,172.911C631.851,172.662 628.076,173.758 624.992,176.007C621.909,178.256 619.713,181.517 618.787,185.219L651.727,185.219Z" style="fill:white;fill-rule:nonzero;"/>
        <path d="M740.617,160.956L740.617,226.077C740.617,243.849 726.863,255 708.705,255C696.108,255 677.95,249.44 677.05,230.995L691.577,230.995C691.962,238 699.354,242.05 708.191,242.05C710.445,242.248 712.715,241.983 714.862,241.271C717.01,240.559 718.988,239.415 720.677,237.91C722.366,236.405 723.729,234.57 724.682,232.518C725.635,230.467 726.159,228.242 726.22,225.981L726.22,214.818C723.849,217.912 720.777,220.4 717.257,222.076C713.737,223.752 709.87,224.568 705.973,224.459C697.728,223.985 689.976,220.376 684.306,214.371C678.636,208.366 675.477,200.42 675.477,192.161C675.477,183.903 678.636,175.956 684.306,169.952C689.976,163.947 697.728,160.337 705.973,159.864C709.874,159.73 713.749,160.536 717.273,162.214C720.797,163.892 723.865,166.392 726.22,169.505L726.22,160.956L740.617,160.956ZM726.22,201.705L726.22,182.424C724.377,179.525 721.825,177.145 718.805,175.509C715.785,173.872 712.397,173.033 708.963,173.072C706.417,172.966 703.877,173.376 701.494,174.278C699.112,175.179 696.936,176.553 695.097,178.316C693.259,180.08 691.796,182.197 690.797,184.54C689.798,186.883 689.283,189.405 689.283,191.952C689.283,194.499 689.798,197.021 690.797,199.364C691.796,201.707 693.259,203.824 695.097,205.588C696.936,207.352 699.112,208.725 701.494,209.626C703.877,210.528 706.417,210.938 708.963,210.832C712.365,210.854 715.719,210.032 718.725,208.439C721.731,206.846 724.295,204.533 726.187,201.705L726.22,201.705Z" style="fill:white;fill-rule:nonzero;"/>
        <path d="M811.796,195.216C811.925,199.19 811.254,203.149 809.822,206.859C808.391,210.569 806.228,213.953 803.462,216.81C800.696,219.667 797.384,221.939 793.723,223.49C790.062,225.042 786.126,225.841 782.15,225.841C778.173,225.841 774.238,225.042 770.576,223.49C766.915,221.939 763.603,219.667 760.838,216.81C758.072,213.953 755.909,210.569 754.477,206.859C753.046,203.149 752.374,199.19 752.503,195.216L752.503,161.086L767.03,161.086L767.03,195.216C767.03,205.467 772.878,211.959 782.231,211.959C791.582,211.959 797.398,205.531 797.398,195.216L797.398,161.086L811.796,161.086L811.796,195.216Z" style="fill:white;fill-rule:nonzero;"/>
        <path d="M860.549,160.83L860.549,174.456C857.94,173.673 855.238,173.241 852.515,173.171C849.27,173.512 846.171,174.697 843.527,176.608C840.882,178.519 838.785,181.09 837.444,184.065L837.444,224.557L823.046,224.557L823.046,161.087L837.444,161.087L837.444,169.796C839.08,166.891 841.428,164.45 844.267,162.702C847.105,160.953 850.342,159.955 853.673,159.802C856.01,159.701 858.344,160.05 860.549,160.83Z" style="fill:white;fill-rule:nonzero;"/>
        <path d="M927.878,195.087C928.007,199.061 927.336,203.021 925.905,206.731C924.473,210.441 922.31,213.825 919.545,216.682C916.779,219.539 913.467,221.811 909.806,223.363C906.144,224.914 902.209,225.714 898.232,225.714C894.256,225.714 890.32,224.914 886.659,223.363C882.997,221.811 879.685,219.539 876.92,216.682C874.154,213.825 871.991,210.441 870.559,206.731C869.128,203.021 868.457,199.061 868.586,195.087L868.586,160.958L883.112,160.958L883.112,195.087C883.112,205.339 888.961,211.83 898.312,211.83C907.664,211.83 913.48,205.402 913.48,195.087L913.48,160.958L927.878,160.958L927.878,195.087Z" style="fill:white;fill-rule:nonzero;"/>
    </g>
</svg>
