<?xml version="1.0" encoding="UTF-8"?>
<svg id="Layer_2" data-name="Layer 2" xmlns="http://www.w3.org/2000/svg" viewBox="0 0 429.27 109.14">
  <g id="Layer_1-2" data-name="Layer 1">
    <g>
      <path d="M.19,47.14c.44-3.93,3.17-11.85,4.82-15.68C18.51.06,57.65-5.21,87.08,4.21l-3,15.85c-9.09-1.11-16.82-4.36-26.46-3.96-49.24,2.08-46.32,71.33-7.84,75.92,6.27.75,17.1,1.14,22.38-2.39v-34.5h18.99v46.5c-.95,1.41-2.01,1.89-3.53,2.47-5.09,1.96-18.9,4.55-24.46,5.03h-13.99c-12.38-2.43-23.32-4.86-33-13.49S3.02,76,.19,64.14c.44-5.44-.6-11.68,0-17Z" fill="#fff"/>
      <polygon points="99.15 107.14 136.74 2.08 162.02 2.24 197.1 107.14 177.61 107.14 148.63 18.13 118.64 107.14 99.15 107.14" fill="#fff"/>
    </g>
    <g>
      <path d="M262.23,43.24c-2.34.84-6.96,2.22-12.42,2.22-6.12,0-11.16-1.56-15.12-5.34-3.48-3.36-5.64-8.76-5.64-15.06.06-12.06,8.34-20.88,21.9-20.88,4.68,0,8.34,1.02,10.08,1.86l-1.26,4.26c-2.16-.96-4.86-1.74-8.94-1.74-9.84,0-16.26,6.12-16.26,16.26s6.18,16.32,15.6,16.32c3.42,0,5.76-.48,6.96-1.08v-12.06h-8.22v-4.2h13.32v19.44Z" fill="#fff"/>
      <path d="M269.73,2.44h5.28v42.6h-5.28V2.44Z" fill="#fff"/>
      <path d="M289.47,7.84c.06,1.8-1.26,3.24-3.36,3.24-1.86,0-3.18-1.44-3.18-3.24s1.38-3.3,3.3-3.3,3.24,1.44,3.24,3.3ZM283.59,45.04V16h5.28v29.04h-5.28Z" fill="#fff"/>
      <path d="M302.55,29.32h.12c.72-1.02,1.74-2.28,2.58-3.3l8.52-10.02h6.36l-11.22,11.94,12.78,17.1h-6.42l-10.02-13.92-2.7,3v10.92h-5.22V2.44h5.22v26.88Z" fill="#fff"/>
      <path d="M326.19,23.86c0-3-.06-5.46-.24-7.86h4.62l.24,4.68h.18c1.62-2.76,4.32-5.34,9.12-5.34,3.96,0,6.96,2.4,8.22,5.82h.12c.9-1.62,2.04-2.88,3.24-3.78,1.74-1.32,3.66-2.04,6.42-2.04,3.84,0,9.54,2.52,9.54,12.6v17.1h-5.16v-16.44c0-5.58-2.04-8.94-6.3-8.94-3,0-5.34,2.22-6.24,4.8-.24.72-.42,1.68-.42,2.64v17.94h-5.16v-17.4c0-4.62-2.04-7.98-6.06-7.98-3.3,0-5.7,2.64-6.54,5.28-.3.78-.42,1.68-.42,2.58v17.52h-5.16v-21.18Z" fill="#fff"/>
      <path d="M392.01,45.04l-.42-3.66h-.18c-1.62,2.28-4.74,4.32-8.88,4.32-5.88,0-8.88-4.14-8.88-8.34,0-7.02,6.24-10.86,17.46-10.8v-.6c0-2.4-.66-6.72-6.6-6.72-2.7,0-5.52.84-7.56,2.16l-1.2-3.48c2.4-1.56,5.88-2.58,9.54-2.58,8.88,0,11.04,6.06,11.04,11.88v10.86c0,2.52.12,4.98.48,6.96h-4.8ZM391.23,30.22c-5.76-.12-12.3.9-12.3,6.54,0,3.42,2.28,5.04,4.98,5.04,3.78,0,6.18-2.4,7.02-4.86.18-.54.3-1.14.3-1.68v-5.04Z" fill="#fff"/>
      <path d="M404.55,23.86c0-3-.06-5.46-.24-7.86h4.68l.3,4.8h.12c1.44-2.76,4.8-5.46,9.6-5.46,4.02,0,10.26,2.4,10.26,12.36v17.34h-5.28v-16.74c0-4.68-1.74-8.58-6.72-8.58-3.48,0-6.18,2.46-7.08,5.4-.24.66-.36,1.56-.36,2.46v17.46h-5.28v-21.18Z" fill="#fff"/>
      <path d="M237.99,94.32l-4.2,12.72h-5.4l13.74-40.44h6.3l13.8,40.44h-5.58l-4.32-12.72h-14.34ZM251.25,90.24l-3.96-11.64c-.9-2.64-1.5-5.04-2.1-7.38h-.12c-.6,2.4-1.26,4.86-2.04,7.32l-3.96,11.7h12.18Z" fill="#fff"/>
      <path d="M267.51,64.44h5.28v42.6h-5.28v-42.6Z" fill="#fff"/>
      <path d="M283.41,78l5.7,16.32c.96,2.64,1.74,5.04,2.34,7.44h.18c.66-2.4,1.5-4.8,2.46-7.44l5.64-16.32h5.52l-11.4,29.04h-5.04l-11.04-29.04h5.64Z" fill="#fff"/>
      <path d="M315.81,69.84c.06,1.8-1.26,3.24-3.36,3.24-1.86,0-3.18-1.44-3.18-3.24s1.38-3.3,3.3-3.3,3.24,1.44,3.24,3.3ZM309.93,107.04v-29.04h5.28v29.04h-5.28Z" fill="#fff"/>
      <path d="M323.67,85.86c0-3-.06-5.46-.24-7.86h4.68l.3,4.8h.12c1.44-2.76,4.8-5.46,9.6-5.46,4.02,0,10.26,2.4,10.26,12.36v17.34h-5.28v-16.74c0-4.68-1.74-8.58-6.72-8.58-3.48,0-6.18,2.46-7.08,5.4-.24.66-.36,1.56-.36,2.46v17.46h-5.28v-21.18Z" fill="#fff"/>
    </g>
  </g>
</svg>