<?xml version="1.0" encoding="UTF-8"?>
<svg id="Layer_2" data-name="Layer 2" xmlns="http://www.w3.org/2000/svg" viewBox="0 0 1093.59 397.33">
  <g id="Layer_1-2" data-name="Layer 1">
    <g>
      <path d="M609.03,4.29c21.26.85,43.37-1.13,64.54-.04,39.02,2,71.16,22.61,63.21,66.29-5,27.45-23.73,35.63-47.3,42.72-1.12.34-1.77-.65-1.43,1.51l64.98,91.52h-31l-63.5-89h-23.5v89h-26V4.29ZM635.03,102.29h38.5c40.86,0,48.01-65.33,16.19-79.19-3.45-1.5-12.73-3.81-16.19-3.81h-38.5v83Z" fill="#fff"/>
      <polygon points="25.03 5.29 25.03 93.29 130.03 93.29 130.03 5.29 156.03 5.29 156.03 206.29 130.03 206.29 130.03 109.29 25.03 109.29 25.03 206.29 .03 206.29 .03 5.29 25.03 5.29" fill="#fff"/>
      <path d="M384.03,206.29L462.8,2.57c1.37-3.59,5.63-1.99,8.78-2.34l83.44,206.06h-28l-25.11-66.88-73.43-.19-26.46,67.07h-18ZM495.03,123.29l-30.01-79-30.99,79h61Z" fill="#fff"/>
      <path d="M1072.04,45.29c-8.83-30.33-61.37-44.24-73.79-10.27-15.32,41.91,46.1,55.24,70.69,73.86,43.71,33.1,26.07,93.79-27.54,100.29-27.09,3.28-52.2-4.81-68.79-26.96-1.83-2.45-8.57-11.07-6.68-13.46.87-1.1,12.1-8.31,13.08-7.45,3.96,10.53,13.55,20.46,23.34,26.17,26.18,15.24,66.82,6.2,65.59-29.5-1.71-49.62-93.82-40.25-97.9-101.18-4.47-66.62,94.71-76.35,116.89-19.97l-14.89,8.48Z" fill="#fff"/>
      <polygon points="337.03 4.29 337.03 20.29 248.03 20.29 248.03 92.29 321.03 92.29 321.03 107.29 248.03 107.29 248.03 191.29 343.03 191.29 343.03 206.29 222.03 206.29 222.03 4.29 337.03 4.29" fill="#fff"/>
      <polygon points="931.03 4.29 931.03 18.79 929.53 19.91 871.03 19.29 871.03 206.29 844.03 206.29 844.03 19.29 783.03 20.29 783.03 4.29 931.03 4.29" fill="#fff"/>
      <path d="M510.03,275.29l-.44,3.06-3.01.99c-165.44-3.47-332.94,4.81-498.05-.85-3.37-.12-8.97,3.43-8.5-3.2h510Z" fill="#fff"/>
      <polygon points="1093.03 275.29 1092.58 278.35 1089.58 279.35 611.58 279.32 607.03 278.28 608.03 275.29 1093.03 275.29" fill="#fff"/>
      <path d="M561.36,262.63c8.97-8.82,26.13.64,19.83,14.34-1.92,4.17-17.06,19.78-21.14,22.88-.74.56-1.19,1.51-2.35,1.3-2.71-.24-22.9-21.17-24.39-24.63-6.3-14.65,18.1-25.3,24.22-8.24.88-.01,2.81-4.64,3.83-5.65Z" fill="#fff"/>
      <path d="M518.9,343.42l12.63,42.88,12.6-42.91,5.86-.05,11.05,41.95c2.16-.9,2.64-4.19,3.27-6.22,3.66-11.72,6.07-23.98,9.82-35.68l5.9-.1-15.14,52.85-5.76.04-11.11-40.89c-2.65-.3-1.58.06-2.01,1.48-3.9,12.82-7.12,25.86-11.47,38.53-1.29,1.55-4.74,1.55-6.03,0l-15.49-52.01,5.87.13Z" fill="#fff"/>
      <path d="M146.03,343.29l5.48,1.02,26.55,37.45c4.57,4.07.97-.07.97-.97v-37.5h7s0,53,0,53l-6.52-.99-27.48-39.02v40h-6v-53Z" fill="#fff"/>
      <path d="M971.53,343.29c17.4,2.45,17.6,24.59,1.48,28.52l14.01,24.48-7.84-.16c-2.28-3.2-11.28-21.24-13.14-22.36-.99-.6-9.03-1.66-10.02.02v22.5h-6v-53c6.72.67,15.01-.91,21.5,0ZM956.03,349.79v17c.91,1.36,2.35,1.25,3.73,1.25,7.5-.02,18.36-.1,18.36-10.25,0-11.86-12.34-7.15-19.84-9.31l-2.26,1.31Z" fill="#fff"/>
      <polygon points="270.03 343.29 270.03 349.29 245.03 349.29 245.03 366.29 264.03 366.29 264.03 371.29 245.03 371.29 245.03 391.29 270.03 391.29 270.03 396.29 239.03 396.29 239.03 343.29 270.03 343.29" fill="#fff"/>
      <polygon points="468.03 343.29 468.03 349.29 443.03 349.29 443.03 366.29 461.03 366.29 460.87 370.63 459.4 372.22 443.03 371.29 443.03 391.29 468.03 391.29 468.03 396.29 437.03 396.29 437.03 343.29 468.03 343.29" fill="#fff"/>
      <path d="M900.03,343.29v6h-25v17h18v6c-1.4.59-2.99-1-3.5-1h-14.5v20h25v5h-31v-53h31Z" fill="#fff"/>
      <polygon points="659.03 343.29 659.03 349.29 634.03 349.29 634.03 366.29 653.03 366.29 653.03 372.3 634.03 371.29 634.03 389.79 635.53 391.29 659.03 391.29 659.03 396.29 629.03 396.29 629.03 343.29 659.03 343.29" fill="#fff"/>
      <polygon points="35.03 343.29 35.03 349.29 10.03 349.29 10.03 367.29 29.03 367.29 29.03 372.29 10.03 372.29 10.03 396.29 4.03 396.29 4.03 343.29 35.03 343.29" fill="#fff"/>
      <polygon points="1046.03 373.79 1029.03 343.3 1036.54 344.28 1049.04 368.29 1063.17 343.45 1071.02 343.79 1053.03 373.79 1053.03 396.29 1046.03 396.29 1046.03 373.79" fill="#fff"/>
      <polygon points="795.03 343.29 795.03 391.29 820.03 391.29 820.03 396.29 789.03 396.29 789.03 343.29 795.03 343.29" fill="#fff"/>
      <path d="M716.03,343.29v48h22.5c.21,0,1.14-1.5,1.49-1v6s-29.99,0-29.99,0v-53h6Z" fill="#fff"/>
      <path d="M384.03,343.29v42.5c0,5.8-8.76,11.66-14.45,11.54-4.92-.11-12.9-1.96-9.53-8.03,1.02-.94,11.14,5.21,15.69-.29.38-.46,2.29-4.93,2.29-5.22v-40.5h6Z" fill="#fff"/>
      <rect x="85.03" y="343.29" width="6" height="53" fill="#fff"/>
    </g>
  </g>
</svg>