<?xml version="1.0" encoding="UTF-8"?>
<svg id="Layer_2" data-name="Layer 2" xmlns="http://www.w3.org/2000/svg" viewBox="0 0 351.09 377.79">
  <g id="a">
    <g id="b">
      <polygon id="c" points="351.09 297.5 322.41 248.9 200.77 248.9 146.89 248.9 146.85 248.9 146.85 248.83 127.1 214.62 79.25 297.5 351.09 297.5" fill="#fff"/>
      <polygon id="e" points="146.79 155.57 146.87 155.62 146.89 155.57 186.38 155.57 135.62 67.66 0 297.5 64.85 297.5 146.79 155.57" fill="#fff"/>
      <polygon id="f" points="227.71 202.23 227.71 202.23 227.71 202.24 207.97 236.43 315.05 236.43 175.54 0 142.9 55.33 227.71 202.23" fill="#fff"/>
    </g>
    <path d="M4.41,331.53h10.94v45.64H4.41v-45.64h0Z" fill="#fff"/>
    <path d="M49.04,331.53h12.16l-16.98,21.94,18.2,23.77h-12.16l-14.4-18.81-.14,18.81h-10.87v-45.71l10.87.07v17.66l13.31-17.73h0Z" fill="#fff"/>
    <path d="M111.12,354.36c0,3.26-.61,6.31-1.83,9.13-1.22,2.83-2.9,5.31-5.03,7.44s-4.61,3.8-7.44,5.03c-2.83,1.22-5.88,1.83-9.14,1.83s-6.31-.61-9.14-1.83-5.31-2.9-7.44-5.03c-2.13-2.13-3.8-4.61-5.03-7.44-1.22-2.83-1.83-5.88-1.83-9.13s.61-6.31,1.83-9.14,2.9-5.31,5.03-7.44,4.61-3.8,7.44-5.03c2.83-1.22,5.88-1.83,9.14-1.83s6.31.61,9.14,1.83,5.31,2.9,7.44,5.03c2.13,2.13,3.8,4.61,5.03,7.44,1.22,2.83,1.83,5.88,1.83,9.14ZM100.32,354.36c0-1.86-.31-3.6-.92-5.23s-1.48-3.06-2.61-4.28-2.47-2.18-4.01-2.89c-1.54-.7-3.24-1.05-5.09-1.05s-3.56.35-5.09,1.05c-1.54.7-2.88,1.66-4.01,2.89-1.13,1.22-2,2.65-2.61,4.28s-.92,3.37-.92,5.23.31,3.6.92,5.23,1.48,3.06,2.61,4.28,2.47,2.19,4.01,2.89,3.24,1.05,5.09,1.05,3.55-.35,5.09-1.05c1.54-.7,2.88-1.66,4.01-2.89,1.13-1.22,2-2.65,2.61-4.28s.92-3.37.92-5.23Z" fill="#fff"/>
    <path d="M157.65,354.42c0,3.62-.62,6.85-1.87,9.68s-2.92,5.22-5.03,7.17-4.56,3.43-7.37,4.45c-2.81,1.02-5.8,1.53-8.97,1.53h-16.71v-45.71h17.12c3.12,0,6.08.48,8.86,1.43,2.78.95,5.21,2.39,7.27,4.31,2.06,1.92,3.69,4.31,4.89,7.17,1.2,2.85,1.8,6.18,1.8,9.98h0ZM146.64,354.15c0-1.77-.34-3.43-1.02-4.99-.68-1.56-1.6-2.92-2.75-4.08-1.15-1.16-2.52-2.07-4.11-2.75s-3.26-1.02-5.03-1.02h-5.16l-.27,25.74h5.03c1.77,0,3.45-.34,5.06-1.02s3.02-1.6,4.25-2.75c1.22-1.16,2.2-2.52,2.92-4.11.72-1.58,1.09-3.26,1.09-5.03h0Z" fill="#fff"/>
    <path d="M208.32,354.36c0,3.26-.61,6.31-1.83,9.13-1.22,2.83-2.9,5.31-5.03,7.44s-4.61,3.8-7.44,5.03c-2.83,1.22-5.88,1.83-9.14,1.83s-6.31-.61-9.14-1.83-5.31-2.9-7.44-5.03-3.8-4.61-5.03-7.44c-1.22-2.83-1.83-5.88-1.83-9.13s.61-6.31,1.83-9.14,2.9-5.31,5.03-7.44,4.61-3.8,7.44-5.03c2.83-1.22,5.88-1.83,9.14-1.83s6.31.61,9.14,1.83,5.31,2.9,7.44,5.03,3.8,4.61,5.03,7.44,1.83,5.88,1.83,9.14ZM197.52,354.36c0-1.86-.3-3.6-.92-5.23s-1.48-3.06-2.62-4.28c-1.13-1.22-2.47-2.18-4.01-2.89-1.54-.7-3.24-1.05-5.09-1.05s-3.56.35-5.09,1.05c-1.54.7-2.88,1.66-4.01,2.89-1.13,1.22-2,2.65-2.61,4.28s-.92,3.37-.92,5.23.31,3.6.92,5.23,1.48,3.06,2.61,4.28,2.47,2.19,4.01,2.89,3.24,1.05,5.09,1.05,3.55-.35,5.09-1.05c1.54-.7,2.88-1.66,4.01-2.89,1.13-1.22,2-2.65,2.62-4.28s.92-3.37.92-5.23Z" fill="#fff"/>
    <path d="M247.1,335.06l1.36-3.46h13.45l.07,45.64h-10.94v-17.52l.14-7h-.07l-10.73,24.59h-4.01l-10.73-24.59h-.2l.14,7v17.52l-10.94-.07v-45.58h13.65l1.36,3.46,7.74,18.2.75,1.7h.48l.75-1.7,7.74-18.2h-.01Z" fill="#fff"/>
    <path d="M315.29,354.36c0,3.26-.61,6.31-1.83,9.13-1.22,2.83-2.9,5.31-5.03,7.44s-4.61,3.8-7.44,5.03c-2.83,1.22-5.88,1.83-9.14,1.83s-6.31-.61-9.14-1.83c-2.83-1.22-5.31-2.9-7.44-5.03s-3.8-4.61-5.03-7.44c-1.22-2.83-1.83-5.88-1.83-9.13s.61-6.31,1.83-9.14,2.9-5.31,5.03-7.44,4.61-3.8,7.44-5.03c2.83-1.22,5.88-1.83,9.14-1.83s6.3.61,9.14,1.83c2.83,1.22,5.31,2.9,7.44,5.03s3.8,4.61,5.03,7.44,1.83,5.88,1.83,9.14ZM304.5,354.36c0-1.86-.31-3.6-.92-5.23s-1.48-3.06-2.62-4.28c-1.13-1.22-2.47-2.18-4.01-2.89-1.54-.7-3.24-1.05-5.09-1.05s-3.56.35-5.09,1.05c-1.54.7-2.88,1.66-4.01,2.89-1.13,1.22-2,2.65-2.62,4.28s-.92,3.37-.92,5.23.31,3.6.92,5.23,1.48,3.06,2.62,4.28c1.13,1.22,2.47,2.19,4.01,2.89s3.24,1.05,5.09,1.05,3.55-.35,5.09-1.05c1.54-.7,2.88-1.66,4.01-2.89,1.13-1.22,2-2.65,2.62-4.28s.92-3.37.92-5.23Z" fill="#fff"/>
    <path d="M335.2,340.84c-1.4,0-2.49.34-3.26,1.02-.77.68-1.21,1.46-1.33,2.34-.11.88.08,1.77.58,2.65s1.31,1.55,2.44,2c1.77.72,3.54,1.35,5.33,1.87,1.79.52,3.38,1.22,4.79,2.11,1.4.88,2.55,2.11,3.43,3.67.88,1.56,1.33,3.75,1.33,6.55,0,1.59-.23,3.22-.68,4.89-.45,1.68-1.29,3.2-2.51,4.58-1.22,1.38-2.93,2.51-5.13,3.4s-5.02,1.32-8.46,1.32l-11.48-.07.07-9.17h9.85c1.95,0,3.43-.23,4.45-.68,1.02-.45,1.75-.98,2.21-1.57.5-.68.75-1.45.75-2.31,0-1.45-.42-2.56-1.26-3.33s-1.89-1.41-3.16-1.9c-1.27-.5-2.65-.98-4.14-1.43-1.49-.45-2.88-1.11-4.14-1.97-1.27-.86-2.32-2.04-3.16-3.54s-1.26-3.54-1.26-6.12.48-4.75,1.43-6.5c.95-1.75,2.12-3.14,3.5-4.19,1.38-1.04,2.85-1.78,4.42-2.21,1.56-.43,2.93-.65,4.11-.65h12.7v9.24h-11.42Z" fill="#fff"/>
  </g>
</svg>