<?xml version="1.0" encoding="UTF-8"?>
<svg id="Layer_1" xmlns="http://www.w3.org/2000/svg" version="1.1" viewBox="0 0 182 65">
  <!-- Generator: Adobe Illustrator 29.8.2, SVG Export Plug-In . SVG Version: 2.1.1 Build 3)  -->
  <defs>
    <style>
      .st0 {
        fill: #fff;
      }
    </style>
  </defs>
  <path class="st0" d="M43.2,22.1c-3.1,0-5.7,1-7.7,3l.3-1.9c0-.1,0-.2,0-.3,0,0-.2-.1-.3-.1h-5.3c-.2,0-.3.1-.4.3l-4.4,24.6c0,.1,0,.2,0,.3,0,0,.2.1.3.1h5.3c.2,0,.3-.1.4-.3l2.3-13.2c.8-4.3,3.4-6.8,7.1-6.8s2.7.4,3.5,1.3c.8.9,1,2.3.7,4l-2.6,14.6c0,.1,0,.2,0,.3,0,0,.2.1.3.1h5.3c.2,0,.3-.1.4-.3l2.7-15.1c.6-3.3,0-6-1.5-7.9-1.4-1.7-3.7-2.6-6.5-2.6h0ZM22.9,20c1,0,1.9-.4,2.6-1.1.7-.7,1.1-1.7,1.1-2.7,0-1-.4-1.9-1.1-2.6-.7-.7-1.7-1.1-2.7-1.1s-2,.4-2.7,1.1c-1.5,1.5-1.5,3.8,0,5.3.7.7,1.7,1.1,2.7,1.1ZM24.5,22.8h-5.3c-.2,0-.3.1-.4.3l-4.4,24.6c0,.1,0,.2,0,.3,0,0,.2.1.3.1h5.3c.2,0,.3-.1.4-.3l4.4-24.6c0-.1,0-.2,0-.3,0,0-.2-.1-.3-.1ZM85.2,22.1c-3.4,0-6.2,1.2-8.3,3.5v-12.3c0-.2-.2-.4-.4-.4h-5.3c-.2,0-.4.2-.4.4v34.5c0,.2.2.4.4.4h5.3c.2,0,.4-.2.4-.4v-2.5c2,2.3,4.8,3.5,8.3,3.5s6.4-1.3,8.9-3.9c2.5-2.6,3.7-5.7,3.7-9.5s-1.2-6.9-3.7-9.5c-2.5-2.6-5.4-3.9-8.9-3.9h0ZM89.6,40.8c-1.4,1.4-3.2,2.1-5.3,2.1s-3.9-.7-5.3-2.1c-1.4-1.5-2.1-3.2-2.1-5.4s.7-4,2.1-5.4c1.4-1.4,3.2-2.2,5.3-2.2s3.9.7,5.3,2.2c1.4,1.4,2.1,3.2,2.1,5.4s-.7,3.9-2.1,5.4h0ZM127,22.8h-5.3c-.2,0-.4.2-.4.4v2.5c-2-2.3-4.8-3.5-8.3-3.5s-6.4,1.3-8.9,3.9c-2.5,2.6-3.7,5.7-3.7,9.5s1.2,6.9,3.7,9.5c2.5,2.6,5.4,3.9,8.9,3.9s6.2-1.2,8.3-3.5v2.5c0,.2.2.4.4.4h5.3c.2,0,.4-.2.4-.4v-24.6c0-.2-.2-.4-.4-.4h0ZM119.2,40.8c-1.4,1.4-3.2,2.1-5.3,2.1s-3.9-.7-5.3-2.1c-1.4-1.5-2.1-3.2-2.1-5.4s.7-4,2.1-5.4c1.4-1.4,3.2-2.2,5.3-2.2s3.9.7,5.3,2.2c1.4,1.4,2.1,3.2,2.1,5.4s-.7,3.9-2.1,5.4h0ZM145.4,22.1c-3.1,0-5.6,1-7.3,3.1v-2c0-.2-.2-.4-.4-.4h-5.3c-.2,0-.4.2-.4.4v24.6c0,.2.2.4.4.4h5.3c.2,0,.4-.2.4-.4v-13.2c0-4.3,2.1-6.7,5.9-6.7s5.2,1.9,5.2,5.3v14.6c0,.2.2.4.4.4h5.3c.2,0,.4-.2.4-.4v-15.1c0-6.4-3.9-10.5-9.8-10.5h0ZM32.1,0C19.5,0,12,2.1,7,7,2.1,12,0,19.5,0,32.1s2.1,20.2,7,25.1c4.9,4.9,12.4,7,25.1,7s20.2-2.1,25.1-7c4.9-4.9,7-12.4,7-25.1s-2.1-20.2-7-25.1C52.3,2.1,44.8,0,32.1,0ZM52.9,52.9c-3.6,3.6-10.1,5.3-20.8,5.3s-17.2-1.6-20.8-5.3c-3.6-3.6-5.3-10.1-5.3-20.8s1.6-17.2,5.3-20.8c3.6-3.6,10.1-5.3,20.8-5.3s17.2,1.6,20.8,5.3c3.6,3.6,5.3,10.1,5.3,20.8s-1.6,17.2-5.3,20.8ZM181.9,47.5l-11-12.3,10.6-11.8c0-.1.1-.3,0-.4,0-.1-.2-.2-.3-.2h-6.5c-.1,0-.2,0-.3.1l-8.9,10.2V13.3c0-.2-.2-.4-.4-.4h-5.3c-.2,0-.4.2-.4.4v34.5c0,.2.2.4.4.4h5.3c.2,0,.4-.2.4-.4v-10.4l9.5,10.7c0,0,.2.1.3.1h6.4c.1,0,.3,0,.3-.2,0-.1,0-.3,0-.4h0Z"/>
</svg>