<?xml version="1.0" encoding="UTF-8"?>
<svg id="Layer_2" data-name="Layer 2" xmlns="http://www.w3.org/2000/svg" viewBox="0 0 700.8 195.53">
  <g id="Layer_1-2" data-name="Layer 1">
    <g>
      <path d="M700.8,126.2l-15.38,2.91c-32.19,4.67-64.59,8.77-97.09,9.71-7.96.23-17.41-.88-24.98-.25-14.11,1.17-30.9,5.75-45.33,7.94-53.11,8.06-103.55,10.58-157.1,4.28-81.26-9.56-161.17-31.91-243.63-29.42-33.95,1.03-68.38,5.39-101.81,10.99-1.2.2-15.46,3.43-15.47,2.54,25.13-6.35,50.41-12.91,76.08-16.93,74.15-11.6,152.96-1.16,226.46,11.39,49.21,8.4,89.74,17.77,140.6,17.26,35.21-.36,78.72-1.51,113.28-7.3.71-.12,2.79-.18,2.78-1.11-25.03-.41-49.91-4.02-74.6-7.91-46.71-7.36-93.31-18.34-139.99-25.01-67.16-9.59-133.94-5.35-200.6,5.9l29.27-7.02c88.87-22.26,180.98-10.84,269.67,5.99,26.41,5.01,52.94,11.69,79.45,15.95,21.1,3.39,42.16,4.56,63.49,4.91,38.4.64,76.72-1.73,114.93-4.82Z" fill="#fff"/>
      <path d="M344.71.19c11.19,1.13,19.97,8.85,18.89,20.7-1.1,12.05-12.38,15.85-22.79,16.8l30.6,33.9h-9.3l-29.7-33.6v33.6h-6.6V.19c6.07.45,12.93-.6,18.9,0ZM332.41,34.99h9.3c2.64,0,9.48-3.38,11.42-5.38,5.62-5.81,4.82-16.96-1.2-22.24-2.4-2.11-7.72-4.18-10.82-4.18h-8.7v31.8Z" fill="#fff"/>
      <path d="M248.41,70.69c.02.17.9.67.6.89l-5.88-.12L198.01,7.39v64.2s-3.61,0-3.61,0V.19s7.08.12,7.08.12l43.92,62.28V1.09c0-.13-.9-.68-.6-.89h3.6s0,70.49,0,70.49Z" fill="#fff"/>
      <path d="M289.75.25l26.46,71.33-8.12-.58-8.15-23.94-29.34.22-8.45,24.25-3.54.06L283.74.55l6.01-.29ZM298.2,44.59l-13.79-37.19-13.2,37.19h27Z" fill="#fff"/>
      <polygon points="486.01 28.99 487.71 28 503.7 .79 507.61 .2 488.54 32.19 511.21 71.59 503.5 71.5 483.91 39.19 465.04 70.73 460.81 71.59 482.41 35.86 462.61 .2 470.1 .8 486.01 28.99" fill="#fff"/>
      <polygon points="455.41 .19 455.41 3.79 429.01 3.19 429.01 32.89 429.99 33.66 455.41 33.19 455.41 36.19 429.01 36.19 429.01 67.99 455.4 67.39 455.41 71.59 422.41 71.59 422.41 .19 455.41 .19" fill="#fff"/>
      <path d="M386.41.19v67.8h24.3c.13,0,.68-.9.89-.6v4.2s-31.79,0-31.79,0V.19h6.6Z" fill="#fff"/>
    </g>
    <g>
      <path d="M191.5,194.51c-.09.18-.09.33-.12.75h-1.14c.18-.39.27-.57.36-.75l6.63-18.63c.06-.15.09-.3.15-.63h1.68c.03.21.06.36.12.51l6.9,18.75c.09.21.18.36.42.75h-2.25c-.03-.33-.03-.39-.18-.75l-2.19-6.03h-8.22l-2.16,6.03ZM201.55,187.67l-3.9-10.44-3.72,10.44h7.62Z" fill="#fff"/>
      <path d="M220.39,175.25c6.24,0,10.11,3.78,10.11,9.87,0,4.08-1.68,7.17-4.8,8.97-1.5.84-2.82,1.17-4.86,1.17h-5.64c.06-.45.09-.69.09-.96v-18.12c0-.24-.03-.48-.09-.93h5.19ZM220.72,194.12c2.1,0,3.54-.48,4.8-1.56,1.89-1.62,2.91-4.26,2.91-7.53,0-3.6-1.11-5.88-3.63-7.44-1.38-.9-2.88-1.29-4.8-1.29h-2.85v17.82h3.57Z" fill="#fff"/>
      <path d="M239.2,175.25c.03.24.06.36.21.78l6.06,17.37,6.12-17.46.15-.42.06-.27h1.02l-.09.21c-.09.21-.18.39-.24.57l-6.48,18.48-.09.39-.09.36h-1.65l-.09-.3-.18-.45-6.39-18.27c-.06-.18-.15-.39-.24-.6l-.15-.39h2.07Z" fill="#fff"/>
      <path d="M278.56,185.24c0,6.54-3.45,10.29-9.45,10.29s-9.57-3.72-9.57-10.47c0-3.06.9-5.7,2.58-7.47,1.65-1.74,3.93-2.61,6.93-2.61,6.06,0,9.51,3.72,9.51,10.26ZM261.61,185.09c0,6.18,2.61,9.45,7.47,9.45s7.41-3.33,7.41-9.3-2.64-9.27-7.53-9.27-7.35,3.36-7.35,9.12Z" fill="#fff"/>
      <path d="M290.41,194.33c0,.33.03.54.09.93h-2.04c.06-.45.09-.69.09-.93v-18.15c0-.24-.03-.48-.09-.93h2.04c-.06.39-.09.6-.09.93v7.92l7.2-8.34c.21-.21.24-.27.33-.51h1.38c-.39.3-.54.42-.69.6l-6.96,8.1,9.03,10.59c.12.15.27.3.42.48l.33.24h-2.73c-.12-.3-.15-.36-.39-.66l-7.92-9.36v9.09Z" fill="#fff"/>
      <path d="M308.68,194.51c-.09.18-.09.33-.12.75h-1.14c.18-.39.27-.57.36-.75l6.63-18.63c.06-.15.09-.3.15-.63h1.68c.03.21.06.36.12.51l6.9,18.75c.09.21.18.36.42.75h-2.25c-.03-.33-.03-.39-.18-.75l-2.19-6.03h-8.22l-2.16,6.03ZM318.73,187.67l-3.9-10.44-3.72,10.44h7.62Z" fill="#fff"/>
      <path d="M331.45,194.51c-.09.18-.09.33-.12.75h-1.14c.18-.39.27-.57.36-.75l6.63-18.63c.06-.15.09-.3.15-.63h1.68c.03.21.06.36.12.51l6.9,18.75c.09.21.18.36.42.75h-2.25c-.03-.33-.03-.39-.18-.75l-2.19-6.03h-8.22l-2.16,6.03ZM341.5,187.67l-3.9-10.44-3.72,10.44h7.62Z" fill="#fff"/>
      <path d="M360.34,175.25c6.24,0,10.11,3.78,10.11,9.87,0,4.08-1.68,7.17-4.8,8.97-1.5.84-2.82,1.17-4.86,1.17h-5.64c.06-.45.09-.69.09-.96v-18.12c0-.24-.03-.48-.09-.93h5.19ZM360.67,194.12c2.1,0,3.54-.48,4.8-1.56,1.89-1.62,2.91-4.26,2.91-7.53,0-3.6-1.11-5.88-3.63-7.44-1.38-.9-2.88-1.29-4.8-1.29h-2.85v17.82h3.57Z" fill="#fff"/>
      <path d="M382.63,175.25c-.06.33-.09.48-.09.93v18.15c0,.45.03.6.09.93h-2.04c.06-.45.09-.69.09-.93v-18.15c0-.24-.03-.48-.09-.93h2.04Z" fill="#fff"/>
      <path d="M398.95,175.25c3.81,0,5.94,1.74,5.94,4.86,0,1.74-.84,3.18-2.34,3.96-.57.3-.99.45-1.98.72.96.15,1.47.3,2.1.57,1.62.72,2.64,2.43,2.64,4.44,0,3.18-2.43,5.46-5.76,5.46h-5.79c.06-.39.09-.6.09-.96v-18.12c0-.36-.03-.57-.09-.93h5.19ZM397.51,184.4c3.72,0,5.46-1.41,5.46-4.44,0-2.55-1.47-3.81-4.44-3.81h-2.82v8.25h1.8ZM398.8,194.27c1.53,0,2.31-.21,3.12-.84.96-.75,1.47-1.95,1.47-3.45,0-1.74-.57-3-1.74-3.81-1.08-.75-1.98-.96-4.14-.96h-1.8v9.06h3.09Z" fill="#fff"/>
      <path d="M430.45,175.25c-.06.33-.09.51-.09.93v12.69c0,4.32-2.7,6.66-7.65,6.66-3.06,0-5.07-.87-6.33-2.76-.66-.99-1.02-2.25-1.02-3.51v-13.08c0-.24-.03-.48-.09-.93h2.04c-.06.39-.09.6-.09.93v12.93c0,3.42,2.25,5.49,6.03,5.49,3.99,0,6.27-2.19,6.27-6v-12.42c0-.36-.03-.57-.09-.93h1.02ZM421.57,172.46c0,.69-.57,1.2-1.38,1.2s-1.41-.51-1.41-1.2.6-1.2,1.41-1.2,1.38.51,1.38,1.2ZM427.57,172.4c0,.69-.57,1.2-1.38,1.2s-1.41-.51-1.41-1.2.6-1.2,1.41-1.2,1.38.51,1.38,1.2Z" fill="#fff"/>
      <path d="M443.17,194.33c0,.33.03.54.09.93h-2.04c.06-.45.09-.69.09-.93v-18.15c0-.24-.03-.48-.09-.93h4.35c3.84,0,6.39,2.07,6.39,5.22s-2.19,4.98-6.39,5.25l7.83,8.85c.27.3.42.42.87.69h-2.88c-.15-.33-.18-.39-.57-.81l-7.65-8.73v8.61ZM445.18,184.97c2.85,0,4.86-1.8,4.86-4.38,0-1.47-.66-2.82-1.77-3.6-.87-.6-1.8-.84-3.39-.84h-1.71v8.82h2.01Z" fill="#fff"/>
      <path d="M479.97,185.24c0,6.54-3.45,10.29-9.45,10.29s-9.57-3.72-9.57-10.47c0-3.06.9-5.7,2.58-7.47,1.65-1.74,3.93-2.61,6.93-2.61,6.06,0,9.51,3.72,9.51,10.26ZM463.03,185.09c0,6.18,2.61,9.45,7.47,9.45s7.41-3.33,7.41-9.3-2.64-9.27-7.53-9.27-7.35,3.36-7.35,9.12Z" fill="#fff"/>
      <path d="M507.9,185.24c0,6.54-3.45,10.29-9.45,10.29s-9.57-3.72-9.57-10.47c0-3.06.9-5.7,2.58-7.47,1.65-1.74,3.93-2.61,6.93-2.61,6.06,0,9.51,3.72,9.51,10.26ZM490.96,185.09c0,6.18,2.61,9.45,7.47,9.45s7.41-3.33,7.41-9.3-2.64-9.27-7.53-9.27-7.35,3.36-7.35,9.12Z" fill="#fff"/>
    </g>
  </g>
</svg>