<?xml version="1.0" encoding="UTF-8"?>
<svg id="b" xmlns="http://www.w3.org/2000/svg" version="1.1" viewBox="0 0 1657.9 576.6">
  <!-- Generator: Adobe Illustrator 29.8.2, SVG Export Plug-In . SVG Version: 2.1.1 Build 3)  -->
  <defs>
    <style>
      .st0, .st1, .st2 {
        fill: #fff;
        stroke: #fff;
        stroke-miterlimit: 10;
      }

      .st1 {
        stroke-width: 2px;
      }

      .st2 {
        stroke-width: 1.5px;
      }
    </style>
  </defs>
  <g>
    <path class="st0" d="M1507.1,209.9c.9-.5,1.4-1.5,1.6-2.4.2-1.1,0-2.2-.8-3-1.2-1.4-3.6-1.7-5.5-.8-.5-.5-1-.9-1.6-1.1-2.6-1.2-6.1-.6-8.3,1.4-.6-.8-1.4-1.4-2.5-1.5-.8-.1-1.6-.1-2.4.3-.4.2-.7.4-1,.6-.2.2-.5.5-.8.5-.2.1-.4-.1-.7-.3-.3-.3-.6-.5-1-.7-.8-.4-1.6-.6-2.5-.6-1.8,0-3.6.9-4.7,2.3-.6.8-1,1.8-1.1,2.8-.6-.1-1.2-.1-1.8.1-1.2.2-2.3,1-3,1.9-.4.6-.6,1.2-.6,1.8s0,.6,0,.9h0v.2c-.2.1-.3.1-.4.2h-.2l-.2.2c-.2.1-.3.1-.4.1-.3.1-.7.2-1,.4-.6.4-1.1,1-1.4,1.6-.3.8-.4,1.7,0,2.4-1.7,1.1-2.3,3.5-1.5,5.1-1.4.5-2.5,1.6-3.2,2.9-.9,1.8-.5,4,.9,5.2.9.8,2.2-.5,1.4-1.3-.9-.9-1.2-2.1-.7-3.4.5-1.2,1.8-2,3.1-2.1.9-.1,1.2-1.1.5-1.6-.3-.2-.5-.5-.6-.8,0-.4,0-.8,0-1.1,0-.1,0-.2,0-.4s0-.1,0-.2h0c0-.1,0-.2.2-.3,0-.1,0-.1,0-.1h0c0-.1.2-.2.3-.2h0c0,0,0-.1.2-.1,0,0,0,0,0-.1h0c0,0,.4-.1.2-.1.4-.1.7-.2.9-.6.2-.3,0-.7-.2-1h0c0-.1,0-.2,0-.2,0-.1,0-.1,0-.2h0c0-.2,0-.3,0-.4v-.2c0-.4.2-.8.4-1.1,0-.1.2-.2.5-.3.2-.1.5-.2.8-.3.6-.2,1.2-.4,1.6-.9.6-.6.7-1.3.8-2v-.3h0c0-.2,0-.3,0-.3v-.2c0-.1.2-.1.2-.2s0-.1,0-.1h0q0-.1.2-.2h.2c0-.1.2-.2.2-.2,0-.1.2-.1.4-.2h0s0,0,0-.1c.2-.1.4-.1.6-.2h.6c0,0,.2,0,.3.1,0,0,.2.1.2.1,0,0,.2.1.2.1,0,0,0,0,0,.1h0q0,.1.2.2c.6.6,2-.1,1.7-.9-.5-1.2-.2-2.7.9-3.7.9-.9,2.3-1.2,3.6-.9.6.2,1,.5,1.5.9.7.5,1.5.9,2.4.5.7-.3,1.2-.9,1.9-1.2.4-.2.8-.2,1.2-.2.5.1.9.3,1.2.6.2.2.3.2.4.5,0,0,0,.1,0,.1h0v.3s0,.2,0,.1c0,.4.2.7.6.8s.9-.1,1.1-.4c.9-1.4,2.6-2.3,4.2-2.4.9-.1,1.7,0,2.5.3h.2c0,.2.2.2.3.2.2.1.3.2.5.3h.2q0,.2.2.3c0,.1.2.2.2.2l.2.2c.3.5.9.5,1.4.1,1.2-.9,3-.8,4,.1,1.1,1.1.9,2.9.3,4.3.2-.2.2-.1.4-.2h0Z"/>
    <path class="st0" d="M1458.3,184.4c1.1-.1,2.3-.1,3.4-.3,1.2-.3,2.3-.7,3.4-1.2l3.6-1.4c2.4-.9,4.8-1.9,7.1-2.8,2.3-.9,4.7-1.9,7-2.9,1.2-.5,2.3-1,3.5-1.6s2.2-1.2,3.4-1.7c0,0,0-.2,0-.1-.7.3-1.4.4-2.1.6-.7.2-1.4.4-2.1.6-1.4.4-2.7.9-4.1,1.4-2.4.8-4.8,1.8-7.2,2.7-2.4.9-4.9,1.9-7.4,2.8-1.2.4-2.4.9-3.6,1.4-1.1.4-2.1.7-3.2.8-1.9.1-4,0-5.3,1.6-.3.4,0,.8,0,1.1.7.9,1.7,1.6,2.7,2.2.5.3,1.1.5,1.7.6.3.1.8.2,1.1.1.2,0,.3-.1.5-.2h.2c.6-.1.7-.7.2-.9q0,0,0-.1h0c0-.1-.2-.3-.3-.3-.2-.2-.6-.3-.8-.3-.5-.1-.9-.3-1.3-.5-.6-.3-1.1-.7-1.6-1.1,0,0,0-.1.2-.1.2-.3.6-.4,1.1-.4h0Z"/>
    <path class="st0" d="M1481.9,80c-.9-1.3-1.8-2.6-2.8-3.9-1.8-2.3-4.2-4.3-7.2-5.1-1.5-3.6-5.9-5.8-9.9-4.9-.2-.7-.6-1.4-1.2-2-2-2.3-5.9-3.3-8.9-2.1-.3-1.2-1.2-2.3-2.2-3-.8-.6-1.9-.9-2.9-1-1.2,0-2.4.2-3.6.7-1.2.4-2.3,1-3.5,1.5s-2.3.9-3.6,1.2c-2.5.5-5.2.7-7.6,1.8-1.8.8-3.4,2-4.2,3.7-.8-.2-1.5-.3-2.3-.3-3.7.3-7.2,3.1-7.6,6.6-1,0-1.9,0-2.9.5-2.2.9-3.8,2.9-3.9,5.2,0,1.7.8,3.7,2.3,4.8-1,1.3-.9,3.1,0,4.5,1.3,2,3.9,2.6,6.1,3.3,0,0,.2,0,0-.2-1.1-.3-2.1-.7-3-1.3-.8-.5-1.7-1.1-2.1-2-.7-1.2-.7-3.1.8-3.8.6-.3.6-1,0-1.4-.4-.3-.9-.6-1.2-1-.3-.4-.6-.8-.8-1.2-.4-1-.4-2,0-3,.8-1.9,3.2-3.1,5.3-2.6.7.2,1.3-.4,1.2-1,0-.8.2-1.8.6-2.5.5-.8,1.2-1.5,2-2,.9-.6,1.8-.9,2.9-1,.8,0,1.9,0,2.6.5.5.3,1.3,0,1.4-.5.6-1.9,2.4-3.2,4.3-3.8,2.2-.8,4.7-.9,7-1.5,2.2-.5,4.2-1.6,6.3-2.5.9-.3,1.9-.6,2.9-.7.8,0,1.5.2,2.2.7.6.4,1.1.9,1.3,1.5v.2q0,0,0,.2v.4h0c0,.2,0,.3,0,.4h0c0,.2,0,.3-.2.3-.7.8.7,1.9,1.5,1.2.2-.2.4-.4.6-.5,0,0,0,0,0,0h0c0,0,.2,0,.3-.2.2,0,.4-.2.6-.3h0c0,0,.2,0,.3,0,.2,0,.4,0,.7,0h.4c.4,0,.9,0,1.3,0h0c0,0,.2,0,.3,0,.2,0,.4,0,.6.2.5.2.6.2,1,.4.2,0,.4.2.6.3l.2.2h0s0,0,0,0c.2,0,.3.3.5.4,0,0,0,.2.2.2,0,0,0,0,0,.2.2.3.4.6.5.9v.2l.2.2c0,.2,0,.4,0,.6,0,.5.7.8,1.2.7,1.1-.4,2.1-.5,3.2-.3.9,0,2,.5,2.9,1.1.8.5,1.5,1.1,1.9,1.8.2.4.5.9.6,1.2.2.4.4.8.9.9.3,0,.5,0,.8.2,2.1.7,3.8,2.1,5.2,3.7.7.8,1.4,1.7,2,2.6.6.8,1.2,1.7,1.7,2.7.2.4.3.6.4,1.1,0,.2,0,.5,0,.7h0v.8h0c0,.2,0,.3,0,.3h0v.2h0c0,0,0,.2,0,.2,0,0,0,0-.2,0h0c-.8.2-1.1,1.3-.3,1.8,1,.6,1.9,1.4,2.6,2.4.6.9.9,2,.8,3-.2.8-.8,1.7-1.5,2.2-.5.3-.8.4-1.3.5h-.7s-.2,0-.3,0,0,0-.2,0q0,0,0,0c-.5-.2-1-.2-1.3.2-.3.3-.3,1,0,1.3,1.5,1.4,1.7,3.8.3,5.3-.4.4-.8.7-1.3.9-.4.2-.9.3-1.4.4h-1.4c-.6-.2-.9-.4-1.4-.7-.4-.3-1,0-1.3.2-.3.3-.4,1,0,1.3.5.4.7.6.9,1.1v.2c0,0,.2.2.2.3s0,.3,0,.4v1.2h0v.2c0,.2,0,.5-.2.7,0,0,0,0,0,0h0c0,.2,0,.3-.2.4-.4.7-1.1,1.1-1.9,1.3-.6,0-.7.2-1.3,0h-.5c-.2,0-.5,0-.7-.2-.7-.2-1.4-.7-1.8-1.4-.7-1.1-2.4-.2-1.8.9.2.4.3.9.3,1.3,0,.6,0,.9-.3,1.4-.3.9-1,1.6-1.8,2.1-1.7.9-4.2.3-5.2-1.3-.4-.7-1.6-.6-1.9.2-.4,1.2-1.3,2.2-2.4,2.9-1,.7-2.2,1.1-3.3,1.1-1.3,0-2.3-.2-3.4-.9-1-.6-1.8-1.5-2.3-2.6-.4-1-.7-2.2-.5-3.3,0-.5-.4-.9-.9-.9s-.9.4-.9.8c-.2.8-.2,1.7,0,2.6.2.8.5,1.6.9,2.3,1.6,2.7,4.6,4.2,7.8,3.8,2.5-.3,4.9-1.8,6.2-3.9.6.5,1.2.8,1.9,1.1,2.2.7,4.8.2,6.4-1.5.9-.9,1.4-2.1,1.6-3.3.3.2.7.3,1,.4,2.5.7,5.4-.2,6.6-2.5.7-1.3.9-2.8.5-4.2h.8c2.5,0,4.7-1.5,5.6-3.7.6-1.4.5-3,0-4.3.4,0,.9-.2,1.3-.4,1-.4,1.9-1.3,2.5-2.2.7-1.1.9-2.3.7-3.5-.3-1.9-1.5-3.6-3.1-4.8.6-.7.8-1.5.7-2.4.3-1.4-.2-2.7-1-3.9h0Z"/>
    <path class="st0" d="M1449.2,250.5c.8-.2,1.6-.1,2.4,0,.4.1.8.1,1.2.1s.8-.1,1.2-.2h0c-.6-.1-1.3-.3-1.8-.5s-1-.4-1.5-.5c-.9-.2-1.9-.3-2.9.1-.8.4-1.3,1-1.5,1.8-.8-.3-1.5-.6-2.3-.9-1.2-.4-2.5-.8-3.9-.9-1.2-.1-2.3.3-3.4.8-1.5.8-2.9,2.1-3.2,3.7-1.6-.1-3.4.7-4.1,2.3-.5,1.1-.2,2.4.8,3.1.4.4,1,.6,1.6.7s1.2,0,1.7-.3c.3-.2.2-.6-.2-.6-.7.1-1.5-.3-1.9-.8s-.5-1.2-.3-1.7c0-.2.3-.4.5-.5.3-.2.5-.3.8-.4q.2-.1.4-.1h.7c0,0,0,.1.2.1,0,0,.2.1,0,.1.3.2.7.3,1.1.1.3-.2.6-.6.5-1-.3-.9,0-1.7.9-2.4s2-1.3,3-1.4c1.4-.1,2.8.3,4,.7,1.4.5,2.8,1.1,4.2,1.5.9.3,1.7-1.2.8-1.6,0,0,0,0,0-.1,0,0,0,0,0-.1h0v-.6c.1-.1.6-.4,1.1-.5h0Z"/>
    <path class="st0" d="M1417.2,179.4c-1.5,3.6-3.2,7.1-2.8,11,0,.8,1.2.8,1.7.4,3.4-2.5,6.9-5.2,11-6.5,6.2-2,12.9-.7,18.9-3.3,1.4-.6,2.8-1.5,3.8-2.6,1.3-1.3,2.2-2.8,2.8-4.4.7-1.6,1.1-3.3,1.4-4.9.2-1,.5-2,.6-3,0-.5,0-1,.2-1.5s0-1,0-1.6c0-.4-.6-.6-.8-.2-.3.5-.6,1-.7,1.6-.2.6-.3,1.1-.5,1.6-.3,1-.5,2.1-.8,3.1-.4,1.8-.9,3.6-1.8,5.3-.7,1.4-1.7,2.7-3,3.7-1.1.8-2.4,1.4-3.7,1.8-3,.9-6.1,1-9.2,1.3-3.4.3-6.8.7-10.1,2.1-2.9,1.2-5.6,3-8.2,4.9,0-1.4.5-2.8,1-4.1.7-2,1.6-4,2.3-6,.7-1.9,1.1-3.9,1.3-5.9.2-2,.2-4.1.3-6.1,0-2,0-4.1.5-6.1.3-2,1.1-3.9,1.6-5.9.9-3.8.6-7.8-.7-11.4-.7-1.8-1.5-3.6-2.4-5.3-.4-.9-.9-1.7-1.5-2.5s-1.1-1.6-1.7-2.4c0-.1-.2,0,0,.1.4,1,.8,2.1,1.2,3.1.4,1,.9,2,1.3,3,.8,2,1.5,4,2,6.1.4,1.8.7,3.6.7,5.4s-.5,3.9-1.1,5.8c-.6,2-1.2,4-1.4,6.1-.2,2-.3,4.1-.3,6.1s0,4-.4,6c0,1.7-.7,3.5-1.4,5.2h0Z"/>
    <path class="st0" d="M1458,171.7c0-.9.3-1.7.4-2.6,0-.9.2-1.8.3-2.6,0-.5,0-.9,0-1.4s0-.8,0-1.2,0-.1,0,0c-.2.5-.4,1-.6,1.5s-.4,1-.5,1.5c-.3,1-.5,1.9-.8,2.9-.2,1-.5,2-.7,2.9s-.4,1.9-.3,2.8c.2,1.5,1.6,2.3,3.2,2.2s3-.8,4.5-1.3c3.6-1.4,7.2-2.8,10.8-4.2,1.7-.7,3.4-1.3,5.1-2,1.5-.6,3-1.5,4.2-2.6,1.1-1.1,1.9-2.6,2-4.1,0-.8,0-1.5-.4-2.2,0-.3-.2-.6,0-.9,0-.1,0,0,0-.1s.3-.1.2-.1c.4,0,.8-.4.5-.8-.3-.4-.7-.6-1.2-.5-.4.1-.8.3-1,.6-.8.8-.6,1.8-.2,2.7.2.7.3,1.4,0,2.1-.2.7-.6,1.3-1,1.9-.9,1.1-2.3,1.9-3.7,2.5-1.6.7-3.2,1.3-4.9,1.9-3.5,1.4-7,2.8-10.5,4.2-.8.3-1.7.7-2.4.9-.3.1-.6.2-.9.3-.2.1-.6.1-.8.2h-.8c0,0-.3-.1-.3-.1,0,0-.2-.1-.2-.1-.4-.3-.4-1-.3-1.5,0-1.1.3-1.9.4-2.8h0Z"/>
    <path class="st0" d="M1402.5,171.5c.6.7,1.2,1.3,1.8,2,.6.7,1,1.4,1.4,2.2.8,1.6,1.2,3.3,1.1,5,0,1,1.3,1.4,1.8.6,2-2.7,2.1-6.4,2.4-9.6.7-6.2,1.3-12.4,1.2-18.6,0-3.1-.2-6.3-.7-9.4-.2-1.5-.6-3-1-4.5-.2-.7-.4-1.5-.7-2.2-.2-.4-.4-.7-.6-1.1-.2-.3-.3-.7-.5-1,0-.1,0,0,0,0,0,.4,0,.9.2,1.3,0,.4,0,.9,0,1.3.2.8.3,1.7.4,2.5.2,1.7.4,3.3.6,5,.5,6.1.4,12.1,0,18.2-.2,3.1-.6,6.1-.9,9.1-.2,1.5-.3,3.1-.6,4.6-.2-.8-.5-1.5-.9-2.2-.5-.9-1.1-1.8-1.7-2.6-.7-.8-1.5-1.5-2.5-1.8-.7-.2-1.2.6-.8,1.2h0Z"/>
    <path class="st0" d="M1427.2,240.6c2.2-1,4-2.8,4.9-4.9,0,.1.2.1.3.2,1.6.9,3.8.7,5.2-.8,1.1-1.1,1.5-2.6,1.3-4,.4.4.6.8,1,1.2.8,1,1.8,1.7,3.3,1.4,1.4-.3,2.5-1.5,3-2.7,1.3-3.1-1.9-5.3-4.2-6.7-.9-.5-1.8.9-.9,1.4,1.2.7,2.5,1.5,3.2,2.6.6.9.7,1.9,0,2.9-.3.4-.7.7-1,.9-.4.2-.7.2-1.1,0-.2-.1-.3-.2-.5-.4s-.3-.4-.5-.5c-.3-.3-.6-.8-.9-1.1-.7-.7-1.6-1.2-2.7-.8-.5.2-.8.7-.6,1.2.7,1.3.4,3.5-1.3,4.2-.6.3-1.4.2-1.9,0-.7-.3-1-.7-1-1.3,0-1-1.6-1-1.7.1,0,1.3-.7,2.7-1.6,3.7-1.8,2-4.5,3.1-7,2.4-2.5-.6-4.3-2.6-4.5-5,0-.4-.6-.6-1-.5-.5.1-.7.6-.6,1,.2,1.7,1,3.2,2.3,4.3,1.9,2,5.4,2.6,8.5,1.2h0Z"/>
    <path class="st0" d="M1397.3,95.7c1,.2,2,.8,2.7,1.5.4.4.9.8,1.3,1.2.2.2.4.5.6.7s.4.3.6.4h0c0-.3,0-.6-.2-.8,0-.3-.3-.6-.5-.8-.3-.5-.6-1-1-1.4-1.4-1.5-3.4-2.7-5.5-2-1.3.4-2.6,1.4-2.9,2.7-.9-.5-1.8-.9-2.7-1.2-1.2-.3-2.6-.3-3.7.4-.8.5-1.4,1.3-1.8,2.2-.4,1.1-.4,2.3,0,3.4-.8,0-1.6,0-2.3,0-1.2,0-2.5.5-3.6,1s-1.9,1.3-2.1,2.5c-.3,1.8.9,3.2,2.3,4.2-.7.2-1.4.6-2.1.9-.6.3-1.2.8-1.7,1.2-.6.5-1.1,1.1-1.1,1.8,0,1.5,1.7,2.3,2.8,2.9.7.4,1.5.9,2.2,1.3-.3.2-.6.4-.8.7-.8,1.1-.8,2.5-.2,3.6.6,1.2,1.8,2,3,2.4,1.3.4,2.8.5,4.1.2.7-.2,1.3-.4,1.9-.8.7-.4,1.2-.8,1.6-1.4.4-.5-.3-1.3-.9-1-1,.6-1.9,1.2-3.1,1.4-1.7.4-3.9,0-5-1.4-.5-.7-.6-1.4,0-2.1.2-.2.5-.5.8-.6s.5,0,.8,0c.9.5,1.8-.8.9-1.4-1.3-.7-2.5-1.4-3.8-2.2-.6-.3-1.2-.7-1.8-1-.3-.2-.8-.4-.9-.8s.7-.8.9-1c.4-.3.9-.6,1.4-.9,1.1-.6,2.2-.9,3.3-1,.7,0,.8-1.1.3-1.4-1-.5-2.2-1.1-2.9-2.1-.5-.8-.6-2,.2-2.6,1-.7,2.4-1,3.5-1.1,1.3,0,2.6,0,3.8.3.3,0,.7,0,.9-.3.2-.3.2-.8,0-1-1.2-1.1-1.3-3.1-.2-4.3.7-.7,1.8-.9,2.8-.7,1.4.3,2.6,1.1,3.7,1.8.6.4,1.5-.2,1.3-.9-.3-.8,0-1.5.7-2.1.8-.4,1.7-.7,2.5-.5h0Z"/>
    <path class="st0" d="M1478.5,155.4c-1.2-.8-1.9-2.1-1.7-3.5,0-.7-.9-1-1.4-.6-.8.8-2.3.9-3.2.2-.6-.5-.9-1.2-.8-1.9.2-.4.3-.8.4-1.2,0-.8-1.2-1.2-1.6-.4-.2.4-.3.7-.4,1.1,0,.1-.2.2-.2.4s0,.1-.2.2c-.4.4-.9.7-1.4.9-1,.4-2.3.4-3-.2-.6-.5-1.4-.2-1.5.6-.3,1.9-1.9,3.5-3.8,4-1.8.4-4.1-.4-5.1-2-.3-.5-1.2-.6-1.5,0-1.1,1.7-3.3,2.5-5.2,1.9-1.8-.6-2.9-2.7-2.4-4.5.2-.8-.8-1.5-1.5-.9-.8.9-2.5,1-3.2,0-.6-.8-.2-2.3.9-2.8s.2-2-.8-1.5c-.2.1,0,.1-.3.1h-.2q-.3,0-.6-.1h0c0,0,0-.1-.2-.1,0-.1-.2-.1-.3-.2h0q0-.1-.2-.1c0-.1-.2-.2-.2-.3-.2-.3-.4-.7-.5-1.1h0v-.3h0v-.2c0-.2,0-.3.3-.6.6-.7-.7-1.7-1.3-1-.2.2-.4.4-.6.5s-.4.2-.6.3c-.2,0-.3.1-.4.1h-1.4c0-.1-.2-.2-.3-.2-.3-.1-.4-.1-.6-.2-.5-.2-.8-.4-1.1-.8-.7-.6-1-1.4-.9-2.4,0-1.1.6-2.2,1.4-3.1.4-.4.9-.9,1.4-1.2.3-.2.5-.4.8-.6,0-.1.2-.2.3-.2s0-.1.2-.1c0,0,.2-.1,0-.1.7-.2.4-1.3-.2-1-.4.1-.9.2-1.3.3s-.8.4-1.2.6c-.8.5-1.4,1.2-2,1.9-.9,1.3-1.4,2.8-1.3,4.3,0,1.3.9,2.4,1.9,3.2,1.3,1,3.3,1.4,5,1,0,.7.4,1.4.9,2s1.1,1,1.8,1.2c-.6,1.2-.6,2.7.2,3.8.9,1.2,2.7,1.6,4.2,1.1,0,.6.2,1.2.4,1.7.8,1.9,2.8,3.3,5,3.3s3.6-.8,4.8-2c.5.5,1.1,1,1.8,1.3,1.9.9,4.2.9,6.2-.1,1.5-.8,2.6-2.2,3.2-3.7,1.1.4,2.4.4,3.7,0,.5-.2,1.1-.5,1.5-.8.2.6.7,1.1,1.2,1.6,1.1.8,2.7.9,4,.4.6,3.3,4.9,5.6,8.2,4,.3-.2.5-.6.4-.9h0c.2-.1.4,0,.6,0,2.1.2,4.3-1.1,4.8-3.2.4-1.8-.4-3.5-1.6-4.7,1.5-.2,3-.8,3.7-2.2.6-1,.6-2.3,0-3.4,1.6-.1,3.1-.4,4.4-1.4,1.1-.8,1.8-2.1,1.9-3.3,1.5.3,3.1-.1,4.4-.8,1.5-.9,2.5-2.2,2.8-3.8,1.6.6,3.5.8,4.8-.4,1-.9,1.5-2.8.2-3.7,0-.1-.2.1,0,.1.8.9,0,2.3-.9,2.9-.6.3-1.4.3-2.1.1-.8-.2-1.5-.5-2.2-.9-.5-.3-1.3.1-1.3.7,0,1.5-.8,2.8-2.1,3.6-.4.2-.7.4-1,.5-.4.1-.8.2-1.1.2-.8.1-1.4-.1-2.1-.5-.7-.5-1.7.4-1.3,1.1.3.6.3,1.1,0,1.7-.2.5-.7,1.1-1.2,1.4-1.5,1-3.6,1-5.3,1s-1.2,1.4-.3,1.6c.2,0,.3.1.4.1q.2.1.3.2c.2.2.3.4.4.7.2.6,0,1.2-.2,1.7-.9,1.4-3.1,1.5-4.7,1.2-.4-.1-.8.1-1,.4-.2.3,0,.8.3,1,1.1.5,2,1.2,2.6,2.2.4.8.7,1.7.4,2.5-.2.6-.6,1-1.2,1.4-.2.1-.3.2-.4.2-.2.1-.4.1-.5.1-.3.1-.2.1-.4.1h-.3c-.2,0-.3-.1-.5-.1h0s0,0,0-.1c0,0,0-.1-.2-.1h0c0-.1,0-.2,0-.2,0,0,0-.1,0-.2s0-.1,0-.2c-.2-.4-.7-.5-1-.3-.4.1-.6.6-.5.9,0,.5.2,1.1.4,1.6-1.8.2-3,0-4-.8h0Z"/>
    <path class="st0" d="M1547.9,215c.3-.2.7-.5,1.1-.6s.4-.7,0-.8c-.5-.1-1-.2-1.6.1-.5.2-.9.5-1.2.9-1.3,1.6-1.4,3.9,0,5.2,1.3,1.2,3.2,1.4,5,1,.2,1.4,1.1,2.6,2.3,3.1,1.1.4,2.4.3,3.5-.2,0,1,.4,2,1.2,2.6,1.1.9,2.8,1,4.1.3.6.7,1.7.8,2.6.4.6-.3,1.2-.7,1.6-1.3.2-.2.4-.5.5-.8,0-.2,0-.3.2-.5s.2-.3.3-.5h0c-.2.3-.3.5-.6.7-.2.1-.3.3-.5.5-.4.4-.8.7-1.3.9-.6.2-1.6.2-1.9-.5,0-.4-.5-.6-.9-.3-1,.6-2.3.7-3.1,0-.8-.7-1-1.9-.5-2.9.3-.7-.7-1.1-1.2-.6-.9.9-2.3,1.2-3.3.8-1.1-.4-1.7-1.6-1.5-2.8,0-.4-.5-.9-.9-.7-1.7.7-4.2.7-5-1.1-.3-.7,0-1.5.3-2.2.2-.2.5-.5.8-.7h0Z"/>
    <path class="st0" d="M1586.5,212.3c.8-.4,1.6-.9,1.6-1.9,0-.8-.4-1.6-.8-2.3s-.9-1.4-1.5-1.9c-1.1-1.1-2.4-2-3.9-2.6-.5-.2-.9.5-.4.7,1.5.7,2.7,1.7,3.6,3,.4.6.8,1.2,1.1,1.8.2.4.6,1.2.2,1.5-.2.1-.6.3-.8.4-.3.1-.6.3-.8.6-.5.5-.8,1.2-.7,1.9,0,.7.2,1.3.4,2,0,.3.2.6.2.9s0,.4,0,.6c-.2.4-.5.8-1,1.1s-.9.3-1.4.2c-.7-.2-1.4.7-1,1.3.6,1,1.2,2.1,1.2,3.4s-.5,1.9-1.4,2.5c-1.1.7-2.3,1.2-3.5,1.6-1.9.6-4.5.8-5.6-.9-.5-.7-1.7,0-1.3.8.6,1.3,1.9,2.1,3.4,2.3s3-.1,4.5-.7c1.4-.6,2.9-1.2,4.1-2.2,2.1-1.8,1.7-4.3.8-6.3,1.2-.3,2.2-1.2,2.7-2.3.7-1.6-.3-2.9-.4-4.3,0-.2,0-.4,0-.6.2-.3.5-.5.7-.6h0Z"/>
    <path class="st1" d="M1615.7,210.4c-.5.4-1.6,1.2-2.1.5-.5-.8,0-2.1.4-2.9.4-1.1.6-2.3-.3-3.1-.6-.5-1.6-.7-2.1.1,0,.1,0,.2,0,.1.4-.2.8-.1,1.2.1,1,.7.3,2,0,2.9-.4,1-.8,2-.6,3,.3,1.1,1.3,1.7,2.4,1.4,1.1-.2,2-1.2,2.8-1.9,1.4-1.2,3.4-1.5,5-.7.4.2.7.4,1,.7.3.4.6.8,1,1.1.6.5,1.5.8,2.3.4.7-.3,1.4-.8,1.9-1.3s1.2-1.2,1.7-1.6c.2-.1.3-.2.5-.3,0-.1.2-.1.2-.1h0c0-.1.2-.2.3-.2h.6c.8.1,1.5.8,2.2,1.3s1.6.9,2.6.8,1.9-.5,2.8-1c.7-.4,1.6-.9,2.2-.9s.6,0,.8.2c.3.3.5.7.7,1,.2.4.5.9.9,1.2s.9.5,1.4.7c.7.2,1.7.4,1.9,1.3,0,.8-.4,1.7-1.1,2.2-.9.7-2,1-3.1,1.2-.7.2-.9,1.2-.3,1.4h.2q0,.1,0,.1h0c0,.2,0,.3,0,.5v.7c0,0-.2.1-.2.2-.4.8-1.3,1.3-2.1,1.7-1,.6-1.9,1.2-2.5,2.2-.5.9-.7,2-.2,2.9.6,1,1.9,1.2,3,1.2s2.3-.2,3.5-.2h.3c0,0,.2.1.3.1h0c0,0,0,.1.2.1h0c0,.1,0,.2,0,.2,0,0,0,.1,0,.1,0,0,0,.1,0,.1h0c0,.4,0,.7,0,1.1-.2.8-.5,1.7-.2,2.5.3.9,1.1,1.4,2.1,1.5,1.9.2,4.2-.2,5.9.7.6.3,1.1.8,1.2,1.5,0,.5,0,1.1-.5,1.5q-.2.2-.4.3c0-.1,0,0,0,0h0c-.4.1-.9-.2-1.3-.2-1-.1-1.9.2-2.8.9-1.8,1.4-2,3.7-2.1,5.6,0,1,1.4.9,1.5-.1,0-1.1,0-2.3.7-3.3.4-.7,1.2-1.5,2-1.5s1.1.2,1.6.3c.5,0,1-.1,1.4-.4.8-.5,1.4-1.4,1.6-2.3.4-1.9-.9-3.4-2.5-4-1-.4-2-.5-3.1-.5s-2.1.1-3.1-.1c-.2,0-.4-.1-.5-.2q0-.1,0-.3c0-.1,0-.6,0-.8.2-.9.5-1.8.2-2.6-.4-1.2-1.6-1.6-2.8-1.7-1.2,0-2.4.2-3.5.2h-.7c0,0-.2-.1-.3-.1h0s0-.1-.2-.1h-.2c0-.1,0-.2,0-.2,0,0,0-.1,0-.1,0-.1,0-.2,0-.2,0-.1,0-.3,0-.4.3-.8,1.1-1.4,1.8-1.8.8-.5,1.7-1,2.4-1.7.8-.9,1.2-2.2.9-3.3.2-.1.3-.1.5-.2,1.2-.4,2.3-1.1,3-2.2.6-1,.9-2.2.4-3.2s-1.6-1.4-2.6-1.7c-.4-.1-.8-.3-1.1-.6-.3-.3-.5-.8-.7-1.2-.5-.9-1.4-1.5-2.5-1.4-1,.1-1.9.5-2.7,1-.8.4-1.7.9-2.5.9s-1.6-.6-2.2-1.1c-.8-.6-1.6-1.1-2.7-1.1-.9.1-1.7.5-2.4,1.1-.7.5-1.2,1.1-1.9,1.7-.2.1-.3.3-.5.4h0q0,.2-.2.2c0,.1-.2.1-.2.1,0,0,0,0,0,.1h0q0,0-.2.1h-.5q0,0,0-.1c0-.1-.2-.1-.2-.2-.4-.4-.6-.8-1-1.1-.7-.7-1.7-1.1-2.7-1.3s-2.1-.1-3.1.3c-1,.2-1.8.9-2.8,1.8h0Z"/>
    <path class="st1" d="M1609.7,199.7h0c0-.2,0-.3,0-.4s0-.1,0-.2h0c0-.1,0-.2.2-.3h0c.2-.3.4-.5.7-.6,1.1-.7,2.4-1,3.5-1.4,1.2-.5,2.3-1.1,3.1-2.2.7-.9,1.2-2.1.9-3.2-.3-1.2-1.5-1.9-2.7-2s-2.4.3-3.6.5c-1.3.2-2.7.2-3.9.1-2.3-.2-4.4-1-6.3-2.1.4-.6.5-1.3.4-2,0-.9-.7-1.7-1.3-2.3-.8-.7-1.8-.9-3-.7-2.5.5-4.2,2.8-5.3,4.9-.2.4-.2.9.2,1.1h0c-.2.4-.6.7-.9,1-.4.2-.9.4-1.5.5-.7.2-1.3.4-2,.6-.9.3-1.7.4-2.5.5s-1.5.1-2.3-.2c0,0,0-.1-.2-.1s-.2-.1-.2-.1h0q0-.2-.2-.3h0c0-.1,0-.2,0-.2.2-.2.4-.5.7-.7,1.2-1.6,1.6-3.9,1-5.7-.3-.9-.8-1.8-1.6-2.4-.9-.8-2.2-1.1-3.3-1.5-1-.4-1.7-.8-2.4-1.7-.5-.6-1-1.5-1.5-2.2-.5-.8-1.1-1.5-1.9-2-1-.6-2.2-.6-3.3-.4-1.2.3-2.3,1-3.5.9-.2,0-.3,0-.6-.1-.2-.1-.4-.1-.5-.2-.4-.2-.8-.4-1.2-.7-1.6-1.1-3.1-2.7-5.2-3-1.5-.2-3.1.2-4.6.6-1.2.4-2.2.6-3.4.6h-.4c0,0-.2-.1-.3-.1q-.3-.1-.5-.2c0,0-.2-.1-.2-.1h0c0-.1-.2-.1-.2-.2q0-.1-.2-.2c0-.1,0-.2,0-.3-.2-.6-.2-1.2,0-1.8,0-.6,0-1.3.2-1.9,0-1.1.4-2.3.9-3.4.2-.5.6-1,.9-1.5.4-.4.7-.7,1.1-1,.8-.5,1.7-.8,2.6-.7q.3,0,.6.1c0,0,.2.1.3.1s0,0,.2.1h0c.4.2.6.4.9.8.5.6,1.6.1,1.6-.7s.5-2,1.4-2.7c1.5-1.2,3.8-.6,4.6.9.8,1.5.9,3.7,2.8,4.2.2.1.4,0,.5-.1.4-.4.8-.8,1.1-1.3.3-.4.6-.9.9-1.3,0,0,0-.1,0,0-.4.3-.9.5-1.3.9-.3.2-.7.5-1,.8-.7-.5-.9-1.5-1.2-2.4-.3-1-.7-2.1-1.5-2.8-.9-.8-2.1-1.2-3.3-1.1-2,.1-3.8,1.5-4.5,3.3-2-1-4.6-.4-6.4,1-2.2,1.7-3,4.5-3.4,7-.2,1.3-.3,2.8,0,4,.3,1.3,1.2,2.1,2.5,2.6,1.1.4,2.4.3,3.6,0,1.4-.3,2.8-1,4.2-1.1,2.3-.2,3.8,1.3,5.5,2.5.8.6,1.7,1.1,2.7,1.4,1.3.3,2.5,0,3.7-.5.6-.2,1.2-.5,1.8-.5h.8c0,0,.2.1.3.1h0s0,0,0,.1c.7.3,1.2,1,1.6,1.6.6.8,1.1,1.7,1.7,2.4.7.9,1.6,1.5,2.7,1.9.6.2,1.2.4,1.8.6s.6.2.8.4c.2.1.3.2.4.3.7.6,1,1.2,1.2,2.1.3,1.6-.2,3.5-1.7,4.6-.2.2-.3.6-.3.8.3,1.2,1.2,2,2.3,2.4,2.3.7,4.8-.1,7.1-.8,1.3-.4,2.6-.7,3.6-1.8.4-.4.7-1,.8-1.6,0-.3,0-.6-.2-.9.4-.8.9-1.5,1.5-2.1s1.3-1.1,2.2-1.4c.2,0,.3-.1.5-.1h.2s.2,0,.2.1c0,0,.2.1.2.1,0,0,0,.1.2.1s0,.1.2.1c0,0,0,0,0,.1h0c0,.1.3.2.4.4h0c0,.2,0,.2,0,.3,0,.1,0,.2,0,.2,0,0,0,.1,0,.1,0,.1,0,.3,0,.4h0v.3h0q0,.1,0,.2h0v.2h0c0,.1,0,.2,0,.2-.6.4-.6,1.1,0,1.4,2.4,1.8,5.4,2.7,8.5,2.9,1.4.1,2.8,0,4.1-.2,1.1-.2,2.3-.6,3.3-.2.2.1.4.2.5.3s.2.3.2.4c0,.2,0,.4,0,.6,0,.1,0,.4-.2.6-.4.9-1.3,1.6-2.2,2-2.2,1-5.2,1.4-6.2,4-.4.9-.4,2,0,2.9.2.4.5.8.9,1,.2.1.4.2.6.2h.7c.9-.1,1-1.4,0-1.4,0,0,0,0,0,0h0s0-.1-.2-.1h0c0-.1,0-.2,0-.2,0-.1,0-.2-.2-.3h0c0-.2,0-.3,0-.4h0v-.5c0-.5,0-.6,0-.6h0Z"/>
    <path class="st1" d="M1559.8,122.6c.2-1.5,2.4-1.7,3.4-1.1,1.7,1,1.2,3.7.4,5.2-.2.4,0,.9.5.9,1.3,0,2.2.8,2.8,1.9.5.9.7,2.1.5,3.1,0,.6-.4,1.1-.8,1.6-.5.7-.8,1.5-.3,2.2.4.6,1,1,1.8,1.2.9.2,1.7-.1,2.6-.4.7-.3,1.4-.6,2.2-.6.5.1.9.3,1,.8,0,.6,1,.7,1.3.2.6-1,1.2-2.1,2.1-2.9.7-.7,1.6-1.4,2.6-1.4s1.5.2,2.1.6c.6.5.8,1.1.5,1.8-.4.9-1.3,1.6-1.8,2.5-.5.7-.7,1.7-.6,2.5.2.8.8,1.6,1.7,1.6,1,.1,1.7-.7,2.3-1.4.5-.6.9-1.1,1.7-.9.7.1,1.2.6,1.3,1.3,0,.3.3.4.6.5.3.1.5-.1.7-.3.8-.9,1.7-1.7,2.8-2.2,1.6-.6,3.7-.3,4.4,1.3.6,1.4-.7,3.2-2.3,3.2s-.8.4-.8.9c.2,1.1,1.2,1.6,2.3,1.7,1.2.1,2.2-.5,3.3-.8.5-.1,1-.2,1.4,0s.8.6.9,1c.3.9-.3,1.8-1.2,2.1-.4.1-.6.5-.5.8,0,.4.5.5.8.5,1.2-.2,1.9,1.4,1.8,2.4-.2,1.4-1.6,2.5-2.8,3.3-.7.5-.2,1.5.6,1.1,1.2-.6,2.4-1.6,3.1-2.9h0c.8-.8,2-1.3,3.2-1.1,1.1.1,2.1.8,2.3,1.8,0,.5.6.6,1,.4,1.7-.7,2.4-2.5,3.1-4.1.6-1.3,1.2-2.7,2.6-3.2,1.2-.5,2.7-.3,3.7.4,2.2,1.5,1.3,5.4-1.3,6.3-.8.2-.7,1.3,0,1.3h0s0,0,0,.1h0s0,.1,0,.1h0c0,.6,0,.9,0,1.4,0,1.1.2,2.3,1.1,2.9.6.4,1.3.4,1.8.7.4.2.5.6.4,1,0,1.2-1.2,1.9-2.1,2.4-.6.3-1.2.7-1.8,1.1-.5.4-.9.9-1.2,1.5-.6,1-.9,2.5-.4,3.6.2.5.4,1.1.8,1.5.4.6.9,1,1.6,1.3,1,.6,2.4,1.1,2.5,2.4,0,1.1-1.6,1.4-2.4,1.7-1.2.5-2.5,1.8-1.8,3.2.3.6,1.3.1,1-.6-.2-.6.7-1.1,1.1-1.3.7-.3,1.4-.4,2.1-.7s1.3-.9,1.6-1.7c.2-.8,0-1.6-.4-2.2-.8-1.3-2.3-1.7-3.6-2.4-.5-.3-1.1-.6-1.3-1.2,0-.3,0-.6-.2-.9,0-.3,0-.5,0-.8,0-.6.2-1.2.5-1.6.4-.5,1-.9,1.5-1.2,1.2-.7,2.5-1.3,3.3-2.5.6-1,.9-2.4,0-3.3-.4-.5-1.1-.7-1.8-.8-.3-.1-.6-.2-.7-.3s-.2-.2-.2-.4c-.3-.8-.2-1.8-.3-2.6,0-.4-.2-.8-.4-1.1,1.3-.8,2.1-2.2,2.4-3.7.3-1.7-.3-3.4-1.7-4.5-1.3-1-3.3-1.2-4.9-.6-.8.3-1.6.8-2.2,1.4-.6.7-1,1.5-1.4,2.3-.5,1.2-1,2.5-2,3.3-.7-1-1.8-1.6-3.1-1.7-.7,0-1.6.1-2.2.5-.3.2-.5.4-.7.6,0-.2,0-.4,0-.6,0-1.3-.6-2.5-1.7-3.1.4-.5.7-1.1.8-1.8,0-1.3-.7-2.5-1.8-2.9-1.3-.6-2.7.2-4,.6-.5.1-.9.2-1.4.1.8-.3,1.5-.9,2-1.7.7-1.1.8-2.4.2-3.5-.5-1-1.6-1.8-2.7-2.1-2.3-.6-4.5.5-6.2,2.2-.4-.5-1-.9-1.6-1.1-1-.3-2.1,0-2.9.8-.3.4-.6.8-1,1.1,0,.1-.3.2-.4.3h-.3c-.2-.1-.3-.3-.4-.6s0-.7,0-1c.2-.4.5-.8.8-1.1.4-.4.8-.8,1.1-1.3.6-.9.8-2,.3-2.9-.8-1.7-3.2-2.4-4.9-1.8-1.9.6-3.1,2.2-4.2,3.8-.3-.2-.6-.4-.9-.5-.9-.3-1.8-.1-2.6.2-.7.3-1.6.8-2.4.7-.4-.1-1.1-.4-1-.8,0-.4.5-.7.7-1s.3-.6.4-.9c.2-.6.3-1.3.3-1.9,0-2.3-1.5-4.6-3.9-5.2.4-.8.6-1.7.6-2.6,0-1.9-1.2-3.8-3.3-3.8s-3.4.9-3.3,2.6c.3.2.9.2,1-.2h0Z"/>
    <path class="st2" d="M1512.9,277.2c1.6-1.3,3.8-.6,5.6-.7.2,0,.3-.3,0-.4-1-.6-2.3-.9-3.6-1-1.2,0-2.4.3-3.4,1.1-1,.8-1.7,2.2-1.6,3.4-1.8,0-3.6.8-4.8,2.3-1-.1-2.1-.2-3.2,0-1.2.2-2.4.6-3.4,1.3,0,0-.2-.1-.2-.1-.7-.3-1.3-.6-2-.9s-1.5-.6-2.2-.8c-1.5-.5-3-.8-4.5-1.2-3.1-.7-6.2-1.2-9.3-1.8-3.3-.6-6.6-1.2-9.9-1.8-3.3-.6-6.6-1.3-10-1.7-3.2-.5-6.6-.6-10,0-2.7.5-5.4,1.6-7.6,3.3-1.1.9-2.1,1.9-2.8,3-.8,1.2-1.4,2.5-2.3,3.6-1,1.1-2.3,1.8-3.5,2.6-1.1.7-2.1,1.5-2.9,2.4-1.7,1.7-3.1,3.7-4.6,5.5-.4.4-.8.9-1.2,1.3-.2.2-.4.4-.7.6,0,.1-.2.2-.3.3,0,.1-.2.1-.2.1-.4.3-.9.6-1.4.9,0,.1-.3.2-.4.2s-.4.2-.5.3c0,.1-.4.3-.6.4-.6.4-.4,1.2.3,1.2h.8c.4,0,.7-.2,1.1-.4,2.1-1,3.8-2.8,5.3-4.5,1.5-1.8,2.8-3.7,4.6-5.3,1-.9,2.1-1.5,3.2-2.3,1.3-.9,2.5-1.9,3.4-3.2.8-1.2,1.4-2.5,2.3-3.6.8-1,1.8-1.8,2.8-2.4,5.4-3.4,11.7-2.7,17.3-1.8,6.6,1.1,13.1,2.3,19.7,3.5,3.1.5,6.2,1.1,9.3,1.7,1.5.3,3.1.6,4.6.9.7.1,1.5.2,2.2.4h0c-.6.5-1.1,1.1-1.4,1.8-.5,1-.7,2.2-.6,3.2-.9-.1-1.8-.2-2.8-.1-1.3.1-2.8.4-3.9,1.2-.9.6-1.6,1.5-2,2.5-.7,1.8-.4,4.2,1.7,4.6.8.1,1.2-.9.6-1.2-.3-.2-.6-.4-.7-.6s0-.2-.2-.4c0-.1,0-.2,0-.3v-.2c0-.7,0-1.3.4-1.9.4-.7.9-1.2,1.7-1.6,2.2-1,4.7-.5,6.7,0s1.6-1,.9-1.5c-.6-.5-.8-1.2-.7-2,0-.7.5-1.6,1.1-2.2.3-.3.7-.6,1.1-.8,0,0,.2.1.3.1s.2-.2,0-.2h0c1.5-.7,3.4-.6,4.9-.4.3.1.8-.1,1-.4.9-1.6,3.2-2.4,4.7-1.7.8.4,1.8-.7,1.1-1.4-.2-.2-.3-.3-.3-.6h0v-.3q0-.2,0-.4c0-.6.4-1.1.9-1.6h0Z"/>
    <path class="st0" d="M1515.1,243.7c.2.1.3.2.5.3,1.7.8,4,.5,5.4-1.1.7-.8,1-1.7,1.1-2.6,0-.4,0-.9,0-1.3,0-.4-.4-.7-.7-1,0-.1-.4,0-.3.2.2.8.2,1.8,0,2.6-.3.8-.9,1.6-1.8,2-1.6.8-3.7.1-4.2-1.4h0q0-.1,0-.2c-.3-.7-1.7-.1-1.4.6,0,.1,0,.1,0,.2h0c.8,1.8-1.2,4.3-3.2,4.3s-.7.3-.8.7c0,.4.2.7.5.8.6.2,1.2.6,1.6,1.1.2.2.3.5.4.8,0,.3,0,.4,0,.7s-.6.7-.9.8c0,0,0,.1-.2.1h-.3c-.2,0-.2-.1-.4-.3-.2-.3-.8-.2-1.1.1-1.4,1.5-3.2,2.6-5.1,3.1-.6-.5-1.1-.9-1.7-1.4-.4-.4-1.5.1-1.2.7.7,1.7-1.7,3.3-3.3,3.1-2.3-.2-3.6-2.5-4.4-4.3-.2-.6-1.2-.4-1.4.2-.3,1.1-.6,2.5-1.6,3.4-.6.6-1.8,1.1-2.5.5-.3-.2-.7-.3-1,0-.3.2-.4.7-.2,1,.4.6.9,1.4.9,2.2s-.3,1.1-.8,1.2c-.7.1-1.1.8-.7,1.4.4.5.8.9,1.1,1.5.2.4.3,1,.2,1.4,0,.3-.4.6-.7.8q0,.1-.2.1h-.4s-.2-.1,0-.1c-.6-.5-1.6.1-1.4.8,0,.2,0,.4-.4.6s-.8.4-1.1.3c-1.1-.1-1.8-1.1-2.4-1.8-.2-.2-.6-.2-.9-.1-2,1.3-4.6.5-6.4-.3s-2-.8-2.7-1.5c-.3-.3-.4-.6-.3-1,0-.2.2-.6.4-.6.6-.2.8-1.2,0-1.3-1.3-.1-2.2-1.1-2.4-2.4-.2-1.1,0-2.5,1.2-3.2h0c0,0,0-.1.2-.1.7-.6-.2-1.6-.9-1.1,0,0,0,.1-.2.1h0c-1.2.9-3,.2-3.8-.8-.6-.7-.8-1.6-.9-2.5-.2-.9-.2-1.9-.2-2.9,0-.7-1-.6-1.2.1-.4,2.3-.5,5.1,1.3,6.8.9.8,2.1,1.3,3.4,1.3-.4.9-.5,1.9-.3,2.8.2,1.3,1,2.4,2.2,3-.3.5-.4,1.1-.4,1.7.2,1,1,1.7,1.9,2.2s2,1,3,1.4c2,.7,4.1,1,6.1,0,.8,1,1.9,2,3.4,2,1.1-.1,2.3-.8,2.7-1.7,1.1,0,2.2-.7,2.8-1.7.8-1.5,0-2.9-.8-4,.6-.4.9-1,1.1-1.7s0-1.3-.2-1.9c.8-.1,1.6-.4,2.2-.9.8-.7,1.4-1.6,1.8-2.5.3.5.7,1,1.1,1.5,1.4,1.5,3.5,2.4,5.7,1.5,1.3-.5,2.4-1.6,2.9-2.8.3.3.6.7,1,.8s1-.1,1.3-.3c.4-.1.8-.2,1.1-.4,1.3-.6,2.6-1.4,3.7-2.4,1.3.7,3.3-.4,3.9-1.8.4-.9.2-2-.3-2.8-.2-.3-.5-.6-.8-.9,1.3-.9,2.3-2.3,2.7-3.7h0Z"/>
    <path class="st0" d="M1530.8,192.1c1.1-.8,2.6-.7,3.8-.6.3,0,.8-.3.9-.6,0-.6.2-1.1.7-1.6.4-.5.9-.9,1.5-1.2,1.2-.6,2.6-.6,3.6.1.4.3,1-.3.6-.6-1.2-.9-3-1.1-4.5-.6-.8.3-1.6.7-2.2,1.2-.4.4-.9.9-1.2,1.5-1.6,0-3.4.2-4.6,1.4-.8.8-1.3,1.9-1.2,2.9-1.2.2-2.4.6-3.2,1.5-.8.9-1.2,2.3-.6,3.3-.6.6-1.3,1.2-2,1.7-.7.6-1.5,1.2-1.9,2-.5.9-.6,2-.2,2.9.6,1.3,2.1,2,3.6,2.3-1.1,1.4-1.4,3.3-.9,4.8.4,1.2,1.2,2.2,2.3,2.9.5.4,1,.6,1.6.9.3.1.6.3,1,.4,0,.2-.2.4-.3.6-.3.5-.4,1-.5,1.6,0,1.1.3,2.2,1.1,2.9,1.7,1.4,4.7,1,5.9-1.1.3-.5-.3-1-.8-.6-.3.3-.6.5-1,.6-.3.1-.7.2-1,.3-.7.1-1.4.1-2-.3-.6-.4-.8-1.1-.9-1.8,0-.4,0-.8,0-1.1s.4-.7.7-.9c.3-.2.4-.7.2-.9-.8-.7-1.9-1-2.8-1.6-.8-.5-1.5-1.3-1.9-2.2-.6-1.4-.3-3.4,1.2-4.3.6-.3.5-1.2,0-1.3-.9-.2-1.9-.4-2.7-.9-.3-.2-.6-.3-.9-.6-.2-.2-.4-.4-.4-.7-.2-.6,0-1.2.5-1.7.5-.6,1.2-1.1,1.9-1.6.8-.6,1.5-1.1,2.1-1.9.2-.3.2-.8,0-1-.2-.2-.3-.4-.2-.7,0-.4.2-.7.5-.9.8-.7,2-.8,3-.9.8-.1,1.2-.9.7-1.4-.2-.2-.2-.6,0-.9,0-.6.3-1,.7-1.3h0Z"/>
    <path class="st1" d="M1518.6,73.7c-1.6-.4-3.3,0-4.6.9-.6.5-1.1,1.2-1.3,1.9,0,.6-.2,1.1,0,1.7,0,.6,0,1.1,0,1.7-.4,1.1,1.3,1.6,1.7.5.3-.7.3-1.4.2-2.1v-1.2c0,0,0-.2,0-.2v-.2c0,0,.2,0,.2-.2,0,0,0-.2.2-.2h0c0-.2.2-.3.2-.3h0c.2-.2.3-.3.5-.4,0,0,.2,0,.2,0h.2c.2-.2.4-.2.6-.2h.9s.2,0,.2,0c0,0,.2,0,.2,0h.2c0,0,0,.2.2.2s.2,0,.2,0h0q0,.2.2.3h0c.3.6,1.2.8,1.6.2,1.3-2.3,4.7-3,6.8-1.4.6.4,1.4,0,1.4-.7s.3-.8.8-1.1c.5-.3,1-.4,1.7-.3h.2c0,0,.2,0,.2,0,.2,0,.3,0,.5.2.3.2.7.4.9.6.7.6,1.2,1.2,1.7,1.9.3.4.9.3,1.3,0,1.5-1.2,3.8-1.5,5.5-.5s2.7,2.9,2.4,4.8c0,.7.7,1.1,1.3.8.7-.3,1.4-.4,2.1,0,.8.3,1.4.8,1.9,1.4,1.2,1.6,1.2,3.8,1.3,5.7,0,.6.6,1,1.2.7.6-.2,1.2-.4,1.8-.7,1.3,1.3,1,3.9-.6,5,0,0-.2.2-.3.2-.7.6,0,1.6.9,1.2.2,0,.4-.2.5-.3.2,0,.3,0,.5,0,.3,0,.7,0,1,.3.7.4,1.2,1.1,1.4,1.9.2,1-.4,2-.9,2.8-.7,1-1.6,1.8-2.5,2.6-.5.5,0,1.2.5,1.3,1.7.2,3,1.8,2.9,3.5,0,1.6-1.6,3.1-3.3,3.2-.4,0-.7.3-.8.7,0,.3,0,.8.5.9,0,0,.2,0,.3,0h0q.2,0,.3.2c0,0,.2.4.3.7,0,.6,0,1.2-.4,1.8-.4.7-1.4,1-2.3,1.2-1.1.2-2.2.2-3.3,0-.9,0-1,1.1-.3,1.4,1,.4,1.8,1.1,2.4,2-.9.5-1.9,1.1-2.8,1.6-.3.2-.5.6-.4.9s.5.6.9.4c.8-.3,1.6,0,2.3.4.6.5,1.1,1.3.9,2.1,0,.3,0,.7.3.8.3.2.7,0,.9,0,.4-.4.9-.7,1.4-.8.5-.2,1.1-.3,1.7-.3,1.2,0,2.4.2,3.4,1,0,0,0,0,0,0-.9-.8-2.1-1.3-3.3-1.5-.7,0-1.3,0-2,0-.3,0-.6,0-.9.2,0-.9-.6-1.7-1.3-2.3-.3-.3-.7-.5-1.1-.7.4-.2.8-.5,1.3-.7.4-.2.5-.6.3-1-.3-.7-.7-1.2-1.2-1.7.3,0,.6,0,.9,0,1-.2,2.1-.6,2.8-1.2.6-.6,1-1.4,1.1-2.2,0-.8,0-1.8-.5-2.4,1.7-.8,3-2.4,3.1-4.3,0-2-1.2-3.8-2.9-4.6.7-.6,1.3-1.3,1.8-2.1.7-.9,1.1-2,1.2-3.2,0-1-.3-1.9-.9-2.6s-1.4-1.2-2.2-1.4c.5-.9.7-2,.6-3,0-.9-.4-1.8-1-2.5,0-.2-.3-.3-.5-.5-.4-.3-.7-.3-1.1-.2-.4,0-.7.3-1.1.4,0-2.1-.4-4.2-1.8-5.8-1.1-1.3-2.9-2.2-4.6-1.9,0-2.1-1.4-4.2-3.3-5.2-2.1-1.1-4.8-1-6.8.2-1.2-1.4-2.7-2.8-4.6-2.9-1.4,0-3,.6-3.7,1.8-2.5-1.1-5.8-.5-7.7,1.6-.3-.5-.7-.7-1.2-.8h0Z"/>
    <path class="st0" d="M1402.3,126.1c1.8,1.3,4.3,1,5.6-.8.5-.7.8-1.4.8-2.2,0,0,.3,0,.4,0,2.3.7,5-.4,5.6-2.9.2-.8.2-1.6,0-2.3.8,0,1.6-.4,2.2-1,1-.9,1.5-2.3,1.5-3.7,0-2.4-1.3-4.3-2.8-6,.6-.2,1.1-.5,1.4-.9,2.1-2.3.3-5.6-1.7-7.2-1-.8-2.2-1.2-3.4-1.4-.6,0-1.2,0-1.8,0-.6,0-1.1.3-1.7.5,0,0,0,.2,0,.2.6,0,1.2,0,1.8,0,.6,0,1.1.2,1.7.3,1.8.6,3.6,1.9,4.2,3.8.3.8.3,1.9-.3,2.6-.4.5-1.3.9-1.8.6-.8-.4-1.7.5-1,1.2,1,1,2,1.9,2.7,3.1,1,1.6,1.6,4.1,0,5.6-.3.2-.6.4-.9.5-.4,0-.6,0-1,0-.5-.7-1.2-1.3-2.1-1.6-.6-.2-1.3.4-1.1,1,.3,1.1,1.1,1.8,2.1,2.1,0,0,0,0,0,.2,0,.2,0,.4.2.7,0,.2,0,.2,0,.5v.6c0,0,0,.4-.2.5,0,.3-.3.6-.6.9-.2.2-.6.4-.8.5-.5,0-.7.2-1.1.2h-.6c-.2,0-.4,0-.6-.2-.4,0-.7-.3-1-.6-.2-.4-.4-.7-.7-1-.7-.7-1.7,0-1.4,1,.2.4.4.7.6,1,.4,1.1,0,2.6-1.1,3.1-.7.3-1.5.2-2.2,0-.8-.4-1.4-1-1.6-1.9-.2-.8-1.4-.7-1.4,0s0,1.2.4,1.7c.4.3.8.7,1.3,1.1h0Z"/>
    <path class="st0" d="M1381.1,244.2c1.3.9,2.8,1.6,4.4,1.6s2.4-.4,3.4-1.1c.6,1.7,2.1,3,3.9,3.3,1.6.2,3.2-.4,4.2-1.5.3.6.7,1.1,1.3,1.4,1.4.7,3.2.2,4.1-1,.2-.4-.3-.7-.6-.4-.7.9-2.1,1.1-3,.4-.6-.4-.9-1.2-.8-1.9.2-.3.3-.7.3-1.1,0-.4-.3-.7-.6-.8-.4-.1-.7.2-.9.5,0,.1,0,.2,0,.3-.6,1.5-2.2,2.5-3.7,2.3-1.8-.3-3-2.1-2.8-3.9s-1.4-1.2-1.7-.3c-.3,1.5-1.9,2.1-3.3,2-2-.1-3.7-1.6-5.2-2.9-.7-.6-1.8.6-1.1,1.2.4.4.6,1,.5,1.5,0,.6-.5,1.2-1,1.5-1.2.8-2.9.1-3.8-.9,0-.1-.2-.3-.3-.4-.7-.7-1.8.3-1.2,1.1,0,.1,0,.2.2.2.8,1,.7,2.6-.3,3.4-.7.6-1.7.7-2.6.5-.4-.4-.9-.7-1.4-.9-.8-.3-1.3.7-.8,1.3.4.5.9.9,1.5,1.1,0,.1.2.2.2.4,0,.2.2.5.2.8s0,.3,0,.4q0,.1,0,.2c-.4.6-1.5,1-2.1.4-.3-.3-.9.1-.7.5.6,1.9,3.3,1.5,4.2,0,.5-.8.5-1.6.3-2.4.9-.1,1.8-.4,2.5-1,.9-.8,1.3-1.9,1.3-3.1,1.3.6,2.8.6,4.1-.3.9-.4,1.4-1.4,1.6-2.4h0Z"/>
    <path class="st1" d="M1494.7,269.9c-.7.3-1.3.8-1.9,1.2-.6.3-1.2.6-1.8.9-1.3.5-2.6.9-4,1.1-5.4.8-10.6-.4-15.6-1.7-2.9-.8-5.7-1.6-8.7-2.1-1.5-.3-2.9-.5-4.5-.5s-1.6,0-2.3.1c-.8.1-1.5.2-2.3.3-.4,0-.4.6,0,.5.9-.1,1.8.1,2.6.1.9.1,1.7.2,2.6.3,1.7.3,3.3.6,4.9,1,5.5,1.4,10.9,3.4,16.7,3.9,2.7.2,5.4.1,8.1-.4,1.2-.3,2.5-.7,3.7-1.2s2.7-1.2,3.5-2.2c.6-.8,0-1.7-1-1.3h0Z"/>
    <path class="st0" d="M1373.4,196.6c.3-.2.5-.5.5-.8.3-1.6,2-2.9,3.6-2.8.8,0,1.6.4,2.2,1,.3.3.6.6.8,1,0,.2.2.4.2.5s0,.2,0,.4c0,0,0,.3,0,.2,0,.4.2.7.6.9.3.2.8.1,1.1-.1,1.4-1.3,3.5-2.1,5.3-1.4.7.3,1.4.9,1.8,1.5.2.4.3.7.4,1.1v.7c0,.2,0,.4,0,.7,0,1.1,1.6,1.4,2,.4,0-.2,0-.4,0-.6.2-.4.5-.8,1-1,.2-.1.6-.2.8-.2.4,0,.8.1,1.2.2,1.6.6,2.9,2,3.8,3.4.3.6,1.1.8,1.7.3,1.6-1.4,2.4-3.4,2.7-5.4.3-1.8.2-3.6.3-5.4,0-.9,0-1.8.3-2.7,0-.3.2-.8.3-1.2.2-.5.4-1,.5-1.5.3-1.3-.3-2.4-.9-3.5s-1.2-2.2-1.8-3.3-1.2-2.2-1.8-3.2c-.3-.6-.7-1.1-1-1.6-.2-.3-.4-.4-.6-.7-.2-.2-.3-.4-.4-.7.9-.4,1.6-1.2,1.8-2.1,1.4.3,3-.2,4.1-1.2.7-.7,1.2-1.6,1.3-2.6,0-.5,0-1-.2-1.5,0-.2-.2-.5-.2-.8h0c0,0,.2,0,0,0h0c.2.2.3.1.4-.1,0-.1,0-.3,0-.5s-.2-.4-.2-.4c0-.2-.4-.4-.6-.3-1.2.3-.9,1.7-.8,2.6,0,.7-.2,1.4-.6,1.9-.5.6-1.2,1-1.9,1.1-.7.2-1.3.1-1.9-.4-.6-.4-1.5.2-1.3.9,0,.1,0,.2,0,.3h0v.2s0,.3,0,.4c-.2.4-.4.6-.8.8-.3.2-.7.3-1,.3h-.2c0,0-.2-.1-.2-.1,0,0,0-.1-.2-.1,0,0-.2-.1-.2-.2-.5-.6-1.4-.2-1.4.5,0,.9-.7,1.7-1.5,2.1-.6.3-1.3.4-1.9.3-.3-.1-.6-.3-.9-.4-.9-.3-1.5,1-.7,1.5.3.2.6.3.9.4.6.4,1.1.9,1.4,1.5.8,1.5.5,3.5-1,4.4-1.4.9-3.5.8-4.7-.4-.6-.6-1.7.1-1.3.9.9,1.6-1.2,3.4-2.7,3.4-2.4.1-4.3-2.1-5.7-3.7-.5-.6-1.4,0-1.3.7.3,1.7-1,3.5-2.7,3.8-1.6.3-3.5-.7-4-2.3-.2-.5-.9-.9-1.3-.4-1.4,1.4-3.2,3.3-5.3,3.4-1.4,0-3.5-1.1-3.2-2.6,0-.4,0-.9-.5-1s-.9.1-1,.5c-.7,1.8-2.5,3.2-4.5,3.1-1.9,0-3.9-1.4-4.5-3.2-.3-.9-1.4-.7-1.5.1-.2,1.3-1.5,2.4-2.9,2.3-1.3-.1-2.6-1.2-2.7-2.6,0-.4-.2-.7-.7-.8-.4-.1-.8.1-.9.5-.3,1.1-1.6,1.7-2.7,1.7h-.9c-.2,0-.3-.1-.5-.1s-.2-.1-.2-.1h0c-.6-.3-.9-.6-1.2-1.3-.2-.5-.9-.6-1.3-.2-.9,1-2.1,1.8-3.4,2.1-1.1.3-2.2.3-3.2-.2-.2-.1-.4-.2-.6-.4h0q0-.2-.2-.3t-.3-.5c0-.1,0-.2-.2-.3s0-.1,0-.2c0-.2,0-.5-.2-.7,0-.2,0-.3,0-.5,0-.5,0-.8.2-1.2,0-.4.2-.6.5-1h0v-.2c.2-.1.3-.1.3-.2,0-.1.2-.2.4-.2.7-.2.5-1.4-.3-1.2-.6.2-1.2.3-1.7.8-.4.4-.8,1-.9,1.6-.3,1.1-.2,2.4.2,3.5.5,1.2,1.3,2,2.5,2.5,2.5,1.1,5.4,0,7.4-1.7,1.6,2,5.1,2,6.9.3.7,1.4,2.1,2.4,3.6,2.4,1.6.1,3-.8,3.8-2.1,1.1,1.7,3,2.8,5.1,2.8s3.8-.9,5-2.4c.7,1.3,2.3,2.2,3.8,2.4,2.4.2,4.5-1.5,6.2-3.1,1.1,1.8,3.2,2.8,5.3,2.4,1.8-.4,3.2-1.9,3.7-3.7.5.5,1.1,1,1.7,1.4,1.8,1.3,4.2,1.9,6.2.7,1.1-.7,2-1.8,2.2-3,.7.3,1.4.5,2.1.5,2.6,0,4.9-1.7,5.2-4.3.2-1.3-.2-2.7-1.1-3.8,1.3-.4,2.5-1.3,3-2.6.8.2,1.6.2,2.4-.2,0,.3.2.6.3.9,0,.3,0,.6.2.9.3.6.4,1.3.7,1.9.5,1.2,1,2.4,1.5,3.7.5,1.1,1,2.3,1.5,3.4.2.4.5.9.6,1.4,0,.4-.2.9-.4,1.3-.6,1.7-.8,3.5-.8,5.3,0,.9,0,1.8,0,2.7s0,.9,0,1.3,0,.4,0,.7v.4c0,.4-.2.8-.3,1.2,0,.2,0,.3-.2.5,0,.1,0,.2,0,.3h0c-.2.4-.3.7-.5,1-1.2-1.6-2.8-2.9-4.7-3.4-1.2-.2-2.4-.1-3.4.5h0c-.6-1.3-1.7-2.5-3.1-3-2.1-.9-4.4-.3-6.3.9-.8-1.9-2.6-3.3-4.7-3.5-2.2-.1-4.3,1.2-5.2,3.1-1.7-1.1-3.9-1.7-5.8-1-1.5.5-2.8,1.7-3.3,3.2-1.7-1-3.6-1.4-5.6-1.1-1.2.2-2.6.7-3.2,1.8-.6,1.2-.2,2.6,1,3.2.9.4,1.6-1.1.8-1.6-.2-.1,0,0,0-.1,0,.1,0-.1,0,0v-.4c0-.1,0-.2,0-.2,0-.1.2-.3.4-.4.6-.4,1.4-.5,2.1-.5,1.7,0,3.4.6,4.7,1.8.7.7,1.9.1,1.7-.9,0-.3,0-.6,0-.9,0-.4.2-.6.5-1,.4-.5,1.1-.9,1.7-1.1,1.8-.5,3.7.5,5.1,1.6.3.5.7.5.9.3h0Z"/>
    <path class="st0" d="M1322.2,153.1c-.2-.1-.4-.1-.6-.1-1.4-.5-2.1-2.4-2-3.9.2-2.1,1.6-4,2.8-5.6,1.5-2.1,3-4.1,4.5-6.2,1.2-1.6,2.3-3.6,4.2-4.4.6-.2,1.3-.3,1.9-.1.7.2,1.2.6,1.3,1.1,0,.5.5.8,1,.7.4,0,.9-.4.8-.9v-.7h0v-.2c0-.1,0-.2,0-.3.2-.5.2-.7.5-1.1.2-.4.4-.5.7-.8.2-.1.3-.3.5-.4.2-.1.3-.2.4-.3.4-.2.7-.4,1.1-.6.3-.1.6-.2,1-.3.7-.2,1.4-.2,2.2-.1.2,0,.8.2,1,.3,0,0,.3.2.5.3,0,.1.2.1.2.2,0,0,.2.2,0,.1.6.5,1.5.3,1.6-.6q0-.3.2-.7s0-.1,0-.1c0,0,0-.1,0-.1,0-.1,0-.2.2-.3h0c0-.2.2-.3.3-.3h0c0,0,0,0,0-.2,0,0,.2,0,.3-.2.9-.5,2.1-.7,3.2-.8,1.1,0,2.5,0,3.7,0,1.6,0,3.3,0,4.9.2,1.5,0,3,0,4.5.4,1.3.3,2.4,1,3.6,1.8,1.1.7,2.2,1.5,3.4,1.8.7.2,1.4.3,2.1.3s1.6-.2,2.4-.1c2.1.1,3.7,2.3,3.4,4.4,0,.8.8,1.2,1.4.9.8-.3,1.6-.4,2.4-.3.7.1,1.6.4,2.3.8,1.4.9,2.5,2.4,2.6,4,0,.8.7,1.2,1.4.9h0q0,0,.2-.1c0,0,.2-.1.3-.1h.9c.2.1.4.1.6.2,0,0,0,.1.2.1s0,.1.2.1c.2.1.4.2.5.4.2.2.2.1.4.3,0,.1.3.3.4.4q.2.2.3.4c0,.2.2.4.3.6,0,.1,0,.1,0,.2v.2c.2.2.2.4.2.6h0v.9c0,.2,0,.3-.2.5h0c0,.1,0,.2,0,.2,0,.1,0,.2-.2.3-.6.9.4,1.8,1.3,1.4,1.6-.8,3.8-.2,4.8,1.3.6.8.7,1.7.5,2.7,0,.3-.2,1-.4,1.3-.2.4-.5.9-.9,1.2-.9.7.3,2,1.2,1.3,1-.8,1.7-1.8,2-3,.5-2.2-.2-4.5-2.1-5.9-1.2-.9-2.7-1.3-4.1-1.2.2-1.5-.4-3-1.4-4.2-1.2-1.4-2.9-2.3-4.7-2.1-.9-3.7-4.9-6.2-8.6-5.5-.4-2.6-2.7-4.9-5.4-5-.8,0-1.7.2-2.5.1-.7,0-1.3-.2-1.9-.4-1.2-.5-2.3-1.4-3.5-2.1-1.4-.8-2.9-1.3-4.5-1.6-1.7-.2-3.4-.2-5.1-.3-1.8,0-3.5,0-5.2-.2-1.2,0-2.4,0-3.5.3-1.8.4-3.6,1.3-4.3,2.9-.6-.3-1.3-.5-2-.7-3.2-.5-6.8,1.5-8,4.6-1.2-.8-2.9-.9-4.4-.4-2.3.9-3.8,3.4-5.2,5.3-1.7,2.3-3.4,4.7-5,7-1.4,2.1-2.7,4.4-2.4,7,.2,1.1.6,2.1,1.3,2.9-2.2,1.1-3.6,4-2.7,6.3-2,1-4.1,2.6-4.4,4.9,0,1.3.4,2.6,1.3,3.5-.4.4-.7.9-.9,1.4-.5,1.8.5,3.6,1.4,5,.2.4.8.1.6-.3-.6-1.2-1.4-2.6-1-4,.2-.6.6-1.1,1.2-1.4.4.1.9.2,1.5,0,.8-.2.7-1.2,0-1.5-.4-.2-.9-.2-1.3-.1-.9-.5-1.4-1.8-1.2-2.8.5-1.9,2.6-3,4.3-3.6.5-.2.5-.9.2-1.3-.4-.5-.5-1-.4-1.6s.3-1.2.7-1.7.9-1,1.4-1.2c0,0,.2-.1.3-.1h.2s.3,0,.2,0c.4,0,.6,0,.8.1h0c0,0,.2,0,.2.1.4.1.8-.4.9-.8.6-.7.3-1.2-.2-1.3h0Z"/>
    <path class="st1" d="M1648.8,246c-.4,0-.8.1-.9.6,0,.4,0,.9.5.9,2,.2,3.7,1.2,4.7,2.8-1,.8-2.3,1.3-3.6,1.2-.4,0-.8.1-.9.6,0,.4,0,.8.5.9.9.2,1.5,1.1,1.3,2.1s-1.2,1.7-2.2,1.7-.6.2-.7.5c-.2.3,0,.6,0,.8.2.2.2.5.2.9s-.2.7-.4,1c-.2.3-.5.5-.8.7-.2.1-.4.1-.6.1h-.5c-.4,0-.7.4-.8.7,0,.4.2.7.5.8.2,0,.4.1.6.1.9.3,1.6,1.3,1.4,2.3-.2,1.1-1.4,2.1-2.5,2-.6,0-1.2.5-.9,1.1.4.8,1.2,2,.7,3-.2.3-.4.6-.8.8-.2.1-.4.1-.6,0-.6-.5-1.6.2-1.2,1,.7,1.2,1.2,2.5,1.6,3.8.3,1.2.5,2.4.6,3.6,0,1.1,0,2.3-.3,3.5-.3.9-.8,1.8-1.6,2.1-.4.1-.7.2-1.1.1-.3-.1-.5-.2-.7-.5-.4-.8-1.8,0-1.3.8.6,1.1,2,1.4,3.3,1,2.9-.9,3.3-4.5,3.2-6.9,0-2.5-.6-4.9-1.6-7.1.7-.2,1.3-.7,1.7-1.3.8-1.2.5-2.6,0-3.7,1.5-.4,2.8-1.6,3.1-3.2.2-1.2-.2-2.3-1-3,.4-.3.7-.6,1-1,.6-.8.8-1.7.6-2.5,1.2-.4,2.3-1.5,2.6-2.8.2-.9,0-1.8-.5-2.5,1.2-.3,2.3-.9,3.2-1.9.2-.3.3-.6.2-.9-1.4-2.4-3.6-3.9-6.1-4.2h0Z"/>
    <path class="st0" d="M1316.6,132.9c.8-.9,1.1-2.2,1-3.4-.2-2.3-1.6-4.1-3.2-5.5,1.3-1.3,1.5-3.5.7-5.2-.9-1.9-2.8-2.9-4.8-3.5h0c.2-.7,0-1.4-.7-1.8-.7-.4-1.6-.4-2.3-.4-1,0-1.9,0-2.9,0s-.6.8,0,.9c.7,0,1.3,0,2,.2.6,0,1.2,0,1.7,0s.8.2.9.4v.2h0c-.4,0-.7.3-.7.7s.3.7.7.7c1.8.3,3.9,1.1,4.8,2.9.7,1.3.5,3.2-.8,4-.5.3-.5.9,0,1.3,1.8,1.4,3.8,3.5,3.3,6.1-.2,1-.8,1.9-1.8,2.1-.7.2-1.6.1-2.1-.4,0-.1-.2-.2-.3-.4-.5-.6-1.6.1-1.2.8,0,.1,0,.1,0,.1h0c0,.2,0,.2,0,.3.5.8.4,2-.3,2.6-.7.5-1.6.4-2.2-.1-.2-.2-.4-.4-.6-.6-.3-.2-.7-.1-1,.1-.3.3-.2.7,0,1,.2.2.3.4.6.6.6.9.5,2.5-.5,3.1-1,.7-2.7.2-3.3-.9,0-.2,0-.3-.2-.5-.4-.8-1.7-.3-1.4.5,0,.1,0,.1,0,.2h0c0,.1,0,.1,0,.2.3,1-.7,2.1-1.6,2.4-1.7.5-3.5-.8-4.8-1.8-.5-.4-1.1.1-1.2.6,0,1.1.6,1.8,1.1,2.6.2.3.4.7.3,1.1,0,.4-.3.7-.6.9-1.8,1.5-4-.4-5.4-1.6-.3-.3-.7-.3-1-.1s-.3.8,0,1q0,.1.2.2c.5.5.5,1.3.2,2-.3.8-1,1.5-1.8,1.8-.9.3-2.2,0-3.2-.5-1.2-.7-2.1-1.7-2.9-2.8-.2-.3-.7-.3-.9-.2-2,1.2-4.7,2.3-6.8.7-.8-.6-1.2-1.4-1-2.3,0-.7.6-1.4,1.4-1.6,1-.2.7-1.7-.3-1.5-1.2.2-2.1,1.1-2.5,2.2-.8,2.3.6,4.4,2.7,5.2,2.3.9,4.7,0,6.7-1.1.8,1,1.7,1.9,2.8,2.6,2,1.2,4.7,1.4,6.3-.5.6-.7,1.1-1.6,1.2-2.6.5.3.9.6,1.5.7,1.2.4,2.6.3,3.7-.4,1-.7,1.7-1.9,1.4-3.1,0-.3-.2-.5-.3-.7,1.3.6,2.8.9,4.1.3.9-.4,1.8-1.2,2.1-2.1.2.1.3.2.5.3,1.7.8,3.8.3,4.7-1.4.4-.8.5-1.7.4-2.5.8.1,1.7-.1,2.4-.7.8-.6,1.2-1.6,1.1-2.6.3.1.7.1,1,.1,1.1.3,2.1-.2,2.8-1.1h0Z"/>
    <path class="st1" d="M1535.1,310.9c-.7.2-1.3.2-2,.2-1,0-2.1,0-2.9-.5-1-.7-1.7-2.4-.4-3.4.4-.3.3-.9,0-1.2-.3-.3-.8-.2-1.2.1-1.6,1.2-3.6-.3-4.2-1.6-1-2.3,1-5.3,2.3-7.4.3-.5,0-1-.4-1.2-3.4-.7-6.7-1.4-10.1-2.2-.5-.1-1,.3-1.1.8,0,1-1.8,1.2-2.6,1-1.4-.3-2.6-1.1-4.1-1.2-1.3-.1-2.7.6-3.4,1.8-.3.5-.5,1.1-.4,1.7,0,.7.8,1.1,1.3,1.6,1.1.9,2.1,1.8,3.2,2.7-1.3,1.1-2.6,2.2-3.9,3.3-.3.3-.4.9,0,1.2,1.9,1.5,4.2,2.6,6.8,3,.3,1.8.9,3.5,1.8,5-1.3.7-2.9.7-4-.1-.3-.2-.9-.3-1.2.1-1.2,1.3-2.4,2.7-3.5,4-.7-1.1-1.8-1.9-3.2-2.4-3.2-1.1-7.3-.1-9.3,3.1-1.8,2.8-1.7,6.5.5,8.6-.8.9-2,1.3-3.2,1.4-1.4.1-2.9-.1-4.2-.4-1.4-.4-2.8-.9-4.1-1.5-1.8-1-5.3-3.7-3.3-6.1.4-.5.3-.9,0-1.2-1.8-1.2-3.8-2.2-6-2.8-1.8-.5-3.9-.5-5.8.2-1,.4-1.8,1-2.6,1.6-.9.7-1.7,1-2.8.8-1.1-.2-2.1-.6-3.1-.9-1-.2-2.1-.3-3.1-.3-2,0-3.9.5-5.8,1.3-.4-.7,0-1.6.5-2.4.8-1.3,2-2.1,3.2-3.1,1.9-1.7,4.3-5.1,2-7-.2-.2-.6-.2-.9,0-1.9,1-4.2.6-5.7-.5.9-1.5,1-3.2.3-4.6-.2-.5-1-.4-1.4-.1-1.3,1.2-3.2,1.4-4.8,1-.7-.2-1.3-.5-1.8-1-.6-.6-.8-1.5-1.2-2.3-.6-1.5-1.6-2.8-3.2-3.4-2.9-1.1-6.8-.3-8.9,2.4-.3.4,0,1,.3,1.2s1,0,1.3-.4c1-1.2,2.7-1.9,4.2-1.9,1.4-.1,2.8.3,3.7,1.2.6.6.9,1.4,1.2,2.1.3.9.7,1.7,1.3,2.3,1.9,1.9,5.3,2.1,7.9.7,0,.9-.2,1.8-.8,2.5-.3.4-.4.8,0,1.2,1.9,1.9,5,2.2,7.7,1,.6.8,0,1.8-.6,2.7-.9,1.2-2.2,2.1-3.3,3.1-2,1.7-4.6,5.4-2,7.1.3.2.7.3,1.1.1,2.1-1.1,4.5-1.7,6.7-1.5,1,.1,2,.3,2.9.6,1,.3,2,.7,3.1.6s2-.6,2.8-1.3c.8-.6,1.4-1.3,2.4-1.6,1.8-.7,3.6-.4,5.2.2,1.5.5,3,1.2,4.3,2.1-.8,1.5-.7,3,.2,4.4,1.8,2.9,5.4,4.5,8.8,5.3,3.2.7,7.2.6,9.3-2.5.2-.3.2-.8,0-1-1.2-.9-1.8-2.2-1.8-3.6,0-2.6,1.6-5.3,4.5-6,2.5-.6,5.5.5,6.3,2.8.2.5.9.8,1.4.3,1.3-1.5,2.6-2.9,3.9-4.3,1.9,1,4.4.6,6.2-.9.3-.2.3-.7.2-1-1.2-1.7-1.8-3.6-2.1-5.7,0-.3-.3-.5-.6-.5-2.1-.3-4.1-1.1-5.8-2.2,1.3-1.1,2.5-2.2,3.8-3.3.4-.3.4-.9,0-1.2-.8-.7-1.6-1.4-2.4-2.1-.4-.3-.8-.7-1.2-1-.3-.3-.8-.5-1-.8-.3-.4.2-.9.6-1.1.6-.4,1.3-.4,2-.2,1.6.4,2.9,1.4,4.7,1.1,1.1-.2,2.2-.8,2.8-1.7,2.8.6,5.5,1.2,8.2,1.8-1.7,2.6-3.2,5.9-1.7,8.5.9,1.5,2.6,2.5,4.4,2.3-.2,1.3.4,2.8,1.4,3.6,1.1.9,2.4,1,3.9.7.7-.1,1.4-.5,2.1-.8.8-.4,1.6-.7,2.4-1.1.2-.1,0-.3,0-.3-.4-.1-1.1.2-1.7.4h0Z"/>
    <path class="st1" d="M1636.9,287.3c-.4,0-.8.4-.8.8s.3.8.7.7h.4q0,0,0,0h0q.2,0,.4.2c0,.1,0,0,.2.1l.2.2h0c0,.2,0,.3.2.4,0,.3.2.6.3,1h0v.9h0c0,.5-.2.8-.4,1.1,0,.1-.2.2-.3.4-.2.1-.3.3-.5.4-1.9,1.2-4.4.5-5.8-.8-.6-.5-1.7.2-1.2,1,.4.6.2,1.4-.2,2-.4.7-1.2,1.3-1.9,1.5-2.2.8-4.4-.6-6.2-1.5-.6-.3-1.3.3-1.2.9.2,1.3-1.1,2.5-2.3,2.9-1.7.5-3.5-.2-4.9-1-.3-.2-.7-.1-.9.2-2.8,2.7-6.5,4.3-10.2,4.7-.6-.2-1.2-.2-1.8.3-.6.5,0,1.3.5,1.3h.8c0,.2,0,.4,0,.7-.5.8-1.6,1.3-2.4,1.8-2.1,1.3-4.3,2.5-6.6,3.5-.3.1-.6.4-.6.8,0,2,1.3,3.4,2.2,5,.2.3.3.6.4,1,0,.3,0,.6,0,.9-.2.7-.5,1.1-1.2,1.5,0,0,0,0-.2.1,0,0-.2.1-.3.1s-.3.1-.4.1c-.4.1-.8.1-1.3.1-.8,0-1.6-.2-2.4-.4-.8-.2-1.5-.4-2.4-.5s-1.7-.1-2.6.1c-1.1.2-2.2.7-2.8,1.5-1.6-2.5-3.2-4.9-4.7-7.4-.4-.6-1.3-.3-1.5.5-.2,1.4-1.7,2.5-3,2.6-1.5.1-2.6-1-2.7-2.4,0-.6-.9-.7-1.3-.2-.9,1-2.5,1.4-3.6.8s-1.3-2.2-.7-3.3c.4-.6-.3-1.5-1-1l-1.7,1.2c-1.2-.8-1.9-2.3-1.6-3.8,0-.4,0-.8-.5-.9s-.9.2-1,.6c-.5,2.4.5,4.7,2.6,5.8.2.1.6.1.8,0,.2-.1.3-.2.5-.4,0,1.3.6,2.5,1.7,3.1,1.3.8,3.2.7,4.6-.2.7,1.5,2.3,2.5,4,2.3,1.6-.1,3.1-1.2,3.9-2.5,1.6,2.4,3.1,4.9,4.7,7.3.3.5,1.3.4,1.4-.3,0-.1,0-.2,0-.3v-.2c0-.1.2-.1.2-.2h0c.2-.4.5-.5.8-.7.8-.3,1.6-.4,2.5-.4,1.6,0,3.2.7,4.8.9,1.6.1,3.7,0,4.9-1.4,1.3-1.5,1.1-3.3.3-4.7-.6-1.1-1.7-2.3-1.9-3.6,2.7-1.3,5.3-2.7,7.8-4.4,1-.7,2.1-1.8,1.9-3,3.5-.6,6.9-2.2,9.6-4.6,1.7.9,3.9,1.5,5.9.7,1.4-.6,2.7-1.8,3-3.2,2,1,4.3,1.9,6.6.9,1.5-.7,2.8-2.2,3.1-3.7.8.4,1.8.6,2.7.7,1.4.1,2.8-.4,4-1.3.9-.7,1.4-1.8,1.5-2.9.1-2.4-1.1-4.8-3.4-4.4h0Z"/>
    <path class="st2" d="M1560.6,278.7c.4.2.9-.4.6-.7-.4-.5-.6-1-.7-1.6s-.2-1.1,0-1.8c0-.1,0-.2,0-.4,0-.1,0-.3,0-.4,0-.3.2-.4.3-.7.3-.5.6-.9,1-1.1.6-.4,1.2-.5,1.9-.8.4-.2.9-.4,1.2-.8.3-.3.5-.6.7-1,.2-.3.3-.4.7-.3.4,0,.8.2,1.1.3.9.3,1.8.6,2.6.9,1.2.5,2.5,1.1,3.6,1.8,0,.3.3.5.5.3,0,0,0,0,0,.1-.3.6-.5,1.2-.8,1.8-.2.5.2,1,.7,1,.9-.2,1.9-.3,2.8-.4,0,.2.2.4.5.3.2-.1.4-.2.6-.3.3,0,.5.1.8.1.6.2,1.1.5,1.5,1,.3.4.8,1.2.6,1.8,0,.1,0,.1,0,0,0-.4.3-.7.3-1.1s0-.7-.2-1c-.3-.7-.8-1.3-1.4-1.7-.2-.1-.4-.2-.7-.3.3-.5.5-1,.7-1.6.3-1.2.4-2.5.2-3.8-.3-1.9-1.3-3.6-2.4-5.1,2.1.4,4.2.9,6.2,1.3,2.4.5,4.8,1,7.2,1.5,2.1.4,4.1,1,6,1.9,1.7.9,3.1,2.1,3.9,3.9.7,1.5.9,3.4.4,5.2h0c-1-.7-2.3-.9-3.6-.5-1.7.6-2.9,2.1-3.1,3.8,0,.3.5.4.6,0,.4-1.2,1.4-2.3,2.8-2.6,1.2-.2,2.4.3,3,1.2.3.5,1.1.5,1.4-.1h0c0-.1,0-.2,0-.2h.5q0,0,0,0h.2q0,0,.2.1c.2.1.3.1.4.3.2.3.3.9.2,1.4,0,.6-.3,1.2-.5,1.8-.2.7.4,1.1,1,.9,1.2-.2,2.5.6,2.6,1.9,0,.6-.2,1.2-.6,1.7-.4.6-.9.9-1.5,1.4-.3.3-.4.9,0,1,1.1.1,2.1-.6,2.8-1.5.7-.9.9-2,.8-3-.2-1.7-1.7-2.9-3.4-3,0-.4.2-.9.2-1.3h0c.2-.1.3-.2.4-.4.3-.3.5-.6.7-1,.4-.6.7-1.3.9-2,.9-2.5.8-5.1-.2-7.3-.8-1.9-2.4-3.7-2.5-5.9,1.7-.7,3.2-1.6,4.5-3,.4.1.8.2,1.3.1,0,.5,0,1,0,1.4.2.8.8,1.6,1.6,1.8,1.3.2,3.4-1,2.7-2.5-.2-.5-1.1-.1-.9.4.3.8-1,1.1-1.5.8-.9-.5-.6-2.1-.4-3.1.2-.8-.8-1.3-1.3-.5q0,.2-.3.2h-.4c-.4-.1-.8-.3-1-.6-.6-.8-.8-1.8-1.4-2.6-.3-.4-.7-.7-1.2-.9s-1-.3-1.4-.6c-.6-.4-.8-1.4-.4-2.1.2-.4.6-.7,1.1-.9.4-.2.9-.2,1.3-.4.3-.1.3-.5,0-.7-.5-.6-1.5-.4-2.2-.2-.7.3-1.4.9-1.8,1.6-.6,1.3-.4,2.8.5,3.7.5.5,1.2.7,1.9.9.4.2.7.4.9.8,0,0-.2.1-.2.1-.2.1-.4.4-.6.5-.3.3-.6.6-.9.8-.7.5-1.4.9-2.2,1.2-1.8.7-3.6,1-5.4,1s-3.8-.4-5.7-.8c-1.9-.4-3.8-.8-5.6-1.3-3.7-.9-7.4-1.9-11-3-1.8-.5-3.7-1.1-5.5-1.7-.9-.3-1.9-.6-2.8-.9-.5-.2-1.1-.4-1.5-.9-.2-.2-.3-.4-.3-.5,0-.3.2-.6.4-.8.6-.7,1.2-1.4,1.8-2.1.7-.7,1.3-1.4,2-2.1.7-.7,1.3-1.3,1.9-2.1v.3c0,1,.5,2.1,1.6,2.2.9.1,1.8-.4,2.6-.8.8-.4,1.5-1,2.3-1.5.2-.1,0-.4-.2-.3-.9.4-1.8.7-2.7,1-.4.1-.9.3-1.3.3s-.3,0-.3-.1h0c0-.1,0-.2,0-.3h0v-.2c0-.2,0-.5,0-.7,0-.5,0-1-.2-1.5-.2-1.1-.9-1.9-2.1-2-.6,0-1.1.1-1.7.2-.2,0-.3,0-.5.1h-.3c0,0-.2,0-.2-.1,0-.3,0-.7,0-1s0-.6-.3-.9c-.3-.6-.9-.9-1.6-1.1-.7-.2-1.4-.1-2.2.1-.8.2-1.6.5-2.4.6-1.2.1-2.2-.6-2.8-1.4-.8-1.1-.9-2.5-.6-3.8s.9-2.7,1.9-3.7c.4-.5.9-.9,1.5-1.3.5-.3,1.1-.7,1.7-.9.5-.2.4-.8,0-.8-.9-.1-1.6.1-2.4.6-.8.4-1.4,1-2,1.6-1.2,1.4-2,3.1-2.3,4.9-.2,1.6,0,3.2.9,4.4s2.2,1.9,3.7,2c.9,0,1.8-.3,2.7-.5.7-.2,1.3-.3,1.9-.2.5.1.6.4.7,1,0,0-.3,0-.4.1-.2.1-.4.3-.6.5s-.3.4-.5.6c-.3.4-.6.7-.9,1-.6.7-1.3,1.3-2,1.9-1.4,1.2-3,2.3-4.7,3.1-7,3.7-15,4.3-22.6,4.6-4.2.2-8.5.3-12.7.2-2.1,0-4.3-.1-6.4-.1s-2.1-.1-3.2-.1-2.1,0-3.1.2c0,0-.2.2,0,.3,1,.4,2.2.6,3.4.8,1.2.1,2.4.3,3.7.4,2.4.2,4.9.3,7.3.3,4.3.1,8.7,0,13-.2,4.1-.2,8.2-.6,12.3-1.5,3.7-.8,7.3-2.1,10.5-4.1,1.5-.9,2.9-2,4.2-3.2.6-.6,1.2-1.2,1.7-1.8.3-.4.6-.8.9-1.2.2-.2.3-.5.4-.7.2.4.4.6.8.8.6.3,1.2.2,1.9.1.5-.1,1.2-.2,1.6-.1h.2c0,.1,0,.2,0,.2,0,0,0,.1,0,.1h0c0,.1,0,.2,0,.3,0,.2,0,.5,0,.7,0-.1-.2-.1-.3,0-1.1.5-2,1.2-2.9,2-.9.7-1.7,1.5-2.5,2.3s-1.8,1.6-2.1,2.7c-.2.9.2,1.8.8,2.4.6.5,1.3.8,2.1,1.1.9.3,1.9.6,2.8,1,1.9.6,3.9,1.2,5.9,1.8,3.9,1.2,7.8,2.2,11.8,3.1,2,.5,4,.9,6,1.3s4.1.6,6.2.4c1.8-.1,3.5-.6,5.1-1.4.8-.4,1.5-.9,2.2-1.4.3-.3.7-.6,1-.9l.2-.2c.3.6.7,1.2,1.2,1.6-1.5.9-3,1.7-4.7,2.1-.4.1-.6.4-.6.8-.2,1.4.2,2.7.8,4,.5,1.1,1.2,2,1.6,3.1.4,1,.7,2,.7,3.1s-.2,2.2-.6,3.4c-.2.5-.4,1-.7,1.5,0-.2-.3-.4-.5-.5-.7-.6-1.8-.8-2.7-.4,1.2-2.2,1-4.5,0-6.5-2-4-6.6-5.4-10.8-6.3-5.2-1.1-10.4-2.2-15.6-3.3-.8-.2-1.3.8-.9,1.4,1.5,1.8,3,3.7,3.5,6.1.2,1,.2,2,0,3,0,.5-.3,1-.5,1.4,0,.1,0,.2-.2.3-.7,0-1.4,0-2.1.1.2-.4.3-.8.4-1.1,0-.3,0-.6-.3-.8-.2-.2-.5-.3-.7-.5,1-2.9-.3-6-2.6-7.7-2.8-2.1-6.5-2.5-10-2.8-4.2-.4-8.4-.6-12.6-.9-8.5-.4-17.2-.6-25.8-.5-.4,0-.9.4-.9.9,0,1.1.3,2.2.7,3.2.7,1.7,1.9,3.2,3.4,4.2,1.5,1.1,3.4,1.9,5.4,1.8.8-.1,1-1.2.2-1.4-1-.2-2.1-.5-3-.9s-1.8-1-2.5-1.7c-1.2-1.2-2.1-2.8-2.4-4.5,4.4,0,8.8,0,13.1.1,8.2.2,16.3.7,24.4,1.3,3.2.2,6.8.6,9.2,2.6,1.7,1.4,2.9,3.6,2.6,5.8-1.4-.8-2.9-1.5-4.4-2.1-.9-.4-1.9-.8-3-.9-.6-.1-1.2,0-1.7.4-.4.3-.7.7-.9,1-.2.3-.4.5-.7.7-.4.2-.9.3-1.3.5-.7.3-1.4.7-1.9,1.3-1,1.1-1.6,2.5-1.7,3.9,0,.7,0,1.5.4,2.1.8.8,1.4,1.2,2,1.5h0Z"/>
    <path class="st1" d="M1553,306.4c.6.9.4,2.4-.4,3.2-1.4-.5-2.6-1.5-3.2-2.8h0c-.2-.4-.7-.3-1-.1s-.4.7-.2,1c0,.1,0,.2.2.3h0q0,.1,0,.3s0,.1,0,.2c-.2.3-.6.6-1,.9-.8.5-1.8.8-2.8.9-1.1.2-2.2.2-3.2-.2-.7-.3-1.2-.8-1.5-1.5s-.2-1.4.3-2c.3-.4,0-.9-.2-1-.4-.2-.8,0-1.1.3-.9,1.2-.8,2.6-.3,3.7,1.2,2.5,4.5,2.6,7.1,1.9,1.3-.3,2.5-.8,3.4-1.7.2-.1.3-.3.4-.5.3.3.6.5.8.7.4.3.9.6,1.4.8.6.2,1.2.6,1.8.1,1.7-1.4,2.3-3.9,1.2-5.5-.5-.7-1.9.2-1.4,1h0Z"/>
    <path class="st1" d="M1385.9,393.1c0,.2,5.7.4,9.1.5,2.2.1,4.4.2,6.6.3,6.9.3,13.8.6,15.7.7,15.6,1,47.1,3.3,46.9,2.2-.2-1.1-8.3.8-20.9-1-17.7-2.4-20.6-8.7-31.1-6.7-2.8.5-7.8,2-10.4-.5-1.6-1.6-2.2-4.6-5-5.5-.8-.2-1.2-.1-1.8-.6-1.7-1.3-1-4.4-1.2-5.1-1.9-6.8-4.8-13.5-5.5-20.4-.7-7.1.7-14.2,2.6-21.1.5-1.7,1-3.5,1.5-5.2s.9-3.4,1.6-5c.6-1.6,1.7-3.1,2.8-4.5,1.2-1.4,2.2-2.9,2.9-4.5.7-1.5,1.3-3.1,2.3-4.6.8-1.2,1.9-2.4,3.2-3.5,1.3-1,2.7-2,4.4-2.8s3.4-1.6,5.2-2.2c.2-.1,0-.4-.2-.3-1,.2-2,.4-2.9.6-3.9,1-7.2,3.1-9.6,5.3-1.3,1.2-2.2,2.6-2.9,4-.8,1.6-1.4,3.3-2.4,4.9-.9,1.5-2.3,3-3.4,4.5-1.1,1.6-1.7,3.3-2.2,5-1.1,3.5-2.1,7.1-3,10.7-1.8,7.1-2.6,14.4-1.4,21.7,1.2,7.1,4.3,14,5.9,21,1.1,5,4.5,7.7,3.2,9.9-1.9,3.4-9.9,1.7-10,2.2h0Z"/>
    <path class="st1" d="M1356.9,21.2c-.2,1.3,0,2.6.7,3.7.8,1.2,1.8,2,3.2,2.3.4.1.8-.1,1-.5,0-.4,0-.9-.5-1-1.8-.4-3.1-2.4-2.9-4.1.2-1.8,2.3-3.3,4.1-2.9.5.1,1.2-.3,1-.9-.5-1.6,0-3.2,1.2-4.3,1.1-1.1,2.8-1.8,4.3-1,.4.2,1.1.1,1.2-.4.6-2.6,3.5-4.4,6-3.4.4.2.9-.1,1-.5.3-1.2.7-2.7,1.7-3.5.9-.8,2.3-.7,3.4-.4,1.4.3,2.7.9,3.9,1.6,2.7,1.3,5.2,2.9,7.6,4.8.4.3,1,0,1.2-.4.4-1.4,2.5-1.8,3.4-.7.3.4,1.1.2,1.2-.3.4-1.5,1.5-2.8,2.9-3.5,1.4-.8,3-.9,4.6-.4s3.4,1.3,5.1.4c1.3-.7,1.8-2.3,3.1-2.9,1.1-.5,2.4,0,3.5.3,1.4.5,2.8,1.1,4.3,1.3,1.8.2,3.2-.5,4.8-1.2,1.2-.5,2.6-.7,3.9-.4,2.5.5,4.8,2.3,5.7,4.7.2.6.9.9,1.4.4,2-1.7,5.7,0,5.9,2.5,0,.7.8,1.1,1.4.6.9-.7,2.3-.4,3.1.4.8.9.7,2.3,0,3.3-.4.6.4,1.2.9.8,1.4-1.3,1.5-3.6.2-5.1-1-1.2-2.7-1.6-4.1-1.1-.9-3-4.7-4.6-7.5-3.3-1.3-2.8-4.2-4.6-7.2-5-1.6-.2-3.1.1-4.5.7-.8.3-1.6.8-2.5.9-.7,0-1.4,0-2,0-2.7-.6-6-2.7-8.6-.8-1.2.9-1.8,2.8-3.5,2.7-.9,0-1.7-.4-2.6-.7-.8-.3-1.6-.5-2.4-.5-2.8,0-5.6,1.7-6.7,4.3-1.5-.8-3.6-.4-4.6,1-1.2-1-2.5-1.9-3.8-2.7-1.4-.9-2.9-1.7-4.4-2.3-1.4-.6-2.8-1.2-4.4-1.3-1.5,0-3,.4-4,1.6-.7.9-1.1,1.9-1.4,3-1.4-.3-2.9,0-4.2.7-1.3.7-2.3,1.8-2.7,3.2-3.6-.9-7.9,2.7-7.2,6.4-2.6.1-4.7,1.7-5.2,4h0Z"/>
    <path class="st1" d="M1455.7,18.7c.5-.3,1.4-.4,2-.2.7.1,1.3.5,1.7,1,.8,1,.4,2.7-.7,3.4-.8.5-.5,1.4.4,1.6.6.1,1.1.5,1.4,1,.3.6.5,1.2.4,1.9-.2,1.7-1.8,3.2-3.1,4.3-.6.5,0,1.7.8,1.4.6-.2,1.1,0,1.5.5.4.4.6,1.1.4,1.6-.4,1.5-2.2,2.1-3.6,2.3-.4,0-.7.5-.7.9s.4.7.8.8c2.2.2,4.1,1.5,5.4,3.1.3.4,1.1.3,1.3,0,.8-1.4,2.4-2.2,4-2.2s1.7,0,2.5.5c.6.3,1.3.9,1.7,1.5.4.6,1.4.6,1.6,0,.6-2,2.7-3.4,4.8-3.4s2,.4,3,.7c1.2.4,2.5.6,3.6,0,.9-.6,1.2-1.8,2.2-2.1.9-.3,2,0,2.9.2,2.5.6,5.1,1.2,7.5,2.3,1.1.5,2.2,1.1,3.1,2,.7.7,1.3,1.6.9,2.6-.2.6.4,1.3,1,1.1,1.4-.5,3.2,0,4.1,1.1.9,1.3.7,3-.3,4.2-.3.3,0,.9.2,1.1.3.3.8.3,1.2,0,1.1-.9,3-1,4.1,0s1.1,2.9,0,4c-.4.5,0,1.2.7,1.2.5,0,1.2.4,1.6.7.3.2.5.5.6.7.2.2.4.7.4.8.2.7.3,1.3.2,2,0,0,0,.2,0,.4,0,0,0,.2,0,.2,0,0,0,0,0,.2-.2.3-.3.6-.5.7-.6.6,0,1.7.9,1.3s1.7-.3,2.5,0c.8.4,1.4,1.1,1.4,2,.2,2-2.5,3.3-4.2,2.8-.2,0-.2,0,0,.2.4.3,1,.6,1.5.6s1.1,0,1.7-.3c2-.8,3.3-3.2,2.1-5.1-.7-1.2-2.1-2-3.6-2.1.9-2.5-.4-5.5-2.9-6.6.8-1.7.6-3.8-.8-5.1-1.1-1-2.6-1.4-4.1-1.2.3-1.4,0-2.8-.8-4-1.1-1.4-2.9-2.2-4.7-2,0-1-.6-2-1.3-2.8-1.1-1.2-2.5-1.9-3.9-2.5-1.3-.6-2.7-1.1-4.1-1.5-1.3-.4-2.7-.7-4-1-1.2-.2-2.5-.4-3.7,0-.6.2-1.1.6-1.5,1.1-.3.4-.6,1-1.1,1.2-.4,0-1,0-1.4,0-.6-.2-1.2-.4-1.9-.6-1.1-.3-2.3-.4-3.5,0-1.8.4-3.5,1.5-4.4,3.1-.3-.3-.7-.5-1.1-.8-.7-.3-1.6-.6-2.5-.8-.8,0-1.7,0-2.5,0-1.3.3-2.5.9-3.4,1.9-.9-.9-2-1.6-3.2-2.1,1.2-.7,2.2-1.7,2.4-3.1.2-1.4-.7-3-2-3.6,1.2-1.3,2.3-2.7,2.4-4.5,0-1.5-.7-3-1.9-3.8,1-1.3,1.3-3.2.3-4.6-.6-.9-1.6-1.5-2.7-1.8-.6-.1-1.2-.2-1.8-.1-.6.1-1,.4-1.4.7-.3.2-.5.6-.3.9,0,.2.4.4.7.2h0Z"/>
    <path class="st0" d="M1348.8,110.2c1.1-.7,2.5.2,3.1,1.1.3.5.9,0,.7-.4-.7-1.7-2.8-2.7-4.5-1.9-.5.2-.8.5-1.1.9-.3-.4-.5-.8-.8-1.2-.6-1-1.1-2.1-1.4-3.2-1.4-4.3-1.7-8.8-.9-13.2.4-2.4,1.2-4.8,2.1-7.1.4-1.1.9-2.2,1.5-3.3.3-.6.6-1.2.8-1.8.3-.6.5-1.2.4-1.8,0-.3-.5-.4-.7-.3-.7.3-1.1,1.1-1.5,1.7s-.7,1.2-1,1.9c-.7,1.3-1.3,2.7-1.8,4.1-1.8,4.7-2.7,9.8-1.9,14.8.3,2.2,1,4.4,2,6.4s1.1,1.9,1.8,2.8c.3.4.6.8.9,1.1,0,.3-.2.7,0,1.1-.5.2-1,.5-1.3.9s-.5.8-.7,1.2c-.3.4-.7.4-1.1.4-1.1,0-2,.3-2.7,1.1-.5.6-.7,1.4-.8,2.2-.4-.2-.8-.4-1.2-.4-.8-.2-1.5,0-2.3.2-.6.2-1.1.2-1.7,0-1.2-.6-2-1.7-3-2.5-1.5-1.2-5-1.3-5.1,1.2,0,.9,1.4,1,1.4,0s0-.2,0-.4h0c0-.2.2-.2.3-.2,0,0,.2,0,.2,0h.9c.9,0,1.6.8,2.2,1.4.8.8,1.6,1.7,2.8,2.1.7.2,1.3,0,1.9,0s1.1-.4,1.7-.2c.9.2,1.7,1,1.8,1.9.2,1,1.8.7,1.6-.4,0,0,0-.2,0-.4-.2-.8-.2-1.5,0-2.3,0-.3.2-.8.3-1,.2-.3.4-.4.6-.5.6-.2,1.2,0,1.8-.2.7,0,1.2-.5,1.5-1.1.3-.4.5-.9.8-1.2,0,0,.3-.2.4-.2h0c.3.4.8.4,1.2.2.3-.3.3-.8,0-1.2,0,0-.2-.3-.2-.5,0,0,0,0,0,0s0,0,0-.2v-.4c.2-.4.4-.8.9-1h0Z"/>
    <path class="st1" d="M1524.2,268.7c1.2,1,2.8,1.7,4.4,1.9,0,0,0-.1,0-.1-1-.2-1.8-.7-2.4-1.4-.6-.7-1.2-1.4-1.7-2.1-1-1.4-2-2.9-3.1-4.2-1.3-1.5-3-2.6-5.1-3.2-2.3-.7-4.8-1-7.3-1.4-1.3-.2-2.7-.4-4-.6-.7-.1-1.3-.2-2-.3-.7-.1-1.4-.2-2.2.1-.4.2-.4.7-.2,1,.5.6,1.4.7,2.2.8.8.1,1.5.2,2.3.4,1.5.2,3,.5,4.5.7,2.3.4,4.9.5,7,1.4,1.8.7,3.1,1.9,4.3,3.3,1.1,1.1,2,2.5,3.3,3.7h0Z"/>
    <path class="st0" d="M1315.1,72.7c.7-1.6-.5-4-2.4-4s-.6.6,0,.8c1,.4,1.8,1.6,1.3,2.7-.5.9-1.8,1.2-2.6.6-.7-.5-1.4.5-.9,1.1.6.7,1.1,1.6,1.2,2.5,0,.7,0,1.6-.5,2-.4.4-1,.5-1.5.5s-.4,0-.6-.2-.3-.2-.3-.4c-.3-.9-1.7-.6-1.5.3.2,1.2.5,2.5.4,3.8,0,1-.4,2-1.1,2.6-.5.4-1.3.6-1.9.5-.3,0-.6,0-.8-.3-.2,0-.4-.3-.4-.6,0-.4-.5-.7-.9-.6s-.7.5-.6.9c.4,1.2,0,2.5-1.1,3.2-.4.3-.9.5-1.4.4-.9,0-1.6-.4-2.5,0-.7.2-1.2.8-1.9,1.1-.4.2-1,.3-1.4.3-1.1,0-2.1-.3-2.9-1-.3-.3-.7-.7-.9-1.1,0-.2-.2-.5-.3-.7-.2-.4-.4-.5-.7-.7,0,0-.3,0-.4,0-.4.3-.5.7-.4,1.2,0,.4.2.7.4,1.1.4.7,1,1.3,1.6,1.7,1.1.8,2.6,1.2,3.9,1,.7,0,1.3-.3,1.9-.6.4-.2.7-.5,1.1-.8s.7-.3,1.1-.2c.8,0,1.6.3,2.4,0,.7-.2,1.4-.7,1.9-1.2s.9-1.3,1.1-2c0,0,.2,0,.3,0,1.7.5,3.6-.2,4.6-1.6s1-3.2.8-4.9c1,.2,2.2,0,3-.7,1-.8,1.2-2.1,1.1-3.2,0-.7-.3-1.3-.6-1.9.9,0,2-.6,2.5-1.6h0Z"/>
    <path class="st0" d="M1353.8,76.1c-.2.2-.4.4-.7.6-.2.2-.4.3-.6.5-.4.2-.8.4-1.2.5-.6-.8-1.1-1.7-1.2-2.7-.2-1-1.7-.7-1.6.3,0,.5-.7.8-1.1.9-.8,0-1.6,0-2.3.3-1.2.4-1.9,1.7-3,2.2-.7.3-1.7.4-2.4.2-.9-.2-1.8-.6-2.4-1.2-.7-.7-1-1.3-1.1-2.3,0-.6-1-.8-1.3-.4-.9,1-2.7,1-3.5,0-.4-.5-.5-1.2-.4-1.9,0-.7.6-1.2.9-1.9.2-.4-.3-.7-.6-.6-1.1,0-1.7,1.3-1.9,2.3-.2,1.1,0,2.3.8,3.2,1.1,1.4,3.2,1.7,4.7.9.3.9.9,1.6,1.6,2.2,1.6,1.3,3.9,1.9,5.9,1.2-.7.9-1.3,1.8-2,2.8-.8,1.2-1.5,2.4-2.2,3.7-1.1,2-2,4.1-2.9,6.2-.4-.5-.8-1-1.3-1.5-1.6-1.6-3.4-2.9-5.3-4-1-.5-2.1-1-3.1-1.4-.6-.2-1.1-.3-1.7-.4s-1.1,0-1.6,0c-.4,0-.5.7-.2.9.6.3,1.2.7,1.8.9.6.2,1.3.5,1.9.7,1.2.5,2.3,1.1,3.4,1.8,2.2,1.4,4.1,3.2,5.6,5.3.4.7,1.5.7,1.8-.2.9-2.7,1.9-5.2,3.1-7.8.6-1.2,1.2-2.5,1.9-3.7.7-1.3,1.3-2.6,2.1-3.8,0-.2,0-.3,0-.5.4-.3.7-.7,1.1-1,.6-.6,1.2-.7,2.1-.7.8,0,1.6-.2,2.3-.7,0,.2.2.3.2.4.2.3.4.7.7,1,0,.2.3.3.5.5s.5,0,.8,0c.7,0,1.5-.5,2-1,.3-.2.5-.5.7-.8s.2-.7.3-1c0,0-.4-.3-.6,0h0Z"/>
    <path class="st1" d="M1245.2,78.8c1.3-1.4,3.6-1.7,5.2-.8.8.4,1.8-.5,1.1-1.3-1.2-1.3-1.9-3.6-.7-5.2.4-.6,1.2-1,1.9-1.1.7,0,1.4,0,1.9.6.8.8,1.9-.3,1.3-1.2-1-1.4-1-3.5,0-4.8,1.2-1.4,3.1-1.7,4.7-1,.7.3,1.5-.6,1.1-1.2-.9-1.4-1.5-3.7-.2-4.9.5-.5,1.2-.7,1.8-.6.6,0,1.2.3,1.4.8.4.7,1.6.5,1.6-.4,0-2.1,1.8-4.2,4-4.3,2.1,0,4.2,1.8,4.3,4,0,.9,1,1.2,1.6.5.6-.8,1.7-.8,2.6-.5,1.2.3,2.3.9,3.3,1.6.3.2,1,.2,1.2-.2.5-.9,1.6-1.3,2.4-.7.7.4,1.5-.3,1.1-1-.6-1,.6-2.2,1.7-2.4,1.6-.2,3.2,1.1,4.1,2.3,0,0,.2,0,.2,0-.2-.4-.4-.8-.7-1.2h0c.7.8,1.8-.2,1.1-.9-.4-.3-.7-.8-1-1.2s-.7-.7-1-1.2c-.5-.7-.9-1.5-1-2.3,0-.7.2-1.5.7-2,.2-.3.5-.5.8-.6.2,0,.5,0,.8,0,.5,0,1.2-.2,1.1-.8,0-1.3-1-2.5-2.2-2.9.5-1.8,2.5-3.2,4.4-2.8.4,0,.8,0,1-.5.2-.4,0-.9-.3-1.1-.3-.2-.4-.3-.6-.6,0-.2-.2-.5-.2-.8,0-.6,0-1.2.5-1.8.9-1.4,3-1.8,4.6-2.2.9-.2.8-1.6-.2-1.7-.3,0-.7,0-.9-.3l-.2-.2-.2-.2c0-.1-.2-.4-.3-.5,0-.1,0-.2,0-.4s0-.5,0-.5v-1.1c.2-.8.6-1.4,1.3-1.9,1.9-1.3,4.4-1.2,6.6-1,1,.1,1.1-1.5,0-1.6-.2,0-.3,0-.7-.2h0s0,0,0-.1c0,0-.3-.2-.2-.1-.4-.3-.6-.6-.7-1.1,0,.1,0-.2,0-.2,0-.1,0-.2,0-.4,0-.2,0-.4,0-.5,0-.5,0-1,0-1.4.2-1,.7-1.7,1.6-2.3,2.4-1.6,5.6-1.2,8.2-.9.6.1,1-.6.7-1.1-.5-.8-.6-1.7-.3-2.6.5-1.8,2-3.1,3.8-3.5,2.5-.6,5,.1,7.4.8.6.1,1-.2,1.1-.8.3-2.1,2.3-3.5,4.2-4,2.7-.6,5.5.5,7.9,1.7.5.2,1.1,0,1.2-.4.7-2.1,2.7-3.7,4.9-3.8,2.3,0,4.5,1.3,5.4,3.4.2.5,1,.5,1.2,0,.8-1.3,2.5-2,4-1.5.8.2,1.4.8,1.9,1.5.2.3.4.7.5,1.1,0,.4.3.8.3,1.2s0,.1.2,0c.2-.5.3-1,.2-1.5,0-.5-.2-1-.5-1.4-.5-.9-1.3-1.6-2.3-2-1.6-.6-3.5-.2-4.8,1-.5-.8-1.1-1.4-1.8-2-1.8-1.3-4.1-1.7-6.2-1-1.8.6-3.4,1.9-4.3,3.6-1.1-.5-2.2-.9-3.3-1.2-2.3-.6-4.7-.6-6.9.5-1.6.8-2.9,2.2-3.4,3.9-1.3-.3-2.7-.6-4.1-.7-1.5-.1-3,0-4.3.6-1.1.4-2,1.1-2.7,2-1.1,1.3-1.7,3.1-1.3,4.8-1.5-.1-2.9-.2-4.4.1-1.5.2-3.2.8-4.3,1.9-.9.9-1.4,2-1.6,3.3-.2,1.2,0,2.6.7,3.6-.6,0-1.3.1-1.9.2-1.3.2-2.6.8-3.6,1.8-.8.8-1.2,1.9-1.3,2.9,0,1.2.2,2.5,1,3.4-1.5.5-2.9,1.2-3.7,2.6-.6,1.1-.8,2.5-.4,3.7-2.4.5-4.5,2.5-4.7,5.1,0,.4.3.9.8.9s.9.2,1.1.5c-1.6.4-2.8,2.1-2.9,3.8,0,1.2.3,2.4,1,3.3.2.4.5.7.8,1.1-.7-.4-1.6-.6-2.4-.5-1.4.2-2.6,1.4-2.8,2.8-1,0-2.1.2-2.9,1-1.8-1.1-4.4-2.2-6.3-1.3-.2-.8-.7-1.5-1.2-2.1-1.6-1.8-4.2-2.5-6.4-1.6-1.6.7-2.9,2.1-3.5,3.8-1.4-.7-3.2-.5-4.4.5-1.6,1.3-1.8,3.5-1.2,5.4-1.8,0-3.6.7-4.8,2.1-1.1,1.3-1.4,3.1-1.1,4.7-1.5-.2-3.1.5-4.1,1.7-1.3,1.5-1.3,3.6-.5,5.4h-1c-2.1.2-4,1.3-5,3.2-.3.6-.5,1.3-.6,2-.4-2.2-1.5-4.2-3.1-5.8-.3-.3-.7-.3-1,0-.3.2-.6.5-.8.8,0-1.5-.2-3-1.5-4.1-.7-.6-1.7-.8-2.6-.5-.8.2-1.5.8-2.3,1s-1.5-.3-2.2-.7c-.8-.5-1.7-.9-2.7-1-1.8-.2-3.7.4-4.9,1.8-.8.9-1.1,2-1.1,3.2-1.6-.5-3.4-.3-4.8.6-1.5,1-2.5,2.8-2.5,4.6-1.7.2-3.2,1.3-3.8,2.9-.5,1.2-.3,2.5.3,3.6-1.9,0-3.9.6-4.7,2.4-.6,1.2-.5,2.8.3,3.8-1.4.9-2.2,2.7-1.7,4.3.3.9,1,1.7,1.9,2.1-.2.2-.5.3-.7.5-.8.6-1.6,1.1-2.4,1.7-.5.3-.7.9-.2,1.4.2.2.3.3.5.5-1.4,0-2.8.5-3.6,1.8-.5.7-.7,1.5-.6,2.3-1.3-.3-2.6-.3-3.6.7-.2.2-.3.4-.5.6-.7-.4-1.6-.7-2.4-.6-1.6,0-2.9,1.3-3.5,2.7-1.5-.6-3.2-.3-4.3,1-1,1.2-1.2,3-.5,4.4-1,.4-1.9.9-2.7,1.5-2,1.6-3.2,4.1-2.7,6.7.3,1.4,1,2.7,2,3.6-.8.6-1.4,1.6-1.6,2.6-.2,1.8,1,3.3,2.4,4.2-1.4,1.2-2.1,3.1-1.5,4.9.6,1.9,2.4,3.2,4.3,3.3-.2,1.7.9,3.4,2.4,4.2,0,.1.2.1.4.2-.9,0-1.8.1-2.6.3-1.1.3-2.3,1-2.2,2.3,0,1.3,1.1,2.5,1.8,3.5.6.7,1.1,1.4,1.8,2.1-.8,0-1.7-.1-2.4-.3-1-.2-2.2-.3-3.2.1-1.2.4-1.9,1.5-2,2.8,0,1.4.6,2.7,1.4,3.8.3.4.7.9,1.1,1.3-.6-.2-1.2-.3-1.8-.4-2.1-.2-4.1.8-4.7,2.9-.2.8-.2,1.6,0,2.3-.4-.1-.8-.3-1.2-.5-.9-.3-1.8-.7-2.7-.7s-2,.6-2.5,1.6c-.8,1.7.2,3.6,1.5,4.9-.6.3-1.1.8-1.5,1.4-1.2,1.9-1.2,4.4,0,6.3.9,1.4,2.3,2.4,3.7,3.1-.2.1-.4.2-.6.3-1.6.9-2.5,2.5-2.7,4.2.5.1.9.3,1.4.4,0-.5,0-1,.3-1.5.4-.9,1.1-1.6,2-2.1.8-.4,1.5-.4,2.3-.2,0,.1.2.1.3.1.4.2.8-.1,1-.5,0-.4,0-.8-.5-1-1.2-.5-2.4-1-3.5-1.7-.9-.6-1.8-1.3-2.4-2.2-.5-.7-.7-1.5-.7-2.4s.2-1.6.7-2.3c.4-.6,1-1,1.6-1s.6-.1.7-.4c0-.2,0-.6,0-.9-.9-.8-1.8-1.8-2.2-2.9,0-.4-.2-.8,0-1.2s.6-.6,1-.7c.8-.1,1.9.4,2.8.8,1.1.4,2.3.8,3.5.6.8-.1.8-1.3,0-1.5-.6-.2-.8-.6-.9-1.2,0-.7,0-1.4.6-1.9.2-.2.5-.5.9-.6.5-.2,1-.2,1.5-.2,1.2.1,2.4.5,3.5,1,.7.3,1.3-.2,1.1-1-.5-1.4-1.6-2.4-2.5-3.5-.7-.8-1.3-1.9-1.1-3,.2-.9,1-1.3,1.8-1.3,2.1,0,4.1.9,6.1.1.4-.2.5-.8.2-1.1-1.1-1-2.1-2.1-3-3.3-.5-.7-2-2.3-.8-3.1.5-.3,1.2-.5,1.8-.6.7-.1,1.3-.2,2-.1,1.4.1,2.7.3,3.9.9,0,0,0-.1,0-.1-.8-.6-1.6-1.1-2.6-1.4,1.2-.1,2.4-.5,3.4-1.1.2.5.5,1.1.9,1.5,1.4,1.5,3.6,2.1,5.6,1.4,1.7-.6,3-1.8,4.1-3.2,1,1,2.5,1.5,3.9,1.2,1.5-.3,2.7-1.4,3.2-2.7,1.4.7,3.2.7,4.6,0,.5,1.3,1.9,2.2,3.4,2.2s3.2-1.1,4.3-2.4c.6,1.6,1.7,3.1,3.3,3.5,1.2.3,2.5.1,3.5-.7.7,1.5,2.2,2.7,3.8,2.7,2.3,0,4.3-2.2,4.2-4.5,0-.7-1.1-.7-1.1-.1,0,1.7-1.3,3.3-3.1,3.2-1.6-.1-2.9-1.7-2.7-3.3,0-.8-1.3-1.1-1.5-.3-.2,1.3-1.8,1.8-2.9,1.4-1.5-.5-2.2-2.4-2.5-3.9,0-.7-1.1-.8-1.4-.3-.9,1.2-2.1,2.8-3.7,2.9-.6.1-1.2-.2-1.7-.6-.2-.2-.4-.4-.5-.6,0-.2,0-.4,0-.6.2-.8-.7-1.5-1.3-.9-1.3,1.2-3.4,1.3-4.7.1-.5-.5-1.5-.2-1.5.6,0,1.2-1,2.2-2.2,2.4-1.1.2-2.2-.5-2.7-1.6-.3-.6-1.3-.7-1.6-.1-.6,1-1.2,1.9-2.1,2.6-.7.6-1.8,1.1-2.7,1.2-.9.1-1.8-.2-2.5-.9-.6-.5-.9-1.2-.9-2.1,0-.8-1-1.2-1.5-.7-1.3,1.1-3.4,2.2-5.2,1.4-.6-.3-1.1-.8-1.4-1.5-.3-.6-.3-1.2,0-1.7.4-.6-.2-1.6-.9-1.4-1.4.4-3.2-.4-3.6-1.8-.4-1.4.4-3.2,1.8-3.6.8-.3.9-1.4,0-1.7-1.2-.5-2.6-1.6-2.7-3,0-.6.3-1.2.8-1.6.3-.2.6-.3.8-.4.3.1.6.2,1,.3.9.1,1.2-1.2.5-1.6-.4-.2-.8-.4-1.2-.4-.6-.3-1.2-.8-1.6-1.4-1-1.5-1.2-3.5-.2-5.1,1-1.8,2.8-2.9,4.8-3.4.6,0,1-1,.5-1.5-.9-.8-1.1-2.2-.3-3.1.7-.8,2.2-.9,3-.2.6.5,1.5.3,1.6-.6,0-1.1,1-2.2,2.2-2.3.7,0,1.3.2,1.8.7,0,.7.4,1.4,1.1,1.8.7.3,1.5,0,1.4-.9,0-.5-.3-1-.7-1.5,0,0,0-.3,0-.2,0-.3.2-.3.4-.5h0c0,0,0-.2,0-.2,0,0,.2,0,.4,0,.3,0,.7,0,1.1,0,.8.2,1.5.5,2.1.8h0c0,0,0,0,.2,0,.9.4,1.7-1.2.8-1.6,0,0,0,0-.2,0,0,0,0,0,0,0h0l-.2-.2h0c0,0,0,0,0-.2h0v-.6c0-.3,0-.6,0-.7,0-.3,0-.4.4-.7,0,0,0,0,0,0q0,0,.2,0c0,0,.3-.2.5-.3.3-.2.7-.2,1-.3.8,0,1.5,0,2.2.3.8.2,1.5-.8.9-1.4-.5-.5-.9-1-1.4-1.6.5-.4,1.1-.7,1.6-1.1.4-.3.9-.6,1.3-.9.3-.3.6-.6,1-.8.4,0,.7-.4,1-.7.2-.2,0-.6-.3-.6s-.7,0-1.1,0-.6,0-.9-.3c-.6-.2-1.1-.6-1.3-1.2-.2-.5,0-1.2.3-1.8.3-.5,1-.9,1.5-.9,1.1,0,1.2-1.6,0-1.7-.2,0-.4,0-.5-.3-.2-.2-.3-.4-.3-.7,0-.6,0-1.2.2-1.7.4-.6,1.2-1,2.1-1.2s1.9,0,2.9,0c.9,0,1.1-1.1.5-1.5-1-.7-1.4-2.2-1-3.3.5-1.2,1.9-1.9,3.1-1.7.6,0,.9-.5.9-1-.2-1.4.5-3.1,1.7-3.9,1.4-.9,3.2-.8,4.6.2.7.5,1.5-.4,1.2-1.1-.6-1.3,0-3,1.1-3.9,1.1-.8,2.7-.9,4-.4.7.3,1.4.8,2.1,1.1s1.5.4,2.3.2c1.1-.3,2.5-1.6,3.6-.6,1.3,1.2.8,3.1.4,4.6-.2.7.7,1.4,1.2.8.7-.7,1.3-1.3,2-1.9,1.4,1.4,2.4,3.3,2.7,5.3,0,0-.2,0-.3-.2-.4-.3-1,0-1.2.4-.8,2.5,0,5.7,2.4,7,.3.2.7,0,.9,0,.2-.2.2-.7,0-.9-1.2-1.1-2-2.7-2-4.3.8.6,1.5,1.1,2.3,1.7.4.3.9.2,1.2-.2.3-.4.2-.8,0-1.2-1.4-1.1-1.2-3.6.2-5.1h0Z"/>
    <path class="st0" d="M1336,116.5c.2.7,1.1.9,1.6.3.2-.3.3-.6.3-1,0-.3,0-.7.2-1.1,0-.6,0-1.3,0-1.9,0-1.3,0-2.6-.3-3.9-.8-4.4-2.9-8.6-6.1-11.7-1.5-1.5-3.3-2.9-5.3-3.8-1-.5-2-.9-3.1-1.1-1-.2-2.1-.3-3.1-.5-.2,0-.3.3,0,.4,1.1.3,2.1.8,3.1,1.4,1,.5,1.9,1,2.9,1.6,3.4,2.1,6.3,5.2,8,8.9.9,1.9,1.4,3.9,1.7,6,0,1,.2,2.1.2,3.1s0,1.1,0,1.6c0,.5-.2,1.2,0,1.7h0Z"/>
  </g>
  <g>
    <g>
      <g>
        <path class="st0" d="M508.6,492.8h6.2v66.3h-6.1v-66.3h0Z"/>
        <path class="st0" d="M550.2,510c7.4,0,13.5,2.7,18.3,8,4.4,4.9,6.6,10.6,6.6,17.3s-2.3,12.5-7,17.5-10.6,7.5-17.9,7.5-13.3-2.5-18-7.5-7-10.8-7-17.5,2.2-12.4,6.6-17.2c4.9-5.4,11-8.1,18.4-8.1h0ZM550.2,516c-5.1,0-9.5,1.9-13.2,5.7s-5.5,8.3-5.5,13.7.8,6.7,2.5,9.7,3.9,5.3,6.8,6.9c2.8,1.6,6,2.4,9.4,2.4s6.5-.8,9.4-2.4c2.8-1.6,5.1-3.9,6.8-6.9s2.5-6.2,2.5-9.7c0-5.4-1.8-9.9-5.5-13.7s-8.2-5.7-13.2-5.7h0Z"/>
        <path class="st0" d="M609.1,510c7.4,0,13.5,2.7,18.3,8,4.4,4.9,6.6,10.6,6.6,17.3s-2.3,12.5-7,17.5-10.6,7.5-17.9,7.5-13.3-2.5-18-7.5-7-10.8-7-17.5,2.2-12.4,6.6-17.2c4.9-5.4,11-8.1,18.4-8.1h0ZM609.1,516c-5.1,0-9.5,1.9-13.2,5.7s-5.5,8.3-5.5,13.7.8,6.7,2.5,9.7,3.9,5.3,6.8,6.9c2.8,1.6,6,2.4,9.4,2.4s6.5-.8,9.4-2.4c2.8-1.6,5.1-3.9,6.8-6.9s2.5-6.2,2.5-9.7c0-5.4-1.8-9.9-5.5-13.7s-8.1-5.7-13.2-5.7h0Z"/>
        <path class="st0" d="M693.1,492.8v66.3h-6.1v-8.2c-2.6,3.1-5.5,5.5-8.7,7.1s-6.7,2.4-10.5,2.4c-6.8,0-12.5-2.5-17.3-7.4s-7.2-10.9-7.2-17.9,2.4-12.8,7.2-17.7,10.7-7.3,17.5-7.3,7.5.8,10.7,2.5,6,4.2,8.4,7.5v-27.2h6ZM668.5,516c-3.4,0-6.6.8-9.5,2.5s-5.2,4-6.9,7.1c-1.7,3-2.6,6.3-2.6,9.7s.9,6.6,2.6,9.7c1.7,3.1,4,5.5,7,7.2,2.9,1.7,6,2.6,9.4,2.6s6.6-.8,9.6-2.5,5.3-4,7-6.9c1.6-2.9,2.4-6.2,2.4-9.8,0-5.5-1.8-10.2-5.5-13.9s-8.1-5.7-13.5-5.7h0Z"/>
        <path class="st0" d="M706.3,511.3h6.2v22.3c0,5.5.3,9.2.9,11.2.9,2.9,2.6,5.2,5,6.9s5.4,2.5,8.9,2.5,6.3-.8,8.7-2.5,4-3.8,5-6.5c.6-1.8.9-5.8.9-11.7v-22.3h6.3v23.5c0,6.6-.8,11.6-2.3,14.9s-3.8,6-6.9,7.8-7,2.8-11.6,2.8-8.5-1-11.7-2.8c-3.1-1.9-5.5-4.5-7-7.9s-2.3-8.5-2.3-15.3v-22.9h-.1Z"/>
        <path class="st0" d="M785.8,516.5l-4,4.1c-3.3-3.2-6.5-4.8-9.7-4.8s-3.7.7-5.1,2-2.1,2.9-2.1,4.6.6,3,1.8,4.4,3.6,3.1,7.4,5c4.6,2.4,7.7,4.7,9.3,6.9s2.4,4.7,2.4,7.5-1.4,7.2-4.1,10-6.2,4.1-10.3,4.1-5.4-.6-7.9-1.8-4.6-2.9-6.2-5l3.9-4.4c3.1,3.5,6.5,5.3,10,5.3s4.6-.8,6.3-2.4,2.6-3.4,2.6-5.6-.6-3.3-1.7-4.7c-1.1-1.3-3.7-3-7.8-5.1-4.3-2.2-7.2-4.4-8.8-6.6s-2.3-4.6-2.3-7.4,1.2-6.7,3.7-9c2.5-2.4,5.6-3.6,9.4-3.6,4.3,0,8.8,2.2,13.2,6.5h0Z"/>
      </g>
      <g>
        <path class="st0" d="M870,511.3h6.2v8.8c2.4-3.3,5.2-5.8,8.4-7.5s6.7-2.5,10.6-2.5c6.8,0,12.6,2.5,17.4,7.3s7.2,10.8,7.2,17.7-2.4,13-7.2,17.9-10.6,7.4-17.3,7.4-7.3-.8-10.5-2.4-6.1-3.9-8.7-7.1v25.7h-6.1v-65.3h0ZM894.6,516c-5.3,0-9.8,1.9-13.4,5.6-3.6,3.7-5.5,8.3-5.5,13.9s.8,6.9,2.4,9.8c1.6,2.9,4,5.2,7,6.9s6.2,2.5,9.6,2.5,6.4-.9,9.3-2.6c2.9-1.7,5.2-4.1,7-7.2,1.7-3.1,2.6-6.3,2.6-9.7s-.9-6.6-2.6-9.7c-1.7-3-4-5.4-6.9-7.1-2.9-1.6-6.1-2.4-9.5-2.4Z"/>
        <path class="st0" d="M971.6,543.2l5.2,2.7c-1.7,3.3-3.7,6-5.9,8.1-2.2,2-4.7,3.6-7.5,4.7-2.8,1.1-5.9,1.6-9.5,1.6-7.8,0-13.9-2.6-18.3-7.7-4.4-5.1-6.6-10.9-6.6-17.3s1.9-11.5,5.6-16.2c4.7-6,11-9,19-9s14.7,3.1,19.5,9.3c3.5,4.4,5.2,9.8,5.3,16.3h-43c0,5.5,1.9,10.1,5.3,13.7s7.7,5.3,12.7,5.3,4.8-.4,7.1-1.3c2.3-.8,4.3-2,5.9-3.4s3.3-3.7,5.2-6.8h0ZM971.6,530.3c-.8-3.3-2-5.9-3.6-7.9s-3.7-3.5-6.2-4.8-5.3-1.8-8.1-1.8c-4.7,0-8.7,1.5-12.1,4.5-2.5,2.2-4.3,5.5-5.6,9.9h35.6Z"/>
        <path class="st0" d="M987.5,511.3h6.3v7c1.9-2.8,3.8-4.8,5.9-6.2s4.2-2,6.5-2,3.5.5,5.5,1.6l-3.2,5.2c-1.3-.6-2.4-.8-3.2-.8-2,0-4,.8-5.9,2.5s-3.3,4.3-4.3,7.8c-.8,2.7-1.1,8.2-1.1,16.5v16.2h-6.3v-47.8h-.2Z"/>
        <path class="st0" d="M1057.1,543.2l5.2,2.7c-1.7,3.3-3.7,6-5.9,8.1-2.2,2-4.7,3.6-7.5,4.7-2.8,1.1-5.9,1.6-9.5,1.6-7.8,0-13.9-2.6-18.3-7.7-4.4-5.1-6.6-10.9-6.6-17.3s1.9-11.5,5.6-16.2c4.7-6,11-9,19-9s14.7,3.1,19.5,9.3c3.5,4.4,5.2,9.8,5.3,16.3h-43c0,5.5,1.9,10.1,5.3,13.7,3.4,3.5,7.7,5.3,12.7,5.3s4.8-.4,7.1-1.3c2.3-.8,4.3-2,5.9-3.4s3.4-3.7,5.2-6.8h0ZM1057.1,530.3c-.8-3.3-2-5.9-3.6-7.9s-3.7-3.5-6.2-4.8-5.3-1.8-8.1-1.8c-4.7,0-8.7,1.5-12.1,4.5-2.5,2.2-4.3,5.5-5.6,9.9h35.6Z"/>
      </g>
      <g>
        <path class="st0" d="M1159.9,493.5h6.2v17.8h9.8v5.3h-9.8v42.5h-6.2v-42.5h-8.4v-5.3h8.4v-17.8Z"/>
        <path class="st0" d="M1184.2,511.3h6.2v22.3c0,5.5.3,9.2.9,11.2.9,2.9,2.6,5.2,5,6.9s5.4,2.5,8.9,2.5,6.3-.8,8.7-2.5,4-3.8,4.9-6.5c.6-1.8.9-5.8.9-11.7v-22.3h6.3v23.5c0,6.6-.8,11.6-2.3,14.9s-3.8,6-6.9,7.8-7,2.8-11.6,2.8-8.6-1-11.7-2.8c-3.1-1.9-5.4-4.5-7-7.9-1.5-3.4-2.3-8.5-2.3-15.3v-22.9h0Z"/>
        <path class="st0" d="M1238.8,492.8h6.2v66.3h-6.2v-66.3h0Z"/>
        <path class="st0" d="M1298,543.2l5.2,2.7c-1.7,3.3-3.7,6-5.9,8.1-2.2,2-4.7,3.6-7.5,4.7-2.8,1.1-5.9,1.6-9.5,1.6-7.8,0-13.9-2.6-18.3-7.7s-6.6-10.9-6.6-17.3,1.9-11.5,5.6-16.2c4.7-6,11-9,19-9s14.7,3.1,19.5,9.3c3.5,4.4,5.2,9.8,5.3,16.3h-43c0,5.5,1.9,10.1,5.3,13.7,3.4,3.5,7.7,5.3,12.7,5.3s4.8-.4,7.1-1.3c2.3-.8,4.3-2,5.9-3.4s3.3-3.7,5.2-6.8h0ZM1298,530.3c-.8-3.3-2-5.9-3.6-7.9s-3.7-3.5-6.2-4.8-5.3-1.8-8.1-1.8c-4.7,0-8.7,1.5-12.1,4.5-2.5,2.2-4.3,5.5-5.6,9.9h35.6Z"/>
        <path class="st0" d="M1311.7,511.3h6.6l16.1,34.8,15.9-34.9h6.6l-21.9,47.8h-1.1l-22.2-47.7h0Z"/>
        <path class="st0" d="M1368.2,491.6c1.4,0,2.6.5,3.6,1.5s1.5,2.2,1.5,3.6-.5,2.6-1.5,3.6-2.2,1.5-3.6,1.5-2.6-.5-3.5-1.5-1.5-2.2-1.5-3.6.5-2.6,1.5-3.6,2.2-1.5,3.5-1.5ZM1365.2,511.3h6.2v47.8h-6.2v-47.8Z"/>
        <path class="st0" d="M1384.1,492.8h6.2v37.8l22.2-19.3h9l-26.3,22.8,27.8,25h-8.7l-24.1-21.5v21.5h-6.2v-66.3h0Z"/>
      </g>
      <circle class="st0" cx="829" cy="534.2" r="10"/>
      <circle class="st0" cx="1109.2" cy="534.2" r="10"/>
    </g>
    <g>
      <path class="st0" d="M1521.7,404.4c-506.1-37.8-1014.3-35.8-1520,6-.5-7-1.1-14-1.6-20.9,506.9-37.9,1015.9-35.9,1522.3,6-.3,3-.5,5.9-.7,8.9h0Z"/>
      <path class="st0" d="M1471.6,433.6c-406.2-30.1-814.2-28.2-1220,5.6l-1.5-19.5c407-30.2,815.6-28.3,1222.2,5.6-.2,2.7-.5,5.5-.7,8.3h0Z"/>
      <path class="st0" d="M1423,462.8c-306.4-22.4-614-20.6-920,5.2-.5-6-1-12.1-1.4-18.1,307-22.4,615.3-20.7,922,5.2,0,2.5-.4,5.1-.6,7.7Z"/>
    </g>
    <g>
      <path class="st0" d="M49.2,336.2c3-2.1,6.1-4.1,9.2-6.2,7.3,11.9,15.3,17.6,24.1,17.1,3.7-.2,7.2-1.2,10.4-3.1,3.2-1.9,5.6-4.4,7.1-7.4,1.6-3,2.3-6.1,2.1-9.4-.2-3.7-1.6-7.3-4.3-10.8-3.7-4.8-10.4-10.4-20-16.9-9.7-6.5-15.7-11.3-18.2-14.3-4.2-5-6.5-10.6-6.8-16.7-.3-4.8.7-9.3,2.8-13.4s5.2-7.4,9.3-9.9,8.7-3.9,13.6-4.2c5.3-.3,10.3.8,15,3.1,4.7,2.4,9.8,6.9,15.3,13.6-2.9,2.5-5.8,4.9-8.8,7.3-4.5-5.3-8.3-8.8-11.3-10.4-3.1-1.6-6.3-2.3-9.8-2.1-4.5.2-8.1,1.8-10.8,4.7-2.7,2.9-4,6.3-3.8,10.3,0,2.4.8,4.7,1.9,7,1.1,2.2,3.1,4.6,5.9,7.1,1.5,1.3,6.6,4.8,15,10.4,10,6.6,17,12.6,20.9,18s5.9,10.8,6.2,16.4c.4,8.1-2.3,15.2-8.1,21.5-5.8,6.3-13.1,9.6-21.9,10.1-6.8.4-13-1.1-18.7-4.4-5.9-3.4-11.3-9.2-16.3-17.4h0Z"/>
      <path class="st0" d="M215.5,266.3c1.2,27.4,2.5,54.8,3.8,82.3-3.5.2-7,.3-10.4.5-.2-4.7-.4-9.4-.6-14.1-4.2,5.6-9,9.9-14.4,12.9s-11.4,4.6-17.9,4.9c-11.6.5-21.8-3.2-30.5-11.2s-13.3-18.1-13.9-30.2c-.6-11.8,3.1-22.2,11-31s17.8-13.5,29.6-14.1c6.8-.3,13,.8,18.6,3.4s10.7,6.7,15.1,12.3c-.2-5-.5-10.1-.7-15.1,3.3-.3,6.8-.4,10.3-.6h0ZM173.4,276.4c-5.9.3-11.3,2-16.2,5.1s-8.6,7.4-11.4,12.8c-2.7,5.4-3.9,11-3.6,16.8.3,5.8,2.1,11.2,5.3,16.4s7.4,9.1,12.6,11.8,10.6,3.9,16.4,3.6c5.8-.3,11.2-2,16.3-5.2s8.9-7.3,11.4-12.4c2.6-5.1,3.7-10.8,3.4-17-.4-9.5-3.9-17.3-10.5-23.4-6.6-6.1-14.5-9-23.7-8.5h0Z"/>
      <path class="st0" d="M235.4,265.4c3.6-.2,7.2-.3,10.9-.5.2,4,.4,8,.5,12,3-4.9,6.3-8.6,9.8-11.1,3.5-2.5,7.2-3.8,11.1-4,2.9-.1,6.1.7,9.5,2.4-1.7,3-3.5,6.1-5.2,9.2-2.3-.9-4.2-1.3-5.7-1.2-3.5.1-6.9,1.8-10.1,4.8-3.2,3-5.5,7.6-6.9,13.8-1.1,4.8-1.4,14.2-.7,28.5.4,9.3.8,18.5,1.2,27.8-3.6.2-7.2.3-10.8.5-1.1-27.3-2.4-54.8-3.6-82.2h0Z"/>
      <path class="st0" d="M368.7,260c1,27.4,2.1,54.9,3.1,82.3-3.5.1-7,.3-10.5.4-.2-4.7-.4-9.4-.5-14.1-4.2,5.6-9.1,9.8-14.5,12.8-5.4,2.9-11.4,4.5-18,4.8-11.7.5-21.8-3.4-30.4-11.5s-13.2-18.2-13.7-30.3c-.5-11.9,3.2-22.1,11.3-30.9,8-8.8,17.9-13.4,29.7-13.9,6.8-.3,13,.9,18.6,3.6s10.6,6.8,15,12.4c-.2-5-.4-10.1-.6-15.1,3.5-.3,7-.4,10.5-.5h0ZM326.5,269.7c-5.9.2-11.3,1.9-16.2,5s-8.7,7.3-11.5,12.7c-2.7,5.4-4,11-3.8,16.8s2,11.3,5.2,16.4c3.2,5.2,7.4,9.1,12.5,11.9,5.1,2.7,10.6,4,16.3,3.8,5.8-.2,11.2-1.9,16.3-5,5.1-3.1,8.9-7.2,11.5-12.3,2.6-5.1,3.8-10.8,3.6-17-.4-9.5-3.8-17.4-10.4-23.5-6.4-6.3-14.3-9.2-23.5-8.8h0Z"/>
      <path class="st0" d="M392.8,259.1c3.5-.1,7.1-.3,10.6-.4.2,5,.4,10.1.5,15.1,4-5.9,8.7-10.4,14-13.5s11.4-4.7,18.2-4.9c11.8-.4,22,3.5,30.6,11.6s13.1,18.2,13.5,30c.4,12.1-3.4,22.5-11.4,31.2s-17.8,13.3-29.4,13.7c-6.6.2-12.6-.9-18.2-3.5s-10.7-6.4-15.4-11.6c.5,14.8,1.1,29.5,1.6,44.2-3.5.1-7.1.2-10.6.4-1.2-37.4-2.6-74.8-4-112.3h0ZM435.7,265.7c-9.2.3-16.9,3.8-22.9,10.4-6.1,6.6-8.9,14.7-8.6,24.2.2,6.2,1.8,11.8,4.8,16.7s7.1,8.7,12.5,11.4,10.9,4,16.7,3.8c5.7-.2,11-1.8,15.9-5,4.9-3.1,8.8-7.4,11.6-12.8s4.1-11,3.9-16.8-1.9-11.3-5-16.5-7.2-9.1-12.4-11.8-10.5-3.8-16.5-3.6Z"/>
      <path class="st0" d="M497.6,255.6c3.5-.1,7.1-.2,10.6-.3.4,12.8.8,25.6,1.2,38.4.3,9.4,1,15.8,2.1,19.3,1.7,5,4.7,8.9,9.1,11.7,4.4,2.8,9.5,4.1,15.4,3.9s10.9-1.7,15-4.7c4-3,6.8-6.8,8.2-11.5,1-3.2,1.3-10,1-20.2-.4-12.8-.7-25.6-1.1-38.4,3.6-.1,7.3-.2,10.9-.3.4,13.5.7,26.9,1.1,40.4.3,11.4-.8,19.9-3.3,25.8-2.5,5.8-6.4,10.4-11.6,13.8-5.2,3.4-11.9,5.2-19.9,5.5-8,.2-14.8-1.2-20.3-4.3-5.5-3.1-9.6-7.5-12.5-13.2-2.8-5.7-4.4-14.5-4.8-26.2-.3-13.3-.7-26.5-1.1-39.7h0Z"/>
      <path class="st0" d="M592.4,252.9c3.5-.1,7.1-.2,10.7-.3.3,12.8.7,25.6,1,38.4.2,9.4.9,15.8,2,19.3,1.7,5,4.7,8.9,9,11.7,4.3,2.8,9.5,4.1,15.4,4s10.9-1.7,15-4.6c4.1-3,6.8-6.8,8.3-11.4,1-3.2,1.4-10,1.1-20.2-.3-12.8-.6-25.6-.9-38.4,3.6-.1,7.3-.2,10.9-.2.3,13.5.6,26.9.9,40.4.3,11.4-.9,19.9-3.4,25.7s-6.4,10.4-11.7,13.8-11.9,5.2-19.9,5.4c-8,.2-14.8-1.3-20.2-4.4s-9.6-7.5-12.4-13.3-4.4-14.5-4.7-26.2c-.4-13.3-.8-26.5-1.1-39.7h0Z"/>
      <path class="st0" d="M733.6,220.9h10.6v65l38.2-33.2h15.6l-45.4,39.3,47.9,43.1h-14.9l-41.4-37.1v37h-10.6v-114.1h0Z"/>
      <path class="st0" d="M807.4,252.7h10.8v12c3.2-4.7,6.6-8.3,10.2-10.6,3.6-2.4,7.3-3.5,11.2-3.5s6,.9,9.4,2.8l-5.5,8.9c-2.2-1-4.1-1.4-5.6-1.4-3.5,0-6.9,1.5-10.2,4.4s-5.8,7.4-7.5,13.5c-1.3,4.7-2,14.2-2,28.5v27.7h-10.8v-82.3h0Z"/>
      <path class="st0" d="M856.7,252.7h10.6v38.4c0,9.4.5,15.8,1.5,19.4,1.5,5,4.4,9,8.7,12s9.4,4.4,15.3,4.4,10.9-1.4,15-4.3,7-6.6,8.5-11.2c1.1-3.2,1.6-9.9,1.6-20.2v-38.4h10.8v40.4c0,11.4-1.3,19.9-4,25.7-2.7,5.8-6.6,10.2-12,13.5-5.3,3.2-12,4.9-20,4.9s-14.7-1.6-20.1-4.9c-5.4-3.2-9.4-7.8-12-13.6s-4-14.6-4-26.3v-39.8h.1Z"/>
      <path class="st0" d="M952.3,252.7h10.6v14.8c4.2-5.6,8.9-9.9,14.1-12.7,5.2-2.8,10.8-4.2,16.8-4.2s11.6,1.6,16.4,4.7c4.8,3.1,8.3,7.3,10.6,12.6s3.4,13.5,3.4,24.8v42.3h-10.6v-39.3c0-9.5-.4-15.8-1.2-19-1.2-5.5-3.6-9.5-7.1-12.3s-8-4.1-13.6-4.1-12.2,2.1-17.2,6.4c-5.1,4.2-8.4,9.5-10,15.7-1,4.1-1.5,11.5-1.5,22.4v30.2h-10.6v-82.3h-.1Z"/>
      <path class="st0" d="M1129,220.9v114.1h-10.4v-14.1c-4.4,5.4-9.4,9.5-14.9,12.2s-11.6,4.1-18.1,4.1c-11.7,0-21.6-4.2-29.9-12.7-8.2-8.5-12.4-18.7-12.4-30.8s4.2-22,12.5-30.4,18.3-12.6,30.1-12.6,12.9,1.4,18.3,4.3c5.5,2.9,10.3,7.2,14.4,12.9v-46.9h10.4ZM1086.7,260.8c-5.9,0-11.3,1.5-16.3,4.4s-9,7-11.9,12.2-4.4,10.8-4.4,16.6,1.5,11.3,4.5,16.6,7,9.4,12,12.4,10.4,4.4,16.1,4.4,11.3-1.5,16.5-4.4,9.2-6.9,12-11.9,4.2-10.6,4.2-16.9c0-9.5-3.1-17.5-9.4-23.9-6.4-6.3-14.2-9.5-23.3-9.5h0Z"/>
      <path class="st0" d="M1156.7,218.8c2.4,0,4.5.9,6.2,2.6,1.7,1.7,2.6,3.8,2.6,6.2s-.9,4.4-2.6,6.1c-1.7,1.7-3.8,2.6-6.2,2.6s-4.4-.9-6.1-2.6c-1.7-1.7-2.6-3.8-2.6-6.1s.8-4.5,2.6-6.2c1.7-1.8,3.7-2.6,6.1-2.6ZM1151.4,252.7h10.6v82.3h-10.6v-82.3h0Z"/>
      <path class="st0" d="M1266.2,220.9v114.1h-10.4v-14.1c-4.4,5.4-9.4,9.5-14.9,12.2s-11.6,4.1-18.1,4.1c-11.7,0-21.6-4.2-29.9-12.7-8.2-8.5-12.4-18.7-12.4-30.8s4.2-22,12.5-30.4,18.3-12.6,30.1-12.6,12.9,1.4,18.3,4.3c5.5,2.9,10.3,7.2,14.4,12.9v-46.9h10.4ZM1223.9,260.8c-5.9,0-11.3,1.5-16.3,4.4s-9,7-11.9,12.2-4.4,10.8-4.4,16.6,1.5,11.3,4.5,16.6,7,9.4,12,12.4,10.4,4.4,16.1,4.4,11.3-1.5,16.5-4.4,9.2-6.9,12-11.9,4.2-10.6,4.2-16.9c0-9.5-3.1-17.5-9.4-23.9-6.4-6.3-14.2-9.5-23.3-9.5h0Z"/>
    </g>
  </g>
</svg>