<?xml version="1.0" encoding="UTF-8"?>
<svg id="Lager_1" xmlns="http://www.w3.org/2000/svg" version="1.1" viewBox="0 0 482 210.4">
  <!-- Generator: Adobe Illustrator 29.8.2, SVG Export Plug-In . SVG Version: 2.1.1 Build 3)  -->
  <defs>
    <style>
      .st0 {
        fill: #fff;
      }
    </style>
  </defs>
  <path class="st0" d="M130.5,53.7l-25.9,19.3c-12.2-10.5-28-12.6-36.6-12.6s-18,2.5-19.4,8.8c-1.4,6.1,4.3,10.9,14.1,13.5,11.1,3,21.3,5.7,36.9,10.1,23.2,6.6,39.1,16.7,39.1,40s-28.5,48.8-66.8,48.8S7.7,161.8,0,152.5l27.4-20.5c19.2,16.8,32.6,19.1,43.7,19.1s24.8-2.8,26.3-10c1.2-5.8-3.6-10.5-14.5-13-12.4-2.9-22.8-5.1-34.4-8.2-31.5-8.3-40.4-26.6-40.4-43.1S29.2,31,67.8,31s62.7,22.7,62.7,22.7M295.4,33.3h-115.4v144.2h117.5v-33.2h-76.9v-23.2h53v-31.8h-53v-23h74.8v-33ZM150.2,210.7h9V0h-9v210.7ZM312.7,210.7h9V0h-9v210.7ZM342.5,177.5h92.6c24.8,0,44.8-14.9,44.8-38.8s-12.2-31-29.3-36.5c-.5-.1-1.1-.2-1.7-.2.6,0,1.1-.1,1.7-.3,9.8-3.9,20.7-14.2,20.7-31.8s-19.7-36.5-44.1-36.5h-84.7v144.1ZM383.2,63.3h32.4c7.5,0,13.5,5.9,13.5,12.6s-6,12.7-13.5,12.7h-32.4v-25.3ZM422.8,145.4h-39.6v-26.3h39.6c7.3.3,12.9,6.4,12.6,13.7-.3,6.9-5.8,12.4-12.6,12.6h0Z"/>
</svg>