<?xml version="1.0" encoding="UTF-8"?>
<svg id="Layer_1" xmlns="http://www.w3.org/2000/svg" version="1.1" viewBox="0 0 161.8 25.3">
  <!-- Generator: Adobe Illustrator 29.8.2, SVG Export Plug-In . SVG Version: 2.1.1 Build 3)  -->
  <defs>
    <style>
      .st0 {
        fill: #fff;
      }
    </style>
  </defs>
  <path class="st0" d="M1.2,6.8c0,4.4,2.9,6,7.4,7.1,4.2,1,5.1,2.3,5.1,4s-1.6,3.1-4,3.1c-2.6,0-5.1-1.1-7-3,0,0-2.2,2.7-2.3,2.8,2.5,2.3,5.8,3.6,9.2,3.6,4.7,0,7.9-2.8,7.9-7s-2.2-5.8-7.1-7.1c-4.4-1.1-5.3-2.3-5.3-4s1.3-3,3.7-3c2.2,0,4.3.9,6,2.3l2-3C14.5,1,11.6,0,8.7,0,4.3,0,1.2,2.9,1.2,6.8Z"/>
  <path class="st0" d="M29.9,6.9l-3.8,12.1s-3.4-12-3.4-12.1h-3.8l5.4,17.4h3.3c0,0,3.8-12,3.8-12,0,0,3.8,11.9,3.8,12h3.3c0,0,5.4-17.2,5.5-17.4h-3.7l-3.5,12.1-3.8-12.1h-3.2Z"/>
  <path class="st0" d="M45.9,15.5h0c0,5.3,3.6,9,8.5,9,2.2,0,4.4-.6,6.3-1.8,0,0-1-2.9-1-3-1.5,1.1-3.3,1.6-5.2,1.6-2.5.1-4.7-1.8-4.9-4.3h0c0,0,12.3,0,12.3,0h0s0-1.1,0-1.1c0-4.6-2.5-9.3-8-9.3-4.6,0-8.1,3.9-8.1,9ZM49.6,14.3c.4-2.8,2.1-4.6,4.4-4.6s4,1.8,4.3,4.6h0c0,0-8.7,0-8.7,0h0Z"/>
  <path class="st0" d="M78.5,0v8.4h0c-1.4-1.3-3.3-1.9-5.1-1.8-3.8,0-7.7,3.1-7.7,9h0c0,5.9,4.1,9,8.1,9,2.9,0,5.7-.3,8.5-.8V0h-3.7ZM69.3,15.6h0c0-3.3,2.1-5.7,4.9-5.7s4.4,1.8,4.4,2.5v8.6h0c-1.4.2-2.9.3-4.3.3-2.8,0-4.9-2.4-4.9-5.6Z"/>
  <path class="st0" d="M87.1,0v23.8c2.8.5,5.7.7,8.5.8,4,0,8.1-3.1,8.1-9h0c0-5.9-3.9-9-7.7-9-1.9,0-3.7.6-5.1,1.8h0c0,0,0-8.3,0-8.3h-3.7ZM90.8,20.9h0v-8.6c0-.7,1.7-2.5,4.4-2.5s4.9,2.4,4.9,5.6h0c0,3.3-2.1,5.7-4.9,5.7-1.4,0-2.9,0-4.3-.3h0Z"/>
  <path class="st0" d="M108.3,8.1c0,.1,1,3,1,3.1,1.5-.7,3.1-1.1,4.8-1.1,2.7,0,4.2,1.3,4.2,3.8v.4h0c-1.5-.5-3-.8-4.6-.7-4.2,0-6.7,2.1-6.7,5.6h0c0,3.7,3.1,5.4,5.9,5.4,3.1,0,6.1-.3,9.2-.8v-9.8c0-4.8-2.5-7.3-7.3-7.3-2.2,0-4.3.5-6.3,1.4ZM110.6,19h0c0-1.8,1.5-2.8,3.9-2.8,1.3,0,2.6.2,3.9.7h0v4.4h0c-1.5.2-3,.3-4.5.3-2,0-3.3-1.1-3.3-2.6Z"/>
  <path class="st0" d="M126.7,7.3v16.8h3.7v-14h0c1.3-.2,2.5-.3,3.8-.3,2.3,0,3.6,1.7,3.6,4.5v9.8h3.7v-11c0-4.1-2.3-6.6-5.9-6.6-3,0-6,.3-9,.8Z"/>
  <path class="st0" d="M146.3,0v24.2h3.7v-4.9l2.4-2.6s5,7.5,5.1,7.5h4.3c-.1-.2-6.9-10.2-6.9-10.2l6.6-7h-4.5s-7,7.8-7,7.8V0h-3.7Z"/>
</svg>