<?xml version="1.0" encoding="UTF-8"?>
<svg id="Layer_2" data-name="Layer 2" xmlns="http://www.w3.org/2000/svg" viewBox="0 0 384 384">
  <g id="Layer_1-2" data-name="Layer 1">
    <g>
      <path d="M123.09,384c-3.39-2.61-6.33-5.21-3.01-9.39.49-.62,2.9-2.61,3.38-2.61h248.54v-18h-229.05c-.47,0-3.43-2.33-3.74-3.01-1.39-3.06.47-8.99,3.74-8.99h25.12v-174h-35.99v92.62c0,.6-2.28,3.22-3.03,3.72-4.12,2.74-7.79-.35-8.93-4.51l.52-100.64c1-1.93,2.85-3.15,5.04-3.21,15.48,1.1,32.78-1.4,48.04-.02,2.15.19,6.34,1.69,6.34,4.16v181.88h23.99V124.12c0-1.42,3.77-4.58,5.61-4.14,15.48,1.1,32.78-1.4,48.04-.02,2.15.19,6.34,1.69,6.34,4.16v217.88h23.99V88.12c0-1.42,3.77-4.58,5.61-4.14,15.48,1.1,32.78-1.4,48.04-.02,2.15.19,6.34,1.69,6.34,4.16v253.88h31.86c1.08,0,3.33,2.83,4.12,3.75v38.25H123.09ZM336.02,96h-35.99v246h35.99V96ZM252.04,132h-35.99v210h35.99v-210Z" fill="#fff"/>
      <path d="M320.27,0c2.18,1.91,3.42,3.26,3.77,6.36,1.92,16.92-1.43,37.42-.06,54.72-1.2,7.72-11.95,4.9-11.95.79V21c-21.87,19.64-44.08,38.94-67.99,56.11-47.09,33.81-107.11,66.03-165.65,72.05-6.1.63-19.52,3.63-18.26-6.22.85-6.68,11.65-5.03,16.85-5.7,49.9-6.43,94.92-27.56,136.77-54.43,31.83-20.44,61.92-44.77,89.28-70.81h-40.86c-4.54,0-5.86-10.26-.37-12h58.48Z" fill="#fff"/>
      <path d="M72.85,384h-13.5c-7.86-1.58-15.54-3.27-22.76-6.85-16.93-8.39-30.24-24.96-34.6-43.39-.71-2.98-.76-6.25-1.87-9,.29-4.38-.4-9.19,0-13.5,5.45-58.82,83.14-80.87,118.77-32.94,30.38,40.87,4.56,101-46.05,105.69ZM60.71,264.22c-68.87,6.27-61.55,112.53,9.51,107.77,70.3-4.71,63.38-114.4-9.51-107.77Z" fill="#fff"/>
      <path d="M84.1,198h-35.99v40.88c0,.46-1.99,2.94-2.6,3.39-3.91,2.87-8.38.22-9.35-4.18,1.49-14.35-2.16-33.38,0-47.16.56-3.6,3.02-4.66,6.29-4.95,15.27-1.37,32.54,1.11,48.04.02,4.01.47,5.29,2.49,5.64,6.36,1.33,14.66-.93,31.49-.19,46.38-1.4,4.03-5.5,6.29-9.23,3.55-.62-.45-2.6-2.93-2.6-3.39v-40.88Z" fill="#fff"/>
    </g>
    <path d="M52.44,307.11h27.62c1.23,0,3.47,3.06,3.57,4.49.12,1.67-1.53,5.42-3.1,5.42h-30.93v2.83h26.68c2.06,0,4.43,2.87,4.52,4.97.09,2.26-2.24,5.42-4.52,5.42h-23.37c5.22,9.12,15.34,13.11,25.6,11.2,3.32-.62,6.55-3.14,9.34.84,3.77,5.37-2.75,8.1-7.07,8.99-16.87,3.47-32.55-5.22-39.2-20.8-4.65-.19-11.41.03-10.37-6.58.83-5.25,8.51-3.77,8.48-4.28l-.51-2.56c-4.43.32-8.32-.09-8.03-5.47s6.07-4.16,9.96-4.7c5.85-15.6,21.21-25.01,37.86-22.3,4.5.73,11.43,2.13,9.5,8.29-1.82,5.81-8.45,1.8-12.18,1.48-9.96-.87-19.57,3.58-23.86,12.77Z" fill="#fff"/>
  </g>
</svg>