<?xml version="1.0" encoding="UTF-8"?>
<svg id="Layer_2" data-name="Layer 2" xmlns="http://www.w3.org/2000/svg" viewBox="0 0 333.15 289.34">
  <g id="Layer_1-2" data-name="Layer 1">
    <g>
      <path d="M46.73,18h197.61c2.66,0,3.81,4.84,4.02,6.98.79,7.84.98,28.96-.17,36.47-1.13,7.46-7.9,5.44-13.76,5.68v14.67c7.31-.58,17.97-.08,19.08,9.15.46,3.79.42,17.38-.82,20.48-1.35,3.37-4.9,5.76-8.42,6.24-4.58.62-27.27.74-31.12-.28-4.99-1.32-7.63-6.13-8.07-10.99-1.42-15.74.15-26.89,19.09-24.59v-14.67H95.13v211.91h28.6v-132.35c0-8.89,11.73-14.54,19.4-15.07,25.13-1.74,52.32,1.29,77.67.12,6.4-.59,17.32,8,17.32,14.21v133.09h13.93v-93.49c0-3.26,4.11-7.98,7.31-8.82s26.65-.86,30.14-.03c2.74.65,7.28,5.43,7.28,8.12v94.22h31.9c4.77,0,7.62,9.5-1.43,10.3l-303.62-.02c-4.48.12-6.23-4.97-4.07-8.33.2-.31,3.16-1.95,3.36-1.95h31.9V67.13h-8.07c.61,6.38-1.26,13.54-7.56,16.27-4.71,2.04-25.74,2.08-30.56.22s-7.42-6.33-7.99-11.07c1.08-18.92-1.71-39.93-.11-58.61C1.05,7.67,4.48,1.5,11.21.45c3.87-.6,21.79-.62,25.45.12,7.74,1.57,10.99,10.3,10.06,17.43ZM12.78,10.81c-.71.21-1.24.69-1.62,1.32l-.22,60.35c.19.66.7,1.32,1.32,1.62,1.18.58,20.5.72,22.22.22.71-.21,1.24-.69,1.62-1.32l.22-60.35c-.19-.66-.7-1.32-1.32-1.62-1.18-.58-20.5-.72-22.22-.22ZM94.39,28.27h-44l21.64,25.67,22.36-25.67ZM161.85,28.27h-44l22.36,25.67,21.64-25.67ZM229.31,28.27h-44.73l22.36,25.65,22.36-25.65ZM128.12,56.86l-22.26-25.61-21.73,25.61h44ZM150.86,56.86h44.73l-21.64-25.67-23.09,25.67ZM238.11,56.86v-22.73l-19.8,22.73h19.8ZM61.4,56.86l-14.67-16.87v16.87h14.67ZM84.86,67.13h-19.8v211.91h19.8V67.13ZM215.38,107.46h27.5l1.1-1.1v-13.2l-1.1-1.1h-27.5v15.4ZM133.99,147.42v131.62h94.59v-130.15c0-4.15-5.58-6.66-9.14-6.99-24.61-2.3-52.77,1.78-77.75.03-2.66-.27-7.18,3.11-7.7,5.5ZM286.51,186.65h-24.2v23.46h24.2v-23.46ZM286.51,220.38h-24.2v24.93h24.2v-24.93ZM286.51,255.58h-24.2v23.46h24.2v-23.46Z" fill="#2f8542"/>
      <path d="M149.64,159.77c3.57-3.61,19.84-3.72,23.24.09,3.66,4.1,3.78,22.22-2.92,24.26-2.26.69-13.88.7-16.5.29-3.64-.57-5.27-3.55-5.58-6.89-.35-3.78-.68-15.29,1.75-17.75ZM164.79,167.58h-7.34v6.61h7.34v-6.61Z" fill="#2f8542"/>
      <path d="M189.24,159.77c3.57-3.61,19.84-3.72,23.24.09,3.66,4.1,3.78,22.22-2.92,24.26-2.26.69-13.88.7-16.5.29-3.64-.57-5.27-3.55-5.58-6.89-.35-3.78-.68-15.29,1.75-17.75ZM204.39,167.58h-7.34v6.61h7.34v-6.61Z" fill="#2f8542"/>
      <path d="M149.64,199.37c3.57-3.61,19.84-3.72,23.24.09,3.66,4.1,3.78,22.22-2.92,24.26-2.26.69-13.88.7-16.5.29-3.64-.57-5.27-3.55-5.58-6.89-.35-3.78-.68-15.29,1.75-17.75ZM164.79,207.18h-7.34v6.61h7.34v-6.61Z" fill="#2f8542"/>
      <path d="M189.24,199.37c3.57-3.61,19.84-3.72,23.24.09,3.66,4.1,3.78,22.22-2.92,24.26-2.26.69-13.88.7-16.5.29-3.64-.57-5.27-3.55-5.58-6.89-.35-3.78-.68-15.29,1.75-17.75ZM204.39,207.18h-7.34v6.61h7.34v-6.61Z" fill="#2f8542"/>
      <path d="M149.64,238.96c3.57-3.61,19.84-3.72,23.24.09,3.66,4.1,3.78,22.22-2.92,24.26-2.26.69-13.88.7-16.5.29-3.64-.57-5.27-3.55-5.58-6.89-.35-3.78-.68-15.29,1.75-17.75ZM164.79,246.77h-7.34v6.61h7.34v-6.61Z" fill="#2f8542"/>
      <path d="M189.21,238.94c3.34-3.6,19.92-3.63,23.26.12,3.66,4.1,3.78,22.22-2.92,24.26-2.26.69-13.88.7-16.5.29-3.64-.57-5.27-3.55-5.58-6.89-.34-3.68-.58-15.28,1.73-17.77ZM204.39,246.77h-7.34v6.61h7.34v-6.61Z" fill="#2f8542"/>
    </g>
  </g>
</svg>