<?xml version="1.0" encoding="UTF-8"?>
<svg id="Layer_2" data-name="Layer 2" xmlns="http://www.w3.org/2000/svg" viewBox="0 0 384 384">
  <g id="Layer_1-2" data-name="Layer 1">
    <g>
      <path d="M370.41,0h13.5c-.22,4.45.3,9.06,0,13.5-.69,10.19-2.85,22.1-4.73,32.39-11.35,61.84-39.57,122.93-88.93,163.06,18.43,32.86,7.67,63.36-22.32,83.41-14.73,9.84-38.33,18.93-56.1,19.63-6.79.27-13.7-.64-12.33-9.32.4-2.53,7.1-9.26,9.08-12.67,3.59-6.17,6.17-13.98,6.61-21.14,1.08-17.5-5.29-10.59-15.91-6.91-11.35,3.93-24.71,9.83-36.58,6.87-12.94,29.12-45.47,38.75-74.71,42.32-15.43,1.89-16.82-.01-15.16-15.16,3.2-29.11,13.52-61.92,42.31-74.73-2.96-11.87,2.94-25.23,6.87-36.58,3.68-10.62,10.59-16.99-6.91-15.91-7.15.44-14.97,3.03-21.13,6.61-3.41,1.99-10.13,8.69-12.67,9.09-8.68,1.37-9.58-5.53-9.32-12.33.4-10.13,4.04-23.31,7.68-32.82,15.75-41.2,51.23-70.48,95.34-45.62C215.15,44.25,276.16,16.11,338.03,4.74c10.33-1.9,22.16-4.05,32.38-4.74ZM368.16,15.75c-22.18,1.76-43.79,7.2-65.23,12.76l51.37,52.49c1.65.25.88-.27,1.13-1.09,6.36-20.83,10.56-42.47,12.73-64.15ZM286.2,34.64c-64.07,21.81-112.4,71.95-140.62,132.42l.59,2.85,68.82,68.48c2.05.56,13.71-5.8,16.46-7.26,54.03-28.68,97.36-74.57,117.69-132.86l-62.93-63.62ZM134.21,156.75c8.07-18.06,19.17-34.65,30.73-50.63-38.65-23.57-69.79,20.25-75.71,54.38,13.89-5.87,30.59-9.94,44.97-3.75ZM200.2,245.99l-62.23-62.24-8.98,28.96c-.29,2.68,1.41,4.74,2.96,6.68,5.81,7.27,25.76,27.42,32.99,33,2.26,1.74,3.94,2.88,6.94,2.46,8.9-1.24,19.33-7.07,28.32-8.86ZM223.45,294.75c34.04-5.95,77.94-36.96,54.37-75.73-15.98,11.57-32.56,22.67-50.62,30.74,6.3,14.33,2,31.12-3.75,44.98ZM88.48,295.5c19.71-2.73,42.65-7.07,55.05-24.07,1.89-2.6,7.42-10.52,6.07-13.41l-23.65-23.66c-2.3-1.07-6.28,1.55-8.46,2.78-21.03,11.91-26.02,36.1-29.02,58.36Z" fill="#fff"/>
      <path d="M13.5,384h-4.5c-5.63-3.12-6.94-7.75-3-13.12l50.21-50.27c3.85-3.48,9.49-3.37,12.17,1.37s-.19,7.87-3.13,11.42c-9.14,11.05-24.22,24.59-34.87,34.87-5.51,5.31-11.49,10.29-16.89,15.73Z" fill="#fff"/>
      <path d="M73.48,384h-4.5c-5.63-3.12-6.94-7.75-3-13.12l50.21-50.27c3.85-3.48,9.49-3.37,12.17,1.37s-.19,7.87-3.13,11.42c-9.14,11.05-24.22,24.59-34.87,34.87-5.51,5.31-11.49,10.29-16.89,15.73Z" fill="#fff"/>
      <path d="M0,315v-4.5l52.55-53.56c8.14-6.75,17.77,2.72,10.83,10.83l-50.26,50.23c-5.37,3.95-10,2.63-13.12-3Z" fill="#fff"/>
      <path d="M173.78,307.65c6.5-.94,10.59,5.55,7.58,11.38l-23.18,23.31c-6.95,4.36-14.59-2.41-11.11-9.62l23.12-23.37c.97-.85,2.34-1.52,3.6-1.7Z" fill="#fff"/>
      <path d="M66.51,201.91c7.16-1.65,12.36,4.72,8.78,11.03-.86,1.51-21.39,22.15-23.18,23.31-7.14,4.67-14.61-2.59-10.78-10.03,4.98-3.79,20.61-23.26,25.18-24.31Z" fill="#fff"/>
      <path d="M269.77,75.95c47.7-.7,50.29,70.32,5.78,74.79-54.17,5.44-56.1-74.05-5.78-74.79ZM269.76,90.96c-30.19.79-28.72,49.38,4.98,44.73,25.23-3.48,23.61-45.47-4.98-44.73Z" fill="#fff"/>
      <path d="M226.25,148.66c6.46-1.26,10.86,4.53,8.36,10.64-.85,2.09-9.88,11.37-11.97,12.77-7.47,5-15.28-.45-11.87-8.88,1.19-2.93,12.38-13.94,15.48-14.54Z" fill="#fff"/>
      <path d="M201.44,193.24c-6.69,6.85-17.58-4.02-10.72-10.73,7.16-7,17.74,3.54,10.72,10.73Z" fill="#fff"/>
    </g>
  </g>
</svg>