<?xml version="1.0" encoding="UTF-8"?>
<svg id="Layer_2" data-name="Layer 2" xmlns="http://www.w3.org/2000/svg" viewBox="0 0 800 800">
  <g id="Layer_1-2" data-name="Layer 1">
    <path d="M400,0C179.38,0,0,179.38,0,400s179.38,400,400,400,400-179.38,400-400S620.51,0,400,0ZM641.49,637.41c-7.64-41.23-25.66-80.22-52.74-112.8-10.73-12.93-29.91-14.71-42.84-3.97-.04.03-.08.07-.13.11-12.93,10.73-14.71,29.91-3.97,42.84.03.04.07.08.11.13,27.49,33.09,42.66,74.93,42.66,117.99,0,.71.2,1.43.2,2.14-53.14,34.72-116.57,54.98-184.78,54.98s-131.53-20.26-184.78-54.98c0-.71.2-1.32.2-2.14,0-101.71,82.77-184.58,184.58-184.58,95.09,0,172.46-77.37,172.46-172.46s-77.37-172.46-172.46-172.46-172.46,77.37-172.46,172.46c0,55.08,25.96,104.05,66.28,135.61-69.53,33.49-120.95,98.85-135.3,177.04-60.27-61.08-97.43-144.97-97.43-237.31,0-186.92,152-338.92,338.92-338.92s338.92,152,338.92,338.92c-.1,92.34-37.26,176.23-97.43,237.41h0ZM288.52,324.76c0-61.39,49.99-111.38,111.38-111.38s111.38,49.99,111.38,111.38-49.99,111.38-111.38,111.38-111.38-49.99-111.38-111.38Z" fill="#2f8542"/>
  </g>
</svg>