<?xml version="1.0" encoding="UTF-8"?>
<svg id="Layer_2" data-name="Layer 2" xmlns="http://www.w3.org/2000/svg" viewBox="0 0 354.19 384">
  <g id="Layer_1-2" data-name="Layer 1">
    <g>
      <path d="M215.39,0c30.34,10.47,12.26,43.92,1.63,62.75-4.07,7.21-8.95,13.95-12.88,21.24,18.19,6.4,37.87,10.18,55.12,18.76,10.41,11.59,15.35,28.33,22.05,42.39-1.12,5.85-6.37,7.73-10.43,2.99-5.72-9.88-9.37-21.78-14.86-31.64-2.24-4.03-3.68-5.36-7.98-7.02-12.19-4.72-26.25-7.5-38.65-11.97-.22,1.09.24,1.84.59,2.78,7.66,20.92,22.72,43.01,29.78,63.97,1.25,3.73,2.45,7.53,1.8,11.54-17.41,47.06-38.18,92.96-56.95,139.55l-.39,4.16c7.98,13.86,13.1,31.38,21.1,44.95,3.82,6.47,9.19,7.28,16.06,4.91,10.01-3.45,23.2-10.81,33.28-15.47,23.98-11.08,48.32-22.06,72-33.75,8.33-4.11,18.63-6.9,15.88-18.67l-60.79-129.7c-2.81-8.16,5.84-11.6,10.3-5.05l60.21,128.79c4.63,10.78.79,23.66-9.61,29.37-34.67,15.84-68.79,33.01-103.49,48.76-12.2,5.53-23.74,13.12-36.76,4.24-9.69-6.61-17.08-33.06-23.59-43.91-.4-.67-.76-1.65-1.65-1.72-.17,2.1-1.1,4.07-1.91,5.97-3.87,9.05-12.09,33.15-17.94,39.06-3.51,3.55-7.84,5.1-12.41,6.72h-8.25l-73.03-30.09c-6.02-1.78-5.85-10.92.67-11.2l75.07,30c6.22.5,10.89-2.99,12.94-8.68l78.05-188.97c.53-2.61-.26-4.67-1.08-7.04-8.14-23.48-24.64-47.97-33.23-71.77-2.55-4.6-6.56-8.11-11.01-10.74l-2.33,14.66c20.88,14.42,1.6,46.11-20.18,32.6-15.8-9.81-8.65-33.26,9.06-35.22l1.82-12.79-77.24,28.88-5.4,5.1L11.57,309.55c-2.66,16.24,21.61,16.93,31.28,23.86,3.57,4.33,1.24,10.11-4.49,9.76-16.72-7.36-41.45-11.09-38.04-35.12L81.27,112.26c2.43-3.83,5.91-6.73,9.98-8.77,24.81-8.33,49.47-20.51,74.23-28.52,2.87-.93,5.7-1.39,8.67-1.83,7.05-24.97,4.56-62.18,33.73-73.15h7.5ZM218.14,13.75c-3.66-3.5-8.36-2.94-12.3-.44-14.25,9.06-16.22,44.64-19.66,59.88l.71,1.42,7.15,3.28c5.33-7.49,10.34-15.32,14.74-23.4,5.34-9.83,13.28-24.06,11.89-35.4-.21-1.71-1.33-4.21-2.52-5.35ZM170.17,109.66c-7.43,1.7-6.67,14.26,2.1,14.88,11.24.8,10.79-17.83-2.1-14.88Z" fill="#fff"/>
      <path d="M181.41,255.97c4.44,5.51-7.67,20.14-11.75,24.18-52.07,51.57-136.79-14.21-98.13-77.88,32.24-53.1,115.59-30.41,116.91,31.35.15,6.98-7.62,9.71-10.48,5.17-1.18-1.87-1.69-12.61-2.55-16.2-11.49-47.72-79.41-52.6-97.85-7.55-22.79,55.68,50.46,98.51,87.96,52.71,2.24-2.74,6.52-11.54,8.32-12.68,2.16-1.36,5.97-1.1,7.57.88Z" fill="#fff"/>
      <path d="M272.19,215.38c3.29-.68,5.5,1.2,7.1,3.84l35.26,74.99c3.16,7.31-5.62,12.64-10.07,5.58-9.72-25.14-25.84-50.06-35.22-75.03-1.31-3.49-1.79-8.39,2.93-9.38Z" fill="#fff"/>
      <path d="M247.44,228.88c2.76-.57,5.09.64,6.36,3.09,9.69,25.13,25.88,50.08,35.22,75.03,3.62,9.66-5.51,12.95-10.03,5.54l-35.26-74.99c-1.76-3.51-.18-7.86,3.71-8.67Z" fill="#fff"/>
    </g>
    <path d="M116.58,220.34l22.99,11.22c1.02.5,1.65,3.95,1.15,5.19-.58,1.44-3.48,3.89-4.78,3.25l-25.74-12.57-1.15,2.36,22.2,10.84c1.71.84,2.52,4.19,1.74,5.97-.84,1.92-4.07,3.6-5.96,2.67l-19.45-9.5c.64,9.71,7.44,17.14,16.76,19.72,3.01.84,6.73.05,7.43,4.49.95,6-5.58,5.62-9.53,4.61-15.45-3.96-24.97-17.57-24.18-33.24-3.8-2.04-9.51-4.61-5.96-9.69,2.83-4.04,8.61.32,8.8-.12l.62-2.34c-3.82-1.53-6.88-3.45-4.46-7.82s6.74-1,10.2.13c11.21-10.61,27.81-12.2,40.57-3.18,3.45,2.44,8.65,6.41,4.54,10.76-3.88,4.1-7.77-1.93-10.74-3.72-7.94-4.77-17.74-4.97-25.05.93Z" fill="#fff"/>
  </g>
</svg>