<?xml version="1.0" encoding="UTF-8"?>
<svg id="Layer_2" data-name="Layer 2" xmlns="http://www.w3.org/2000/svg" viewBox="0 0 600 800">
  <g id="Layer_1-2" data-name="Layer 1">
    <g id="Page-1">
      <g id="Icon-Set">
        <path id="location" d="M300,375c-41.42,0-75-33.57-75-75s33.58-75,75-75,75,33.57,75,75-33.58,75-75,75h0ZM300,175c-69.03,0-125,55.95-125,125s55.97,125,125,125,125-55.95,125-125-55.97-125-125-125h0ZM300,725c-41.58.23-250-320.48-250-425,0-138.05,111.92-250,250-250s250,111.95,250,250c0,103.12-209.07,425.23-250,425h0ZM300,0C134.33,0,0,134.32,0,300c0,125.45,250.12,500.27,300,500,49.1.27,300-376.25,300-500C600,134.32,465.67,0,300,0h0Z" fill="#2f8542" fill-rule="evenodd"/>
      </g>
    </g>
  </g>
</svg>