<?xml version="1.0" encoding="UTF-8"?>
<svg id="Layer_2" data-name="Layer 2" xmlns="http://www.w3.org/2000/svg" viewBox="0 0 659.55 658.16">
  <g id="Layer_1-2" data-name="Layer 1">
    <g>
      <path d="M289.63,482.03l-117.5-117.5S326.75-.34,639.38,19.53c0,0,43.5,289-349.75,462.5Z" fill="none" stroke="#fff" stroke-miterlimit="50" stroke-width="37.5"/>
      <path d="M629.75,142.28c-28.45-4.56-54.71-18.04-75-38.5-20.86-20.8-34.49-47.75-38.88-76.88" fill="none" stroke="#fff" stroke-miterlimit="50" stroke-width="37.5"/>
      <circle cx="458.75" cy="200.03" r="68.5" fill="none" stroke="#fff" stroke-miterlimit="50" stroke-width="37.5"/>
      <path d="M312.38,471.53l-7.63,58.5c-.19,1.65.98,3.14,2.63,3.33.51.06,1.02-.01,1.5-.21l100-43.38c8.3-3.81,14.33-11.32,16.25-20.25l15.25-72.88" fill="none" stroke="#fff" stroke-miterlimit="50" stroke-width="37.5"/>
      <path d="M179.75,348.16l-58.63,7.5c-1.58.2-3.01-.91-3.22-2.49-.07-.51,0-1.04.22-1.51l43.25-99.38c3.8-8.69,11.58-14.98,20.88-16.88l72.75-15.25" fill="none" stroke="#fff" stroke-miterlimit="50" stroke-width="37.5"/>
      <path d="M198.37,390.53c-81.88,26.25-86,155.88-86,155.88,0,0,126,1.38,157.38-84.5" fill="none" stroke="#fff" stroke-miterlimit="50" stroke-width="37.5"/>
      <line x1="65.75" y1="592.28" x2="18.75" y2="639.41" fill="none" stroke="#fff" stroke-linecap="round" stroke-miterlimit="50" stroke-width="37.5"/>
      <line x1="62.25" y1="502.41" x2="22.37" y2="542.16" fill="none" stroke="#fff" stroke-linecap="round" stroke-miterlimit="50" stroke-width="37.5"/>
      <line x1="154" y1="595.91" x2="114.25" y2="635.78" fill="none" stroke="#fff" stroke-linecap="round" stroke-miterlimit="50" stroke-width="37.5"/>
    </g>
  </g>
</svg>