<?xml version="1.0" encoding="UTF-8"?>
<svg id="Layer_2" data-name="Layer 2" xmlns="http://www.w3.org/2000/svg" viewBox="0 0 384 308.45">
  <g id="Layer_1-2" data-name="Layer 1">
    <path d="M0,24.47C7.99-8.96,52.77-7.84,58.93,26.01h125.13c5.41-34.03,52.54-34.88,58.53-.76l.88.62c34.19-.38,66.11-3.18,89.51,25.99,35.15,43.83,5.69,108.41-49.82,112.13l-87.65-.06c-10.26,25.77-45.73,26.26-55.71-.02l-62.9.06c-43.7,4.47-66.2,54.13-39.7,89.93,13.21,17.85,34.47,23.95,56.07,21.84,2.88-10.73,8.12-19.78,19.05-23.85,18.78-7,36.69,4.82,40.4,23.87l146.05-.17c2.99-4.65,4.7-7.71,9.24-11.01,1.6-1.17,4.43-1.2,4.76-3.49,0-10.26,0-20.52.03-30.78.06-14.68-.96-30.18-.81-44.94.02-1.74.6-8.08.94-9.63,1.01-4.63,8.59-5.53,11.02-1.59,1.13,1.83.25,4.22,1.94,5.56h54c1.08,0,3.33,2.83,4.12,3.75v4.5l-12.56,17.62,12.56,18.38v4.5c-.79.92-3.05,3.75-4.12,3.75h-54l-1.12,1.12v28.5c11.52,5.2,18.13,17.23,12.13,29.38-6.15,12.48-23.79,14.55-33.15,4.38-1.74-1.89-3.76-6.8-5.6-7.15l-147.26.13c-9.47,26.54-46,26.4-55.74,0-19.6.94-36.28-.82-52.62-12.26-40.18-28.13-38.79-88.52,2.85-114.63,27.52-17.25,61.28-8.2,92.17-10.58,1.06-.36,2.54-7.79,3.57-9.93,12.57-26.25,53.08-19.03,55.41,10.03l85.9.03c51.85-3.56,72.33-69.63,31.03-100.85-21.37-16.16-46.29-10.98-71.44-11.57-1.42.49-2.83,4.99-3.94,6.56-14.54,20.58-43.55,16.05-52.56-6.71H57.5c-11.54,28.9-51.49,25.32-57.5-5.22v-9ZM27.58,12.66c-25.61,3.03-14.48,42.69,9.1,31.61,16.23-7.63,9.46-33.81-9.1-31.61ZM211.33,12.66c-24.24,2.97-14.91,41.87,9.17,31.69,17.04-7.2,9.83-34.01-9.17-31.69ZM155.52,165.95c14.64,14.62,37.58-5.39,25.23-21.86-13.96-18.62-41.74,5.37-25.23,21.86ZM365.25,192.47h-40.5v27h40.5c-1.75-3.79-7.82-9.15-8.03-13.24s6.16-10.16,8.03-13.76ZM134.73,291.2c14.5-14.52-5.08-37.74-21.86-25.23-18.61,13.88,5.54,41.57,21.86,25.23ZM324.52,276.7c-6.36-7.2-17.8,2.13-11.78,9.9s18.77-1.99,11.78-9.9Z" fill="#fff"/>
  </g>
</svg>