<?xml version="1.0" encoding="UTF-8"?>
<svg id="Layer_2" data-name="Layer 2" xmlns="http://www.w3.org/2000/svg" viewBox="0 0 382.88 384">
  <g id="Layer_1-2" data-name="Layer 1">
    <g>
      <path d="M102.13,383.89c-8.36-1.14-25.31-17.13-30.39-23.98-5.1-6.86.64-15.39,8.45-12.19,3.73,1.53,13.69,14.3,18.25,17.74,4.79,3.61,8.44,4.96,13.82,1.2,1.83-1.28,14.68-14.1,15.72-15.78,2.29-3.7,2.19-8.03-.32-11.61-28.43-27.55-55.6-57.07-84.97-83.76-3.03-.95-6.78-1.13-9.52.59-2.02,1.27-14.16,13.52-15.78,15.72-3.49,4.75-2.84,8.46.43,13.05,3.53,4.95,16.81,14.89,18.49,19,3.03,7.39-4.89,13.23-11.4,9.15-2.76-1.73-17.13-16.42-19.52-19.48-7.55-9.68-6.97-22.22.42-31.79,6.55-8.47,20.46-21.97,31.56-22.5,3.6-.17,11.09,2.7,12.98,1.83l23.69-23.64c.9-1.76-2.67-3.7-3.75-5.29-9.77-14.45-3.69-34.39,13.08-39.7-10.48-15.55-2.33-36.06,15.66-40.56-3.2-14.59,5.1-30.23,20.34-32.91-4.87-16.55,7.85-33.81,25.12-33.8,2.65,0,7.11,1.77,8.83,1.41,1.12-.23,3.73-2.68,5.58-3.44,6.24-2.56,11.28-1.55,17.62-.69,18.62,2.53,37.05,7.02,55.71,9.54s26.89,16.24,23.71,33.66c14.86,3.27,23.29,18.34,19.43,33.05,15.07,2.55,23.81,18.59,19.5,32.99,16.86,2.9,25.52,21.32,18.38,36.74-1.01,2.19-6.04,7.52-5.3,8.98l23.7,23.66c1.74.78,4.83-1.36,7.17-1.82,8.54-1.7,16.26.86,22.81,6.28,14.49,11.99,30.26,29.57,15.01,48.01l-83.63,83.6c-18.19,20.1-54.36-13.09-55.15-31.17-.22-4.99,2.07-9.1,2.66-13.82l-30.42-30.41c-10.42,2.47-32.43-4.02-40.86,1.89l-28,28.73c3.8,7.17,4.7,13.96,1.96,21.72s-19.3,24.08-26.57,27.42c-2.14.99-4.35,1.18-6.27,2.36-2.62-.25-5.72.35-8.25,0ZM207.13,83.23l-40.09-6.78c-5.26.86,3.46,12.19,5.21,14.28,2.05,2.44,13.15,12.75,15.77,12.53,5.19-5.89,13.34-11.71,17.99-17.78.58-.75,1.45-.95,1.12-2.25ZM143.21,80.37c-8.93,1.03-12.46,11.24-7.32,18.23,8.9,12.1,26.23,23.9,36.03,35.96,7.18,4.82,17.3.37,17.78-8.4.43-7.82-6.31-7.93-11.76-11.12-10.02-5.85-19.38-15.87-24.94-26.05-2.51-4.59-1.83-9.53-9.8-8.61ZM297.63,189.2c-11.34-11.37-18.98,6.42-25.21,8.41-6.89,2.2-11.8-4.42-9.22-10.73,1.66-4.05,12.87-11.71,15.81-16.44,6.47-10.43-5.19-22.37-15.59-15.58-3.18,2.08-8.11,9.52-11.24,10.5-6.77,2.12-12.57-3.08-9.95-9.95,1.53-4.02,12.34-11.73,15.78-16.46,8.72-11.96-3.76-23.82-14.09-17.08-3.37,2.2-8.18,9.7-11.84,10.65-7.4,1.93-12.58-4.59-9.1-11.34,2.51-4.87,13.61-11.91,16.75-16.99,4.99-8.07-1.83-18.4-11.03-17.05-8.09,1.18-20.37,18.67-27.22,23.86-.81,1.79,1.8,5.61,2.43,8.07,4.22,16.38-8.25,32.78-25.2,32.47-.97,14.67-11.29,26.35-26.37,26.49-1.18.81-.53,4.27-.88,5.87-2.74,12.64-13.54,19.8-25.97,20.9.01,16.86-16.11,29.38-32.5,25.17-2.46-.63-6.28-3.23-8.07-2.43l-22.57,22.49-.63,2.13,69.3,68.74,29.61-29.62c16.21-12.48,43.19,2.49,58.47-8.28,4.14-2.92,7.75-10.16,13.18-10.15,6.47.02,10.49,7.06,6.01,12.08l-11.62,11.58,25.01,24.34,68.67-68.65-23.67-24.21c-2.05-.36-7.57,10.97-15.54,5.08-3.27-2.42-3.67-7.02-1.58-10.35,3.83-6.1,17.06-14.5,20-20.49,2.03-4.14,1.41-9.7-1.91-13.03ZM123.72,113.37c-8.09.63-12.9,10.17-8.44,17.06,9.88,7.64,20.55,23.78,30.4,30.34,8.98,5.99,18.92-1.11,17.15-11.91-1.24-7.57-26.62-25.9-31.82-33.41-1.93-1.41-4.88-2.27-7.29-2.09ZM133.37,186.43c3.72-3.51,4.29-9.36,1.91-13.76-1.3-2.4-20.6-21.83-23.38-23.86-9.55-6.97-21.59,2.4-16.93,13.17,1.74,4.04,17.65,19.81,21.77,23.23,4.82,4.01,11.51,6.04,16.63,1.22ZM89.94,186.12c-7.54,1.19-10.98,9.09-7.98,15.88,1.03,2.33,9.09,10.57,11.39,11.85,11.33,6.27,22.55-6.14,13.66-17.41-3.88-4.92-10.37-11.38-17.07-10.31ZM341.18,254.35c-1.64.34-3.47,1.66-4.69,2.81l-82.14,82.84c-1.73,3.05-1.56,6.65.13,9.68.92,1.65,15.08,15.72,16.9,16.84,3.37,2.09,5.76,2.15,9.43.68,29.33-27.14,57.5-56.15,85.34-84.88,2.27-4.3,2.08-7.37-.77-11.26-1.34-1.82-14.82-15.31-16.22-16.03-2.23-1.14-5.55-1.18-7.98-.67Z" fill="#fff"/>
      <path d="M192.88,0c2.65,1.73,4.67,2.96,5.2,6.42.92,6.02.91,29.85.08,35.97-1.11,8.16-13.9,8.92-15.05-.77-.77-6.43-.91-29.08.06-35.21.48-3.05,3.12-4.53,5.21-6.42h4.5Z" fill="#fff"/>
      <path d="M101.12,42.48c-2.25,2.31-7.02,2.51-9.61.76-8.5-8.86-19.94-17.75-27.64-27.1-1.36-1.65-2.77-3.01-3.03-5.25-.85-7.51,6.15-10.98,12.29-7.01,3.71,2.39,25.05,23.72,27.9,27.6,2.45,3.33,3.31,7.71.09,11Z" fill="#fff"/>
      <path d="M311.17,2.41c7.11-1.6,11.35,5.12,8.37,11.37l-29.19,29.3c-7.16,4.25-14.61-2.07-11.27-9.77,8.59-8.54,17.45-19.66,26.66-27.33,1.35-1.12,3.79-3.21,5.43-3.58Z" fill="#fff"/>
      <path d="M50.96,322.54c8.98-1.1,11.79,12.78,3.4,14.7-12.18,2.79-12.99-13.52-3.4-14.7Z" fill="#fff"/>
      <path d="M254.95,249.07c9.57-1.67,12.27,12.69,3.4,14.7-10.58,2.4-12.81-13.06-3.4-14.7Z" fill="#fff"/>
    </g>
  </g>
</svg>