<?xml version="1.0" encoding="UTF-8"?><svg id="a" xmlns="http://www.w3.org/2000/svg" xmlns:xlink="http://www.w3.org/1999/xlink" viewBox="0 0 89.4 81.12"><defs><style>.i{fill:url(#c);}.i,.j,.k,.l,.m,.n{stroke-width:0px;}.j{fill:url(#e);}.k{fill:url(#g);}.l{fill:url(#h);}.m{fill:url(#d);}.n{fill:url(#f);}</style><linearGradient id="c" x1="9.85" y1="28.2" x2="32.75" y2="5.3" gradientUnits="userSpaceOnUse"><stop offset="0" stop-color="#138ec0"/><stop offset=".13" stop-color="#1089b8"/><stop offset=".5" stop-color="#097da5"/><stop offset=".7" stop-color="#0b81ab"/><stop offset=".97" stop-color="#118cbd"/><stop offset="1" stop-color="#128ec0"/></linearGradient><linearGradient id="d" x1="29.64" y1="11.39" x2="65.94" y2="1.67" gradientUnits="userSpaceOnUse"><stop offset="0" stop-color="#128ec0"/><stop offset=".23" stop-color="#2aa1d0"/><stop offset=".49" stop-color="#3fb1de"/><stop offset=".75" stop-color="#4bbae7"/><stop offset="1" stop-color="#50beea"/></linearGradient><linearGradient id="e" x1="7.96" y1="74.39" x2="17.65" y2="19.42" gradientUnits="userSpaceOnUse"><stop offset="0" stop-color="#50beea"/><stop offset=".23" stop-color="#48b8e4"/><stop offset=".57" stop-color="#34a8d7"/><stop offset=".99" stop-color="#128ec0"/><stop offset="1" stop-color="#128ec0"/></linearGradient><linearGradient id="f" x1="18.3" y1="73.34" x2="63.65" y2="8.57" gradientUnits="userSpaceOnUse"><stop offset="0" stop-color="#91cc86"/><stop offset=".05" stop-color="#8cca7e"/><stop offset=".27" stop-color="#7dc465"/><stop offset=".49" stop-color="#72c053"/><stop offset=".72" stop-color="#6cbd49"/><stop offset="1" stop-color="#6abd46"/></linearGradient><linearGradient id="g" x1="27.87" y1="82.73" x2="81.5" y2="51.77" gradientUnits="userSpaceOnUse"><stop offset="0" stop-color="#6cbe46"/><stop offset=".14" stop-color="#60ba46"/><stop offset=".71" stop-color="#39ad49"/><stop offset="1" stop-color="#2aa84a"/></linearGradient><linearGradient id="h" x1="44.49" y1="64.86" x2="92.91" y2="16.43" gradientUnits="userSpaceOnUse"><stop offset="0" stop-color="#fdc178"/><stop offset=".02" stop-color="#fcc075"/><stop offset=".29" stop-color="#fcb855"/><stop offset=".54" stop-color="#fbb23e"/><stop offset=".79" stop-color="#fbaf30"/><stop offset="1" stop-color="#fbae2c"/></linearGradient></defs><g id="b"><path class="i" d="M28.77,1.32c-.97.38-1.95.77-2.92,1.16-.62.25-1.24.5-1.85.75,0,0-2.2.96-4.29,2.19-9.57,5.65-14.01,13.77-15.58,17.05,2.72-1.3,7-2.94,12.47-3.46,6.78-.64,12.22.74,15.32,1.78-1.14-1.34-3.88-4.93-4.45-10.31-.45-4.2.64-7.52,1.31-9.15Z"/><path class="m" d="M33.09,19.63c3.07-2.37,8.39-5.84,15.8-7.89,8.36-2.31,15.47-1.72,19.46-1.09C61.33,4.64,52.91,1.13,44.37.23c-1.44-.15-2.82-.21-2.82-.21-4.09-.13-7.46.54-9.77,1.18-.78,1.44-2.05,4.25-2.09,7.98-.07,5.37,2.45,9.17,3.4,10.46Z"/><path class="j" d="M3.38,24.12C1.6,28.18-.14,33.86,0,40.63c.48,21.56,19.66,34.63,22.14,36.26-8.59-15.16-7.64-33.99,2.44-48.11,1.33-1.87,2.85-3.59,2.85-3.59,1.18-1.34,2.33-2.47,3.36-3.42-3.19-.68-7.52-1.27-12.62-.97-6.32.37-11.4,1.95-14.81,3.31Z"/><path class="n" d="M71.07,13.77c-1.66-.4-22.61-5.04-38.81,9.96-11.3,10.46-15.96,26.46-12.17,41.62.19-1.56.58-3.94,1.4-6.74,4.07-13.76,14.19-21.76,17.94-24.64,2.59-1.99,6.54-4.67,11.89-7-5.46,3.42-11.86,8.5-17.51,15.87-3.81,4.98-9.15,11.96-10.6,22.4-.66,4.8-.3,8.88.15,11.66,4.27-8.79,9.42-13.53,13.41-16.24,5.25-3.58,8.22-3.47,14.49-7.99,2.42-1.74,7.6-5.82,11.85-12.03,7.05-10.3,7.94-21.26,7.96-26.87Z"/><path class="k" d="M24.88,77.55c4.68-7.89,9.84-11.43,13.53-13.21,8.78-4.24,15.09-1.34,25.72-4.85,7.6-2.51,12.96-6.82,16.14-9.83-.4,1.72-5.43,21.62-24.83,28.98-14.77,5.61-27.83.13-30.56-1.08Z"/><path class="l" d="M72.67,18.85c1.82-1.51,4.35-3.3,7.61-4.84,2.85-1.35,5.47-2.14,7.58-2.61.7,2.38,4.47,15.91-3.3,29.4-4.61,7.99-12.21,14.13-19.73,16.4-6.78,2.05-10.75,2.17-10.75,2.17-2.59.07-5.66-.17-9.93.9-1.4.35-2.52.74-3.26,1.02.75-.45,1.93-1.13,3.39-1.89,2.96-1.53,4.74-2.17,7.19-3.27,0,0,3-1.35,6.71-3.46,2.68-1.52,9.34-5.38,15.64-12.64,2.48-2.85,4.16-5.38,5.11-6.89,3.82-6.1,5.71-11.81,6.7-15.77-1.5,4.76-4.96,13.4-12.94,21.22-4.76,4.67-9.63,7.57-13.29,9.35,2-1.87,4.18-4.26,6.19-7.28,5.63-8.44,6.81-17.01,7.07-21.81Z"/></g></svg>