<?xml version="1.0" encoding="UTF-8"?>
<svg id="Layer_2" data-name="Layer 2" xmlns="http://www.w3.org/2000/svg" viewBox="0 0 424.38 288.45">
  <g id="Layer_1-2" data-name="Layer 1">
    <g id="logo1">
      <g>
        <path d="M194.89,0v288.45H0V99.91c35.52-18.4,71.03-36.79,106.55-55.19v45.3c-20.95,10.15-41.89,20.29-62.84,30.44v130.16h107.01V22.96c14.72-7.65,29.44-15.31,44.16-22.96Z" fill="#9b4022"/>
        <path d="M337.87,288.45c-36.58,0-73.16,0-109.74,0,0-95.88,0-191.76,0-287.64,65.42,32.5,130.84,64.99,196.25,97.49,0,63.38,0,126.77,0,190.15h-45.08c0-55.86,0-111.73,0-167.59-35.21-17.86-70.43-35.72-105.64-53.58,0,60.43,0,120.86,0,181.29,21.25,0,42.5,0,63.75,0,.15,13.29.3,26.59.45,39.88Z" fill="#9b4022"/>
      </g>
    </g>
  </g>
</svg>