<?xml version="1.0" encoding="UTF-8"?>
<svg id="Layer_2" data-name="Layer 2" xmlns="http://www.w3.org/2000/svg" viewBox="0 0 331.54 306.87">
  <g id="Layer_1-2" data-name="Layer 1">
    <g>
      <path d="M165.82,26.34h19.12c2.52,0,6.38,4.69,6.38,7.12v56.62h5.25v-27.38c0-.88,3.24-4.12,4.12-4.12h20.25c2.74-4.21.46-10.74.34-15.34s-.57-12.76.21-17.1c1.27-7.03,10.77-8.23,13.16-1.52l.91,33.96h10.88c.74-.47.97-1.04,1.12-1.88,1.24-6.77-4.47-27.57,9.04-23.29,1.87.59,4.46,4.4,4.46,6.04v19.12h14.62c.93,0,4.12,3.92,4.12,4.88v26.62h14.62c1.6,0,3.91,3.71,4.14,5.61,2.07,17.3-1.85,38.24.32,55.93l32.63,44.62-.53,106.65c-1.16,2.73-5.24,3.82-8.03,3.97l-316.35-.21c-4.32-.97-6.93-2.96-6.6-7.68.46-6.51,6.64-5.69,11.57-5.74l1.23-1.77-.04-259.54c-.36-2.16,4.1-5.59,5.66-5.59h19.12V7.96c0-5.42,5.81-6.85,10.09-7.16,35.38-2.56,73.82,1.97,109.52.04,3.15-.37,8.64,3.14,8.64,6.36v19.12ZM152.32,26.34v-10.88H51.07v10.88h101.25ZM133.57,233.71v58.5l1.12,1.12h42l1.12-1.12V40.96l-1.12-1.12H26.32v253.5h42.38l1.12-1.12v-58.5c0-2.31,5.02-3.98,7.09-4.16,15.95-1.46,34.11,1.19,50.31.02,2.16.1,5.89,1.97,6.36,4.14ZM266.32,72.09h-56.25v18h56.25v-18ZM285.07,103.59h-93.75v189.75h11.25V121.21c0-7.03,13.5-7.06,13.5-1.5v172.5c1.34,1.68,4.55,1.75,6,0V119.71c0-5.56,13.5-5.53,13.5,1.5v172.12h5.25V120.46c0-.48,2.69-3.8,3.33-4.16,3.93-2.25,9.07-.29,10.13,4.2v170.25s.74,2.26.74,2.26l4.55.33V121.96c0-.64,1.89-4.25,2.6-4.9,4.19-3.85,11.65-.15,11.65,4.9v171.38h11.25V103.59ZM318.07,293.34v-93.38l-19.5-25.12v117.38l1.12,1.12h18.38ZM120.07,243.09h-36.75v50.25h36.75v-50.25Z" fill="#028fcd"/>
      <path d="M88.38,96.27c4.51-.81,21.33-.77,26-.11,2.13.3,4.55,1.43,5.71,3.29,2.12,3.39,1.92,21.51,1.51,26.29-.39,4.53-1.19,8.76-6.39,9.36-5.78.67-21.26.68-27.03,0-3.44-.4-5.22-2.14-5.62-5.62-.62-5.27-.74-22.69.06-27.72.47-2.98,2.91-4.98,5.76-5.49ZM107.32,109.59h-11.25v12h11.25v-12Z" fill="#028fcd"/>
      <path d="M119.09,53.57c3.37,3.14,2.99,23.45,2.47,28.63-.37,3.72-1.22,7.24-5.22,8.28s-22.82.89-27.41.38c-2.54-.28-5.55-1.64-6.16-4.33-.86-3.83-.81-24.76-.24-29.1.27-2.01,2.17-4.29,3.98-5.02,2.59-1.04,24.09-1.02,27.95-.59,1.36.15,3.65.85,4.63,1.76ZM107.32,65.34h-11.25v12h11.25v-12Z" fill="#028fcd"/>
      <path d="M86.86,185.5c3.97-.89,23.78-.71,28.36-.18,4.87.57,5.92,4.35,6.35,8.65.45,4.52.57,22.6-.94,26.04-1.23,2.78-4.04,4-6.92,4.33-4.39.5-24.28.51-27.55-.95-2.21-.99-3.31-3.03-3.59-5.41-.68-5.77-.67-21.25,0-27.03.3-2.58,1.61-4.85,4.3-5.45ZM107.32,198.84h-11.25v12h11.25v-12Z" fill="#028fcd"/>
      <path d="M128.59,133.32c-1-1-1.62-2.41-1.8-3.83-.48-3.92-.53-25.97.37-28.94s4.02-4.15,6.79-4.46c5.58-.63,17.59-.53,23.28-.03,3.74.33,7.21,1.27,8.24,5.26s.87,22.1.35,26.64c-.31,2.77-1.55,5.91-4.46,6.79s-25.02.85-28.94.37c-1.42-.17-2.83-.8-3.83-1.8ZM152.32,121.59v-10.88l-1.12-1.12h-10.88v12h12Z" fill="#028fcd"/>
      <path d="M43.37,52.01c3.89-.78,23.45-.78,27.53-.13,2.6.41,5.36,2.9,5.71,5.54.42,3.13.29,27.92-.43,29.65-.77,1.84-3.95,3.54-5.97,3.78-5.39.64-20.16.64-25.53,0-4.83-.58-6.6-3.3-7.11-7.89-.58-5.22-.62-18.81.07-23.94.47-3.46,2.12-6.29,5.73-7.02ZM63.07,65.34h-10.88c-1.82,2.62-1.84,9.29,0,12h10.88v-12Z" fill="#028fcd"/>
      <path d="M131.86,52c3.74-.84,22.56-.69,26.86-.18s6.63,2.94,7.12,7.12.59,22.93-.37,26.66c-.91,3.53-3.34,4.84-6.77,5.23-3.9.44-25.29.5-27.93-.57-2.22-.9-3.69-3.45-3.96-5.79-.6-5.14-.71-22.06.06-26.97.37-2.35,2.67-4.99,4.99-5.51ZM152.32,65.34h-12v12h12v-12Z" fill="#028fcd"/>
      <path d="M44.13,96.27c4.65-.85,20.37-.74,25.32-.18,3.94.45,6.65,2.16,7.14,6.36.44,3.76.53,26.31-.34,28.94-.44,1.33-2.67,3.18-3.98,3.52-3.44.87-24.1.69-28.33.2s-5.91-3.83-6.36-7.89c-.57-5.11-.63-18.95.07-23.93.51-3.6,2.9-6.36,6.48-7.02ZM63.07,109.59h-10.88l-1.12,1.12v10.88h12v-12Z" fill="#028fcd"/>
      <path d="M42.61,185.5c3.98-.89,23.77-.71,28.36-.18,3.47.4,5.23,2.18,5.62,5.62.67,5.77.68,21.28,0,27.03-.6,5.06-4.08,6-8.62,6.38s-22.87.56-26.1-.95-3.97-4.56-4.29-7.71c-.54-5.37-.61-17.18-.01-22.49.34-3.06,1.68-6.96,5.04-7.71ZM63.07,198.84h-12v10.88l1.12,1.12h10.88v-12Z" fill="#028fcd"/>
      <path d="M128.59,187.1c.99-1,2.42-1.62,3.83-1.8,3.92-.48,25.97-.53,28.94.37s4.15,4.02,4.46,6.79c.47,4.19.53,23.93-.69,27.05-.67,1.71-2.42,3.46-4.12,4.12-3.24,1.27-21.22,1.11-25.59.73s-8.05-1.57-8.61-6.39-.7-24.31.22-28.33c.16-.69,1.03-2.01,1.56-2.54ZM152.32,198.84h-12v12h10.88l1.12-1.12v-10.88Z" fill="#028fcd"/>
      <path d="M86.86,141.25c3.7-.83,24.92-.76,29.13-.2,3.98.53,5.21,4.33,5.57,7.93.5,5,.62,22.59-1.12,26.61-1.08,2.5-2.51,3.45-5.23,3.77-3.99.46-25.98.57-28.93-.35-2.35-.73-3.46-2.94-3.73-5.27-.67-5.8-.67-21.23,0-27.03.3-2.58,1.61-4.85,4.3-5.45ZM107.32,154.59h-11.25v11.25h11.25v-11.25Z" fill="#028fcd"/>
      <path d="M131.11,141.25c3.7-.83,24.92-.76,29.13-.2,3.55.47,5.2,3.82,5.58,7.17.61,5.35.61,18.65,0,24-.38,3.29-2,6.69-5.58,7.17-5.46.72-22.22.63-27.81-.02-3.47-.4-5.23-2.18-5.62-5.62-.67-5.82-.68-21.22,0-27.03.3-2.58,1.61-4.85,4.3-5.45ZM152.32,154.59h-12v11.25h12v-11.25Z" fill="#028fcd"/>
      <path d="M41.85,141.24c9.16.5,20.18-1.21,29.11-.17,3.47.4,5.23,2.18,5.62,5.62.46,4,.57,25.97-.35,28.93-.73,2.35-2.94,3.46-5.27,3.73-4.09.48-25.82.59-28.93-.35-3.25-.98-4.15-4.55-4.45-7.55-.47-4.66-.59-23.92,1.17-27.3.43-.83,2.22-2.65,3.09-2.91ZM63.07,154.59h-12v11.25h12v-11.25Z" fill="#028fcd"/>
    </g>
  </g>
</svg>