<?xml version="1.0" encoding="UTF-8"?>
<svg id="Layer_2" data-name="Layer 2" xmlns="http://www.w3.org/2000/svg" viewBox="0 0 384 373.62">
  <g id="Layer_1-2" data-name="Layer 1">
    <g>
      <path d="M0,182.94c2.56-9.63,9.61-15.93,18.91-18.96,8.95-2.91,25.35-4.17,34.35-1.68,18.66,5.17,15.17,23.88,20.67,38.68h235.36c1.39-.38,5.25-24.01,7.61-27.76,3.42-5.42,13.89-10.7,20.23-11.27,16.58-1.49,38.61.68,46.86,17.24v18.75c-1.4,2.31-4.22,4.76-5.41,6.97-7.26,13.48-11.44,33.31-18.24,47.76-1.66,3.53-2.08,6.1-6.72,6.09s-6.06-2.85-5.66-7.2c.88-9.43,11.85-27.24,14.27-37.51.52-2.2-1.03-.36-1.11-.36H22.12c-.3,0-1.32-1.93-1.11.36l14.91,39.03c-.91,5.31-5.66,7.43-10.08,4.15L0,193.44v-10.5ZM60,192.69c-3.86,1.05-7.72,2.34-11.71,2.91-2.79.4-9.82,1.19-12.1.26-4.52-1.85-5.52-8.88-.75-10.87,3.84-1.6,18.32-.85,20.47-4.29s-4.58-7.04-7.59-7.45c-8.1-1.1-25.43-.03-31.83,5.54-8,6.95-2.54,19.83,7.19,21.35,7.89,1.23,19.94-.28,28.49.01,2.99.1,6.13,1.39,9.34.78l-1.5-8.25ZM321.75,200.94h38.62c4.24,0,11.08-7.34,11.58-11.71,1.29-11.34-12.6-14.76-21.29-15.33-4.59-.3-24.36-1.26-22.97,7.08.62,3.69,22.19,2.17,24.25,6.63,4.56,9.87-7.21,9.45-13.31,8.81-4.87-.51-9.76-1.76-14.23-3.73l-2.65,8.24Z" fill="#ffa800"/>
      <path d="M135,83.94h114c-.8-12.68-6.03-25.21-14.61-34.51-3.64-3.94-11.69-7.67-8.53-13.76,4.38-8.47,14.86,3.03,18.28,7.01,10.57,12.3,15.99,27.38,17.24,43.51,8.61,4.16,19.69,16.55,15.56,26.81-.71,1.75-6.66,6.19-8.06,6.19h-14.62c2.22,26.74-12.87,52.84-37.75,63.13-44.12,18.25-90.17-16.3-86.75-63.13h-13.88c-2.07,0-6.47-4.13-7.42-6.08-5.1-10.44,6.35-21.53,14.42-26.66.39-16.21,6.37-32.26,16.99-44.51,3.45-3.98,13.95-15.38,18.28-7.01,3.27,6.32-4.57,9.47-7.8,12.99-9.01,9.8-14.78,22.6-15.34,36.03ZM264,107.19c-.41-5.54-5.37-8.53-9.96-10.67-41.47-.63-83.66-1.68-125.03.55-4.61,1.68-8.5,5.23-9.76,10.12h144.75ZM242.25,119.94h-99.38c-2.58,5.2-.8,13.14.76,18.74,11.12,40.17,64.83,49.75,89.18,15.69,3.34-4.67,9.44-17.29,9.44-22.81v-11.62Z" fill="#ffa800"/>
      <path d="M189.57.14c9.65-1.18,19.65,5.36,22.47,14.64,1.71,5.62,1.74,31.5.98,38.06-.81,6.96-9.19,8.31-11.86,2.07l-.51-36.24c-2.69-8.94-15.65-8.41-17.48.57s.77,23.69-.14,33.61c-.65,7.09-8.18,8.04-11.7,2.63.14-11.43-1.33-24.43-.36-35.69.86-9.98,8.56-18.43,18.6-19.65Z" fill="#ffa800"/>
      <path d="M312.23,345.18c2.9-2.7,8.71-1.76,9.84,2.04,2.96,9.92-11.87,23.7-21.3,25.12-70.16,2.54-140.8.4-211.14,1.09-9.73-1.04-19.38-6.03-24.54-14.46-2.66-4.36-5.91-10.89-.99-14.78,7.2-5.7,9.37,5.61,11.76,9.25,3.31,5.05,8.71,7.18,14.51,7.99l202.52.03c7.27-.62,12.16-3.37,15.95-9.55,1.16-1.88,2-5.47,3.37-6.75Z" fill="#ffa800"/>
      <path d="M301.32,259.64c13.71-1.98,25.63,4.53,38.07,5.05,8.11.34,12.3-2.95,20.54,1.94,11.03,6.54,8.19,18.17,5.56,28.68-5.1,20.32-17.39,37.34-39.07,41.18-36.43,6.45-50.23-22.79-43.3-54.55,2.19-10.07,6.65-20.63,18.2-22.3ZM301.31,272.38c-6.81,1.72-8.47,21.99-8.05,27.93,1.4,19.92,13.61,28.4,33.03,24.05,17.56-3.93,28.23-23.86,28.86-40.89.39-10.5-11.6-5.52-18.76-6.04-10.08-.73-25.69-7.42-35.08-5.05Z" fill="#ffa800"/>
      <path d="M76.37,260.37c24.41-.25,27.43,26.92,25.54,45.85-4.22,42.09-58.59,39.03-76.54,6.97-7.17-12.81-16.38-42.86,4.14-47.86,5.86-1.43,11.84.58,18.1.1,9.54-.74,18.91-4.95,28.76-5.06ZM86.02,273.93c-5.74-5.21-25.72,1.65-33.23,2.67-2.15.29-6.2.89-8.16.9-4.5.03-15.26-3.69-15.39,4.79-.15,9.43,6.21,26.13,12.75,33.04,11.28,11.93,38.33,15.65,46.13-1.91,3.45-7.77,4.3-33.7-2.09-39.5Z" fill="#ffa800"/>
    </g>
  </g>
</svg>