<?xml version="1.0" encoding="UTF-8"?>
<svg id="Layer_2" data-name="Layer 2" xmlns="http://www.w3.org/2000/svg" viewBox="0 0 395.65 395.61">
  <g id="Layer_1-2" data-name="Layer 1">
    <g>
      <path d="M94.27,0c9.8,2.69,17.46,7.39,22.91,16.11,38.85,24.99,84.97,44.54,123.02,70.11,14.87,9.99,20.7,22.22,21.73,40.08,1.45,25.38-1.22,52.1.04,77.61,8.94.84,13.92,5.65,18.2,13.09l73.26.12c13.83,2.39,17.96,14.19,16.72,26.94,6.07,1.69,10.5,6.98,12.06,13.04l.2,61.61c6.56,7.92,11.23,16.43,13.11,26.67-.27,3.48.38,7.42,0,10.82-2.29,20.55-20.79,38.02-41.34,39.39h-173c-30.78-3.13-49.72-35.23-36.59-63.62,1.53-3.31,7.92-10.83,8.23-11.86.96-3.23-.13-10.38.25-14.43,2.59-27.34,13.85-57.9,17.13-85.63,1.95-10.39,11.11-16.38,21.41-16.06l.03-45.08c-11.5-3.78-20.08-13.84-19.37-26.42.25-4.48,2.73-7.93,2.76-11.92L110.1,55.65l-3.29,4.42-28.84,162.86c1.87,4.39,6.14,7.95,8.35,12.57,5.24,10.99,3.19,22.94-3.43,32.83,2.34,13.1,2.25,27.23,4.53,40.25,3.74,21.35,19.55,26.13,33.88,39.51v34.38h12.36v13.14H61.44c-15.19,0-38.06-23.22-47.48-34.41-15.32-18.18-18.54-42.24-7.11-63.47,5.98-11.11,16.82-19.79,23.95-30.19.3-1.44-2.77-6.28-3.51-8.53-6.2-18.87,5.3-36.58,23.76-41.61-.32-2.35.62-4.53.77-6.81,3.81-58.65,1.6-118.31,5.34-177.01,1.07-16.79,10.92-31.44,28.61-33.58h8.5ZM76,18.05c-16.76,15.95,5.31,43.72,24.83,29.09,21.33-15.99-5.6-47.38-24.83-29.09ZM248.76,203.99v-83.84c0-7.05-7.87-18.79-14.11-22.2L121.31,33.23l-2.74,12.34,66.45,66.26c34.6-16.43,55.6,34.83,18.94,46.58v45.59h44.8ZM93.49,63.37c-5.44.73-11.67.04-16.75-2.17-1.22-.53-6.73-4.53-7.19-4.01l-5.41,160.71,1.73-.96,27.61-153.56ZM195.26,121.5c-14.98,2.43-12.7,27.28,4.38,25.25,15.9-1.89,13.53-28.15-4.38-25.25ZM183.49,305.98h84.58v-83.84c0-1.67-3.59-5.39-5.76-5.06-23.13,2.08-50.85-2.66-73.43.02-4,.47-5.25,2.43-6.32,6.04-7.73,26-9.71,57.34-16.48,83.97l.41,3.5c1.85-1.29,4.4-2.18,6.57-2.7,2.9-.7,7.59-1.69,10.43-1.93ZM56.27,229.66c-24.45,1.31-22.93,39.5,2.04,38.49,24.88-1.01,23.52-39.86-2.04-38.49ZM356.9,242.62c-.04-6.73,1.67-11.95-6.63-13.07-20.33-2.75-46.24,1.94-67.17-.11l-2.66,1.2v11.98h13.13v12.36h-11.97l-1.16,1.16v49.84h71.45c2.78,0,9.37,1.51,12.31,2.37,2,.58,3.9,1.54,5.84,2.27v-50.61c0-1.41-4.31-5.02-5.79-5.02h-58.32v-12.36h50.98ZM60.67,382.48h47.51v-12.36h-12.36v-13.14h12.36l-.17-3.7c-10.49-8.27-23.2-15.95-29.07-28.48-6.57-14.02-4.73-32.34-7.84-47.41-6.92,3.56-15.06,4.05-22.55,2.09-2.39-.63-6.3-3.41-8.31-2.51-1.24.56-15.21,16.97-17.01,19.36-12.35,16.39-14.77,37.89-1.18,54.47,6.92,8.45,28.34,30.17,38.63,31.67ZM162.52,373.71c4.79,4.7,11.34,7.56,17.87,8.78l176.06-.07c35.93-7.87,34.2-58.22-2.35-63.2h-172.07c-26.5,2.42-38.63,35.76-19.52,54.49Z" fill="#ffa800"/>
      <rect x="293.56" y="268.12" width="25.49" height="12.36" fill="#ffa800"/>
      <rect x="331.41" y="268.12" width="25.49" height="12.36" fill="#ffa800"/>
      <path d="M173.33,369.07c-13.31-13.31-7.74-36.53,10.12-42.27,10.43-3.35,19.21.03,27.08,7.02,3.01-1.68,4.81-4.31,8.11-5.82,10.61-4.84,21.7-2.35,29.84,5.74,8.98-7.65,19.89-11.11,30.93-5.49,3.02,1.54,4.74,4.03,7.59,5.57,3.07-1.88,5.25-4.51,8.71-6,10.4-4.49,21.51-2.21,29.25,5.92,13.21-12.68,35.63-10.6,42.9,7.26,10.91,26.82-22.86,47.88-42.34,26.85-2.59,1.25-3.8,3.44-6.44,4.99-11.06,6.53-23.31,3.57-32.08-5.02-10.19,11.34-27.73,11.44-37.96.02-3.06,1.87-5.1,4.41-8.49,6.03-10.63,5.08-22.07,2.21-30.03-6.07-9.74,10.74-26.9,11.55-37.19,1.26ZM188.3,338.62c-14.75,2.74-11.43,26.38,4.23,25.15,16.7-1.31,14.8-28.7-4.23-25.15ZM226.15,338.62c-13.57,2.81-11.33,26.41,4.24,25.16,17.73-1.42,15.05-29.15-4.24-25.16ZM264.77,338.62c-14.51,2.7-11.52,26.42,4.24,25.16,17-1.36,14.61-28.66-4.24-25.16ZM302.62,338.62c-13.68,2.83-11.03,26.38,4.24,25.16,17.93-1.44,15.05-29.16-4.24-25.16ZM353.55,341.79c-11.28-11.28-29.96,5.7-18.31,17.93,11.92,12.51,30.2-6.04,18.31-17.93Z" fill="#ffa800"/>
      <path d="M261.89,280.48h-77.24c1.41-5.16.36-10.5.87-15.75,1.09-11.33,5.89-23.7,6.86-35.25h68.36l1.16,1.16v49.84ZM248.76,242.62h-45.19c-3.05,7.91-3.56,17.14-5.79,25.5h50.98v-25.5Z" fill="#ffa800"/>
    </g>
  </g>
</svg>