<?xml version="1.0" encoding="UTF-8"?>
<svg id="Layer_2" data-name="Layer 2" xmlns="http://www.w3.org/2000/svg" viewBox="0 0 384 384">
  <g id="Layer_1-2" data-name="Layer 1">
    <g>
      <path d="M0,46.5V0h384v46.5c-.74.99-2.95,4.5-4.12,4.5h-14.25l-1.12,1.12v319.12h14.62c1.23,0,3.97,3.46,4.88,4.5v8.25H0v-8.25c.9-1.04,3.65-4.5,4.88-4.5h14.62V52.12l-1.12-1.12H4.12c-1.18,0-3.39-3.51-4.12-4.5ZM371.25,12.75H12.75v25.5h358.5V12.75ZM351.75,51H32.25v320.25h12.75V67.88c0-1.25,5.95-4.96,7.85-4.15h277.56c2.05-.99,8.59,2.66,8.59,4.15v303.38h12.75V51ZM326.25,76.5H57.75v39h268.5v-39ZM326.25,128.25H57.75v38.25h268.5v-38.25ZM326.25,179.25H57.75v38.25h268.5v-38.25ZM326.25,230.25H57.75v38.25h268.5v-38.25ZM326.25,281.25H57.75v39h268.5v-39ZM326.25,333H57.75v38.25h268.5v-38.25Z" fill="#ffa800"/>
      <path d="M173.07,351.95c7.27-1.13,29.73-1.02,37.22-.11,9.43,1.15,9.28,11.53,2.29,12.62-6.29.98-34.88.98-41.16,0-6.86-1.08-7.06-11.16,1.65-12.51Z" fill="#ffa800"/>
    </g>
  </g>
</svg>