<?xml version="1.0" encoding="UTF-8"?>
<svg id="Layer_2" data-name="Layer 2" xmlns="http://www.w3.org/2000/svg" viewBox="0 0 366.83 259.22">
  <g id="Layer_1-2" data-name="Layer 1">
    <path d="M365.12,119.94L264.27,9.54c-11.64-10.73-27.76-12.2-40.76-4.78.72.58,1.43,1.19,2.12,1.83l10.26,11.4c6.29-1.65,12.92.02,18.52,5.04l76.82,84.34.1,127.31c.2,2.82-3.28,7.29-5.67,7.29h-17.76c-2.02,7.34-9.01,15.26-15.29,17.25,12.46-.12,24.91-.32,37.36-.66,7.71-1.4,17.15-12.66,17.15-21.18v-112.57c3.52,2.54,6.22,8.56,10.65,9.13,4.32.57,7.5-2.27,9.08-6.44v-4.32l-1.71-3.26Z" fill="#2f8542"/>
    <path d="M307.61,119.94L206.76,9.54c-11.64-10.73-27.76-12.2-40.76-4.78.72.58,1.43,1.19,2.12,1.83l10.26,11.4c6.29-1.65,12.92.02,18.52,5.04l76.82,84.34.1,127.31c.2,2.82-3.28,7.29-5.67,7.29h-17.76c-2.02,7.34-9.01,15.26-15.29,17.25,12.46-.12,24.91-.32,37.36-.66,7.71-1.4,17.15-12.66,17.15-21.18v-112.57c3.52,2.54,6.22,8.56,10.65,9.13,4.32.57,7.5-2.27,9.08-6.44v-4.32l-1.71-3.26Z" fill="#2f8542"/>
    <path d="M252.48,123.06v4.32c-1.57,4.17-4.75,7-9.08,6.44s-7.13-6.6-10.65-9.13v112.57c0,8.52-9.44,19.77-17.15,21.18-58.19,1.6-116.63.25-174.91.68-9.26.04-20.97-11.74-20.97-21.86v-112.57c-6.03,7.04-13.92,15.36-19.72,2.7v-4.32l1.71-3.26L102.56,9.4c13.72-12.43,33.64-12.64,47.35,0l100.85,110.4,1.71,3.26ZM165.69,241.83h45.61c2.39,0,5.88-4.47,5.67-7.29l-.1-127.31L140.05,22.9c-8.43-7.57-19.2-7.57-27.63,0L35.61,107.24l-.1,127.31c-.2,2.82,3.28,7.29,5.67,7.29h45.61v-71.54c0-11.83,12.76-22.64,22.91-23.5,8.93-.76,23.61-.69,32.59,0,10.38.79,23.4,11.32,23.4,23.51v71.54ZM149.91,241.83v-69.92c0-.18-1.14-2.92-1.38-3.35-1.2-2.18-3.6-3.93-5.89-4.35-4.37-.8-29.62-.8-33.57.24-2.59.68-6.5,4.53-6.5,7.46v69.92h47.34Z" fill="#2f8542"/>
  </g>
</svg>