<?xml version="1.0" encoding="UTF-8"?>
<svg id="Layer_2" data-name="Layer 2" xmlns="http://www.w3.org/2000/svg" viewBox="0 0 444.7 373.74">
  <g id="Layer_1-2" data-name="Layer 1">
    <g>
      <path d="M347.01,291.69v65h63.5c.77,0,5.55,4.02,5.97,5.02,2.7,6.34-2.71,11.97-8.93,12.03H11.48c-7.04.19-14.35-4.84-10.33-12.42.63-1.18,4.41-4.62,5.37-4.62h63.5v-110.5c0-3.39,6.28-6.26,9.45-6.55,17.42-1.59,37.29,1.23,54.99.1,2.33-.28,7.56,4.85,7.56,6.44v110.5h26v-169.5c0-1.59,5.23-6.72,7.56-6.44,18.59,1.25,39.72-1.86,57.99-.11,3.15.3,10.45,3,10.45,6.55v169.5h30v-110.5c0-1.41-8.58-19.72-9.73-26.27-10.6-60.4,34.85-116.78,97.22-112.22,78.24,5.73,111.95,106.77,54.04,160.01-10.55,9.7-35.68,23.97-50.03,23.97h-18.5ZM343.47,123.25c-27.86,3.5-53.47,27.11-61.97,53.43-22.41,69.35,50.94,126.21,112.42,88.42,69.49-42.71,30.05-151.96-50.46-141.85ZM229.01,196.69h-45v160h45v-160ZM127.01,254.69h-42v102h42v-102ZM331.01,356.69v-66.5c-15.62-5.48-30.4-12.42-42-24.5v91h42Z" fill="#2f8542"/>
      <path d="M301.51,15.69c-5.44-1.52-6.27-13.61,1.03-14.97,18.65,1.54,40.79-2.15,59-.05,4.4.51,7.17,2.95,7.5,7.5l-.97,56.82c-2.8,3.03-8.55,4.08-11.52.67-.44-.5-2.53-5.17-2.53-5.47v-28c0-.26,1.42-1.34,1-2.49l-2.01.48-121.93,122.07c-3,1.02-6.19.61-8.55-1.55l-50-50.98L11.06,261.24c-7.89,2.94-14.55-6.51-8.57-12.58L169.43,81.61c3.07-2,5.44-.77,8.08,1.08,7.99,5.59,18.32,19.21,25.47,26.53,3.04,3.11,23.65,24.71,25.39,24.4L345.01,15.69h-43.5Z" fill="#2f8542"/>
      <path d="M354.51,204.69c3.4.98,4.3,7.74,1.48,10.49-3.47,3.38-16.32-.35-16.99,3.03-.57,2.9,9.86,12.11,12.97,13.01,8.77,2.54,12.64,2.37,21.03-1.03,2.35-.95,4.57-3.39,6.97-4.04,6.9-1.86,11.42,4.36,6.57,10.59-3.49,4.49-10.12,4.56-13.24,8.93h-21.61c-1.43-3.21-4.09-2.26-6.58-3.59-10.66-5.7-16.75-12.99-20.75-24.48l-10.96-1.81-1.46-9.48c4.08-2.48,9.53.1,10.13-6.1.91-9.44-9.12-3.31-9.12-12.02,0-8.66,9.9-5.34,11.82-7.73.69-.86.8-3.92,1.83-5.67,9.06-15.51,16.09-16.02,31.7-20.13,1.02-.27.31-2.74,3.2-1.98.39.1.38,1.84,1.17,2.01,1.95.42,4.35-.31,6.6.25,6.8,1.68,24.38,8.43,18.18,17.72-4.39,6.58-14.8-3.41-20.06-4.85-9.88-2.7-26.6,2.71-28.39,13.89h14.5c3.87,0,7.15,7.36,3.01,11.01-5.09,4.49-29.71-6.14-21.01,11.99h19Z" fill="#2f8542"/>
    </g>
  </g>
</svg>