<?xml version="1.0" encoding="UTF-8"?>
<svg id="Layer_2" data-name="Layer 2" xmlns="http://www.w3.org/2000/svg" viewBox="0 0 384 300">
  <g id="Layer_1-2" data-name="Layer 1">
    <g>
      <path d="M0,243.75l75.38-75h38.62c-.46,2.29,1.16,10.36-1.23,11.15l-33.69.81-59.58,60.04h345l-52.5-52.5v27.75h-11.25v-12.75c-16.31-.93-29.75-10.7-39.38-23.25h-45.38v34.88l-1.12,1.12h-45.75l-1.12-1.12v-34.88h-42.75v-11.25h42.75v-37.5h-54V24h54V1.12l1.12-1.12h45.75l1.12,1.12v22.88h54v107.25h-54v37.5h38.62l.82-1.55c-.55-2.2-2.7-7.44-2.7-9.33v-13.88c7.25.39,14.61.66,21.59,2.79,10.44,3.18,19.41,10.09,26.41,18.21v-39h11.25v14.25c12.58-13.87,29.07-21.02,48-20.25v10.88c0,22.2-20.42,40.82-40.15,46.86-.83.25-1.34-.52-1.09,1.13l65.24,64.89v56.25h-84v-11.25h72.75v-36.75H11.25v36.75h277.5v11.25H0v-56.25ZM204.75,24v-11.62c-.66-1.07-1.49-1.04-2.59-1.16-4.31-.51-16.01-.51-20.33,0-1.09.13-1.93.09-2.59,1.16v11.62h25.5ZM258.75,35.25H125.25v12.75h48.75v11.25h-47.62l-1.12,1.12v59.62h133.5v-11.62l-1.12-1.12h-23.62v-11.25h24.75v-60.75ZM180.38,131.25l-1.12,1.12v71.25l1.12,1.12h23.25l1.12-1.12v-71.25l-1.12-1.12h-23.25ZM347.99,132c-17.89,2.73-33.86,17.62-35.24,35.99,18.11-3.11,33.21-17.39,35.24-35.99ZM300,192c-2.17-18.57-17.71-33.26-35.99-35.99,3.01,18.44,17.36,33.2,35.99,35.99Z" fill="#ffa800"/>
      <path d="M186,264.75v11.25l-10.55-.33c-1.53-1.06-.33-8.71-.7-10.92h11.25Z" fill="#ffa800"/>
      <path d="M209.25,264.75l-.33,10.55c-1.06,1.53-8.71.33-10.92.7v-11.25h11.25Z" fill="#ffa800"/>
    </g>
  </g>
</svg>