<?xml version="1.0" encoding="UTF-8"?>
<svg id="Layer_2" data-name="Layer 2" xmlns="http://www.w3.org/2000/svg" viewBox="0 0 372.97 372.03">
  <g id="Layer_1-2" data-name="Layer 1">
    <g>
      <path d="M102.5,123.83L181.67,2.37c2.09-2.76,5.85-3.06,8.56-1.15l54.78,84.35c1.03.7,5.19-4.16,6.49-5.12,31.04-22.82,72.86,3.73,66.24,41.12,48.24,9.75,58.13,74.52,15.8,99.37l26.61,40.86c9.28,19.55-13.23,36.72-29.65,23.28v51h37.88c1.57,0,3.82,3.24,4.08,4.92.78,5.02.56,19.39.08,24.74-.31,3.41-1.32,5.57-4.95,6.3H5.42c-3.07-.56-4.59-2.54-4.94-5.56-.74-6.36-.56-20.48.03-27,1.06-11.83,8.76-21.1,19.5-25.5,2.13-.87,5.67-1.01,6.99-1.82.8-.49,1.53-3.28,2.44-4.5,3.37-4.53,7.3-9.17,13.06-10.56v-12c-17.19,13.56-39.38-4.21-29.11-24.23,10.86-21.17,29.77-41.83,40.95-63.3l.49-97.76c.82-2.01,2.43-3.33,4.58-3.67,7.15-1.12,29.08-.77,36.74-.08,2.15.19,6.34,1.69,6.34,4.16v23.62ZM187.24,17.33l-1.54.47L23.87,266.82c-4.06,8.46,4.71,14.65,11.46,8.46L183.21,48.91c2.95-1.7,6.61-1.02,8.43,1.91l146.04,224.46c6.61,6.14,15.55.13,11.46-8.46L187.24,17.33ZM54.5,267.45v26.62c4.5,1.18,4.55-2.72,7.13-5.24,5.55-5.41,15.37-8.15,22.86-6.01,1.01-1.08-1.49-23.88.84-28.04,1.02-1.82,2.78-2.49,4.77-2.73,6.88-.81,23.01-.66,30.05-.02,2.67.24,4.46.69,5.77,3.23l.23,53.1c-2.23,7.13-18.53,1.95-23.94,3.81-.98.34-1.82,2.53-1.82,3.43,0,1.89,4.01,3.83,5.49,5.45,3.97,4.33,6.61,9.22,7.85,15.02h30.75v-79.88c0-1.42,3.77-4.59,5.61-4.14,23.21,1.61,49.18-2.09,72.05-.02,2.15.19,6.34,1.69,6.34,4.16v79.88h90v-68.62c-44.38-66.6-86.98-134.37-131.08-201.15-.35-.53.22-1.3-1.29-.98L54.5,267.45ZM272.58,84.29c-6.91.8-17.1,5.83-19.75,12.6l74.29,113.92c32.69-20.72,26.96-66.78-10.85-77.64-3.33-.96-8.66-.3-10.88-3.37-2.71-3.74.58-8.4,1.02-12.44,2.11-19.43-14.61-35.32-33.84-33.09ZM90.5,108.08h-24v70.5l24-35.62v-34.88ZM114.5,264.08h-18v26.62c0,.16,1.7,1.54,2.12,2.38,1.19,2.33,2.05,4.83,3.5,7h12.38v-36ZM180.5,264.08h-24v72h24v-72ZM216.5,264.08h-24v72h24v-72ZM101,336.08c.33-7.68-13.92-10.85-15.35-14.27-2.38-5.65,3.09-7.81,4.35-12.11,3.45-11.79-10.38-20.72-19.36-12.62-2.71,2.44-4.12,8.75-6.91,9.58-5.75,1.71-10.14-2.97-18.33,1.93-7.28,4.35-6.46,10.77-10,14-2.51,2.3-5.24,1.04-8.09,1.66-5.85,1.27-11.89,5.78-13.3,11.82h87ZM360.5,348.08H12.5v12h348v-12Z" fill="#ffa800"/>
      <path d="M250.79,252.24c10.09.58,22.27-1.33,32.11-.18,4.03.47,5.29,2.52,5.64,6.36,1.39,15.25-1.12,32.57-.02,48.05-.47,4.03-2.52,5.29-6.36,5.64-7.03.64-23.19.79-30.05-.02-4.03-.47-5.29-2.52-5.64-6.36-1.39-15.25,1.12-32.57.02-48.05.07-2.6,1.8-4.77,4.3-5.45ZM276.5,264.08h-18v36h18v-36Z" fill="#ffa800"/>
      <path d="M182.58,132.29c41.11-4.77,45.63,56.85,6.53,59.78-39.39,2.95-44-55.43-6.53-59.78ZM183.3,144.26c-22.17,3.52-17.96,38.72,5.76,35.75,23.02-2.89,18.73-39.63-5.76-35.75Z" fill="#ffa800"/>
    </g>
  </g>
</svg>