<?xml version="1.0" encoding="UTF-8"?>
<svg id="Layer_2" data-name="Layer 2" xmlns="http://www.w3.org/2000/svg" viewBox="0 0 448.36 392.9">
  <g id="Layer_1-2" data-name="Layer 1">
    <g>
      <path d="M5.54,251.84c-5.14-1.1-7.55-9.72-3.52-13.52L158.57,103.87c8.18-6.21,9.46-4.76,16.95,1,11.84,9.12,28.99,23.17,39.54,33.46,8.63,8.41,1.84,17.62-8.39,14.38l-40.12-34.85L28.53,235.83l-.47,2.02c4.78-2.64,15.99-1.1,15.99,5.5v134.5h109v-120h-17.5c-4.88,0-9.16-11.18-3.93-14.92,13.9-13.08,28.55-25.49,42.44-38.56,21.18-19.93,44.83-46.36,66.98-64.02,3.94-3.14,7.44-5.19,12.56-2.54l113.9,107.1c5.85,13.01-8.98,14.02-18.45,12.96v120h45v-22c-28.4,3.67-48.31-28.56-33.19-52.69,1.98-3.16,8.3-7.85,8.98-10.02.83-2.64.62-7.13,1.51-10.49,7.71-29,51.6-29.62,60.76-.35.97,3.1,1.26,10.7,2.19,12.32.27.46,5.82,4.43,7.57,6.92,17.58,24.96-2.91,58.19-32.82,54.32v22h15.5c.79,0,3.81,2.61,4.38,3.61,3.3,5.69-1.06,11.69-7.34,11.44l-409.07-.03c-11.58-1.34-7.22-15.02-1.98-15.02h18.5v-126c-6.77-.98-17.25,1.33-23.5,0ZM334.04,257.84h-165v118.5c0,.3-1.27.77-1,1.5h45v-73.5c0-1.22,5.2-7.28,7.45-6.55,18.57,1.79,41.01-2.2,59.09,0,2.29.28,7.46,3.59,7.46,5.54v74.5h47v-120ZM409.04,340.84c18.21,3.59,31.58-17.35,19.42-31.92-2.54-3.05-8.25-5.84-9.67-9.33-2.37-5.86,1.06-9.99-3.92-17.08-7.84-11.14-26.42-8.02-28.6,5.07-.71,4.28.54,8.4-1.47,12.53s-7.54,6.08-10.21,9.79c-10.36,14.44,2.1,33.85,19.43,30.93v-25.5c0-5.92,15-5.92,15,0v25.5Z" fill="#ffa800"/>
      <path d="M335.82,49.12c17.41-2.09,33.63,2.97,45.19,16.25,37.18,42.71-18.67,105.17-66.88,70.88-34.2-24.33-20.65-82.05,21.69-87.13ZM338.82,64.13c-43.01,5.27-35.8,71.47,8.61,66.6,43.98-4.81,37.28-72.23-8.61-66.6Z" fill="#ffa800"/>
      <path d="M276.75,25.05c9.57-2.86,16.57,12.21,23.74,16.84,5.45,8.16-3.6,16.58-11.84,11.84-.95-.55-14.35-14.81-15.06-15.93-2.6-4.12-1.7-11.3,3.16-12.75Z" fill="#ffa800"/>
      <path d="M404.75,25.05c7.13-1.64,12.21,3.48,9.5,10.51-.93,2.43-15.19,17.82-17.23,18.75-7.35,3.37-14.32-3.73-11.22-11.22.97-2.35,16.55-17.49,18.95-18.04Z" fill="#ffa800"/>
      <path d="M342.79.03c5.67-.5,7.85,5.6,8.29,10.27.38,4.12.57,16.16-.25,19.82-1.65,7.38-13.17,7.69-15.34.77-.92-2.93-.96-21.11-.24-24.34s4.38-6.24,7.54-6.52Z" fill="#ffa800"/>
      <path d="M248.75,89.05h27.58c6.25,2.82,5.91,13.5-.82,14.76-3.39.64-22.45.54-25.76-.19-6.96-1.54-7.16-11.57-1.01-14.57Z" fill="#ffa800"/>
      <path d="M399.69,143.19c1.89,4.71,14.03,12.68,15.15,16.35,2.16,7.12-4.59,14.26-11.35,10.34-1.56-.9-16.53-16.55-17-18-2.91-9.03,5.8-14.97,13.2-8.7Z" fill="#ffa800"/>
      <path d="M337.34,161.13c3.4-4.02,11.99-2.76,13.49,2.42.72,2.47.62,21.76,0,24.58-1.81,8.09-13.32,7.36-15.36-1.22-1.12-4.72-1.17-22.19,1.87-25.78Z" fill="#ffa800"/>
      <path d="M409.76,90.06c3.19-.73,24.5-.69,27.34.23,6.28,2.04,5.49,13.22-2.62,14.5-3.69.58-21.31.58-24.5-.39-6.76-2.06-6.86-12.82-.23-14.34Z" fill="#ffa800"/>
    </g>
  </g>
</svg>