<?xml version="1.0" encoding="UTF-8"?>
<svg id="Layer_2" data-name="Layer 2" xmlns="http://www.w3.org/2000/svg" viewBox="0 0 383.13 352.53">
  <g id="Layer_1-2" data-name="Layer 1">
    <g>
      <path d="M13.06,78.38c.45-2.89,4.19-9.53,6.35-11.65s8.92-4.96,9.23-5.39c.34-.48,2.37-9.38,3.15-11.47C40.69,25.99,61.52,7.38,86.55,1.87c42.45-9.34,82.29,17.28,91.97,58.93l172.41-.04c6.41.65,13.2,5.13,16.29,10.71.47.85,2.85,6.53,2.85,6.9v220.12c4.3-.2,10.83-.72,12.41,4.46.94,3.06.7,19.01.36,22.94-1.25,14.4-12.83,25.83-27.37,26.63l-329.95-.11c-12.44-1.75-23.3-11.85-25.01-24.49-.54-3.96-.84-21.76.14-24.97,1.59-5.18,8.11-4.66,12.41-4.46V78.38ZM96.9,12.22c-46.26,4.49-72.36,56.2-48.98,96.54,24.33,41.99,86.1,42.32,110.77.49,26.91-45.63-9.4-102.11-61.78-97.03ZM358.06,298.5V79.88c0-1.78-5.35-7.12-7.12-7.12h-171.38v10.5h163.88c1.72,0,4.84,4.29,4.16,6.34l-.61,195.22-2.44,2.81-304.15.42c-2.82-.15-4.69-3.03-4.85-5.65l.03-170.28c-4.54-11.08-8.77-22.66-8.28-34.86-.78.01-2.24,2.32-2.24,2.62v218.62h333ZM335.56,95.25h-158.25c-14.25,57.9-89.3,77.04-129.75,33v147.75h288V95.25ZM370.81,310.5h-115.88l-1.12,1.12v14.25c0,2.32-5.72,4.39-7.84,4.16-35.22-2-73.17,2.55-108.06,0-2.28-.17-8.59-1.14-8.59-4.16v-14.25l-1.12-1.12H12.31v16.12c0,6.3,10.24,14.97,16.84,13.91h325.56c6.34.7,16.1-7.86,16.1-13.91v-16.12ZM241.81,310.5h-100.5v7.5h100.5v-7.5Z" fill="#fff"/>
      <path d="M259.87,185.35c2.92,12.79,13.09,32.6-4.16,39.68-8.88,3.64-14.47-.56-21.04-6.01l-52.11-2.26c-1.38,1.3,9.54,29.85,8.07,36.95-1.55,7.49-18.18,11.98-24.1,8.69-1.72-.96-3.28-3.09-4.13-4.87l-9.16-33.96c-5.87,2.27-11.02-5.03-13.96-5.92-2.21-.66-5.9.04-8.65-.35-19.54-2.77-26.92-29.35-12.6-42.96,1.78-1.69,7.95-4.6,8.63-5.62,1.73-2.61,1.31-6.05,4.95-9.3,6.02-5.4,22.99-6.61,31.1-10.15l45.76-29.24c2.12-6.6,4.08-11.82,11.08-14.42,20.3-7.56,23.47,16.53,27.14,30.14,2.73,1.46,5.88,1.37,8.83,2.42,20.59,7.27,23.25,36.35,4.36,47.19ZM225.1,116.37c-2.08.32-4.5,3.09-4.15,5.32l25.39,91.65c4.21,2.6,8.2-.12,7.3-5l-23.79-88.76c-.58-1.87-2.75-3.51-4.76-3.2ZM211.8,132.75l-39.67,25.25,11.99,46.67,47.17,2.32-19.5-74.24ZM256.06,172.5c1.42,1.53,3.96-4.99,4.16-5.95,1.72-8.24-2.16-14.97-10.17-17.29l6,23.24ZM160.77,162.78c-.82-.72-20.22,4.81-20.99,5.57-1.42,1.4-.64,3.92-.39,5.69,1.02,7.13,6.52,27.59,9.18,34.31.62,1.56.94,2.91,2.89,3.17,1.52.2,16.6-3.67,18.71-4.52.73-.29,1.54-.25,1.83-1.21l-11.23-43.01ZM129.3,181.5c-1.3-1.2-5.58,5.05-6.03,6.34-3.14,8.95,2.59,17.68,12.03,17.66l-6-23.99ZM178.81,249.74l-8.27-30.74-5.99,1.51,8.28,30.72,5.97-1.49Z" fill="#fff"/>
      <path d="M93.39,73.59v2.08s20.88,8.74,20.88,8.74c16.73-13.63,38.48,8.5,24.36,24.3-10.69,11.95-30.36,2.69-29.72-12.94l-19.81-8.78c-3.34,1-5.37,3.7-9.11,4.33-17.07,2.9-27.77-17.4-14.84-29.09,7.36-6.66,16.23-5.1,23.67.46l20.11-8.8c-.35-14.32,14.84-24.04,27.04-15.21,18.85,13.65-3.6,41.77-21.47,25.91l-21.13,8.98ZM125.34,47.39c-4.06.62-6.1,7.08-1.86,9.06,8.84,4.12,9.97-10.3,1.86-9.06ZM75.1,69.86c-5.3,1.46-4.63,11.01,2.65,9.51,6.57-1.36,2.93-11.05-2.65-9.51ZM124.6,92.38c-5.35,1.54-3.77,10.82,2.66,9.49s3.68-11.31-2.66-9.49Z" fill="#fff"/>
    </g>
  </g>
</svg>