<?xml version="1.0" encoding="UTF-8"?>
<svg id="Layer_2" data-name="Layer 2" xmlns="http://www.w3.org/2000/svg" viewBox="0 0 692.46 332.41">
  <g id="Layer_2-2" data-name="Layer 2">
    <g id="Layer_1-2" data-name="Layer 1-2">
      <path d="M2.46,324.41h690c-20.03-56.91-60.33-139.04-142-200.99-56.23-42.66-107.79-57.33-196.5-82.58C226.38,4.53,162.59-13.63,109.46,11.99,26.67,51.91-10.28,179.75,2.46,324.41Z" fill="#9b4022" isolation="isolate" opacity=".2"/>
    </g>
    <g>
      <path d="M398.22,33.61V13.14c0-2.64,4.49-4.25,6.79-4.45,8.99-.81,29.82-1.01,38.6.02,4.34.5,5.67,2.71,6.04,6.81,1.6,17.46-1.4,37.18.13,54.88l38.77,26.66c5.02,5.4.12,9.97-2.96,14.7-2.83,4.35-8.33,13.04-11.54,16.56-7.03,7.71-17.7-6.58-24.44-9.58v78.29c0,4.4-11.51,7.41-12.81-.85l-.46-86.26-76.96-53.72-76.41,53.7-.44,86.28c-1.3,8.27-12.81,5.25-12.81.85v-78.29c-6.63,3.14-17.54,17.19-24.44,9.59-1.94-2.13-15.43-21.41-16.07-23.28-.86-2.46-.75-5.02.78-7.17L356.19,9.64c1.95-1.26,4.41-1.33,6.48-.3l35.56,24.26ZM436.77,21.56h-25.7v21.28l25.7,18.07V21.56ZM359.42,23.33l-115.22,80.52,8.29,11.64,106.85-73.84,106.37,72.66,1.86.35,7.43-10.35-.43-1.26-115.15-79.71Z" fill="#9b4022"/>
      <path d="M385.38,137.19h-51.39v60.62c0,3.98-11.8,7.47-12.86-1.6-2.41-20.48,1.79-45.63.06-66.62.78-3.89,3.08-4.98,6.75-5.3,20.44-1.83,43.57,1.46,64.29.02,4.29.5,5.66,2.67,6.04,6.81,1.86,20.62-1.43,44.1-.09,65.03-1.3,8.27-12.81,5.25-12.81.85v-59.83h0Z" fill="#9b4022"/>
      <path d="M225.51,321.17c-.51.32-3.46,7.06-7.64,9.09-8.33,4.07-30.6,3.01-32.79-9.22,1.3-25.22-3.2-55.44-.43-80.11.79-7.07,6.01-12.36,13.12-13.12,8.38-.89,20.3-1.36,25.68,6.02,1.12,1.54.15,3.04,2.27,3,4.8-.07,23.73-5.37,29.1-7.18,23.45-7.92,31.08-20.93,59.23-14.06,13.99,3.42,38.39,10.21,51.29,15.67,6.03,2.55,9.86,5.75,12.73,11.7,1.06,2.21.62,6.45,3.31,6.52,6.24.14,24.26-8.02,30.73-10.95,21.16-9.58,40.64-22.78,61.18-32.92,8.97-4.43,14.18-7.66,24.16-2.41,4.39,2.32,8.88,7.47,10.29,12.34,3.99,13.91-4.73,20.56-13.6,29.01-29.38,27.95-96.02,82.55-136.31,86.28-22.25,2.06-43.96-6.82-65.95-8.92-16.33-1.57-39.02-2.78-55.22-1.85-1.63.1-10.66.79-11.13,1.09h-.02ZM226.28,308.37c22.42.1,45.08-.41,67.4,1.81,19.44,1.94,42.86,10.45,61.51,9.03,36.63-2.8,100.04-54.83,127.16-80.05,3.94-3.66,14.51-12.2,14.51-17.2,0-5.27-6.23-11.25-11.62-8.9-30.95,15.13-61.9,37.62-95.35,46.74-3.38.93-10.37,1.21-12.71,2.43-1.15.59-4.48,5.66-7.27,7.44-13.49,8.63-35.61-2.74-51-3.71-5.53-.35-14.27,2.84-16.25-3.71-2.92-9.65,13.31-8.54,18.97-8.06,10.19.88,28.75,7.91,37.22,7.17,10.5-.91,12.15-14.34,3.17-18.6-17.99-3.12-42.87-16.49-60.31-17.56-11.25-.69-21.64,6.81-31.38,10.93-14.09,5.97-28.94,9.88-44.04,12.51v59.73h-.01ZM213.4,319.02c1.02-1.41,1.01-3.07,1.16-4.73,1.93-22.84-1.49-48.36-.06-71.5-.17-5.07-15.91-3.64-17.25-1.93l-.81,76.1c.39,4.68,15.33,3.7,16.98,2.05h-.01Z" fill="#9b4022"/>
    </g>
  </g>
</svg>