<?xml version="1.0" encoding="UTF-8"?>
<svg id="Layer_2" data-name="Layer 2" xmlns="http://www.w3.org/2000/svg" viewBox="0 0 384 301.15">
  <g id="Layer_1-2" data-name="Layer 1">
    <g>
      <path d="M384,78.83v193.5c-3.24,15.6-15.08,27.06-31.14,28.49l-287.42-.56c-4.61-2.39-4.32-7.55-.18-10.29l286.85-.4c9.34-1.14,16.69-6.57,19.67-15.58,2.24-63.48.29-127.42.99-191.07-.37-9.27-7.79-18.85-17.08-20.42-22.26-3.76-59.19,7.52-76.62-9.63-14.03-13.82-12.05-39.14-36.42-40.83-34.05-2.36-71.11,1.56-105.45.37-21.17,4.18-19.63,30.2-34.85,42.4-17.4,13.94-52.08,4.66-73.42,7.58-9.59,1.31-17.35,11.04-17.72,20.53l.11,187.44c1.72,10.2,9.49,17.91,19.87,19.13,4.83.56,15.81-1.84,17.9,3.1,4.24,9.98-12.62,8.7-17.97,8.22-16.1-1.44-27.91-12.92-31.14-28.49V78.83c3.45-15.35,15.27-27.36,31.5-27.75-.15-9.8-1.96-20.65,10.84-21.78,7.21-.64,24.53-.85,31.46.1,3.2.43,9.44,4.58,9.44,7.81v13.12c19.36-.26,21.23-24.12,30.77-36.36,6.24-8.01,14.97-12.41,25.08-13.17,34.09-2.55,71.34,1.96,105.77.04,38.04,3.19,26.22,47.58,57.77,50.23,16.83,1.41,35.76-1.47,52.51-.01,14.63,1.27,25.85,14.03,28.85,27.78ZM72,40.58h-29.25v10.5h29.25v-10.5Z" fill="#e4cfaf"/>
      <path d="M191.75,76.12c68.18-.21,114.98,69.93,88.12,132.97-28.69,67.34-119.26,78.61-163.92,20.42-47.98-62.51-2.35-153.15,75.8-153.39ZM191.75,87.37c-63.53.23-104.31,68.93-73.64,124.98,31.61,57.78,115.34,57.92,147.52.49,31.4-56.05-10.01-125.7-73.88-125.47Z" fill="#e4cfaf"/>
      <path d="M44.62,76.26c23.28-.28,24.16,34,3.01,36.32-26.79,2.95-28.31-36.02-3.01-36.32ZM44.62,87.47c-8.48,0-9.56,12.49-1.46,13.82,10.98,1.79,11.09-13.82,1.46-13.82Z" fill="#e4cfaf"/>
      <path d="M163.28,29.49l56.8-.12c6.55,1.52,7.74,9.4.75,11.16-17.99-1.44-39.39,2.08-56.97.06-7.22-.83-7.02-9.02-.57-11.11Z" fill="#e4cfaf"/>
      <path d="M335.79,81.99c5.28-1.21,19.73-1.09,15.57,8.08-1.75,3.87-12.55,3.78-15.91,2.44-4.61-1.84-4.41-9.43.34-10.52Z" fill="#e4cfaf"/>
      <path d="M151.01,212.82c41.62,41.28,111.41,1.19,97.18-55.56-1.25-4.96-6.05-11.15-1.49-15.1,9.35-8.11,13.84,16.98,14.29,22.56,5.99,75.29-92.81,105.15-129.12,41.37-36.79-64.62,41.46-134.09,100.88-90.38,3.96,2.91,13.27,9.57,6.49,14.48-5.23,3.78-12.75-5.52-17.75-8.46-58.61-34.4-118.17,43.79-70.47,91.09Z" fill="#e4cfaf"/>
    </g>
  </g>
</svg>