<?xml version="1.0" encoding="UTF-8"?>
<svg id="Layer_2" data-name="Layer 2" xmlns="http://www.w3.org/2000/svg" viewBox="0 0 692.46 331.25">
  <g id="Layer_1-2" data-name="Layer 1">
    <g>
      <path d="M690,327.83H0c20.03-56.91,60.33-139.04,142-200.99,56.23-42.66,107.79-57.33,196.5-82.58,127.57-36.31,191.36-54.47,244.5-28.85,82.78,39.92,119.74,167.76,107,312.42Z" fill="#b8680d" opacity=".2"/>
      <path d="M484.22,108.88c47.96,1.28,58.22,67.57,11.96,82.2l-.02,82.35c-1.6,8.55-9.01,15.51-17.93,15.44-1,11.49,1.33,25.17.01,36.39-.4,3.44-2.14,5.22-5.63,5.63-4.14.48-14.64.48-18.78,0-1.68-.2-2.96-.57-4.13-1.87l-13.07-40.2-181.41.02-12.47,40.18c-1.17,1.3-2.45,1.67-4.13,1.87-3.2.37-18.93.39-21.2-.58-2.08-.89-2.96-2.9-3.21-5.04-1.31-11.23,1.01-24.89.01-36.39-8.92.07-16.33-6.9-17.93-15.44l-.02-82.35c-46.27-14.55-36-80.96,11.96-82.2-.44-16.78-.42-32.43,5.23-48.39C225.3,27.07,256.58,3.82,291.86.88c62.5,5.32,142.26-20.99,180.22,44.76,11.49,19.89,13.26,40.58,12.14,63.23ZM250.23,146c.79,7.42-.58,16.06,0,23.62h192v-23.62c0-2.86,2.58-9.77,3.86-12.64,4.91-11.03,14.6-19.29,26.19-22.69.17-16.9.82-32.53-5.47-48.49-10.89-27.63-37.38-46.79-66.96-49.29-46.14,5.16-113.65-13.8-151.47,18.01-24.71,20.78-30.52,48.81-28.07,80.16,15.42,3.23,28.29,19.53,29.92,34.95ZM485.94,181.84c1.61-1.61,5.97-1.72,8.25-2.63,34.19-13.66,21.05-62.17-13.88-58.13-14.14,1.64-25.01,13.89-26.11,27.89-1.85,23.46,2.71,51.48.04,74.29-.27,2.32-1.08,3.93-3.21,5.04l-207.89.52c-3.07-.56-4.59-2.54-4.94-5.56-2.71-23.4,2.4-51.92-.08-75.67-2.72-26.05-36.81-36.34-53.14-15.82-13.06,16.41-6.5,39.57,12.75,47.22,4.01,1.59,9.32.69,10.31,6.19l.16,86.09c.08,2.83,2.14,5.16,4.94,5.56l267.37-.29c2.19-.87,3.67-2.88,3.73-5.27,1.82-27.06-2.47-57.39-.06-84.05.14-1.58.64-4.27,1.75-5.38ZM442.23,216.88v-31.88c0-1.72-4.29-4.84-6.34-4.16h-179.32c-2.04-.68-6.34,2.44-6.34,4.16v31.88h192ZM241.98,288.88h-15.75v30l7.58-.45,8.17-29.55ZM466.23,288.88h-15.75l8.17,29.55,7.58.45v-30Z" fill="#b8680d"/>
    </g>
  </g>
</svg>