<?xml version="1.0" encoding="UTF-8"?>
<svg id="Layer_2" data-name="Layer 2" xmlns="http://www.w3.org/2000/svg" viewBox="0 0 384 310.31">
  <defs>
    <style>
      .cls-1 {
        fill: #131f76;
      }

      .cls-2 {
        fill: #ffa800;
      }
    </style>
  </defs>
  <g id="Layer_1-2" data-name="Layer 1">
    <g>
      <path class="cls-1" d="M0,156.06c2.69-6.87,6.57-11.52,14.05-13.32,16.59.79,35.26-1.67,51.6-.21,5.69.51,11.49,4.11,13.98,9.27.39.81,2.12,5.69,2.12,6.13v15.38c10.98-2.82,21.9-6.23,32.99-8.64,16.26-3.53,19.43-3.32,35.58.44,21.72,5.06,42.86,12.6,64.51,17.91,1.39-.14,2.46-1,3.64-1.62,14.44-7.59,41.17-29.74,56.43-29.13,8.27.33,15.45,4.46,20.96,10.36,15.6-11.88,33.79-15.37,48,.71,15.29-6.9,32.66,1.18,38.47,16.5l1.66,5.46v9c-1.99,9.55-6.92,14.83-14.33,20.54-22.56,17.41-50.42,35.12-74.53,50.72-16.47,10.66-61.15,40.6-78.74,42.01-13.31,1.07-38.19-5.24-52.17-7.88-27.58-5.22-54.88-11.82-82.48-16.89v11.62c0,.44-1.72,5.32-2.12,6.13-2.49,5.16-8.29,8.76-13.98,9.27-16.34,1.46-35.01-1-51.6-.21-7.29-1.53-11.61-6.55-14.06-13.32v-140.25ZM67.32,296.13c.91-.91,1.59-4.71,1.71-6.17l-.73-131.33-1.87-2.63-50.72-.37-2.4,2.1-.22,136.36c.8,2.17,2.39,2.72,4.53,2.97,10.47,1.23,35.02.94,45.8.02,1.17-.1,3.09-.13,3.92-.96ZM332.25,170.29c-2.49-3.51-8.89-5.62-13.04-5.19-8.07.84-33.27,19.44-42.71,24.08-3.73,1.83-9.63,4.25-11.93-1.06-4.1-9.47,14.72-13.61,19.67-18.94-6.88-5.2-11.82-4.9-19.24-1.25-10.79,5.31-21.3,14.05-32.14,19.61l.03,1.51c20.86,3.82,43.56,16.51,38.29,41.3s-28.38,24.56-48.79,22.45c-16.74-1.73-37.45-3.89-53.8-6.95-3.19-.6-6.4-.79-7.67-4.33-1.68-4.65,1.95-9.04,6.71-9.03,23.46,1.88,48.66,8.29,72.02,9.06,12.17.4,20.73-9.19,19.04-21.31-.94-6.8-8.32-11.73-14.2-14.3-18.44-8.06-47.96-14.9-68.07-20.43-11.89-3.27-36.52-11.63-47.7-10.62-14.62,1.32-31.61,8.72-46.23,11.51l-.66,82.82c34.91,7.08,69.66,15.55,104.79,21.59,7.45,1.28,18.04,3.81,25.24,4.03,13.73.41,49.67-23.12,62.58-31.23,19.64-12.33,38.98-25.51,58.05-38.7,6.91-4.78,32.15-20.68,35.77-25.73,9.72-13.61-5.19-31.03-20.51-23.51-19.11,9.37-36.6,23.09-55.45,33.05-7.45,3.04-12.57-3.95-7.99-10.24l47.94-28.19Z"/>
      <path class="cls-2" d="M175.86,40.04h24.5c7.48,0,6.75,18,0,18h-29.5v14h28.5c2.87,0,5.76,6.48,5.57,9.48-.18,2.85-4.01,8.52-6.57,8.52h-21.5c5.83,17.93,26.58,25.78,44.22,20.72,8.19-2.35,19.92-16.11,27.24-4.68,5.27,8.22-2.32,14.2-8.77,18.15-32.25,19.76-74.3,1.48-83.79-34.09-5.68-.87-16.29,2.33-19.15-4.35-4.58-10.72,6.06-15.51,15.25-13.75v-14c-8.59,1.9-15.98-5.87-11.41-13.91,4.12-7.25,11.04-2.26,14.45-4.54.59-.4,4.73-10.53,6.15-12.85C172.09,8.7,193.95-2.01,215.09.32c10.15,1.12,43.43,12.24,32.32,26.77-7.61,9.95-16.6-1.46-24.56-4.53-18.23-7.04-38.14.16-46.99,17.49Z"/>
    </g>
  </g>
</svg>