<?xml version="1.0" encoding="UTF-8"?>
<svg id="Layer_2" data-name="Layer 2" xmlns="http://www.w3.org/2000/svg" viewBox="0 0 722.23 431.85"><metadata><c2pa:manifest xmlns:c2pa="http://c2pa.org/manifest">AAA0RWp1bWIAAAAeanVtZGMycGEAEQAQgAAAqgA4m3EDYzJwYQAAADQfanVtYgAAAEdqdW1kYzJtYQARABCAAACqADibcQN1cm46dXVpZDoyYzE0MjZjNy05Y2VlLTQxYWUtOGI2Ny0wYmMwOGUxNjI4MzkAAAABtGp1bWIAAAApanVtZGMyYXMAEQAQgAAAqgA4m3EDYzJwYS5hc3NlcnRpb25zAAAAANdqdW1iAAAAJmp1bWRjYm9yABEAEIAAAKoAOJtxA2MycGEuYWN0aW9ucwAAAACpY2JvcqFnYWN0aW9uc4GjZmFjdGlvbmtjMnBhLmVkaXRlZG1zb2Z0d2FyZUFnZW50bUFkb2JlIEZpcmVmbHlxZGlnaXRhbFNvdXJjZVR5cGV4U2h0dHA6Ly9jdi5pcHRjLm9yZy9uZXdzY29kZXMvZGlnaXRhbHNvdXJjZXR5cGUvY29tcG9zaXRlV2l0aFRyYWluZWRBbGdvcml0aG1pY01lZGlhAAAArGp1bWIAAAAoanVtZGNib3IAEQAQgAAAqgA4m3EDYzJwYS5oYXNoLmRhdGEAAAAAfGNib3KlamV4Y2x1c2lvbnOBomVzdGFydBjLZmxlbmd0aBlFtGRuYW1lbmp1bWJmIG1hbmlmZXN0Y2FsZ2ZzaGEyNTZkaGFzaFggpsmDQHFeu+jynHzQTDgF84DFuqCQyiOj8PAsF4jgvrdjcGFkSQAAAAAAAAAAAAAAAgxqdW1iAAAAJGp1bWRjMmNsABEAEIAAAKoAOJtxA2MycGEuY2xhaW0AAAAB4GNib3KoaGRjOnRpdGxlb0dlbmVyYXRlZCBJbWFnZWlkYzpmb3JtYXRtaW1hZ2Uvc3ZnK3htbGppbnN0YW5jZUlEeCx4bXA6aWlkOjFkOWU2ZTQ2LTM3MGEtNDg4OC04ODY4LWI1MTk3NjU1MWJkOW9jbGFpbV9nZW5lcmF0b3J4N0Fkb2JlX0lsbHVzdHJhdG9yLzI5LjggYWRvYmVfYzJwYS8wLjEyLjIgYzJwYS1ycy8wLjMyLjV0Y2xhaW1fZ2VuZXJhdG9yX2luZm+Bv2RuYW1lcUFkb2JlIElsbHVzdHJhdG9yZ3ZlcnNpb25kMjkuOP9pc2lnbmF0dXJleBlzZWxmI2p1bWJmPWMycGEuc2lnbmF0dXJlamFzc2VydGlvbnOComN1cmx4J3NlbGYjanVtYmY9YzJwYS5hc3NlcnRpb25zL2MycGEuYWN0aW9uc2RoYXNoWCBKacG9/6jeQTB4viTtzPgxOsHRZJU0VnGgDWsGszfUr6JjdXJseClzZWxmI2p1bWJmPWMycGEuYXNzZXJ0aW9ucy9jMnBhLmhhc2guZGF0YWRoYXNoWCA2gtaLQ5LScYwkmH7zCpAv4vMDJKrti9+re0io0Dlny2NhbGdmc2hhMjU2AAAwEGp1bWIAAAAoanVtZGMyY3MAEQAQgAAAqgA4m3EDYzJwYS5zaWduYXR1cmUAAAAv4GNib3LShFkNFKIBOCQYIYJZBqAwggacMIIEhKADAgECAhRJcyBrPnXfyWyvf1b/LSqtsEAH3TANBgkqhkiG9w0BAQsFADB1MQswCQYDVQQGEwJVUzEjMCEGA1UEChMaQWRvYmUgU3lzdGVtcyBJbmNvcnBvcmF0ZWQxHTAbBgNVBAsTFEFkb2JlIFRydXN0IFNlcnZpY2VzMSIwIAYDVQQDExlBZG9iZSBQcm9kdWN0IFNlcnZpY2VzIEc0MB4XDTI1MTAwNzE2MzkwN1oXDTI2MTAwNzE2MzkwN1owgasxEzARBgNVBAMMCkFkb2JlIEMyUEExKDAmBgNVBAsMH0NvbnRlbnQgQXV0aGVudGljaXR5IEluaXRpYXRpdmUxEzARBgNVBAoMCkFkb2JlIEluYy4xETAPBgNVBAcMCFNhbiBKb3NlMRMwEQYDVQQIDApDYWxpZm9ybmlhMQswCQYDVQQGEwJVUzEgMB4GCSqGSIb3DQEJARYRY2FpLW9wc0BhZG9iZS5jb20wggEiMA0GCSqGSIb3DQEBAQUAA4IBDwAwggEKAoIBAQDDEMGB0H09cukxc/Dmg2BiQVYM8/VpJ+2H1Nk8g0605CWGnW/iH6EzFlYWORndElG6hIGuxJJgFoR+IMwqKyL+w7G4UcoFX/+XWu/dKuOuLEA1ciWqMZ0hjJ1oxoVr/mi8XP+bj5JTPRxxjOrD69IDO5HJIaemCbwaaP5IQlwv8YgfOpT1tTLc2yLNjahjbzKPfatuQ6p4ANIznU6ogkqWgQEUV7HMy6fOlT4rawuqF6hHwUkxpHR8Zdr+CpHOGSIEWHBSEs9L2zr5MKfPT1RkyVdt0b+IUqPdQ8VQOOqHTC0WBzPbgOtSVpZ6KW0oei7KYEe6KvO+Y4bRW1I96nE5AgMBAAGjggHrMIIB5zAMBgNVHRMBAf8EAjAAMB0GA1UdDgQWBBRY9QN+0GYM4Y4OVqGXQknSuyfC/jAfBgNVHSMEGDAWgBTQrUKK8HoUByXGl8BDqCOF6LUtIzAOBgNVHQ8BAf8EBAMCB4AwKgYDVR0lBCMwIQYJKoZIhvcvAQEMBgorBgEEAYPoXgIBBggrBgEFBQcDBDCBgAYIKwYBBQUHAQEEdDByMCgGCCsGAQUFBzABhhxodHRwOi8vb2NzcC5vbmUuZGlnaWNlcnQuY29tMEYGCCsGAQUFBzAChjpodHRwOi8vY2FjZXJ0cy5vbmUuZGlnaWNlcnQuY29tL0Fkb2JlUHJvZHVjdFNlcnZpY2VzRzQuY3J0MEcGA1UdHwRAMD4wPKA6oDiGNmh0dHA6Ly9jcmwub25lLmRpZ2ljZXJ0LmNvbS9BZG9iZVByb2R1Y3RTZXJ2aWNlc0c0LmNybDCBjgYDVR0gBIGGMIGDMIGABgkqhkiG9y8BAgMwczBxBggrBgEFBQcCAjBlDGNZb3UgYXJlIG5vdCBwZXJtaXR0ZWQgdG8gdXNlIHRoaXMgTGljZW5zZSBDZXJ0aWZpY2F0ZSBleGNlcHQgYXMgcGVybWl0dGVkIGJ5IHRoZSBsaWNlbnNlIGFncmVlbWVudC4wDQYJKoZIhvcNAQELBQADggIBAJs7c8VwrVF+V6FDXrEeoTUZzzqRJGAXoQ7AiV6daRHHZVJPY2NO9OU6dahtUvF/2AUgw216awWggF82Zz5Hu34Y0Mz6FJ+y0smSoWoCVA61OJo5qSDpzS5tJVaqCx7+mI9rXmT+qsuki7hUF7cGbK05JJX4cU48qx3tw7T2wl4Mxq2TcriMcx79qdcRJReVo362iW9eDqoBDxcTVxJvrlAUGJrBQx6PqNBuQ1mneOeis4GpIl87EhDDv39acUxh/FEf+UjauxjjdimGpdwFeJ+MlDSPEUyokY2ubb/I4MvoEZW2uOf3uSh9lbZwoXPmsNJPOVwURwpQAHWJbt555NIqXNGRX46TaJvziVMWA1uL1QGdPcotLoSRksQil0DaHhK56fWnAeNaZmzFYDeH/f06hyw56Ass2+l1VEuW1/bqPvahpAd9PRDKHOvMNbjwUk3eiUmqUIEKTQbnCnc7kqkZ3I+r2EAaNMmu+nGycJdKqjplnO8mV+QmqQBrpd/3YsrrLCudTPLxoERASfIEXvqOg8zeBNYyclU8I+XUH0XLD63KpiC00yAnK+W0hyWvHirsMuW4ytv3YGeg3qdrD5t3Pkg3+ipHUoTNiuEPbiil2S1j0CyvdHcoUOB0++/+v9GTi921ieTIB1zzPGfKGdQdykAf0UOysArVG+Brix6yWQZnMIIGYzCCBEugAwIBAgIQDuG63614rm8mvVElmAeILzANBgkqhkiG9w0BAQsFADBsMQswCQYDVQQGEwJVUzEjMCEGA1UEChMaQWRvYmUgU3lzdGVtcyBJbmNvcnBvcmF0ZWQxHTAbBgNVBAsTFEFkb2JlIFRydXN0IFNlcnZpY2VzMRkwFwYDVQQDExBBZG9iZSBSb290IENBIEcyMB4XDTI0MTEyMDAwMDAwMFoXDTQ0MTExOTIzNTk1OVowdTELMAkGA1UEBhMCVVMxIzAhBgNVBAoTGkFkb2JlIFN5c3RlbXMgSW5jb3Jwb3JhdGVkMR0wGwYDVQQLExRBZG9iZSBUcnVzdCBTZXJ2aWNlczEiMCAGA1UEAxMZQWRvYmUgUHJvZHVjdCBTZXJ2aWNlcyBHNDCCAiIwDQYJKoZIhvcNAQEBBQADggIPADCCAgoCggIBAKxF+ICxWEi8zumCmeLCiU7as6RDEkgB/y6nFXeceMAQC5afyCzXeWyQJolO7Cmi4Nw5vtexdD3zVCwG7cUAn3kHrNaLNtkGS+qp7jCG3QpvASkdR+ujOpyWiOB/iBlyWR+8djFpjv3N323tR4Don9zeZ23+Gctlmd+D5KvI1zKQdWYHKtMxFJaRKXwrebOE4it4lVoPfY843ve9N7cuJlFyj2Vu3NLrr1RgEF+jdUAAEynThGKVVoUKG1abmuvmLq34LluAcRIME0TE8EuGMNvomTLAYI2c4MSXxhrJqThlWRo+MsXi+J5S/VYsm+hvd4Flwus+qF4cA+1QEDNMiidxPTMji3OXNAhsnFWNFFBt0RzTNSFsOQObDKTo90YBvEfT6JGqjwkr7hEfj87gcNVXkzoJSHEADJ4kNnJu5rgef2LvYp4dG1EpQskGMrZaq55gDcbKVm4rnY5M93lHsG4DEusf/3YihdPOdc0sDgmDDJiuQR6Glb1fK4Se0J9vomXSSW1p3ICv3TUpeKd/GRb3ChDFpMfHDv0UjfCRh9eeRBXFGCWkB6DUvSMz6uAHFpDuXiRyemRjjszJTWwx0p6HByMdtvRQhhA/JfgEcLEtUcb5MToCr+DwIO4ZaoNaktJvJOQHtG0TQbArhIg+/35UrTbVPbZg7pxmQnjTgbPvAgMBAAGjgfcwgfQwEgYDVR0TAQH/BAgwBgEB/wIBADA1BgNVHR8ELjAsMCqgKKAmhiRodHRwOi8vY3JsLmFkb2JlLmNvbS9hZG9iZXJvb3RnMi5jcmwwDgYDVR0PAQH/BAQDAgGGMFcGA1UdIARQME4wTAYJKoZIhvcvAQIDMD8wPQYIKwYBBQUHAgEWMWh0dHBzOi8vd3d3LmFkb2JlLmNvbS9taXNjL3BraS9wcm9kX3N2Y2VfY3BzLmh0bWwwHQYDVR0OBBYEFNCtQorwehQHJcaXwEOoI4XotS0jMB8GA1UdIwQYMBaAFKYc4W1UJEyoj0hyv26pjNXk7DHUMA0GCSqGSIb3DQEBCwUAA4ICAQCRlqhDU07OWLmha2+YptYEMFr3tEE9vhBLlnlN7oeKRW9S8UVEGJUNwGnw4HMy2IIeGGc6pn2h+s6ZV6xJ8CdjgMT8Zp5OtaNNe5O/qH37EETsDxN79lUDolWAnO9GT1Ln1fT25z7n+ilSPQ5EMUzKsTRslqJMVQeTOYWNYX80+eFeoT8/0s6NZLsxodw4l+pBRdyvI5g2g/vgxTYPQjdjBeqIIPBZfW5PI6WJwesJW65tXaqd1GNmkkDPlO3ZcS8qj0TONxpCfrDsjTm+OpX9k2Yvyljuz/GLssmw9hpwwOa9gSIOhVrR1hSCoWkrHQ1KWeaedPREi0AdlQ0NXClPmf7AxCZN8e4fkNovduPXyTnI43nN8PFMsUmySUxb9RtyWOH87KuJjBVkgX2PbIRvCxnQ6RrzElMbzKfw/oDRs8Psq/mm3OqVxGE8JqEH7yl3mLa7OQEk6bAMjqEoORkxudGTf0beyV72Iu5MlklIZ9L3J7XLIObmURgVhJfzmBfubLwfRGm1aaScfeyCL/38T0jKtKqYklDi1A3VbWPBSMn8sCcS7cOrbRLQtm1Y6qES+zE5Lvt/HnsVAeB1caQuxP+Fblc7a4xQb6sRmy6FmVWFbqwC1yzeXbSo9ki2+zd3OezgyfNmWgoEj3MwlbQXMNi9Vq8kA9Hf4rayLs28fqNmc2lnVHN0oWl0c3RUb2tlbnOBoWN2YWxZDlowgg5WMAMCAQAwgg5NBgkqhkiG9w0BBwKggg4+MIIOOgIBAzEPMA0GCWCGSAFlAwQCAQUAMIGDBgsqhkiG9w0BCRABBKB0BHIwcAIBAQYJYIZIAYb9bAcBMDEwDQYJYIZIAWUDBAIBBQAEIP4JfiGqmzNaEZiWXh75xCQddp/OP98ENSy54CkF5KxYAhEA9l9qvNXUPH4yM+r9kzYmqhgPMjAyNTEyMTExNDU0MDBaAgkA3mUMRjbR7SqgggvaMIIFHjCCAwagAwIBAgIQCRkNwSych9sy/Qq1UL3tSzANBgkqhkiG9w0BAQsFADBpMQswCQYDVQQGEwJVUzEXMBUGA1UEChMORGlnaUNlcnQsIEluYy4xQTA/BgNVBAMTOERpZ2lDZXJ0IFRydXN0ZWQgRzQgVGltZVN0YW1waW5nIFJTQTQwOTYgU0hBMjU2IDIwMjUgQ0ExMB4XDTI1MDYxMTAwMDAwMFoXDTM2MDkxMDIzNTk1OVowXzELMAkGA1UEBhMCVVMxFzAVBgNVBAoTDkRpZ2lDZXJ0LCBJbmMuMTcwNQYDVQQDEy5BZG9iZSBTSEEyNTYgRUNDMjU2IFRpbWVzdGFtcCBSZXNwb25kZXIgMjAyNSAxMFkwEwYHKoZIzj0CAQYIKoZIzj0DAQcDQgAEOpnJ1dlI70vziNfGsnAg894iynDv+TyM/WLDFvlk7Q9uI3eKNW5ux1vNXfywrXuGdLS7mGcY4R0fYSexTBGp8qOCAZUwggGRMAwGA1UdEwEB/wQCMAAwHQYDVR0OBBYEFCB2oaNucRWPdJUNrqQspDY/WBkVMB8GA1UdIwQYMBaAFO9vU0rp5AZ8esrikFb2L9RJ7MtOMA4GA1UdDwEB/wQEAwIHgDAWBgNVHSUBAf8EDDAKBggrBgEFBQcDCDCBlQYIKwYBBQUHAQEEgYgwgYUwJAYIKwYBBQUHMAGGGGh0dHA6Ly9vY3NwLmRpZ2ljZXJ0LmNvbTBdBggrBgEFBQcwAoZRaHR0cDovL2NhY2VydHMuZGlnaWNlcnQuY29tL0RpZ2lDZXJ0VHJ1c3RlZEc0VGltZVN0YW1waW5nUlNBNDA5NlNIQTI1NjIwMjVDQTEuY3J0MF8GA1UdHwRYMFYwVKBSoFCGTmh0dHA6Ly9jcmwzLmRpZ2ljZXJ0LmNvbS9EaWdpQ2VydFRydXN0ZWRHNFRpbWVTdGFtcGluZ1JTQTQwOTZTSEEyNTYyMDI1Q0ExLmNybDAgBgNVHSAEGTAXMAgGBmeBDAEEAjALBglghkgBhv1sBwEwDQYJKoZIhvcNAQELBQADggIBAEqc/irOueTptp7riY2S4C96BV8XhZnvnY8IgXVT5ByEr+H0Q17Tv1IBTuzrp/rOjqDa2CkOhsWkS1Lttw5qwnhMrwXROUV/wgBLSuO9z7A7KPHNbZpI6g0h84MQ0bMKF/xB1iLEka4yTPEVgeyndyj42tI7mbZBVaSc6o5P3aifVGqsoinyqwkYsCKS1NQnQURZ4+rsSU34dMu8c6/q1jjx1TCTXsxed4iaPcIvkEjl9nnuma23SgGB1jvLDPhGRtL8zWlnqlDdS5U4Oe0NTyqSgsYgpioKrMRl5knForGT84xLlDsqyw/TiY8r1zvEnh73+sTxcIZwhN4HNnnbB+0AlXbCdzqSmeyTLm8CNhsKiPTIMBpyiRt+ZPvL0BPTC84lQ99IuMvI8jknTGn3lx2LxsdGhgMAjmzNnsxkpp3VVq/Qz4dXBmpjQK401JHFkRdMqNFMycHRteFUKj5eZ5Y/9rS6pNtOg09hbCDECgmuNlCWyIUtoXS8ZxzfEqZKcnlOtoFOFU+WUVmqpm78PuEBSIB0KFj3jDsDaVR6n1gKHG9r+27KJoLyqDHeeZIxo253LeucYpBGkjHuU5RozZn6M26tQQvDixfXqgOi+GVtWYnkSSD9GAYvRIkF+Zh9CzcjVgPwroGIHfW8c0RxfvUaFV/Gq/N9xHwaRj7EUh5MMIIGtDCCBJygAwIBAgIQDcesVwX/IZkuQEMiDDpJhjANBgkqhkiG9w0BAQsFADBiMQswCQYDVQQGEwJVUzEVMBMGA1UEChMMRGlnaUNlcnQgSW5jMRkwFwYDVQQLExB3d3cuZGlnaWNlcnQuY29tMSEwHwYDVQQDExhEaWdpQ2VydCBUcnVzdGVkIFJvb3QgRzQwHhcNMjUwNTA3MDAwMDAwWhcNMzgwMTE0MjM1OTU5WjBpMQswCQYDVQQGEwJVUzEXMBUGA1UEChMORGlnaUNlcnQsIEluYy4xQTA/BgNVBAMTOERpZ2lDZXJ0IFRydXN0ZWQgRzQgVGltZVN0YW1waW5nIFJTQTQwOTYgU0hBMjU2IDIwMjUgQ0ExMIICIjANBgkqhkiG9w0BAQEFAAOCAg8AMIICCgKCAgEAtHgx0wqYQXK+PEbAHKx126NGaHS0URedTa2NDZS1mZaDLFTtQ2oRjzUXMmxCqvkbsDpz4aH+qbxeLho8I6jY3xL1IusLopuW2qftJYJaDNs1+JH7Z+QdSKWM06qchUP+AbdJgMQB3h2DZ0Mal5kYp77jYMVQXSZH++0trj6Ao+xh/AS7sQRuQL37QXbDhAktVJMQbzIBHYJBYgzWIjk8eDrYhXDEpKk7RdoX0M980EpLtlrNyHw0Xm+nt5pnYJU3Gmq6bNMI1I7Gb5IBZK4ivbVCiZv7PNBYqHEpNVWC2ZQ8BbfnFRQVESYOszFI2Wv82wnJRfN20VRS3hpLgIR4hjzL0hpoYGk81coWJ+KdPvMvaB0WkE/2qHxJ0ucS638ZxqU14lDnki7CcoKCz6eum5A19WZQHkqUJfdkDjHkccpL6uoG8pbF0LJAQQZxst7VvwDDjAmSFTUms+wV/FbWBqi7fTJnjq3hj0XbQcd8hjj/q8d6ylgxCZSKi17yVp2NL+cnT6Toy+rN+nM8M7LnLqCrO2JP3oW//1sfuZDKiDEb1AQ8es9Xr/u6bDTnYCTKIsDq1BtmXUqEG1NqzJKS4kOmxkYp2WyODi7vQTCBZtVFJfVZ3j7OgWmnhFr4yUozZtqgPrHRVHhGNKlYzyjlroPxul+bgIspzOwbtmsgY1MCAwEAAaOCAV0wggFZMBIGA1UdEwEB/wQIMAYBAf8CAQAwHQYDVR0OBBYEFO9vU0rp5AZ8esrikFb2L9RJ7MtOMB8GA1UdIwQYMBaAFOzX44LScV1kTN8uZz/nupiuHA9PMA4GA1UdDwEB/wQEAwIBhjATBgNVHSUEDDAKBggrBgEFBQcDCDB3BggrBgEFBQcBAQRrMGkwJAYIKwYBBQUHMAGGGGh0dHA6Ly9vY3NwLmRpZ2ljZXJ0LmNvbTBBBggrBgEFBQcwAoY1aHR0cDovL2NhY2VydHMuZGlnaWNlcnQuY29tL0RpZ2lDZXJ0VHJ1c3RlZFJvb3RHNC5jcnQwQwYDVR0fBDwwOjA4oDagNIYyaHR0cDovL2NybDMuZGlnaWNlcnQuY29tL0RpZ2lDZXJ0VHJ1c3RlZFJvb3RHNC5jcmwwIAYDVR0gBBkwFzAIBgZngQwBBAIwCwYJYIZIAYb9bAcBMA0GCSqGSIb3DQEBCwUAA4ICAQAXzvsWgBz+Bz0RdnEwvb4LyLU0pn/N0IfFiBowf0/Dm1wGc/Do7oVMY2mhXZXjDNJQa8j00DNqhCT3t+s8G0iP5kvN2n7Jd2E4/iEIUBO41P5F448rSYJ59Ib61eoalhnd6ywFLerycvZTAz40y8S4F3/a+Z1jEMK/DMm/axFSgoR8n6c3nuZB9BfBwAQYK9FHaoq2e26MHvVY9gCDA/JYsq7pGdogP8HRtrYfctSLANEBfHU16r3J05qX3kId+ZOczgj5kjatVB+NdADVZKON/gnZruMvNYY2o1f4MXRJDMdTSlOLh0HCn2cQLwQCqjFbqrXuvTPSegOOzr4EWj7PtspIHBldNE2K9i697cvaiIo2p61Ed2p8xMJb82Yosn0z4y25xUbI7GIN/TpVfHIqQ6Ku/qjTY6hc3hsXMrS+U0yy+GWqAXam4ToWd2UQ1KYT70kZjE4YtL8Pbzg0c1ugMZyZZd/BdHLiRu7hAWE6bTEm4XYRkA6Tl4KSFLFk43esaUeqGkH/wyW4N7OigizwJWeukcyIPbAvjSabnf7+Pu0VrFgoiovRDiyx3zEdmcif/sYQsfch28bZeUz2rtY/9TCA6TD8dC3JE3rYkrhLULy7Dc90G6e8BlqmyIjlgp2+VqsS9/wQD7yFylIz0scmbKvFoW2jNrbM1pD2T7m3XDGCAb4wggG6AgEBMH0waTELMAkGA1UEBhMCVVMxFzAVBgNVBAoTDkRpZ2lDZXJ0LCBJbmMuMUEwPwYDVQQDEzhEaWdpQ2VydCBUcnVzdGVkIEc0IFRpbWVTdGFtcGluZyBSU0E0MDk2IFNIQTI1NiAyMDI1IENBMQIQCRkNwSych9sy/Qq1UL3tSzANBglghkgBZQMEAgEFAKCB0TAaBgkqhkiG9w0BCQMxDQYLKoZIhvcNAQkQAQQwHAYJKoZIhvcNAQkFMQ8XDTI1MTIxMTE0NTQwMFowKwYLKoZIhvcNAQkQAgwxHDAaMBgwFgQU14e6eSljn7jBL0qmFlF0y+ClgPMwLwYJKoZIhvcNAQkEMSIEIEYz7zCQQWJ/GSWwRhs6kPhbmztfqXv6U93djETs6lE6MDcGCyqGSIb3DQEJEAIvMSgwJjAkMCIEINMjr+Jf3T0W8m8vJZ585InbhtLZqrB7JvWYNwhgiVZ4MAoGCCqGSM49BAMCBEcwRQIhAN97o+tWwBwjMnqYL8kUIWPYEByVQDlnaa8vXLt5hw0HAiAQ+KElot6hFDCdUuha294B6EMFO3qjK1y/FRgMh+7GxmVyVmFsc6Fob2NzcFZhbHOBWQLbMIIC1woBAKCCAtAwggLMBgkrBgEFBQcwAQEEggK9MIICuTCBoqIWBBTQrUKK8HoUByXGl8BDqCOF6LUtIxgPMjAyNTEyMTAxNzAyMDFaMHcwdTBNMAkGBSsOAwIaBQAEFIrvsgEQb2tlFU3Bo7dRqYtzkssWBBTQrUKK8HoUByXGl8BDqCOF6LUtIwIUSXMgaz5138lsr39W/y0qrbBAB92AABgPMjAyNTEyMTAxNzAyMDFaoBEYDzIwMjUxMjE3MTcwMjAxWjANBgkqhkiG9w0BAQsFAAOCAgEAnAXAzp0Gq4n5CJdasgzw008QVWBkVCrAyvY2bAj5ksy1M3yS00Q/8NnYVudlq1ivTwXYrEfp3mpZoyg86YyMAMEZmjhUrjtvvhcaiinwNzV/jaX9huTb13lQ+CaGSF1OBgWeORbM4PZpZCXImlYlIkbsmTvgli2lStt7qteIFB8eomhwkyAeBv5mNAuExepiiNTL8QMADSCNC6BBJgdv1IKp/NCqquCJI39+06MNsdzAWIbPV9oPhhqziIk+7Q0ZThIhLwgy2OgH2HfGJq1VbtmTb+FA6U4HxoaiIEOVyk1wVBspFzpAbYtxqAEOeqzUV8Vw1CPs+rmzE6c7wnOmDERi7FGdFCrcCAn86uJZr1fwrYi35yKdhacW5Sbs7HQS98CRj/KM+IOSIlsTLxWkQCCvgZdFsUPaTYcwFIRPXu/K2wAD2b33g3mzp74Z4EjOHGgdvzxoAlqApGGgsiazOLnbLH5jL1ukMnq1eNuxH9lC7TIagLY/Z2i7xK0Ir84urkJCIjJdzsbQ4uqkCNpUHR+tr0QQ6jWBzMOziqHaIxONE+g+wpkBrd3crbJLp0VsOLSz6o8MuOe7sScoBoVa44gm5uO24Rm5wLTai3AmUHpQCCyRmZdvxGcMwIvNKUY74g2E4NuNzVMH2iLzhbwN6JjZmEEX8gfFp17A475ME/ljcGFkWRBPAAAAAAAAAAAAAAAAAAAAAAAAAAAAAAAAAAAAAAAAAAAAAAAAAAAAAAAAAAAAAAAAAAAAAAAAAAAAAAAAAAAAAAAAAAAAAAAAAAAAAAAAAAAAAAAAAAAAAAAAAAAAAAAAAAAAAAAAAAAAAAAAAAAAAAAAAAAAAAAAAAAAAAAAAAAAAAAAAAAAAAAAAAAAAAAAAAAAAAAAAAAAAAAAAAAAAAAAAAAAAAAAAAAAAAAAAAAAAAAAAAAAAAAAAAAAAAAAAAAAAAAAAAAAAAAAAAAAAAAAAAAAAAAAAAAAAAAAAAAAAAAAAAAAAAAAAAAAAAAAAAAAAAAAAAAAAAAAAAAAAAAAAAAAAAAAAAAAAAAAAAAAAAAAAAAAAAAAAAAAAAAAAAAAAAAAAAAAAAAAAAAAAAAAAAAAAAAAAAAAAAAAAAAAAAAAAAAAAAAAAAAAAAAAAAAAAAAAAAAAAAAAAAAAAAAAAAAAAAAAAAAAAAAAAAAAAAAAAAAAAAAAAAAAAAAAAAAAAAAAAAAAAAAAAAAAAAAAAAAAAAAAAAAAAAAAAAAAAAAAAAAAAAAAAAAAAAAAAAAAAAAAAAAAAAAAAAAAAAAAAAAAAAAAAAAAAAAAAAAAAAAAAAAAAAAAAAAAAAAAAAAAAAAAAAAAAAAAAAAAAAAAAAAAAAAAAAAAAAAAAAAAAAAAAAAAAAAAAAAAAAAAAAAAAAAAAAAAAAAAAAAAAAAAAAAAAAAAAAAAAAAAAAAAAAAAAAAAAAAAAAAAAAAAAAAAAAAAAAAAAAAAAAAAAAAAAAAAAAAAAAAAAAAAAAAAAAAAAAAAAAAAAAAAAAAAAAAAAAAAAAAAAAAAAAAAAAAAAAAAAAAAAAAAAAAAAAAAAAAAAAAAAAAAAAAAAAAAAAAAAAAAAAAAAAAAAAAAAAAAAAAAAAAAAAAAAAAAAAAAAAAAAAAAAAAAAAAAAAAAAAAAAAAAAAAAAAAAAAAAAAAAAAAAAAAAAAAAAAAAAAAAAAAAAAAAAAAAAAAAAAAAAAAAAAAAAAAAAAAAAAAAAAAAAAAAAAAAAAAAAAAAAAAAAAAAAAAAAAAAAAAAAAAAAAAAAAAAAAAAAAAAAAAAAAAAAAAAAAAAAAAAAAAAAAAAAAAAAAAAAAAAAAAAAAAAAAAAAAAAAAAAAAAAAAAAAAAAAAAAAAAAAAAAAAAAAAAAAAAAAAAAAAAAAAAAAAAAAAAAAAAAAAAAAAAAAAAAAAAAAAAAAAAAAAAAAAAAAAAAAAAAAAAAAAAAAAAAAAAAAAAAAAAAAAAAAAAAAAAAAAAAAAAAAAAAAAAAAAAAAAAAAAAAAAAAAAAAAAAAAAAAAAAAAAAAAAAAAAAAAAAAAAAAAAAAAAAAAAAAAAAAAAAAAAAAAAAAAAAAAAAAAAAAAAAAAAAAAAAAAAAAAAAAAAAAAAAAAAAAAAAAAAAAAAAAAAAAAAAAAAAAAAAAAAAAAAAAAAAAAAAAAAAAAAAAAAAAAAAAAAAAAAAAAAAAAAAAAAAAAAAAAAAAAAAAAAAAAAAAAAAAAAAAAAAAAAAAAAAAAAAAAAAAAAAAAAAAAAAAAAAAAAAAAAAAAAAAAAAAAAAAAAAAAAAAAAAAAAAAAAAAAAAAAAAAAAAAAAAAAAAAAAAAAAAAAAAAAAAAAAAAAAAAAAAAAAAAAAAAAAAAAAAAAAAAAAAAAAAAAAAAAAAAAAAAAAAAAAAAAAAAAAAAAAAAAAAAAAAAAAAAAAAAAAAAAAAAAAAAAAAAAAAAAAAAAAAAAAAAAAAAAAAAAAAAAAAAAAAAAAAAAAAAAAAAAAAAAAAAAAAAAAAAAAAAAAAAAAAAAAAAAAAAAAAAAAAAAAAAAAAAAAAAAAAAAAAAAAAAAAAAAAAAAAAAAAAAAAAAAAAAAAAAAAAAAAAAAAAAAAAAAAAAAAAAAAAAAAAAAAAAAAAAAAAAAAAAAAAAAAAAAAAAAAAAAAAAAAAAAAAAAAAAAAAAAAAAAAAAAAAAAAAAAAAAAAAAAAAAAAAAAAAAAAAAAAAAAAAAAAAAAAAAAAAAAAAAAAAAAAAAAAAAAAAAAAAAAAAAAAAAAAAAAAAAAAAAAAAAAAAAAAAAAAAAAAAAAAAAAAAAAAAAAAAAAAAAAAAAAAAAAAAAAAAAAAAAAAAAAAAAAAAAAAAAAAAAAAAAAAAAAAAAAAAAAAAAAAAAAAAAAAAAAAAAAAAAAAAAAAAAAAAAAAAAAAAAAAAAAAAAAAAAAAAAAAAAAAAAAAAAAAAAAAAAAAAAAAAAAAAAAAAAAAAAAAAAAAAAAAAAAAAAAAAAAAAAAAAAAAAAAAAAAAAAAAAAAAAAAAAAAAAAAAAAAAAAAAAAAAAAAAAAAAAAAAAAAAAAAAAAAAAAAAAAAAAAAAAAAAAAAAAAAAAAAAAAAAAAAAAAAAAAAAAAAAAAAAAAAAAAAAAAAAAAAAAAAAAAAAAAAAAAAAAAAAAAAAAAAAAAAAAAAAAAAAAAAAAAAAAAAAAAAAAAAAAAAAAAAAAAAAAAAAAAAAAAAAAAAAAAAAAAAAAAAAAAAAAAAAAAAAAAAAAAAAAAAAAAAAAAAAAAAAAAAAAAAAAAAAAAAAAAAAAAAAAAAAAAAAAAAAAAAAAAAAAAAAAAAAAAAAAAAAAAAAAAAAAAAAAAAAAAAAAAAAAAAAAAAAAAAAAAAAAAAAAAAAAAAAAAAAAAAAAAAAAAAAAAAAAAAAAAAAAAAAAAAAAAAAAAAAAAAAAAAAAAAAAAAAAAAAAAAAAAAAAAAAAAAAAAAAAAAAAAAAAAAAAAAAAAAAAAAAAAAAAAAAAAAAAAAAAAAAAAAAAAAAAAAAAAAAAAAAAAAAAAAAAAAAAAAAAAAAAAAAAAAAAAAAAAAAAAAAAAAAAAAAAAAAAAAAAAAAAAAAAAAAAAAAAAAAAAAAAAAAAAAAAAAAAAAAAAAAAAAAAAAAAAAAAAAAAAAAAAAAAAAAAAAAAAAAAAAAAAAAAAAAAAAAAAAAAAAAAAAAAAAAAAAAAAAAAAAAAAAAAAAAAAAAAAAAAAAAAAAAAAAAAAAAAAAAAAAAAAAAAAAAAAAAAAAAAAAAAAAAAAAAAAAAAAAAAAAAAAAAAAAAAAAAAAAAAAAAAAAAAAAAAAAAAAAAAAAAAAAAAAAAAAAAAAAAAAAAAAAAAAAAAAAAAAAAAAAAAAAAAAAAAAAAAAAAAAAAAAAAAAAAAAAAAAAAAAAAAAAAAAAAAAAAAAAAAAAAAAAAAAAAAAAAAAAAAAAAAAAAAAAAAAAAAAAAAAAAAAAAAAAAAAAAAAAAAAAAAAAAAAAAAAAAAAAAAAAAAAAAAAAAAAAAAAAAAAAAAAAAAAAAAAAAAAAAAAAAAAAAAAAAAAAAAAAAAAAAAAAAAAAAAAAAAAAAAAAAAAAAAAAAAAAAAAAAAAAAAAAAAAAAAAAAAAAAAAAAAAAAAAAAAAAAAAAAAAAAAAAAAAAAAAAAAAAAAAAAAAAAAAAAAAAAAAAAAAAAAAAAAAAAAAAAAAAAAAAAAAAAAAAAAAAAAAAAAAAAAAAAAAAAAAAAAAAAAAAAAAAAAAAAAAAAAAAAAAAAAAAAAAAAAAAAAAAAAAAAAAAAAAAAAAAAAAAAAAAAAAAAAAAAAAAAAAAAAAAAAAAAAAAAAAAAAAAAAAAAAAAAAAAAAAAAAAAAAAAAAAAAAAAAAAAAAAAAAAAAAAAAAAAAAAAAAAAAAAAAAAAAAAAAAAAAAAAAAAAAAAAAAAAAAAAAAAAAAAAAAAAAAAAAAAAAAAAAAAAAAAAAAAAAAAAAAAAAAAAAAAAAAAAAAAAAAAAAAAAAAAAAAAAAAAAAAAAAAAAAAAAAAAAAAAAAAAAAAAAAAAAAAAAAAAAAAAAAAAAAAAAAAAAAAAAAAAAAAAAAAAAAAAAAAAAAAAAAAAAAAAAAAAAAAAAAAAAAAAAAAAAAAAAAAAAAAAAAAAAAAAAAAAAAAAAAAAAAAAAAAAAAAAAAAAAAAAAAAAAAAAAAAAAAAAAAAAAAAAAAAAAAAAAAAAAAAAAAAAAAAAAAAAAAAAAAAAAAAAAAAAAAAAAAAAAAAAAAAAAAAAAAAAAAAAAAAAAAAAAAAAAAAAAAAAAAAAAAAAAAAAAAAAAAAAAAAAAAAAAAAAAAAAAAAAAAAAAAAAAAAAAAAAAAAAAAAAAAAAAAAAAAAAAAAAAAAAAAAAAAAAAAAAAAAAAAAAAAAAAAAAAAAAAAAAAAAAAAAAAAAAAAAAAAAAAAAAAAAAAAAAAAAAAAAAAAAAAAAAAAAAAAAAAAAAAAAAAAAAAAAAAAAAAAAAAAAAAAAAAAAAAAAAAAAAAAAAAAAAAAAAAAAAAAAAAAAAAAAAAAAAAAAAAAAAAAAAAAAAAAAAAAAAAAAAAAAAAAAAAAAAAAAAAAAAAAAAAAAAAAAAAAAAAAAAAAAAAAAAAAAAAAAAAAAAAAAAAAAAAAAAAAAAAAAAAAAAAAAAAAAAAAAAAAAAAAAAAAAAAAAAAAAAAAAAAAAAAAAAAAAAAAAAAAAAAAAAAAAAAAAAAAAAAAAAAAAAAAAAAAAAAAAAAAAAAAAAAAAAAAAAAAAAAAAAAAAAAAAAAAAAAAAAAAAAAAAAAAAAAAAAAAAAAAAAAAAAAAAAAAAAAAAAAAAAAAAAAAAAAAAAAAAAAAAAAAAAAAAAAAAAAAAAAAAAAAAAAAAAAAAAAAAAAAAAAAAAAAAAAAAAAAAAAAAAAAAAAAAAAAAAAAAAAAAAAAAAAAAAAAAAAAAAAAAAAAAAAAAAAAAAAAAAAAAAAAAAAAAAAAAAAAAAAAAAAAAAAAAAAAAAAAAAAAAAAAAAAAAAAAAAAAAAAAAAAAAAAAAAAAAAAAAAAAAAAAAAAAAAAAAAAAAAAAAAAAAAAAAAAAAAAAAAAAAAAAAAAAAAAAAAAAAAAAAAAAAAAAAAAAAAAAAAAAAAAAAAAAAAAAAAAAAAAAAAAAAAAAAAAAAAAAAAAAAAAAAAAAAAAAAAAAAAAAAAAAAAAAAAAAAAAAAAAAAAAAAAAAAAAAAAAAAAAAAAAAAAAAAAAAAAAAAAAAAAAAAAAAAAAAAAAAAAAAAAAAAAAAAAAAAAAAAAAAAAAAAAAAAAAAAAAAAAAAAAAAAAAAAAAAAAAAAAAAAAAAAAAAAAAAAAAAAAAAAAAAAAAAAAAAAAAAAAAAAAAAAAAAAAAAAAAAAAAAAAAAAAAAAAAAAAAAAAAAAAAAAAAAAAAAAAAAAAAAAAAAAAAAAAAAAAAAAAAAAAAAAAAAAAAAAAAAAAAAAAAAAAAAAAAAAAAAAAAAAAAAAAAAAAAAAAAAAAAAAAAAAAAAAAAAAAAAAAAAAAAAAAAAAAAAAAAAAAAAAAAAAAAAAAAAAAAAAAAAAAAAAAAAAAAAAAAAAAAAAAAAAAAAAAAAAAAAAAAAAAAAAAAAAAAAAAAAAAAAAAAAAAAAAAAAAAAAAAAAAAAAAAAAAAAAAAAAAAAAAAAAAAAAAAAAAAAAAAAAAAAAAAAAAAAAAAAAAAAAAAAAAAAAAAAAAAAAAAAAAAAAAAAAD2WQEASV8EHahX8Luai8hZfwRzSR/1mjMGdBV6GoQ+rb0H/JRopr+26q55pVGYhNvfcyB6wFM5CxqMlAMuLmULuQE0BfweI7hpz4MNNpN1XUFAgBxx5yFAkvuPI+xP/+e70rPdyTqpwJ6LQW6KEldwVLR0okJ9ywjmj7xt5U494HrirGD+fobo5MZuwh85tC1emiQL9Cmg7qTdc8tlojcM7T/+1UoO75fgO45kJCrPj9yXrFyfDGj+53rILZk3InYw2eLNGooTLr1+DSk19vv+pE2DgYPueUFslBI9MV2aE7cppUCtmC6XN5NjQ9eM9L7128TgD9zdkn1uP3buE/HMyCckQw==</c2pa:manifest></metadata>
  <defs>
    <style>
      .cls-1 {
        fill: #131f76;
      }

      .cls-2 {
        fill: #ffa800;
      }
    </style>
  </defs>
  <g id="Layer_1-2" data-name="Layer 1">
    <g>
      <path class="cls-1" d="M145.06,25.01l115.74.76c7.53,4.17,7.37,15.28-.74,18.74-7.06,3.01-15.09.44-22.39.59-15.54.32-31.63.93-47.07.96-15.13.02-30.62.69-45.54-1.05v34c22.26,5.38,32.15,26.01,29.01,47.99l68.49,8.09c34.25-.79,52.04-32.79,81.52-44.57,21.32-8.52,54.46-8.59,75.66.31,24.17,10.15,46.98,39.85,71.08,42.92,24.42,3.11,52.77-4.94,77.23-6.75-.65-15.78,1.98-32.12,15.68-41.82,4.79-3.39,10.45-4.53,15.33-7.67v-31.5l-87.54.04-6-1.09c-8.65.6-23.81,3.87-28.87-5.04-3.32-5.84.52-13.31,6.97-14.86,35.72-2.24,74.65,2.77,109.99,0,1.93-.15,3.62-.59,5.45-1.05V7.51c0-1.06,4.35-5.71,5.63-6.37,7-3.59,16.37,1.76,16.37,9.37v14.5h114.5c1.13,0,5.17,3.86,5.74,5.26,2.92,7.17-1.27,14.51-8.8,15.68-13.61,2.1-31.84-1.47-45.97.11l-65.46-1.05v34c15.26,2.64,28.18,16.09,29.89,31.61s1.68,51.64,0,66.79c-3.44,31.06-41.88,46.49-66.39,27.61-2.33-1.8-7.6-8.84-9.8-8.81-24.09,8.34-49.74,13.42-71.69,26.83-.4,1.46.39,1.66.97,2.5,3.89,5.66,12.21,12.8,16.98,19.02,11.53,15.03,20.75,30.47,22.08,49.92,2.46,36.03-1.98,74.78.02,111.11-.45,10.89-16.08,12.34-19.85,2.72-2.29-34.86,2.33-72.21-.23-106.77-1.89-25.6-16.58-42.05-32.49-60.49-7,17.81-16.83,34.01-35.14,41.84-2.5,1.07-10.71,4.14-12.86,4.14h-51.5v17c6.22.86,12.3-.19,18.54-.04,22.39.53,44.38,2.23,46.5,30.5,1.36,18.06,1.54,50.16,0,68.08-1.31,15.13-13.03,26.04-27.64,28.36-29.68-1.72-62.64,2.67-91.93.14-16.98-1.46-28.08-13.78-29.5-30.5-1.16-13.7-1.75-63.09,1.52-74.55,7.7-27.02,37.77-21.73,59.54-21.29l1.98-1.19v-15c-.88-1.43-1.99-1.38-3.45-1.55-26.26-3.08-47.71,7.12-71.47-11.53-11.83-9.29-15.5-19.45-21.87-32.15-.35-.69-.09-1.94-1.7-1.25-2.28.97-15.47,18.01-17.73,21.27-8.16,11.72-12.82,21.55-13.82,36.18-2.39,35.02,1.89,72.72.02,108.02-6.48,12.76-21.12,7.71-21.01-5.94,2.73-36.2-4.09-78.32,1.31-113.76,3.84-25.23,22.21-45.2,38.71-63.27.06-7.31-62.46-25.6-71.68-28.31-9.89,8.23-18.14,15.84-31.77,16.85-18.28,1.35-40.44-12.17-42.54-31.53-1.69-15.5-1.79-58.55.26-73.75s15.93-25.01,29.74-30.26v-31.5l-82.54.05c-9.16-1.95-18.87.32-27.8-.12S-3.23,38.68,1.49,29.94c.68-1.25,4.34-4.93,5.07-4.93h115l1.5-1.5V6.51c0-5.28,13.7-9.75,19.02-3.02.68.85,2.98,5.41,2.98,6.02v15.5ZM124.8,103.25c-6.19,1.04-10.8,6.11-11.65,12.35-1.57,11.53-1.42,46.12-.09,57.91,1.51,13.37,15.03,21.42,27.55,16.55,5.08-1.98,11.29-8.3,12.21-13.79,1.57-9.34,1.63-52.26.18-61.7-1.91-12.33-18.56-12.94-28.2-11.32ZM580.79,103.24c-6.27,1.14-10.55,6.49-11.47,12.53-1.8,11.72-1.3,42.34-.25,54.72,2.3,27.03,35.11,27.09,40.13,6.16,2.07-8.62,2.07-50.47.77-60.06-1.98-14.53-17.26-15.53-29.18-13.36ZM174.06,148.01v29c30.06,9.99,70.74,15.77,90.43,43.07,13.76,19.08,13.35,44.33,44.03,46.97,34.14,2.94,72.44-2.26,107.03-.05,29.16-2.89,30.22-31.25,44.09-48.91,20.39-25.96,59.92-30.86,89.4-41.12l-.44-28.01-1.94-.9c-27.73,3.18-59.08,11.3-86.61,4.46-36.78-9.14-50.42-44.86-91.45-47.55-54.34-3.56-66.03,40.06-110.5,48.57-9.29,1.78-18.08,1.65-27.53,1.46l-56.51-6.99ZM315.77,326.22c-3.37.76-7.75,5.63-7.73,9.27,1.68,20.01-2.18,43.44.02,63.03.73,6.47,3.75,10.62,10.48,11.52,27.69-1.97,58.79,2.54,86.07.02,6.16-.57,9.93-4.25,10.5-10.5,1.45-15.83,1.46-48.27,0-64.09-.41-4.5-1.84-6.98-5.99-9.01l-93.34-.24Z"/>
      <path class="cls-2" d="M354.8,334.25c51.99-8.1,50.67,71.33.21,63.31-34.39-5.47-33.27-58.16-.21-63.31ZM357.79,351.24c-15.07,3.07-14.42,28.36,1.78,29.77,23.38,2.04,20.68-34.34-1.78-29.77Z"/>
    </g>
  </g>
</svg>