<?xml version="1.0" encoding="UTF-8"?>
<svg id="Layer_2" data-name="Layer 2" xmlns="http://www.w3.org/2000/svg" viewBox="0 0 370.59 305.31">
  <g id="Layer_1-2" data-name="Layer 1">
    <g>
      <path d="M119.98,110.8c18.03,5.04,43.12-12.08,59.76-3.88,2.87,1.42,4.52,3.89,7.23,5.27,9.06-4.57,18.98-9.51,29.42-8.91,11.6.68,21.16,10.71,33.35,9.03-.92-7.54.15-11.95,6.06-16.81,5.57-4.58,26.29-18.01,32.66-20.59,6.14-2.49,10.22-1.56,15.54,2.27,19.68,31.49,43.1,63,61.55,95.2,5.24,9.14,8.51,16.2-1.13,24.25-5.14,4.29-26.72,18.11-32.67,20.58-6.57,2.73-11.38,1.69-16.76-2.89,6.79,13.78,1.11,30.97-13.85,36.03-5.45,1.84-9.86,1.28-15.45,1.8-2.87,13.02-12.94,20.47-26.23,18.72-3.2,8.2-7.67,15.96-16.62,18.67-6.57,1.99-10.48.38-17-.12-10.54,25.61-37.05,15.27-54.5,3.65-2.95,1.67-5.12,4.4-8.22,6.01-9.51,4.95-21.71,2.19-28.45-6.08-1.03-1.26-2.79-5.19-3.43-5.6-.93-.59-6.45.53-8.62.4-9.8-.58-18.51-6.64-20.74-16.39-12.88.08-23.77-8.03-25.47-21.03-10.74.39-19.93-2.57-23.76-13.36-3.33-9.38-1.28-16.41,2.83-24.96-4.64,3.64-9.77,4.87-15.53,3.17-3.39-1-31.76-19.13-34.97-22.03-5.05-4.55-6.4-12.03-3.37-18.14,20.95-30.24,38.74-63.93,59.86-93.89,7.02-9.96,12.44-13.5,24.24-6.96,5.44,3.01,29.61,17.98,32.35,21.65,3.15,4.23,3.52,10.05,1.92,14.94ZM74.77,81.69c-1.2.35-2.62,2.35-3.41,3.38L10.61,181.12c-.41,1.79.36,3.56,1.86,4.58l30.8,19.46c2.57.59,4.38.12,5.78-2.15l61.43-96.85c.5-2.01-.38-3.36-1.79-4.7-2.47-2.36-27.03-18.1-30.17-19.32-1.34-.52-2.27-.89-3.75-.46ZM261.21,104.28c-1.99,2.66-1.47,4.04-.1,6.77l61.41,96.08c1.46,1.24,3.3,1.58,4.99.6l31.77-20.75c1.22-1.57.86-3.63-.17-5.19l-61.72-96.51-3.16-1.28-33.01,20.28ZM210.55,114c-21.02,2.85-52.94,32.82-60.18,52.32-6.73,18.12,3.52,16.79,16.62,11.37,6.85-2.84,14.17-7.72,20.29-11.96,8.61-5.97,17.46-16.96,28.26-15.83,24.72,2.59,60.79,37.58,83.02,49.73,2.4,1.31,6.27,3.8,6.14-.81l-48.2-75.62c-8.41-.46-15.32-.09-23.45-2.8-8.54-2.84-12.27-7.77-22.47-6.39ZM224.32,202.4l2.13.31,57.56,38.45c7.87.64,17.52.82,21.6-7.33,2.93-5.86,2.48-10.72-1.26-16-4.83-6.81-38.94-29.11-48.07-35.18-7.7-5.11-16.38-10.99-24.53-15.22-4.45-2.31-16.42-8.57-20.99-6.71-13.92,11.1-41.5,33.62-60.07,30.76-6.4-.99-11.74-5.49-12.64-12.1-2.64-19.25,16.84-40.96,29.92-53.19,1.46-1.36,8.18-6.17,8.68-7.1,2.29-4.22-10.19-3.84-11.95-3.68-16.44,1.5-33.34,11.4-50.61,4.47l-46.61,73.82,1.88,2.6c10.01-11.67,26.24-9.23,35.41,2.19,1.18.29,6.44-2.89,8.3-3.47,14.08-4.37,29.77,1.19,31.7,17.01,18.87-1.73,31.52,12.26,25.47,30.76,10.63,2.94,18.48,10.27,17.17,22.07-.83,7.45-5.53,13.46-8.59,19.97,11.45,8.18,31.86,18.33,37.99-1.04l-23.27-16.59c2.02-2.16,3.95-8.87,7.42-7.52,10.9,6.46,35.54,32.52,45.93,13.65,1.08-1.96,3.19-4.97,1.35-6.88l-40.9-26.62,4.92-9.01,44.96,28.9c5.81,1.38,12.03,1.69,15.65-3.9,1.22-1.88,3.34-6.16,1.62-8.12l-54.66-36.47,4.5-8.83ZM83.03,199.49c-3.39.63-8.21,6.13-10.69,8.81-6.72,7.28-14.95,17.24-8.77,27.55,2.48,4.14,11.38,5.23,15.11,2.79,1.67-1.09,9.33-12.2,10.86-14.64,1.83-2.92,8.27-13.85,7.81-16.65-.93-5.73-9.06-8.83-14.32-7.85ZM104.08,260.65l30.49-43.38c2.67-15.2-18.77-16.48-26.27-7.51-1.99,2.38-5.63,12.75-7.97,16.78-3.97,6.82-9.15,12.92-13.81,19.25-.68,2.42,1.93,9.23,3.71,11.01,2.32,2.33,11,5.5,13.85,3.85ZM142.7,223.53l-30.6,43.32c.3,10.65,12.07,12.03,20.3,9l26.73-32.52c4.86-11.59,1.4-21.82-12.52-20.77-1.03.08-3.15.4-3.91.96ZM165.52,252.67c-2.56.68-20.06,25.34-24,28.62-.29,8.43,10.31,11.76,17.24,8.17s20.46-21.88,17.89-30.19c-.9-2.91-8.11-7.4-11.12-6.6Z" fill="#fff"/>
      <path d="M113.02,1.52c5.85,5.8-6.87,12.19-9.54,16.29,19.61.49,39.29.27,58.91.73,10.03.23,24.3-.27,33.72.78,8.28.93,8.88,10,.79,10.53l-93.41-1.53c2.42,4.01,13.5,10.16,7.48,15.34-3.61,3.1-6.9.08-9.74-2.21-2.23-1.8-16.45-15.39-16.92-16.85-.8-2.52-.18-4.16,1.52-6.07,2.87-3.23,15.6-14.32,19.21-16.79,2.57-1.75,5.47-2.72,7.99-.22Z" fill="#fff"/>
      <path d="M245.98,59.07c-19.12.55-38.27.42-57.41.71-11.75.18-24.16,1.82-36,.81-7.66-.65-7.65-9.58.78-10.53,9.58-1.08,24.26-.57,34.47-.78,19.42-.41,38.78,0,58.16-.73-2.57-4.81-14.07-8.83-9.8-15.42,2.24-3.47,5.91-2.39,8.67-.32,4.8,3.6,13.41,11.09,17.64,15.36,3.42,3.44,4.21,5.27,1.12,9.41-1.38,1.84-17.86,17.25-19.1,17.65-4,1.29-8-.69-7.54-5.22.39-3.77,7.14-7.56,9-10.94Z" fill="#fff"/>
    </g>
  </g>
</svg>