<?xml version="1.0" encoding="UTF-8"?>
<svg id="Layer_2" data-name="Layer 2" xmlns="http://www.w3.org/2000/svg" viewBox="0 0 378.99 379.08">
  <g id="Layer_1-2" data-name="Layer 1">
    <g>
      <path d="M60.95,136.53c-12.6-1.33-19.75-10.72-20.65-22.85-2.13-28.48,1.57-59.67.12-88.44,1.01-9.7,6.48-17.16,15.8-20.2l132.99-.51c8.2,1.24,13.54,7.32,17.25,14.24,34.34-29.32,92.29-23.71,119.19,12.83,21.68,29.46,14.87,66.96-12.01,90.28,1.08,11.22,6.54,24.34,7.2,35.31.21,3.59-1.37,7.28-5.51,6.9-4.82-.44-27.03-22.71-33.29-25.92-23.25,4.62-44.99,2.48-65.68-9.27-1.85-1.05-9.99-7.49-11.01-6.6-2.09,8.73-10.85,13.11-19.23,14.16l-70.25.25-33.16,37.34c-2,2.9-8.62,1.07-8.62-1.87v-35.62c-4.22-.32-8.98.44-13.12,0ZM307.31,144.78c.27-6.81-6.08-21.39-4.34-27.22.7-2.33,6.73-6.11,8.5-8,38.28-40.84,5.08-95.62-45.79-99.02-41.69-2.79-84.95,30.12-71.99,74.99,8.92,30.9,43.13,46.67,73.48,44.24,5.76-.46,11.35-2.95,17.09-2.85l23.04,17.86ZM84.57,155.28l26.78-29.1,74.01-.24c4.92-.83,8.8-2.44,10.58-7.42,2.58-7.24-2.13-8.98-5.47-14.76-12.52-21.66-12.8-45.57,0-67.21,1.3-2.2,6.21-7.65,6.46-9.3.63-4.11-3.23-10.67-7.33-11.88l-130.11-.29c-5.72,1.24-8.12,6.15-8.66,11.59-2.81,27.95,1.94,60.63.17,89.06,3.19,15.2,19.34,8.42,29.43,10.32,1.37.26,4.14,3.09,4.14,4.11v25.12Z" fill="#fff"/>
      <path d="M57.57,256.53c.85-.83-4.98-6.07-5.87-7.25-20.59-27.48-8.72-67.73,29.53-65.53,38.72,2.23,43.05,49.98,17.61,71.65,17.62,7.32,49,6.49,54.99,29,3.73,14.04,2.82,47.81,2.03,63.28-.8,15.71-4.41,26.8-21.4,30.35-35.87-2.32-75.62,3.07-111.03.02-10.87-.94-20.42-9.15-21.9-20.1-2.04-15.08-1.66-39.02-.94-54.55.31-6.7.88-17.38,3.6-23.4,7.35-16.29,37.86-19.55,53.39-23.49ZM73.91,194.49c-35.77,4.26-22.25,60.17,5.77,58.29,29.28-1.97,37.82-63.49-5.77-58.29ZM127.32,367.53c7.28,1.3,15.67-2.65,17.07-10.3,2.33-12.69,2.28-53.7.1-66.5-2.27-13.29-12.25-15.05-23.61-18.39-12.35-3.64-34.89-10.07-47.18-9.05-9.79.82-47.82,10.61-55.39,15.86-4.29,2.98-5.83,8.12-6.41,13.09-1.9,16.43-2.23,47.4-.03,63.59,1.16,8.48,9.12,12.92,17.18,11.69v-52.12c0-.41,1.38-2.94,1.82-3.43,2.63-2.88,8.68-.95,8.68,1.18v54.38h77.25v-53.62c0-4.78,10.5-4.14,10.5,0v53.62Z" fill="#fff"/>
      <path d="M321.58,256.53c6.96.94,14.35,2.78,21.16,4.72,10.54,2.99,25.99,6.88,31.49,17.26,5.84,11.04,4.9,48.69,4.38,62.43-.65,17.33-1.2,33.8-22.16,37.09-35.72-2.43-75.82,3.26-111.02.04-16.67-1.53-21.34-15.17-22.12-29.63-.79-14.67-1.71-54.45,2.89-66.92,7.01-19,38.14-19.49,54.13-26.11-25.44-21.67-21.11-69.42,17.61-71.65,38.23-2.21,50.13,38.02,29.53,65.53-.84,1.12-6.75,6.48-5.87,7.25ZM296.65,194.49c-38.15,4.21-20.56,67.28,10.65,57.15,25.67-8.33,29.71-61.6-10.65-57.15ZM350.07,367.53c5.81.72,12.02-.95,15.16-6.22,3.21-5.39,1.71-10.15,2.06-15.94,1.01-16.68,1.86-36.51-.06-53.13-1.5-12.94-8.5-15.04-19.58-18.67-12.1-3.96-37.65-10.98-49.74-10.34-9.65.52-50.17,10.76-57.27,16.23-6.06,4.66-6.42,12.14-6.85,19.4-.92,15.39-1.43,43.72.83,58.49,1.09,7.12,10.49,11.71,17.2,10.17v-44.62c0-1.41,3.28-4.01,4.93-4.12s5.57,2.37,5.57,3.37v45.38h77.25v-45.38c0-2.66,6.06-4.33,8.6-1.85.25.25,1.9,3.16,1.9,3.35v43.88Z" fill="#fff"/>
      <path d="M81.84,55.8c5.78-5.78,16.14-5.4,21.5.84,1.58,1.84,7.49,13.89,8.61,13.88l34.86-34.88c13.57-10.37,32.02,6.41,18.4,22.9-12.97,15.71-31.86,29.76-45.38,45.37-6.09,5.79-16,6.51-22.16.39-2.16-2.14-19.12-31.65-19.68-34.32-1.03-4.96.25-10.59,3.85-14.19ZM89.25,63.21c-1.39,1.39-.92,3.97-.36,5.62,1.28,3.72,12.62,23.02,15.29,26.71,2.3,3.18,5.29,3.71,8.15.88,12.37-15.37,33.96-30.06,45.37-45.37,4.42-5.93.11-10.47-6.01-6.01-12.68,9.23-25.24,28.76-37.84,37.9-9.38,6.8-13.88-16.14-19.11-19.95-1.4-1.02-4.3-.96-5.5.23Z" fill="#fff"/>
      <path d="M256.87,54.96c20.82-3.5,24.77,27.21,6.4,30.39-22.39,3.88-25.05-27.25-6.4-30.39ZM258.38,65.41c-5.64,1.16-4.5,10.96,2.64,9.49,5.64-1.16,4.5-10.96-2.64-9.49Z" fill="#fff"/>
      <path d="M220.14,54.98c16.49-2.3,24.94,18.38,11.38,27.88-6.71,4.71-16.44,3.36-21.28-3.38-6.51-9.07-1.45-22.92,9.9-24.5ZM221.62,65.41c-6.17,1.28-4.44,11.84,3.25,9.28,5.37-1.79,2.57-10.48-3.25-9.28Z" fill="#fff"/>
      <path d="M293.62,54.96c24.24-4.04,24.31,34.53,0,30.39-16.58-2.83-15.92-27.73,0-30.39ZM293.26,74.08c3.96,3.74,11-1.84,7.36-6.99-3.96-5.6-12.53,2.11-7.36,6.99Z" fill="#fff"/>
    </g>
  </g>
</svg>