<?xml version="1.0" encoding="UTF-8"?>
<svg id="Layer_2" data-name="Layer 2" xmlns="http://www.w3.org/2000/svg" viewBox="0 0 367.82 367.56">
  <g id="Layer_1-2" data-name="Layer 1">
    <g>
      <path d="M33.61.24l172.32-.24c8.9.52,16.87,4.56,23.6,10.15,19.25,22.06,45.59,41.91,64.13,64.12,5.74,6.88,9.12,14.72,10.1,23.65l.11,96.64.64.86c44.74,12.86,71.86,59.46,60.86,105.08-8.74,36.28-40.5,63.58-77.69,67.06H35.62c-18.67-1.91-33.71-16.92-35.62-35.63L.04,34.92C2.34,17.07,15.88,3.06,33.61.24ZM207.78,16.53l-4.09-.79c-57.08.83-114.54-1.49-171.39,1.18-9.29,3.1-15.54,11.17-16.55,20.95l.04,292.52c.14,9.17,11.61,21.38,20.62,21.38h192.38c-16.84-12.94-29.61-30.34-34.6-51.28-14.07-59.02,33.9-113.67,93.85-108.47l-.75-96h-41.62c-16.84,0-37.88-18.4-37.88-35.62V16.53ZM276.03,79.53l-52.5-51.75v29.62c0,8.18,10.8,22.12,19.12,22.12h33.38ZM272.88,208.01c-55.07,4.91-84.37,69.83-51.16,114.46,27.55,37.03,82.02,39.47,112.45,4.58,42.72-48.99,3.2-124.79-61.29-119.04Z" fill="#fff"/>
      <path d="M134.07,111.96l113.83-.17c8.58.84,10.9,10.9,3.18,15.18h-118.86c-6.56-4.05-5.73-12.83,1.85-15.01Z" fill="#fff"/>
      <path d="M134.07,159.96l113.83-.17c8.58.84,10.9,10.9,3.18,15.18h-118.86c-6.56-4.05-5.73-12.83,1.85-15.01Z" fill="#fff"/>
      <path d="M101.82,159.93c4.67-1.03,9.45,2.3,9.92,7.08.35,3.57-1.57,5.63-3.69,8.18-6.46,7.76-21.12,22.42-28.87,28.87-3.89,3.23-7.06,5.47-12.02,2.24-3.28-4.91-16.69-14.39-18.55-18.95-1.55-3.79-.64-8.03,2.92-10.2,8.54-5.21,14.37,6.68,20.14,11.12,2.08,0,23.98-26.98,30.17-28.34Z" fill="#fff"/>
      <path d="M103.33,79.69c6.19-.58,10.88,7.3,7.1,12.37l-34.84,34.9c-3.47,1.35-6.55.62-9.51-1.36-2.33-1.56-16.37-15.91-17.23-18.02-3.73-9.22,4.73-14.89,12.62-9.62,1.98,1.32,9.4,10.27,10.82,10.02l26.35-26.2c1.21-.85,3.26-1.95,4.69-2.09Z" fill="#fff"/>
      <path d="M109.3,241.77c2.82,2.49,3.29,7.61.99,10.65-11.17,8.97-21.87,24.76-32.98,33.02-3.73,2.77-6.42,3.33-10.49.69-1.81-1.17-18.04-17.76-18.45-19.05-2.47-7.86,4.97-14.4,12.04-9.8,1.98,1.29,10.45,11.24,11.25,11.24l27.84-27.64c2.67-1.55,7.54-1.11,9.8.89Z" fill="#fff"/>
      <path d="M205.3,193.77c5.4,4.78,1.92,13.18-5.39,14.02-20.17,2.3-44.58-1.67-65.2-.05-9.24-1.43-9.03-14.34-.07-15.72,21.02,1.48,44.59-1.91,65.3-.02,1.77.16,4,.58,5.36,1.77Z" fill="#fff"/>
      <path d="M189.52,82.04c5.13,5.14,1.49,12.96-5.44,13.93-8.55,1.21-40.07,1.21-48.62,0-10.32-1.46-10.31-14.92,0-16.37,9.2-1.3,38.47-1.14,47.94-.06,1.94.22,4.76,1.13,6.12,2.5Z" fill="#fff"/>
      <path d="M130.03,285.53c-5.13-5.14-1.49-12.96,5.44-13.93,6.09-.86,25.99-.83,32.12,0,10.88,1.48,10.85,14.89,0,16.37-6.43.88-24.87.81-31.43.07-1.94-.22-4.76-1.13-6.12-2.5Z" fill="#fff"/>
      <path d="M173.79,253.3c-.98,1.11-3.8,2.31-5.37,2.5-6.22.75-27.73.86-33.72-.07-9.31-1.44-8.61-14.42-.76-15.66,5.5-.87,30.41-.87,35.91,0,5.93.93,7.49,9.2,3.93,13.23Z" fill="#fff"/>
      <path d="M310.31,249.95c7.9-1.82,12.82,3.91,9.87,11.37l-48.84,48.65c-3.47,1.43-6.34.4-9.18-1.68s-22.5-21.81-23.77-24.22c-4.07-7.72,4.45-15.34,11.77-10.28,2.95,2.04,16.22,17.49,17.9,17.2l39.46-39.34c.8-.77,1.68-1.44,2.8-1.7Z" fill="#fff"/>
    </g>
  </g>
</svg>