<?xml version="1.0" encoding="UTF-8"?>
<svg id="Layer_2" data-name="Layer 2" xmlns="http://www.w3.org/2000/svg" viewBox="0 0 384 384">
  <g id="Layer_1-2" data-name="Layer 1">
    <g>
      <path d="M146.34,0c5.15,1.26,10.57,1.53,15.77,2.6,51.91,10.7,93.52,52.57,103.95,104.51,3.12,15.51,3.05,30.93,1.73,46.64,52.61-1.29,100.36,36.19,112.84,86.99l3.37,18.75v18.75l-5.05,24.57-10.68,24.62c1.58,12.74,7.36,26.61,8.78,39.14,1.09,9.63-1.48,13.64-10.29,17.42h-6l-43.12-10.38c-9.38,3.5-18.76,6.97-28.7,8.67-3.7.63-7.9.52-11.4,1.72h-17.99l-23.99-4.88c-48.34-14.33-82.83-60.74-81.72-111.38-27.16,2.93-53.68-.6-78.34-12.41-18.03,2.67-37.93,10.74-55.68,12.97-9.94,1.25-16.54-2.21-19.68-11.81v-6l13.47-57.34c-5.5-11.75-9.69-24.14-11.75-37.01-.64-3.98-.58-8.37-1.72-12.16.32-6.39-.43-13.16,0-19.5C4.47,60.68,58.21,4.85,122.34,0h23.99ZM126.69,12.97C38.06,18.95-13.54,113.62,26.88,192.24l-13.84,60.35.55,2.83c1.53,1.04,5.73-.28,7.68-.65,18.4-3.5,36.52-9.24,54.98-12.58,54.63,26.58,119.84,13.89,156.17-35.7,60.82-83-3.21-200.44-105.73-193.52ZM234.8,224.25h94.09c.17,0,2.4,1.73,2.64,2.06,3.27,4.39.45,10.13-4.96,10.63l-105.46.25c-16.09,12.74-34.26,23.07-54.46,27.64-2.36,67.99,59.7,118.97,126.35,103.52,8.42-1.95,15.66-6.02,23.89-7.66l47.6,10.56-9.79-45.36c3.19-7.67,7.73-14.64,10.56-22.49,24.56-68.16-28.68-139.94-100.38-136.79-4.08,16.33-11.2,31.75-20.93,45.44l-9.16,12.21Z" fill="#fff"/>
      <path d="M206.55,264.24c.6-.66,1.76-1.1,2.57-1.53l119.95.37c5,2.81,5,8.8,0,11.61l-117.9.59c-5.48-.48-8.46-6.82-4.62-11.03Z" fill="#fff"/>
      <path d="M311.79,302.49c3.74,3.42,1.6,11.03-3.87,11.03l-97.51.02c-7.47-.91-7.49-11.83.76-12.8,30.66,2.14,65.05-2.78,95.27-.02,1.75.16,4.04.58,5.35,1.78Z" fill="#fff"/>
      <path d="M123.69,32.47c88.5-7.81,145.99,90.33,93.43,162.46-45.83,62.89-143.34,52.84-175.64-17.67C12.68,114.4,54.43,38.59,123.69,32.47ZM125.19,45.22c-62.61,5.55-99.3,75.56-69.96,131.04,36.28,68.62,138.2,61.3,163.64-11.83,21.86-62.83-27.9-125.04-93.68-119.21Z" fill="#fff"/>
    </g>
    <path d="M111.19,115.96l46.13.18c2.05.01,5.78,5.12,5.94,7.52.19,2.79-2.6,9.05-5.21,9.03l-51.65-.21-.02,4.73,44.54.18c3.44.02,7.38,4.83,7.51,8.33.14,3.78-3.78,9.04-7.58,9.01l-39.03-.16c8.66,15.26,25.53,21.99,42.68,18.87,5.55-1,10.96-5.2,15.58,1.46,6.25,9-4.65,13.5-11.85,14.96-28.19,5.69-54.32-8.93-65.33-34.99-7.77-.33-19.06-.02-17.28-11.06,1.42-8.78,14.23-6.24,14.19-7.1l-.83-4.29c-7.4.51-13.88-.2-13.38-9.2.5-8.99,10.16-6.91,16.66-7.79,9.87-26.02,35.58-41.62,63.37-36.99,7.52,1.25,19.07,3.62,15.81,13.91-3.08,9.7-14.13,2.96-20.35,2.39-16.63-1.51-32.7,5.85-39.94,21.16l.03.07Z" fill="#fff"/>
  </g>
</svg>