<?xml version="1.0" encoding="UTF-8"?>
<svg id="Layer_2" data-name="Layer 2" xmlns="http://www.w3.org/2000/svg" viewBox="0 0 303.55 303">
  <g id="Layer_2-2" data-name="Layer 2">
    <g id="Layer_1-2" data-name="Layer 1-2">
      <g>
        <path d="M200.34,23.92V4.8c0-2.47,4.19-3.97,6.34-4.16,8.4-.76,27.85-.94,36.05.02,4.05.47,5.3,2.53,5.64,6.36,1.49,16.31-1.31,34.73.12,51.26l36.21,24.9c4.69,5.04.11,9.31-2.76,13.73-2.64,4.06-7.78,12.18-10.78,15.47-6.57,7.2-16.53-6.15-22.83-8.95v73.12c0,4.11-10.75,6.92-11.96-.79l-.43-80.57-71.88-50.17-71.37,50.16-.41,80.59c-1.21,7.72-11.96,4.9-11.96.79v-73.12c-6.19,2.93-16.38,16.06-22.83,8.96-1.81-1.99-14.41-20-15.01-21.74-.8-2.3-.7-4.69.73-6.7L161.08,1.54c1.82-1.18,4.12-1.24,6.05-.28l33.21,22.66ZM236.34,12.67h-24v19.88l24,16.88V12.67ZM164.1,14.32L56.48,89.53l7.74,10.87L164.02,31.43l99.35,67.86,1.74.33,6.94-9.67-.4-1.18L164.1,14.32Z" fill="#fff"/>
        <path d="M188.34,120.67h-48v56.62c0,3.72-11.02,6.98-12.01-1.49-2.25-19.13,1.67-42.62.06-62.22.73-3.63,2.88-4.65,6.3-4.95,19.09-1.71,40.69,1.36,60.05.02,4.01.47,5.29,2.49,5.64,6.36,1.74,19.26-1.34,41.19-.08,60.74-1.21,7.72-11.96,4.9-11.96.79v-55.88h0Z" fill="#fff"/>
        <path d="M39.02,292.51c-.47.3-3.23,6.59-7.13,8.49-7.78,3.8-28.58,2.81-30.62-8.61,1.21-23.56-2.99-51.78-.4-74.82.74-6.6,5.61-11.55,12.25-12.25,7.83-.83,18.96-1.27,23.98,5.62,1.05,1.44.14,2.84,2.12,2.8,4.48-.07,22.16-5.01,27.18-6.71,21.9-7.4,29.03-19.55,55.32-13.13,13.07,3.19,35.86,9.53,47.9,14.64,5.64,2.39,9.21,5.37,11.89,10.93.99,2.06.58,6.03,3.09,6.09,5.83.13,22.66-7.49,28.7-10.22,19.77-8.94,37.95-21.28,57.14-30.75,8.38-4.14,13.24-7.16,22.57-2.25,4.1,2.17,8.3,6.97,9.61,11.53,3.72,12.99-4.41,19.2-12.7,27.1-27.44,26.11-89.68,77.11-127.31,80.59-20.78,1.92-41.05-6.37-61.59-8.33-15.25-1.46-36.44-2.59-51.58-1.73-1.52.09-9.96.74-10.4,1.01h-.02ZM39.74,280.54c20.94.09,42.1-.38,62.95,1.69,18.15,1.81,40.03,9.76,57.46,8.44,34.21-2.62,93.44-51.21,118.77-74.77,3.68-3.42,13.55-11.4,13.55-16.07,0-4.92-5.82-10.51-10.86-8.31-28.91,14.13-57.81,35.14-89.06,43.66-3.16.86-9.68,1.13-11.87,2.27-1.07.55-4.18,5.29-6.79,6.95-12.6,8.06-33.26-2.56-47.64-3.47-5.16-.32-13.32,2.65-15.18-3.47-2.73-9.01,12.44-7.98,17.71-7.53,9.52.82,26.85,7.39,34.76,6.7,9.81-.85,11.35-13.39,2.96-17.37-16.8-2.92-40.04-15.4-56.33-16.4-10.51-.65-20.22,6.36-29.31,10.21-13.16,5.58-27.03,9.23-41.13,11.69v55.78h-.01ZM27.71,290.49c.96-1.31.95-2.87,1.08-4.41,1.8-21.33-1.39-45.17-.06-66.78-.16-4.74-14.86-3.4-16.11-1.8l-.76,71.08c.37,4.37,14.31,3.46,15.86,1.91h-.01Z" fill="#fff"/>
      </g>
    </g>
  </g>
</svg>