<?xml version="1.0" encoding="UTF-8"?>
<svg id="Layer_2" data-name="Layer 2" xmlns="http://www.w3.org/2000/svg" viewBox="0 0 336.7 304.62">
  <g id="Layer_2-2" data-name="Layer 2">
    <g id="Layer_1-2" data-name="Layer 1-2">
      <g>
        <path d="M4.38,212.35c-1.85-.4-3.78-3.02-4.08-4.92-.44-2.79-.44-15.97.29-18.37.99-3.24,12.88-10.96,16-13.62l.22-.94c1.24-16.06-3.06-30.8-7.34-45.99-1.17-4.14-3.32-8.4-4.5-12.75C-7.86,68.62,15.01,3.34,70.34.07c7.09-.42,29.07,1.09,34.56,5.26,6.45,4.91-2.82,12.55-4.9,17.26,9.79,1.8,14.77,8.85,15.69,18.45l20.09,26.57h157.33c9.19-.29,21.39,9.87,21.39,19.11v155.62h18.38c.9,0,3.13,3.65,3.33,4.92.78,4.88.48,17.97.07,23.23-1.43,18.3-15.73,32.85-34.12,34.13H44.85c-30.33-2.7-37.85-29.34-34.84-55.91.23-2.07,1.71-6.38,4.12-6.38h15.75l1.12-1.12v-28.88c-7.58-1.11-19.63,1.49-26.62,0v.02ZM27.25,150.1h81.75c-2.99-24.9-26.76-36.78-37.89-57.73-3.07-5.78-15.69-35.51.61-30.61,1.58.47,4.77,5.73,6.9,7.34,4.9,3.69,12.1,5.24,18.09,5.91,3.08.34,7.7-.51,10.25.25,4.31,1.28,9.99,14.87,17.81,7.75,4.01-3.64,2.14-6.69-.17-10.39-5.22-8.35-16.01-18.39-19.97-26.53-1.49-3.05-1.48-8.65-2.77-9.98s-4.2-1.25-6.03-2.22c-8.63-4.58-10.69-12.34-4.84-20.28C36.44,1.14,5.75,56.66,14.85,104.38c2.92,15.3,10.49,30.06,12.4,45.72ZM43,242.35h258.38l1.12-1.12V87.48c0-3.92-6.93-8.55-10.85-7.9l-152.19-.02c-2.39,13.64-16.97,22.17-29.48,14.44-2.32-1.43-6-6.31-7.51-6.74-2.42-.7-8.39-.58-11.63-1.12-3.5-.58-7.07-1.39-10.34-2.78,6.12,15.88,21.43,25.73,30.6,39.51,10.34,15.53,13.08,33.79,12.29,52.21,2.6,4.43,14.42,10.83,15.44,15.31.52,2.31.59,15.44.14,17.82-.26,1.37-3.09,4.14-4.11,4.14H43v30h0ZM111.25,162.1H28.75v9.75h82.5v-9.75ZM127,200.35c1.85-7.96-7.39-11.13-12.03-16.1l-89.58-.39c-.79.15-12.34,9.05-12.76,9.74-.98,1.61-.12,4.83-.38,6.75h114.75ZM324.25,254.35H22v16.12c0,10.3,12.92,22.84,23.59,22.16l256.53-.04c9.08.13,22.13-11.71,22.13-20.62v-17.62Z" fill="#e4cfaf"/>
        <path d="M263.5,136.6v70.88c0,.22-1.86,3.38-2.27,3.73-2.96,2.52-9.73-.03-9.73-2.23v-73.12l-16.93,23.94c-5.04,5.25-12.68-.06-10.23-6.48l28.65-41.1c4.08-3.18,6.68-1.93,9.75,1.53,9.72,10.96,17.44,27.45,27.07,38.93,3,6.8-3.64,12.53-9.46,7.21s-10.51-17.43-16.84-23.28h-.01Z" fill="#e4cfaf"/>
        <path d="M207.02,268.84c3.99,3.66,1.28,9.68-3.87,10.28-19.66,2.29-43.65-1.76-63.78,0-8.1-.95-6.57-12.03,1.51-12.01,19.57,1.35,41.51-1.8,60.79-.04,1.75.16,4.05.58,5.35,1.78h0Z" fill="#e4cfaf"/>
        <path d="M69.83,21.3c4.17-.53,7.51.16,8.02,4.95.68,6.38-5.34,6.15-9.33,8-25.28,11.69-34.83,42.6-29.65,68.62,1,5.03,5.91,17.83,5.68,21.35-.42,6.32-8.37,7.72-11.67,1.15-13.19-26.21-8.28-67.64,12-89.26,5.33-5.69,17.19-13.8,24.96-14.8h-.01Z" fill="#e4cfaf"/>
        <path d="M171.68,150.83l28.25.11c1.25,0,3.54,3.14,3.64,4.61.12,1.71-1.59,5.54-3.19,5.53l-31.64-.13v2.9s27.28.11,27.28.11c2.1.01,4.52,2.96,4.6,5.1.09,2.31-2.32,5.54-4.64,5.52l-23.91-.1c5.3,9.35,15.64,13.47,26.14,11.56,3.4-.61,6.72-3.18,9.55.89,3.83,5.51-2.85,8.27-7.26,9.16-17.27,3.49-33.27-5.47-40.02-21.43-4.76-.2-11.67-.01-10.58-6.77.87-5.38,8.72-3.82,8.69-4.35l-.51-2.62c-4.53.31-8.5-.12-8.19-5.63s6.22-4.23,10.21-4.77c6.05-15.94,21.79-25.5,38.82-22.66,4.6.77,11.68,2.22,9.69,8.52-1.89,5.94-8.65,1.81-12.47,1.46-10.19-.93-20.03,3.58-24.46,12.96l.02.04Z" fill="#e4cfaf"/>
      </g>
    </g>
  </g>
</svg>