<?xml version="1.0" encoding="UTF-8"?>
<svg id="Layer_2" data-name="Layer 2" xmlns="http://www.w3.org/2000/svg" viewBox="0 0 309.54 320.04">
  <g id="Layer_1-2" data-name="Layer 1">
    <g>
      <path d="M56.63,310.93c-.41.26-2.8,5.72-6.19,7.37-6.75,3.3-24.8,2.44-26.57-7.47,1.05-20.44-2.59-44.93-.35-64.92.64-5.73,4.87-10.02,10.63-10.63,6.79-.72,16.45-1.1,20.81,4.88.91,1.25.12,2.46,1.84,2.43,3.89-.06,19.23-4.35,23.58-5.82,19-6.42,25.19-16.96,48-11.39,11.34,2.77,31.11,8.27,41.56,12.7,4.89,2.07,7.99,4.66,10.32,9.48.86,1.79.5,5.23,2.68,5.28,5.06.11,19.66-6.5,24.9-8.87,17.15-7.76,32.93-18.46,49.58-26.68,7.27-3.59,11.49-6.21,19.58-1.95,3.56,1.88,7.2,6.05,8.34,10,3.23,11.27-3.83,16.66-11.02,23.51-23.81,22.65-77.81,66.9-110.46,69.92-18.03,1.67-35.62-5.53-53.44-7.23-13.23-1.27-31.62-2.25-44.75-1.5-1.32.08-8.64.64-9.02.88ZM57.26,300.55c18.17.08,36.53-.33,54.62,1.47,15.75,1.57,34.73,8.47,49.85,7.32,29.68-2.27,81.07-44.43,103.05-64.87,3.19-2.97,11.76-9.89,11.76-13.94,0-4.27-5.05-9.12-9.42-7.21-25.08,12.26-50.16,30.49-77.27,37.88-2.74.75-8.4.98-10.3,1.97-.93.48-3.63,4.59-5.89,6.03-10.93,6.99-28.86-2.22-41.33-3.01-4.48-.28-11.56,2.3-13.17-3.01-2.37-7.82,10.79-6.92,15.37-6.53,8.26.71,23.3,6.41,30.16,5.81,8.51-.74,9.85-11.62,2.57-15.07-14.58-2.53-34.74-13.36-48.87-14.23-9.12-.56-17.54,5.52-25.43,8.86-11.42,4.84-23.45,8.01-35.69,10.14v48.4ZM46.82,309.18c.83-1.14.82-2.49.94-3.83,1.56-18.51-1.21-39.19-.05-57.94-.14-4.11-12.89-2.95-13.98-1.56l-.66,61.67c.32,3.79,12.42,3,13.76,1.66Z" fill="#fff"/>
      <path d="M153.87.04c2.35-.4,7.33,2.69,9.73,3.9,24.55,12.38,48.4,26.24,73.09,38.37,2.03,1.32,4.25,2.89,3.93,5.6-1.61,27.99,2,58.09-.05,85.83-3.65,49.38-49.08,65.92-82.93,92.32-3.2,1.68-4.2.84-7.06-.85-14.36-8.49-33.79-23.02-47.35-33.31-19.93-15.13-32.44-33.88-34.27-59.59l.42-86.91,3.51-3.09L153.87.04ZM153.87,11.03l-74.99,39.47-.39,79.6c1.29,22.28,11.49,39.17,28.71,52.68,15.01,11.78,32.41,21.99,47.84,33.36,31.17-24.83,72.6-38.75,75.99-84.62,1.89-25.61-1.43-53.38.05-79.22.05-2.44-3.81-3.93-5.89-5.11-18.65-10.51-39.47-21.19-58.66-30.8-2.73-1.37-10.23-5.77-12.66-5.36Z" fill="#fff"/>
      <path d="M40.39,150.23c-3.58-4.61-.13-10.76,5.68-8.24,4.32,1.88,11.8,12.91,16.36,15.9,1.47,2.63,1.13,5.67-1.56,7.31-1.83,1.12-19.3,5.92-21.78,6.15-5.3.48-7.92-5.48-3.47-8.67,1.34-.96,3.58-.79,4.04-2.17C25.53,155.96,0,144.73,0,127.14c0-15.73,21.59-26.32,34.14-31.18,4.13-1.6,22.27-7.75,25.51-7.2,4.12.71,4.87,6.4,1.66,8.7-2.61,1.87-14.88,4.37-19.09,5.84-9.43,3.28-30.26,11.73-32.32,22.72s21.53,22.35,30.5,24.21Z" fill="#fff"/>
      <path d="M269.9,94.5c14.52,3.91,40.79,16.08,39.59,34.09-1.17,17.67-29.66,29.2-44.17,33.57-3.34,1.01-16.2,5.46-18.22,2.25-.9-2.47-1.5-5.43.8-7.2,1.99-1.54,18.13-5.39,22.37-6.96,8.59-3.17,27.5-11.31,29.39-21.26,2.16-11.4-21.89-22.48-30.86-24.96-.57.92,1.35,1.63,1.68,2.72,1.07,3.55-2.3,7.6-5.74,6.52-3.96-1.24-13.35-14.13-17.62-16.9-1.33-2.38-1.28-5.45,1.23-6.91,1.64-.96,19.81-5.88,21.94-5.98,3.81-.19,5.88,1.59,5.53,5.53-.37,4.2-3.99,2.82-5.93,5.48Z" fill="#fff"/>
      <path d="M209.21,129.87c-.43.5-3.52,9.66-4.99,12.24-17.31,30.33-60.74,38.57-86.84,14.37-3.86-3.58-17.23-19.42-10.55-23.76,5.89-3.83,9.99,8.37,13.18,12.32,22.39,27.71,69.33,17.07,79.52-16.41-.2-1.95-2.43-2.32-3.58-3.8-11.84-15.17,7.55-32.24,20.77-20.77,7.04,6.1,6.36,18.29-1.57,23.33-1.44.92-5.52,1.99-5.95,2.49ZM205.92,110.02c-5.86,1.04-4.96,10.55,1.24,10.14,7.21-.47,5.75-11.39-1.24-10.14Z" fill="#fff"/>
      <path d="M112.73,122.85c-11.94,11.11-31.08-2.97-22.88-18.11,3.12-5.76,9.8-6.43,10.53-7.45.26-.36,1.7-5.86,2.45-7.44,14.01-29.85,50.3-42.77,79.58-26.26,3.46,1.95,9.07,4.49,6.91,9.35-2.87,6.47-12.37-1.5-16.68-3.25-22.23-9.04-48.55.12-59.66,21.52-.69,1.32-2.57,4.9-2.81,6.05-.66,3.25,1.7,2.79,3.21,4.56,5.15,6.05,5.37,15.44-.65,21.04ZM101.05,107.1c-5.47,1.6-3.83,10.5,1.85,10,7.71-.67,5.07-12.03-1.85-10Z" fill="#fff"/>
      <path d="M128.56,109.34c1.63-1.64,5.26-.95,7.13.23,3.13,1.98,16.73,17.92,18,17.92l53.36-63.96c5.23-2.26,9.09,4.2,5.25,8.2-18.41,19.75-33.99,44.79-52.4,64.19-3.04,3.21-4.78,5.65-9.15,2.58-3.2-2.25-19.68-18.73-22.03-21.96-1.51-2.07-2.1-5.25-.16-7.2Z" fill="#fff"/>
    </g>
  </g>
</svg>