<?xml version="1.0" encoding="UTF-8"?>
<svg id="Layer_2" data-name="Layer 2" xmlns="http://www.w3.org/2000/svg" viewBox="0 0 371.24 317.49">
  <g id="Layer_1-2" data-name="Layer 1">
    <g>
      <path d="M251.45,16.99v283.5h23.62c3.72,0,6.68,5.68,6.34,9.28-.51,5.35-4.61,6.92-9.31,7.25-19.71,1.38-41.32-.83-61.21-.35-9.37-2.24-6.06-16.18.43-16.18h23.62v-43.5H34.33c-14.75,0-32.68-18.86-33.17-33.58,1.79-41.27-3.1-85.66-.24-126.58,1.13-16.13,16.07-36.34,33.41-36.34h200.62V16.99h-23.62c-3.72,0-6.68-5.68-6.34-9.28.51-5.35,4.61-6.92,9.31-7.25,19.71-1.38,41.32.83,61.21.35,9.37,2.24,6.06,16.18-.43,16.18h-23.62ZM234.95,76.99H35.83c-7.56,0-18.27,11.44-18.29,19.21,2.11,39.99-3.09,83.35-.11,122.95.59,7.88,4.59,15.26,11.79,18.96,1,.51,5.94,2.39,6.61,2.39h199.12V76.99Z" fill="#e4cfaf"/>
      <path d="M301.5,60.67c6.62-1.2,27.82-.81,35.06-.17,17.65,1.57,32.53,15.97,34.68,33.57v129.34c-2.19,17.07-16.15,31.41-33.38,33.38-7.25.83-29.63,1.25-36.37.03-8.7-1.58-8.71-14.56,0-16.15,19.21-3.49,49.39,9.18,53.47-20.78l-.22-124.33c-5.57-25.97-32.23-16.76-51.21-18.54-11.5-1.08-10.87-14.75-2.04-16.35Z" fill="#e4cfaf"/>
      <path d="M107.45,136.99v53.62c0,3.09-4.89,6.31-7.9,6.41-3.29.1-8.6-2.99-8.6-6.41v-53.62h-23.62c-3.72,0-6.68-5.68-6.34-9.28.51-5.35,4.61-6.92,9.31-7.25,19.71-1.38,41.32.83,61.21.35,9.37,2.24,6.06,16.18-.43,16.18h-23.62Z" fill="#e4cfaf"/>
    </g>
  </g>
</svg>