<?xml version="1.0" encoding="UTF-8"?>
<svg id="Layer_2" data-name="Layer 2" xmlns="http://www.w3.org/2000/svg" viewBox="0 0 319.56 384">
  <g id="Layer_1-2" data-name="Layer 1">
    <g>
      <path d="M285.03,0c18.26,3.35,32.91,17.48,34.53,36.34l-.04,312.78c-2.59,18.28-16.61,31.57-34.49,34.88H34.53c-18.24-3.46-32.9-17.39-34.53-36.34L.04,34.88C1.67,17.98,17.79,2,34.53,0h250.5ZM38.12,15.96c-12.02,1.44-20.82,9.86-22.33,21.92l-.03,307.52c1.32,13.47,11.1,21.82,24.38,22.87h239.3c13.26-1.05,23.06-9.4,24.38-22.87V38.6c-1.32-13.47-11.1-21.82-24.38-22.87l-241.32.24Z" fill="#e4cfaf"/>
      <path d="M63.78,144c-.33.33.24,7.64-.04,9.34-1.4,8.48-14.68,8.97-15.73.06-.46-3.86-.53-15.77.06-19.47.43-2.7,2.95-5.2,5.62-5.62h99.66c2.91.36,5.64,2.91,6.27,5.74.59,2.65.53,17.99-.19,20.5-1.39,4.85-7.61,6.63-11.94,4.37-.88-.46-3.47-3.32-3.47-4.03v-10.88h-32.25v80.25h10.88c.71,0,3.57,2.59,4.03,3.47,2.25,4.33.48,10.54-4.37,11.94-3.68,1.06-30.18.93-34.92.36-6.09-.73-9.44-6.29-6.5-11.79,3.7-6.93,10.02-1.96,15.14-5.1v-79.12h-32.25Z" fill="#e4cfaf"/>
      <path d="M269.8,285.52c-.7.79-2.55,1.42-3.49,2.14l-211.17.36c-7.89-.79-9.96-11.38-3.16-15.2l213.2-.59c6.36.33,8.41,9.01,4.62,13.29Z" fill="#e4cfaf"/>
      <path d="M269.8,333.52c-.7.79-2.55,1.42-3.49,2.14l-211.17.36c-7.89-.79-9.96-11.38-3.16-15.2l213.2-.59c6.36.33,8.41,9.01,4.62,13.29Z" fill="#e4cfaf"/>
      <path d="M269.8,141.52c-.98,1.11-3.8,2.31-5.37,2.5-20.18,2.45-45.27-1.84-65.98-.06-7.34-1.22-9.04-11.57-2.47-15.14l69.89-.53c5.93.93,7.49,9.2,3.93,13.23Z" fill="#e4cfaf"/>
      <path d="M269.8,189.52c-.98,1.11-3.8,2.31-5.37,2.5-20.18,2.45-45.27-1.84-65.98-.06-7.34-1.22-9.04-11.57-2.47-15.14l69.89-.53c5.93.93,7.49,9.2,3.93,13.23Z" fill="#e4cfaf"/>
      <path d="M269.8,237.52c-.98,1.11-3.8,2.31-5.37,2.5-20.18,2.45-45.27-1.84-65.98-.06-7.34-1.22-9.04-11.57-2.47-15.14l69.89-.53c5.93.93,7.49,9.2,3.93,13.23Z" fill="#e4cfaf"/>
    </g>
  </g>
</svg>