<?xml version="1.0" encoding="UTF-8"?>
<svg id="Layer_1" xmlns="http://www.w3.org/2000/svg" version="1.1" viewBox="0 0 209 59">
  <!-- Generator: Adobe Illustrator 29.8.2, SVG Export Plug-In . SVG Version: 2.1.1 Build 3)  -->
  <defs>
    <style>
      .st0 {
        fill: #131f76;
      }
    </style>
  </defs>
  <path class="st0" d="M28.3,3.2c2.3.4,7.6,1.5,12.4,5.9,3.6,3.2,5.4,6.9,6.2,9h126c-1.5-1.7-3.1-3.5-4.6-5.3-1.3-1.6-2.6-3.1-3.8-4.6-.2-.4-.7-2,.1-3.4,1-1.8,3.8-2.6,6.6-1.5,10.4,6.1,20.8,12.3,31.2,18.4.3.2,2.8,2.1,2.7,5.5,0,3.6-3.1,5.5-3.3,5.6-10,7.2-20,14.3-29.9,21.5-3.6,1.7-7.1.2-7.8-1.9-.5-1.4.3-3.2,1.6-4.6,1-1.2,2.1-2.5,3.1-3.7,1.4-1.7,2.8-3.4,4.1-5-42,0-84,0-125.9-.1-.9,2.1-2.8,6.1-7,9.3-5.1,4.1-10.6,4.7-14.1,5-7.4.8-12.8-1.2-14.1-1.6-3.9-1.5-10.5-5-10-8,.2-1,1-1.6,1.7-2.1,5.1,0,10.2,0,15.3,0,1.3,0,3.1-.1,4.6-1.3.9-.7,2-2.1,2.1-11.3,0-7.8-.8-9.1-1.6-10-1.7-1.7-4.1-1.9-5.5-2H3.5c-.6-.5-1.4-1.3-1.6-2.5-.6-4.2,7.6-9.4,14.8-11.1,1.5-.4,6-1.3,11.6-.2Z"/>
</svg>