<?xml version="1.0" encoding="UTF-8"?>
<svg id="Layer_2" data-name="Layer 2" xmlns="http://www.w3.org/2000/svg" viewBox="0 0 377.9 368.06">
  <g id="Layer_1-2" data-name="Layer 1">
    <g>
      <path d="M272.32,349.69c-2.93,7.85-9.78,14.69-17.96,16.91-6.73,1.82-32.66,1.78-40.09.77-25.39-3.44-31.06-40.28-7.6-51.46,9.46-4.51,43.54-4.61,52.82.24,6.25,3.27,10.34,9.21,13.21,15.45,19.34-.56,39.93,3.79,54.22-12.43,11.16-12.66,8.99-26.14,9.07-41.89-10.9-2.18-20.05-9.23-22.35-20.53,1.51-25.3-2.7-54.43-.19-79.3,1.17-11.54,11.65-19.88,22.52-21.81-2.35-29.44-12.58-57.1-30.48-80.5-21.02-27.47-53.85-48.05-88.02-54.48C129.39,4.09,48.13,67.16,41.97,156.04c10.84,1.09,20.13,9.38,22.29,20.09-1.28,25.33,2.38,53.59.22,78.58-.88,10.22-9.77,20.41-20.1,21.9-22.32,3.23-41.98-14.17-43.71-36.15-1.05-13.34-1.45-49.24,3.13-60.67,3.89-9.7,11.42-15.91,20.03-21.22C28.3,60.43,115.46-12.12,213.2,1.69c77.82,10.99,138.08,78.35,140.86,156.89,13.32,7.64,22,18.84,23.16,34.59.9,12.29,1.38,45.87-1.9,56.66-3.45,11.32-11.48,18.55-21.26,24.49.65,23.07.94,43.46-16.97,60.28-18.84,17.68-40.73,15.04-64.78,15.1ZM44.69,257.05c.68-.68,1.15-1.67,1.56-2.54l.18-75.55c-2.6-6.09-8.72-5.61-14.21-3.75-7.76,2.63-12.86,10.71-13.55,18.7-.98,11.44-1.09,34.43.03,45.77,1.09,10.99,11.42,21.02,22.83,19.09,1-.17,2.43-1,3.15-1.72ZM333.22,257.05c.72.72,2.15,1.55,3.15,1.72,11.41,1.93,21.74-8.09,22.83-19.09,1.12-11.34,1.01-34.33.03-45.77-.68-7.99-5.79-16.08-13.55-18.7-4.99-1.69-13.41-2.52-14.26,4.45,1.74,23.38-2.2,49.82-.02,72.83.17,1.82.47,3.21,1.82,4.56ZM215.74,331.72c-8.3,2.74-7.81,15.94.76,17.67,4.38.89,27.37.84,32.03.12,8.92-1.38,10.02-14.86,1.39-17.79h-34.18Z" fill="#fff"/>
      <path d="M131.2,241.57c-11.1-.34-21.92-4.75-29.22-13.15-6.83-7.85-9.18-16.69-9.8-26.95-1.32-21.69-1.39-53.38.04-75.02,1.3-19.57,11.7-34.11,31.31-38.44,39.69.15,82.57-3.38,122.09-.97,23.96,1.46,38.49,15.28,40.09,39.41,1.43,21.64,1.36,53.34.04,75.02-1.33,21.72-13.94,38.1-36.5,40-16.89,1.42-35.21-.99-52.25.25l-36.16,35.09c-7.26,4.9-16.18,4.54-22.88-1.11-10-8.44-5.91-22.61-6.75-34.13ZM149.2,261.81c1.31.33,1.5-.54,2.26-1.12,2.47-1.89,6.52-5.91,9.01-8.24,9.79-9.18,18.61-19.42,28.68-28.32,18.79-2.17,39.21.94,57.96-.54,13.65-1.08,19.79-9.83,20.63-22.87,1.56-24.13-1.23-49.96-.05-74.27-1.13-13.59-8.69-20.41-22.08-21.42-36.54-2.73-76.42,2.13-113.31,0-13,.97-20.75,7.49-22,20.75-2.42,25.76.85,56.19.86,82.2,2.11,8.64,9.61,14.55,18.26,15.49,5.39.58,13.59-1.53,17.55,2.7.38.41,2.23,3.55,2.23,3.77v31.88Z" fill="#fff"/>
      <path d="M198.43,156.34c12.39,12.39-6.57,31.35-18.96,18.96s6.57-31.35,18.96-18.96Z" fill="#fff"/>
      <path d="M143.8,152.48c14.34-1.42,20.46,18.45,7.7,25.01-19.36,9.95-27.98-23-7.7-25.01Z" fill="#fff"/>
      <path d="M231.55,152.47c14.62-1.47,20.14,19.6,6.67,25.48-18.97,8.29-26.99-23.44-6.67-25.48Z" fill="#fff"/>
    </g>
  </g>
</svg>