<?xml version="1.0" encoding="UTF-8"?>
<svg id="Layer_2" data-name="Layer 2" xmlns="http://www.w3.org/2000/svg" viewBox="0 0 374.72 384">
  <g id="Layer_1-2" data-name="Layer 1">
    <g>
      <path d="M316.41,0c1.44,1.39,3.12,1.73,4.51,3.37,4.97,5.87,4.51,30.82,6.03,39.72.44,2.57,2.25,4.48,4.88,4.87,6.25.94,13.76.81,20.2,1.55,11.14,1.28,27.65,1.24,21.27,17.51l-72.39,72.36c-15,10.28-39.69,3.04-56.92,5.33-.82.11-1.61.11-2.25.75l-28.01,29.07c1.83,4.34,5.06,8.37,7.02,13,23.41,55.41-46.03,102.64-88.86,61.86-45.36-43.2,6.2-118.55,64.52-88.52,2.27,1.17,5.73,4.89,7.88,3.45l27.21-28.29c-.47-2.1-1.26-3.59-1.38-5.87-.6-11.04-1.36-38.47,1.52-48.04,1.53-5.09,4.09-8.77,7.49-12.76,18.96-22.22,44.59-42.03,64.12-64.13l7.89-5.23h5.25ZM243.66,88.88v34.12l71.11-72.98c-2.33-9.58-2.92-20.2-3.61-30.16-.08-1.11.58-2.17-1.11-1.86l-60.77,60.73c-2.06,2.51-5.12,6.97-5.62,10.13ZM256.41,131.25h28.88c1.71,0,7.05-2.88,8.64-4.11l62.98-63.02-31.9-3.84c-16.02,15.85-31.93,31.89-47.62,48.07-5.61,5.78-15.35,14.75-19.86,20.64-.58.76-1.45.95-1.12,2.26ZM193.41,174.76c-30.46-18.93-68.19,4.09-64.41,40.02,1.52,14.4,12.81,28.01,26.17,33.08,38.44,14.6,72.32-29.59,48.35-62.61l-30.37,30.36c-6.05,2.17-11.43-2.54-9.57-8.83,1.15-3.89,21.08-21.56,25.35-26.39,1.58-1.78,2.92-3.83,4.48-5.63Z" fill="#fff"/>
      <path d="M159.66,384C55.46,376.51-18.75,279.64,4.18,176.39,24,87.11,111.94,29.99,201.82,46.72c9.92,1.85,19.5,5.06,29.09,8.04-2.49,1.44-7.78,10.13-9.01,10.9-1.17.73-16.31-4.04-19.35-4.68C118.68,43.48,35.12,96.91,17.4,180.61c-24.23,114.42,79.42,213.78,192.68,184.43,92.39-23.95,142.33-127.67,102.59-215.02l11.24-9.76c23.72,51.76,21.65,111.12-7.36,160.25-28.14,47.66-80.39,80.23-135.88,83.5h-21Z" fill="#fff"/>
      <path d="M213.66,102.75v15c-72.65-33.71-154.54,25.5-143.9,105.28,12.27,92.08,134.63,119.75,185.18,41.37,20.26-31.42,21.36-69.96,4.48-103.15h14.62c30.73,63.18-5.46,139.87-72.38,158.62-84.15,23.59-162.89-50.85-143.63-136.13,15.58-69.01,89.84-107.4,155.63-80.99Z" fill="#fff"/>
    </g>
  </g>
</svg>