<?xml version="1.0" encoding="UTF-8"?>
<svg id="Layer_2" data-name="Layer 2" xmlns="http://www.w3.org/2000/svg" viewBox="0 0 289.05 336.53">
  <g id="Layer_1-2" data-name="Layer 1">
    <g>
      <path d="M210.14,336.53V116.41c0-6.47,9.19-15.68,15.01-17.99,7.35-2.91,32.17-2.6,40.89-1.91,10.45.83,18.72,7.1,21.88,17.12,2.25,66.73.35,133.88.96,200.77.1,9.44-11.21,22.14-20.61,22.14h-58.12Z" fill="#9b4022"/>
      <path d="M186.14,336.53h-83.25v-172.12c0-7.33,9.47-16.16,16.1-18.4,7.41-2.5,35.53-2.25,44.31-1.5,10.08.87,22.85,10.66,22.85,21.4v170.62Z" fill="#9b4022"/>
      <path d="M78.89,180.53v156H21.52c-10.76,0-19.9-12.78-20.66-22.84-2.71-36.22,2.03-75.87.12-112.45.21-8.34,11.68-20.71,19.79-20.71h58.12Z" fill="#9b4022"/>
      <path d="M138.52,24.53c-12.11-2.01-13.45-22.64,2.22-24.03,13.27-1.18,30.89-.03,44.29.77,6.75.4,16.99-1.5,18.95,8.05.58,2.82.76,9.95.91,13.34.52,11.7,1.07,29.12.04,40.52-.75,8.37-6.3,12.66-14.67,11.61-3.64-.46-9.36-5.76-9.36-9.39v-20.62c-18.87,25.13-41.99,45.87-69.25,61.63-14.55,8.41-43.64,23.04-59.72,25.77-13.61,2.32-20.41-12.67-10.16-21.41,27.03-8.82,53.25-20.2,76.36-36.89,18.15-13.1,35.02-29.93,46.26-49.36-7.82-.92-18.42,1.24-25.88,0Z" fill="#9b4022"/>
    </g>
  </g>
</svg>