<?xml version="1.0" encoding="UTF-8"?>
<svg id="Layer_2" data-name="Layer 2" xmlns="http://www.w3.org/2000/svg" viewBox="0 0 364.66 340.59">
  <g id="Layer_1-2" data-name="Layer 1">
    <path d="M125.12,339.62c-1.88,1.25-4.98,1.44-6.6-.35-26.45-55.48-55.67-117.01-101.95-158.84-2.69-2.43-14.87-11.14-15.81-12.68-1.49-2.44-.75-6.19,2.09-7.03,3.64-1.08,20.48,3.27,25.13,4.56,35.63,9.88,71.67,31.54,93.96,61.27C173.53,136.57,249.96,63.35,339.3,11.18,342.9,9.08,357.61-.02,360.44,0c3.49.03,5.42,4.32,3.39,7.23-104.48,89.79-180.41,208.53-238.72,332.39Z" fill="#7c9700"/>
  </g>
</svg>