<?xml version="1.0" encoding="UTF-8"?>
<svg id="Layer_2" data-name="Layer 2" xmlns="http://www.w3.org/2000/svg" viewBox="0 0 1276.88 195.99">
  <g id="Layer_1-2" data-name="Layer 1">
    <path d="M1243.8,24.4c-127.74,82.71-231.65,18.39-365.46,23.53-60.81,2.34-95.29,9.06-140.64,19.36-87.16,19.79-177.45,55.44-213.28,69.59-17.67,6.98-48.03,19.3-91.23,30.98-31.38,8.48-57.56,13.38-74.54,16.17-48.32,6.27-92.56,6.79-140.94-.37C140.9,172.31,67.26,144.58.39,105.97c-1.38.62,1.3,1.93,1.76,2.25,6.46,4.49,14.22,8.92,21.06,12.94,74.42,43.71,162.68,73.9,249.67,74.82,1.99.02,4.01.02,6,0,35.16-.31,71.38-6.5,106.01-13.49l5.54-1.43c.18-.03.36-.06.54-.09,10.73-1.77,18.84-3.86,22.91-4.94,74.91-19.91,120.07-37.11,120.07-37.11,60.82-23.15,121.24-43.36,143.94-50.44,122.44-38.17,233.74-34.34,275.49-30.5,69.51,6.4,136.58,26.08,206.69,9.68,44.16-10.33,85.81-35.02,116.81-67.67l-33.08,24.4Z" fill="#9b4022"/>
  </g>
</svg>