<?xml version="1.0" encoding="UTF-8"?>
<svg id="Layer_1" xmlns="http://www.w3.org/2000/svg" version="1.1" xmlns:xlink="http://www.w3.org/1999/xlink" viewBox="0 0 308.4 81.1">
  <!-- Generator: Adobe Illustrator 29.8.2, SVG Export Plug-In . SVG Version: 2.1.1 Build 3)  -->
  <defs>
    <style>
      .st0 {
        fill: url(#linear-gradient2);
      }

      .st1 {
        fill: url(#linear-gradient1);
      }

      .st2 {
        fill: #3ea848;
      }

      .st3 {
        fill: url(#linear-gradient4);
      }

      .st4 {
        fill: #fdb82a;
      }

      .st5 {
        fill: url(#linear-gradient5);
      }

      .st6 {
        fill: url(#linear-gradient3);
      }

      .st7 {
        fill: #0b9eda;
      }

      .st8 {
        fill: #4b4b4b;
      }

      .st9 {
        opacity: 1;
      }

      .st10 {
        fill: url(#linear-gradient);
      }
    </style>
    <linearGradient id="linear-gradient" x1="14.1" y1="53.3" x2="29.5" y2="79.8" gradientTransform="translate(0 81.6) scale(1 -1)" gradientUnits="userSpaceOnUse">
      <stop offset="0" stop-color="#0b9eda"/>
      <stop offset=".6" stop-color="#098aba"/>
      <stop offset="1" stop-color="#097da5"/>
    </linearGradient>
    <linearGradient id="linear-gradient1" x1="31.3" y1="64.8" x2="61.7" y2="82.4" gradientTransform="translate(0 81.6) scale(1 -1)" gradientUnits="userSpaceOnUse">
      <stop offset="0" stop-color="#097da5"/>
      <stop offset="0" stop-color="#0983af"/>
      <stop offset=".2" stop-color="#0a8fc2"/>
      <stop offset=".4" stop-color="#0a97cf"/>
      <stop offset=".6" stop-color="#0a9cd7"/>
      <stop offset="1" stop-color="#0b9eda"/>
    </linearGradient>
    <linearGradient id="linear-gradient2" x1="5.3" y1="10.8" x2="24.1" y2="62.2" gradientTransform="translate(0 81.6) scale(1 -1)" gradientUnits="userSpaceOnUse">
      <stop offset="0" stop-color="#51c9f0"/>
      <stop offset="0" stop-color="#4ec7ef"/>
      <stop offset=".1" stop-color="#36b8e7"/>
      <stop offset=".3" stop-color="#22ace1"/>
      <stop offset=".4" stop-color="#15a4dd"/>
      <stop offset=".6" stop-color="#0d9fda"/>
      <stop offset="1" stop-color="#0b9eda"/>
    </linearGradient>
    <linearGradient id="linear-gradient3" x1="16.4" y1="10.5" x2="67" y2="70.8" gradientTransform="translate(0 81.6) scale(1 -1)" gradientUnits="userSpaceOnUse">
      <stop offset="0" stop-color="#91cc86"/>
      <stop offset="0" stop-color="#85c77d"/>
      <stop offset=".2" stop-color="#6bbb6a"/>
      <stop offset=".3" stop-color="#57b35a"/>
      <stop offset=".5" stop-color="#48ac50"/>
      <stop offset=".7" stop-color="#40a949"/>
      <stop offset="1" stop-color="#3ea848"/>
    </linearGradient>
    <linearGradient id="linear-gradient4" x1="29.2" y1="-1.5" x2="82.2" y2="29.1" gradientTransform="translate(0 81.6) scale(1 -1)" gradientUnits="userSpaceOnUse">
      <stop offset="0" stop-color="#6abf6b"/>
      <stop offset="0" stop-color="#65ba68"/>
      <stop offset=".3" stop-color="#4ba156"/>
      <stop offset=".5" stop-color="#388e49"/>
      <stop offset=".7" stop-color="#2d8341"/>
      <stop offset="1" stop-color="#2a803f"/>
    </linearGradient>
    <linearGradient id="linear-gradient5" x1="41.3" y1="28" x2="94.5" y2="58.7" gradientTransform="translate(0 81.6) scale(1 -1)" gradientUnits="userSpaceOnUse">
      <stop offset="0" stop-color="#fad7a0"/>
      <stop offset="0" stop-color="#fad087"/>
      <stop offset=".3" stop-color="#fbc866"/>
      <stop offset=".4" stop-color="#fcc14d"/>
      <stop offset=".6" stop-color="#fcbc3a"/>
      <stop offset=".8" stop-color="#fcb92f"/>
      <stop offset="1" stop-color="#fdb92c"/>
    </linearGradient>
  </defs>
  <g>
    <path class="st10" d="M28.8,1.3c-1,.4-2,.8-2.9,1.2-.6.2-1.2.5-1.9.8,0,0-2.2,1-4.3,2.2-9.6,5.6-14,13.8-15.6,17,2.7-1.3,7-2.9,12.5-3.5,6.8-.6,12.2.7,15.3,1.8-1.1-1.3-3.9-4.9-4.5-10.3-.5-4.2.6-7.5,1.3-9.1h0Z"/>
    <path class="st1" d="M33.1,19.6c3.1-2.4,8.4-5.8,15.8-7.9,8.4-2.3,15.5-1.7,19.5-1.1C61.3,4.6,52.9,1.1,44.4.2c-1.4-.2-2.8-.2-2.8-.2-4.1-.1-7.5.5-9.8,1.2-.8,1.4-2,4.2-2.1,8,0,5.4,2.5,9.2,3.4,10.5h0Z"/>
    <path class="st0" d="M3.4,24.1C1.6,28.2-.1,33.9,0,40.6c.5,21.6,19.7,34.6,22.1,36.3-8.6-15.2-7.6-34,2.4-48.1,1.3-1.9,2.9-3.6,2.9-3.6,1.2-1.3,2.3-2.5,3.4-3.4-3.2-.7-7.5-1.3-12.6-1-6.3.4-11.4,2-14.8,3.3h0Z"/>
    <path class="st6" d="M71.3,14.3c-1.5-.3-23.4-4.2-38.9,12.2-13.1,13.9-11.3,31.5-11,34,1.4-3.8,3.5-8.3,6.8-12.9,9-12.7,21.1-18.5,27.3-20.8-7.4,5.6-12.9,11-16.6,15.1-7.4,8.2-13.8,15.5-15.4,26.3-.5,3.6-.4,6.7-.2,8.7,4.3-8.8,9.4-13.5,13.4-16.2,5.2-3.6,8.2-3.5,14.5-8,2.4-1.7,7.5-5.8,11.8-12,6.9-10.1,8.1-20.7,8.2-26.3Z"/>
    <path class="st3" d="M26.5,78.3c7.1-9.8,14.2-13.7,19.4-15.5,6.2-2.1,10.1-1.3,17.9-3.9,7.7-2.5,13.2-6.5,16.7-9.4-.5,1.9-5.7,21.8-25.1,29.1-13.6,5.2-25.7.9-28.9-.3Z"/>
    <path class="st5" d="M72.7,18.8c1.8-1.5,4.3-3.3,7.6-4.8,2.8-1.4,5.5-2.1,7.6-2.6.8,2.7,4.4,16.5-3.3,29.4-6.1,10.2-15.8,14.1-19.8,15.7-8.3,3.3-15.8,3.4-19.9,3.2,2.9-2.5,7.3-5.9,13.5-8.9,3.4-1.7,3.4-1.3,5.8-2.6,8.1-4.1,15.8-12.3,18.9-22.7.6-1.9,1.2-4.7,1.4-8.2-1.2,4.7-4.1,13.4-11.6,21.4-4,4.2-8.1,7-11.3,8.8,1.2-1.3,2.3-2.8,3.4-4.5,5.8-8.7,7.4-17.8,7.8-24h0Z"/>
  </g>
  <g>
    <path class="st7" d="M154.1,12.2c-2.5-2.7-6-4.2-10.5-4.2-9.3,0-15.1,7.4-15.1,15.8s5.7,15.8,15.1,15.8,7.7-1,9.8-2.4v-11h-8.4v-3.2h12.1v16.3c-3.9,2.4-8.6,3.5-13.5,3.5-11,0-18.9-8-18.9-19s8.1-19,18.9-19,10,1.8,13.1,4.9l-2.6,2.6h0Z"/>
    <path class="st7" d="M169.9,41.9h-3.5V3.2h3.5v38.7Z"/>
    <path class="st7" d="M190.2,42.5c-7.4,0-12.8-5.4-12.8-12.6s5.3-12.6,12.8-12.6,12.8,5.4,12.8,12.6-5.3,12.6-12.8,12.6ZM190.2,20.3c-5.5,0-9.1,4.3-9.1,9.7s3.5,9.6,9.1,9.6,9.1-4.2,9.1-9.6-3.5-9.7-9.1-9.7Z"/>
    <path class="st2" d="M214.4,41.9h-3.7V5.7h10.6c7.2,0,12.4,2.6,12.4,9.7s-4,8.8-9.3,9.3l10.6,17.3h-4.5l-10-17h-6.1v17h0ZM214.4,21.8h6.4c5.9,0,9.3-2.1,9.3-6.4s-3.6-6.5-9.1-6.5h-6.6v13h0Z"/>
    <path class="st2" d="M262.3,30.9h-19.9c.1,4.8,3.8,8.7,8.8,8.7s6.3-2,7.7-4.2l2.6,2c-2.8,3.6-6.4,5.1-10.3,5.1-7.1,0-12.4-5.4-12.4-12.6s5.3-12.6,12.1-12.6,11.5,5.3,11.5,11.9,0,1,0,1.6h0ZM258.8,28.1c-.2-4.5-3-7.8-7.9-7.8s-8.1,3.7-8.4,7.8h16.3Z"/>
    <path class="st2" d="M284.6,26.5c0-4.1-2.2-6.2-6.4-6.2s-5.4,1.1-7.1,2.8l-2-2.3c2-2,5.3-3.4,9.4-3.4s9.3,2.9,9.3,8.7v10.5c0,1.8.1,4,.4,5.4h-3.1c-.2-1.2-.4-2.6-.4-3.9h-.1c-2.2,3.2-4.9,4.5-8.7,4.5s-8.3-2-8.3-7.3,8.1-8,16.9-8v-.8h0ZM283.6,29.9c-5.7,0-12.3.6-12.3,5.2s2.9,4.6,5.6,4.6c4.9,0,7.7-3.7,7.7-7.9v-1.8s-1,0-1,0Z"/>
    <path class="st2" d="M300.5,41.9h-3.5V3.2h3.5v38.7Z"/>
  </g>
  <rect class="st4" x="117.6" y="51" width="78.6" height="2"/>
  <rect class="st4" x="216.2" y="51" width="92.2" height="2"/>
  <path class="st4" d="M208.4,53.1c-.3.2-.9-1.1-2-1.1s-1.7,1.4-2,1.2c-.4-.2.6-4.4,2-4.4,1.4,0,2.5,4,2,4.2Z"/>
  <g class="st9">
    <path class="st8" d="M119.6,76.9h-2v-14.9h2v14.9Z"/>
    <path class="st8" d="M138.9,74h0v-12h2v14.9h-2.5l-7.7-12.3h0v12.3h-2v-14.9h2.6l7.6,12h0Z"/>
    <path class="st8" d="M154.6,74.4h0l4.5-12.3h2.2l-5.8,14.9h-1.9l-5.8-14.9h2.2l4.6,12.3h0Z"/>
    <path class="st8" d="M170.2,75.1h7.8v1.8h-9.8v-14.9h9.5v1.7h-7.5v4.6h7.1v1.7h-7.1v5.1Z"/>
    <path class="st8" d="M193.4,64.8c-.6-.8-1.7-1.4-2.9-1.4s-2.9.7-2.9,2.4,1.4,2.1,3.1,2.6c2,.6,4.4,1.3,4.4,4.3s-2.5,4.5-5.1,4.5-3.8-.8-4.8-2.2l1.6-1.3c.6,1.1,1.9,1.8,3.3,1.8s3.1-.8,3.1-2.6-1.7-2.3-3.6-2.9c-1.9-.6-3.9-1.5-3.9-4.2s2.6-4.2,5-4.2,3.3.7,4.2,1.7l-1.4,1.3h0Z"/>
    <path class="st8" d="M207.5,76.9h-2v-13.1h-4.8v-1.7h11.6v1.7h-4.8v13.1Z"/>
    <path class="st8" d="M227,73.6h0l4.5-11.6h3.1v14.9h-2v-12.5h0l-5,12.5h-1.2l-5-12.5h0v12.5h-2v-14.9h3.1s4.6,11.6,4.6,11.6Z"/>
    <path class="st8" d="M245.8,75.1h7.8v1.8h-9.8v-14.9h9.5v1.7h-7.5v4.6h7.1v1.7h-7.1v5.1Z"/>
    <path class="st8" d="M272.1,74h0v-12h2v14.9h-2.5l-7.7-12.3h0v12.3h-2v-14.9h2.5l7.6,12h0Z"/>
    <path class="st8" d="M287.9,76.9h-2v-13.1h-4.8v-1.7h11.6v1.7h-4.8v13.1Z"/>
    <path class="st8" d="M306.8,64.8c-.6-.8-1.7-1.4-2.9-1.4s-2.9.7-2.9,2.4,1.4,2.1,3,2.6c2,.6,4.4,1.3,4.4,4.3s-2.5,4.5-5.1,4.5-3.8-.8-4.8-2.2l1.6-1.3c.6,1.1,1.9,1.8,3.3,1.8s3.1-.8,3.1-2.6-1.7-2.3-3.6-2.9c-1.9-.6-3.9-1.5-3.9-4.2s2.6-4.2,5-4.2,3.3.7,4.2,1.7l-1.4,1.3h0Z"/>
  </g>
</svg>