<?xml version="1.0" encoding="UTF-8"?>
<svg id="Layer_1" data-name="Layer 1" xmlns="http://www.w3.org/2000/svg" xmlns:xlink="http://www.w3.org/1999/xlink" viewBox="0 0 308.38 81.12">
  <defs>
    <style>
      .cls-1 {
        fill: #c9c9c9;
      }

      .cls-2 {
        fill: url(#linear-gradient-2);
      }

      .cls-3 {
        opacity: .98;
      }

      .cls-4 {
        fill: url(#linear-gradient-4);
      }

      .cls-5 {
        fill: url(#linear-gradient-3);
      }

      .cls-6 {
        fill: url(#linear-gradient-5);
      }

      .cls-7 {
        fill: #0b9eda;
      }

      .cls-8 {
        fill: url(#linear-gradient-6);
      }

      .cls-9 {
        fill: #3ea848;
      }

      .cls-10 {
        fill: #fdb82a;
      }

      .cls-11 {
        fill: url(#linear-gradient);
      }
    </style>
    <linearGradient id="linear-gradient" x1="14.13" y1="28.25" x2="29.45" y2="1.72" gradientUnits="userSpaceOnUse">
      <stop offset="0" stop-color="#0b9eda"/>
      <stop offset=".55" stop-color="#098aba"/>
      <stop offset="1" stop-color="#097da5"/>
    </linearGradient>
    <linearGradient id="linear-gradient-2" x1="31.31" y1="16.75" x2="61.73" y2="-.81" gradientUnits="userSpaceOnUse">
      <stop offset="0" stop-color="#097da5"/>
      <stop offset=".06" stop-color="#0983af"/>
      <stop offset=".2" stop-color="#0a8fc2"/>
      <stop offset=".37" stop-color="#0a97cf"/>
      <stop offset=".58" stop-color="#0a9cd7"/>
      <stop offset="1" stop-color="#0b9eda"/>
    </linearGradient>
    <linearGradient id="linear-gradient-3" x1="5.34" y1="70.78" x2="24.07" y2="19.32" gradientUnits="userSpaceOnUse">
      <stop offset="0" stop-color="#51c9f0"/>
      <stop offset="0" stop-color="#4ec7ef"/>
      <stop offset=".13" stop-color="#36b8e7"/>
      <stop offset=".27" stop-color="#22ace1"/>
      <stop offset=".43" stop-color="#15a4dd"/>
      <stop offset=".63" stop-color="#0d9fda"/>
      <stop offset="1" stop-color="#0b9eda"/>
    </linearGradient>
    <linearGradient id="linear-gradient-4" x1="16.41" y1="71.06" x2="67.04" y2="10.73" gradientUnits="userSpaceOnUse">
      <stop offset="0" stop-color="#91cc86"/>
      <stop offset=".05" stop-color="#85c77d"/>
      <stop offset=".18" stop-color="#6bbb6a"/>
      <stop offset=".32" stop-color="#57b35a"/>
      <stop offset=".49" stop-color="#48ac50"/>
      <stop offset=".68" stop-color="#40a949"/>
      <stop offset="1" stop-color="#3ea848"/>
    </linearGradient>
    <linearGradient id="linear-gradient-5" x1="29.24" y1="83.03" x2="82.23" y2="52.43" gradientUnits="userSpaceOnUse">
      <stop offset="0" stop-color="#6abf6b"/>
      <stop offset=".03" stop-color="#65ba68"/>
      <stop offset=".26" stop-color="#4ba156"/>
      <stop offset=".49" stop-color="#388e49"/>
      <stop offset=".74" stop-color="#2d8341"/>
      <stop offset="1" stop-color="#2a803f"/>
    </linearGradient>
    <linearGradient id="linear-gradient-6" x1="41.3" y1="53.56" x2="94.49" y2="22.85" gradientUnits="userSpaceOnUse">
      <stop offset="0" stop-color="#fad7a0"/>
      <stop offset=".1" stop-color="#fad087"/>
      <stop offset=".27" stop-color="#fbc866"/>
      <stop offset=".44" stop-color="#fcc14d"/>
      <stop offset=".61" stop-color="#fcbc3a"/>
      <stop offset=".8" stop-color="#fcb92f"/>
      <stop offset="1" stop-color="#fdb92c"/>
    </linearGradient>
  </defs>
  <g>
    <path class="cls-11" d="M28.77,1.32c-.97.38-1.95.77-2.92,1.16-.62.25-1.24.5-1.85.75,0,0-2.2.96-4.29,2.19-9.57,5.65-14.01,13.77-15.58,17.05,2.72-1.3,7-2.94,12.47-3.46,6.78-.64,12.22.74,15.32,1.78-1.14-1.34-3.88-4.93-4.45-10.31-.45-4.2.64-7.52,1.31-9.15Z"/>
    <path class="cls-2" d="M33.09,19.63c3.07-2.37,8.39-5.84,15.8-7.89,8.36-2.31,15.47-1.72,19.46-1.09C61.33,4.64,52.91,1.13,44.37.23c-1.44-.15-2.82-.21-2.82-.21-4.09-.13-7.46.54-9.77,1.18-.78,1.44-2.05,4.25-2.09,7.98-.07,5.37,2.45,9.17,3.4,10.46Z"/>
    <path class="cls-5" d="M3.38,24.12C1.6,28.18-.14,33.86,0,40.63c.48,21.56,19.66,34.63,22.14,36.26-8.59-15.16-7.64-33.99,2.44-48.11,1.33-1.87,2.85-3.59,2.85-3.59,1.18-1.34,2.33-2.47,3.36-3.42-3.19-.68-7.52-1.27-12.62-.97-6.32.37-11.4,1.95-14.81,3.31Z"/>
    <path class="cls-4" d="M71.31,14.31c-1.46-.28-23.43-4.16-38.88,12.2-13.11,13.89-11.28,31.52-10.98,33.99,1.42-3.84,3.54-8.33,6.78-12.91,8.99-12.72,21.11-18.45,27.29-20.82-7.43,5.56-12.88,11-16.6,15.12-7.42,8.23-13.79,15.48-15.38,26.28-.53,3.61-.39,6.67-.17,8.72,4.27-8.79,9.42-13.53,13.41-16.24,5.25-3.58,8.21-3.46,14.49-7.99,2.37-1.71,7.54-5.76,11.85-12.03,6.93-10.08,8.06-20.7,8.19-26.32Z"/>
    <path class="cls-6" d="M26.51,78.29c7.08-9.8,14.19-13.73,19.4-15.49,6.25-2.12,10.15-1.27,17.9-3.86,7.66-2.55,13.25-6.51,16.74-9.41-.46,1.87-5.69,21.78-25.1,29.11-13.62,5.15-25.73.9-28.94-.35Z"/>
    <path class="cls-8" d="M72.67,18.85c1.82-1.51,4.35-3.3,7.61-4.84,2.85-1.35,5.47-2.14,7.58-2.61.79,2.74,4.45,16.45-3.3,29.4-6.11,10.2-15.8,14.08-19.82,15.69-8.31,3.33-15.75,3.42-19.94,3.16,2.87-2.45,7.35-5.88,13.46-8.94,3.41-1.71,3.42-1.34,5.8-2.57,8.06-4.14,15.77-12.3,18.86-22.74.55-1.86,1.21-4.67,1.4-8.25-1.2,4.74-4.12,13.45-11.64,21.44-3.96,4.21-8.05,7.01-11.29,8.83,1.17-1.35,2.34-2.85,3.45-4.52,5.82-8.73,7.42-17.82,7.82-24.05Z"/>
  </g>
  <g>
    <path class="cls-7" d="M154.12,12.18c-2.51-2.66-5.99-4.2-10.5-4.2-9.32,0-15.06,7.37-15.06,15.82s5.74,15.77,15.06,15.77c4.1,0,7.68-.97,9.78-2.36v-11.01h-8.45v-3.23h12.14v16.34c-3.94,2.36-8.6,3.53-13.52,3.53-10.96,0-18.9-8.04-18.9-19.05s8.09-19.05,18.9-19.05c5.74,0,10.04,1.84,13.11,4.86l-2.56,2.56Z"/>
    <path class="cls-7" d="M169.89,41.93h-3.48V3.22h3.48v38.71Z"/>
    <path class="cls-7" d="M190.22,42.55c-7.42,0-12.75-5.38-12.75-12.6s5.33-12.6,12.75-12.6,12.8,5.38,12.8,12.6-5.33,12.6-12.8,12.6ZM190.22,20.27c-5.53,0-9.06,4.3-9.06,9.68s3.53,9.63,9.06,9.63,9.12-4.25,9.12-9.63-3.53-9.68-9.12-9.68Z"/>
    <path class="cls-9" d="M214.39,41.93h-3.69V5.68h10.65c7.17,0,12.39,2.61,12.39,9.68,0,5.38-3.99,8.76-9.27,9.32l10.6,17.26h-4.51l-10.04-16.95h-6.14v16.95ZM214.39,21.81h6.4c5.89,0,9.27-2.15,9.27-6.45,0-4.76-3.64-6.5-9.12-6.5h-6.55v12.96Z"/>
    <path class="cls-9" d="M262.33,30.87h-19.87c.1,4.81,3.84,8.71,8.76,8.71,3.58,0,6.35-2,7.68-4.15l2.61,2.05c-2.82,3.58-6.35,5.07-10.29,5.07-7.12,0-12.39-5.38-12.39-12.6s5.28-12.6,12.09-12.6c7.53,0,11.47,5.33,11.47,11.88,0,.46,0,1.02-.05,1.64ZM258.84,28.1c-.21-4.51-2.97-7.83-7.94-7.83-4.66,0-8.09,3.74-8.4,7.83h16.34Z"/>
    <path class="cls-9" d="M284.65,26.47c0-4.15-2.25-6.2-6.4-6.2-2.82,0-5.43,1.13-7.12,2.82l-1.95-2.3c1.95-1.95,5.33-3.43,9.42-3.43,5.17,0,9.32,2.87,9.32,8.71v10.5c0,1.84.15,4.05.41,5.38h-3.12c-.2-1.18-.36-2.61-.36-3.89h-.1c-2.2,3.18-4.86,4.51-8.71,4.51-3.64,0-8.3-1.95-8.3-7.27,0-7.37,8.14-8.04,16.9-8.04v-.77ZM283.63,29.95c-5.68,0-12.29.61-12.29,5.17,0,3.43,2.92,4.56,5.63,4.56,4.92,0,7.68-3.69,7.68-7.94v-1.79h-1.02Z"/>
    <path class="cls-9" d="M300.48,41.93h-3.48V3.22h3.48v38.71Z"/>
  </g>
  <rect class="cls-10" x="117.59" y="51.05" width="78.6" height="2.05"/>
  <rect class="cls-10" x="216.19" y="51.05" width="92.19" height="2.05"/>
  <path class="cls-10" d="M208.41,53.14c-.26.16-.91-1.14-2.03-1.11-1.12.03-1.71,1.38-1.96,1.24-.42-.23.55-4.37,1.96-4.38,1.39-.01,2.46,3.99,2.03,4.25Z"/>
  <g class="cls-3">
    <path class="cls-1" d="M119.55,76.91h-1.96v-14.87h1.96v14.87Z"/>
    <path class="cls-1" d="M138.9,74.05h.06v-12.01h1.96v14.87h-2.46l-7.67-12.26h-.03v12.26h-1.96v-14.87h2.55l7.56,12.01Z"/>
    <path class="cls-1" d="M154.58,74.36h.06l4.54-12.32h2.16l-5.8,14.87h-1.88l-5.8-14.87h2.16l4.56,12.32Z"/>
    <path class="cls-1" d="M170.23,75.14h7.81v1.76h-9.77v-14.87h9.46v1.74h-7.5v4.56h7.06v1.71h-7.06v5.1Z"/>
    <path class="cls-1" d="M193.42,64.78c-.62-.84-1.68-1.4-2.94-1.4-1.37,0-2.94.7-2.94,2.41s1.37,2.1,3.05,2.63c2.04.64,4.4,1.34,4.4,4.31s-2.49,4.51-5.1,4.51c-1.85,0-3.75-.76-4.84-2.18l1.57-1.32c.64,1.06,1.9,1.79,3.3,1.79s3.08-.81,3.08-2.6-1.68-2.3-3.56-2.88c-1.93-.59-3.89-1.46-3.89-4.17,0-2.94,2.6-4.17,5.04-4.17,1.74,0,3.33.7,4.23,1.74l-1.4,1.34Z"/>
    <path class="cls-1" d="M207.47,76.91h-1.96v-13.13h-4.79v-1.74h11.59v1.74h-4.84v13.13Z"/>
    <path class="cls-1" d="M227.02,73.63h.06l4.48-11.59h3.05v14.87h-1.96v-12.52h-.06l-5.01,12.52h-1.2l-5.01-12.52h-.03v12.52h-1.96v-14.87h3.08l4.56,11.59Z"/>
    <path class="cls-1" d="M245.8,75.14h7.81v1.76h-9.77v-14.87h9.46v1.74h-7.5v4.56h7.06v1.71h-7.06v5.1Z"/>
    <path class="cls-1" d="M272.13,74.05h.06v-12.01h1.96v14.87h-2.46l-7.67-12.26h-.03v12.26h-1.96v-14.87h2.55l7.56,12.01Z"/>
    <path class="cls-1" d="M287.94,76.91h-1.96v-13.13h-4.79v-1.74h11.59v1.74h-4.84v13.13Z"/>
    <path class="cls-1" d="M306.82,64.78c-.62-.84-1.68-1.4-2.94-1.4-1.37,0-2.94.7-2.94,2.41s1.37,2.1,3.05,2.63c2.04.64,4.4,1.34,4.4,4.31s-2.49,4.51-5.1,4.51c-1.85,0-3.75-.76-4.84-2.18l1.57-1.32c.64,1.06,1.9,1.79,3.3,1.79s3.08-.81,3.08-2.6-1.68-2.3-3.56-2.88c-1.93-.59-3.89-1.46-3.89-4.17,0-2.94,2.6-4.17,5.04-4.17,1.74,0,3.33.7,4.23,1.74l-1.4,1.34Z"/>
  </g>
</svg>