<?xml version="1.0" encoding="UTF-8"?>
<svg id="Layer_2" data-name="Layer 2" xmlns="http://www.w3.org/2000/svg" viewBox="0 0 642.61 132.66">
  <g id="logo_horizontal" data-name="logo horizontal">
    <g id="logo1">
      <g>
        <path d="M89.36,0v132.27H0V45.81c16.29-8.44,32.57-16.87,48.86-25.31v20.77c-9.6,4.65-19.21,9.3-28.81,13.96v59.69h49.07V10.53c6.75-3.51,13.5-7.02,20.25-10.53Z" fill="#9b4022"/>
        <path d="M154.93,132.27c-16.77,0-33.55,0-50.32,0,0-43.97,0-87.93,0-131.9,30,14.9,59.99,29.8,89.99,44.7,0,29.06,0,58.13,0,87.19-6.89,0-13.78,0-20.67,0,0-25.62,0-51.23,0-76.85-16.15-8.19-32.29-16.38-48.44-24.57,0,27.71,0,55.42,0,83.13,9.74,0,19.49,0,29.23,0,.07,6.1.14,12.19.21,18.29Z" fill="#9b4022"/>
      </g>
      <g>
        <path d="M250.99,132.66c-4.14,0-7.89-.79-11.26-2.39-3.37-1.59-6.26-3.75-8.67-6.49-2.41-2.73-4.29-5.81-5.61-9.23-1.33-3.42-1.99-6.94-1.99-10.54s.7-7.36,2.11-10.78c1.4-3.42,3.34-6.47,5.81-9.15,2.47-2.68,5.38-4.8,8.75-6.37,3.37-1.56,7.07-2.35,11.1-2.35s7.81.82,11.18,2.47c3.37,1.65,6.25,3.85,8.63,6.61,2.39,2.76,4.24,5.84,5.57,9.23,1.33,3.4,1.99,6.9,1.99,10.5s-.69,7.28-2.07,10.7c-1.38,3.42-3.3,6.47-5.77,9.15-2.47,2.68-5.39,4.79-8.75,6.33-3.37,1.54-7.04,2.31-11.02,2.31ZM234.59,104.01c0,2.44.37,4.8,1.12,7.08.74,2.28,1.82,4.31,3.22,6.09,1.41,1.78,3.13,3.18,5.17,4.22,2.04,1.04,4.36,1.55,6.96,1.55s5.01-.54,7.08-1.63c2.07-1.09,3.79-2.55,5.17-4.38,1.38-1.83,2.43-3.87,3.14-6.13.72-2.25,1.07-4.52,1.07-6.8,0-2.44-.38-4.79-1.15-7.04-.77-2.25-1.86-4.27-3.26-6.05-1.41-1.78-3.13-3.18-5.17-4.22-2.04-1.04-4.34-1.55-6.88-1.55-2.71,0-5.08.54-7.12,1.63-2.04,1.09-3.75,2.53-5.13,4.34-1.38,1.8-2.43,3.82-3.14,6.05s-1.08,4.51-1.08,6.84Z" fill="#9b4022"/>
        <path d="M333.12,132.27v-37.08l-14.48,27.61h-6.13l-14.48-27.61v37.08h-10.98v-56.5h11.78l16.71,32.15,16.87-32.15h11.7v56.5h-10.98Z" fill="#9b4022"/>
        <path d="M371.23,75.76h11.14l20.77,56.5h-11.3l-4.7-14.09h-20.75l-4.72,14.09h-11.3l20.85-56.5ZM384.58,110.46l-7.77-23.32-7.81,23.32h15.59Z" fill="#9b4022"/>
        <path d="M409.35,132.27v-56.5h20.53c6.15,0,11.3,1.26,15.44,3.78,4.14,2.52,7.24,5.92,9.31,10.19,2.07,4.27,3.11,9.01,3.11,14.21,0,5.73-1.14,10.72-3.42,14.96-2.28,4.25-5.5,7.53-9.67,9.87-4.17,2.34-9.09,3.5-14.76,3.5h-20.53ZM446.68,103.94c0-3.66-.66-6.88-1.99-9.67-1.33-2.79-3.24-4.96-5.73-6.53-2.49-1.56-5.52-2.35-9.07-2.35h-9.55v37.24h9.55c3.61,0,6.66-.81,9.15-2.43,2.49-1.62,4.39-3.85,5.69-6.68,1.3-2.84,1.95-6.04,1.95-9.59Z" fill="#9b4022"/>
        <path d="M490.45,132.66c-4.14,0-7.89-.79-11.26-2.39s-6.26-3.75-8.67-6.49c-2.42-2.73-4.29-5.81-5.61-9.23s-1.99-6.94-1.99-10.54.7-7.36,2.11-10.78,3.34-6.47,5.81-9.15c2.47-2.68,5.38-4.8,8.75-6.37,3.37-1.56,7.07-2.35,11.1-2.35s7.81.82,11.18,2.47c3.37,1.65,6.25,3.85,8.63,6.61,2.39,2.76,4.24,5.84,5.57,9.23,1.32,3.4,1.99,6.9,1.99,10.5s-.69,7.28-2.07,10.7c-1.38,3.42-3.3,6.47-5.77,9.15-2.47,2.68-5.38,4.79-8.75,6.33-3.37,1.54-7.04,2.31-11.02,2.31ZM474.05,104.01c0,2.44.37,4.8,1.11,7.08.74,2.28,1.82,4.31,3.22,6.09,1.41,1.78,3.13,3.18,5.17,4.22,2.04,1.04,4.36,1.55,6.96,1.55s5.01-.54,7.08-1.63c2.07-1.09,3.79-2.55,5.17-4.38,1.38-1.83,2.43-3.87,3.14-6.13.71-2.25,1.07-4.52,1.07-6.8,0-2.44-.39-4.79-1.15-7.04-.77-2.25-1.86-4.27-3.26-6.05-1.41-1.78-3.13-3.18-5.17-4.22-2.04-1.04-4.34-1.55-6.88-1.55-2.71,0-5.08.54-7.12,1.63-2.04,1.09-3.75,2.53-5.13,4.34s-2.43,3.82-3.14,6.05-1.07,4.51-1.07,6.84Z" fill="#9b4022"/>
        <path d="M572.57,132.27v-37.08l-14.48,27.61h-6.13l-14.48-27.61v37.08h-10.98v-56.5h11.78l16.71,32.15,16.87-32.15h11.7v56.5h-10.98Z" fill="#9b4022"/>
        <path d="M610.69,75.76h11.14l20.77,56.5h-11.3l-4.7-14.09h-20.75l-4.72,14.09h-11.3l20.85-56.5ZM624.04,110.46l-7.77-23.32-7.81,23.32h15.58Z" fill="#9b4022"/>
      </g>
    </g>
  </g>
</svg>