<?xml version="1.0" encoding="UTF-8"?>
<svg id="Layer_2" data-name="Layer 2" xmlns="http://www.w3.org/2000/svg" viewBox="0 0 118.82 109.92">
  <g id="Layer_1-2" data-name="Layer 1">
    <g id="logo1">
      <g>
        <path d="M54.9,0v79.34H1.29V27.48c9.77-5.06,19.54-10.12,29.31-15.18v12.46c-5.76,2.79-11.52,5.58-17.28,8.37v35.8h29.44V6.32c4.05-2.11,8.1-4.21,12.15-6.32Z" fill="#9b4022"/>
        <path d="M94.23,79.34c-10.06,0-20.12,0-30.19,0,0-26.37,0-52.75,0-79.12,17.99,8.94,35.99,17.88,53.98,26.82,0,17.43,0,34.87,0,52.3h-12.4c0-15.37,0-30.73,0-46.1-9.69-4.91-19.37-9.83-29.06-14.74,0,16.62,0,33.25,0,49.87,5.85,0,11.69,0,17.54,0,.04,3.66.08,7.31.12,10.97Z" fill="#9b4022"/>
      </g>
      <g>
        <path d="M8.02,109.67c-1.17,0-2.23-.22-3.18-.66-.95-.44-1.77-1.03-2.45-1.78s-1.21-1.6-1.58-2.54c-.37-.94-.56-1.91-.56-2.9s.2-2.02.59-2.97.94-1.78,1.64-2.52c.69-.74,1.52-1.32,2.47-1.75s1.99-.65,3.13-.65,2.2.23,3.15.68c.95.45,1.76,1.06,2.44,1.82.67.76,1.2,1.61,1.57,2.54.37.93.56,1.9.56,2.89s-.19,2-.58,2.94c-.39.94-.93,1.78-1.63,2.52-.69.74-1.52,1.32-2.47,1.74-.95.42-1.99.63-3.11.63ZM3.39,101.79c0,.67.11,1.32.31,1.95.21.63.51,1.19.91,1.67.4.49.88.88,1.46,1.16.58.29,1.23.43,1.96.43s1.41-.15,2-.45c.58-.3,1.07-.7,1.46-1.2.39-.5.68-1.07.89-1.69s.3-1.24.3-1.87c0-.67-.11-1.32-.33-1.94-.22-.62-.52-1.17-.92-1.66-.4-.49-.88-.88-1.46-1.16-.58-.29-1.22-.43-1.94-.43-.76,0-1.43.15-2.01.45-.58.3-1.06.7-1.45,1.19-.39.5-.68,1.05-.89,1.66-.2.61-.3,1.24-.3,1.88Z" fill="#9b4022" stroke="#9b4022" stroke-miterlimit="10" stroke-width=".5"/>
        <path d="M31.18,109.56v-10.2l-4.08,7.6h-1.73l-4.09-7.6v10.2h-3.1v-15.54h3.32l4.71,8.84,4.76-8.84h3.3v15.54h-3.1Z" fill="#9b4022" stroke="#9b4022" stroke-miterlimit="10" stroke-width=".5"/>
        <path d="M41.93,94.02h3.14l5.86,15.54h-3.19l-1.32-3.88h-5.85l-1.33,3.88h-3.19l5.88-15.54ZM45.69,103.57l-2.19-6.41-2.2,6.41h4.4Z" fill="#9b4022" stroke="#9b4022" stroke-miterlimit="10" stroke-width=".5"/>
        <path d="M52.68,109.56v-15.54h5.79c1.74,0,3.19.35,4.35,1.04,1.17.69,2.04,1.63,2.63,2.8s.88,2.48.88,3.91c0,1.58-.32,2.95-.97,4.12-.64,1.17-1.55,2.07-2.73,2.71-1.17.64-2.56.96-4.16.96h-5.79ZM63.21,101.77c0-1.01-.19-1.89-.56-2.66-.37-.77-.91-1.36-1.62-1.79-.7-.43-1.56-.65-2.56-.65h-2.69v10.25h2.69c1.02,0,1.88-.22,2.58-.67.7-.45,1.24-1.06,1.6-1.84.37-.78.55-1.66.55-2.64Z" fill="#9b4022" stroke="#9b4022" stroke-miterlimit="10" stroke-width=".5"/>
        <path d="M75.55,109.67c-1.17,0-2.23-.22-3.18-.66-.95-.44-1.77-1.03-2.45-1.78s-1.21-1.6-1.58-2.54c-.37-.94-.56-1.91-.56-2.9s.2-2.02.59-2.97c.4-.94.94-1.78,1.64-2.52.7-.74,1.52-1.32,2.47-1.75s1.99-.65,3.13-.65,2.2.23,3.15.68c.95.45,1.76,1.06,2.44,1.82.67.76,1.2,1.61,1.57,2.54.37.93.56,1.9.56,2.89s-.19,2-.58,2.94-.93,1.78-1.63,2.52-1.52,1.32-2.47,1.74c-.95.42-1.99.63-3.11.63ZM70.93,101.79c0,.67.1,1.32.31,1.95.21.63.51,1.19.91,1.67.4.49.88.88,1.46,1.16.58.29,1.23.43,1.96.43s1.41-.15,2-.45,1.07-.7,1.46-1.2c.39-.5.68-1.07.89-1.69.2-.62.3-1.24.3-1.87,0-.67-.11-1.32-.33-1.94-.22-.62-.52-1.17-.92-1.66s-.88-.88-1.46-1.16c-.58-.29-1.22-.43-1.94-.43-.76,0-1.43.15-2.01.45-.58.3-1.06.7-1.45,1.19-.39.5-.68,1.05-.89,1.66-.2.61-.3,1.24-.3,1.88Z" fill="#9b4022" stroke="#9b4022" stroke-miterlimit="10" stroke-width=".5"/>
        <path d="M98.71,109.56v-10.2l-4.08,7.6h-1.73l-4.09-7.6v10.2h-3.1v-15.54h3.32l4.71,8.84,4.76-8.84h3.3v15.54h-3.1Z" fill="#9b4022" stroke="#9b4022" stroke-miterlimit="10" stroke-width=".5"/>
        <path d="M109.46,94.02h3.14l5.86,15.54h-3.19l-1.32-3.88h-5.85l-1.33,3.88h-3.19l5.88-15.54ZM113.23,103.57l-2.19-6.41-2.2,6.41h4.4Z" fill="#9b4022" stroke="#9b4022" stroke-miterlimit="10" stroke-width=".5"/>
      </g>
    </g>
  </g>
</svg>