<?xml version="1.0" encoding="UTF-8"?>
<svg id="Layer_2" data-name="Layer 2" xmlns="http://www.w3.org/2000/svg" xmlns:xlink="http://www.w3.org/1999/xlink" viewBox="0 0 70.6 65.5">
  <defs>
    <style>
      .cls-1 {
        fill: url(#linear-gradient-2);
      }

      .cls-2 {
        fill: url(#linear-gradient);
      }
    </style>
    <linearGradient id="linear-gradient" x1="-.5" y1="61.95" x2="44.85" y2="-2.82" gradientUnits="userSpaceOnUse">
      <stop offset="0" stop-color="#fff3e2"/>
      <stop offset=".43" stop-color="#f6f7e9"/>
      <stop offset="1" stop-color="#f3f9ed"/>
    </linearGradient>
    <linearGradient id="linear-gradient-2" x1="25.69" y1="53.47" x2="74.11" y2="5.04" gradientUnits="userSpaceOnUse">
      <stop offset="0" stop-color="#fdf5e4"/>
      <stop offset=".34" stop-color="#f8f7e9"/>
      <stop offset="1" stop-color="#f4f9ee"/>
    </linearGradient>
  </defs>
  <g id="logo">
    <g>
      <path class="cls-2" d="M52.27,2.38c-1.66-.4-22.61-5.04-38.81,9.96C2.17,22.79-2.49,38.79,1.3,53.95c.19-1.56.58-3.94,1.4-6.74,4.07-13.76,14.19-21.76,17.94-24.64,2.59-1.99,6.54-4.67,11.89-7-5.46,3.42-11.86,8.5-17.51,15.87-3.81,4.98-9.15,11.96-10.6,22.4-.66,4.8-.3,8.88.15,11.66,4.27-8.79,9.42-13.53,13.41-16.24,5.25-3.58,8.22-3.47,14.49-7.99,2.42-1.74,7.6-5.82,11.85-12.03,7.05-10.3,7.94-21.26,7.96-26.87Z"/>
      <path class="cls-1" d="M53.88,7.46c1.82-1.51,4.35-3.3,7.61-4.84,2.85-1.35,5.47-2.14,7.58-2.61.7,2.38,4.47,15.91-3.3,29.4-4.61,7.99-12.21,14.13-19.73,16.4-6.78,2.05-10.75,2.17-10.75,2.17-2.59.07-5.66-.17-9.93.9-1.4.35-2.52.74-3.26,1.02.75-.45,1.93-1.13,3.39-1.89,2.96-1.53,4.74-2.17,7.19-3.27,0,0,3-1.35,6.71-3.46,2.68-1.52,9.34-5.38,15.64-12.64,2.48-2.85,4.16-5.38,5.11-6.89,3.82-6.1,5.71-11.81,6.7-15.77-1.5,4.76-4.96,13.4-12.94,21.22-4.76,4.67-9.63,7.57-13.29,9.35,2-1.87,4.18-4.26,6.19-7.28,5.63-8.44,6.81-17.01,7.07-21.81Z"/>
    </g>
  </g>
</svg>