<?xml version="1.0" encoding="UTF-8"?>
<svg id="Layer_2" data-name="Layer 2" xmlns="http://www.w3.org/2000/svg" xmlns:xlink="http://www.w3.org/1999/xlink" viewBox="0 0 64.52 69.73">
  <defs>
    <style>
      .cls-1 {
        fill: url(#linear-gradient-2);
      }

      .cls-2 {
        fill: url(#linear-gradient);
      }
    </style>
    <linearGradient id="linear-gradient" x1="2.99" y1="71.34" x2="56.62" y2="40.38" gradientUnits="userSpaceOnUse">
      <stop offset="0" stop-color="#ddf2fb"/>
      <stop offset=".21" stop-color="#e8f5f4"/>
      <stop offset=".53" stop-color="#f1f8ef"/>
      <stop offset="1" stop-color="#f4f9ee"/>
    </linearGradient>
    <linearGradient id="linear-gradient-2" x1="19.6" y1="53.47" x2="68.03" y2="5.04" gradientUnits="userSpaceOnUse">
      <stop offset="0" stop-color="#f4f9ee"/>
      <stop offset=".42" stop-color="#eff7f0"/>
      <stop offset=".9" stop-color="#e1f3f8"/>
      <stop offset="1" stop-color="#def2fb"/>
    </linearGradient>
  </defs>
  <g id="logo">
    <path class="cls-2" d="M0,66.16c4.68-7.89,9.84-11.43,13.53-13.21,8.78-4.24,15.09-1.34,25.72-4.85,7.6-2.51,12.96-6.82,16.14-9.83-.4,1.72-5.43,21.62-24.83,28.98-14.77,5.61-27.83.13-30.56-1.08Z"/>
    <path class="cls-1" d="M47.79,7.46c1.82-1.51,4.35-3.3,7.61-4.84,2.85-1.35,5.47-2.14,7.58-2.61.7,2.38,4.47,15.91-3.3,29.4-4.61,7.99-12.21,14.13-19.73,16.4-6.78,2.05-10.75,2.17-10.75,2.17-2.59.07-5.66-.17-9.93.9-1.4.35-2.52.74-3.26,1.02.75-.45,1.93-1.13,3.39-1.89,2.96-1.53,4.74-2.17,7.19-3.27,0,0,3-1.35,6.71-3.46,2.68-1.52,9.34-5.38,15.64-12.64,2.48-2.85,4.16-5.38,5.11-6.89,3.82-6.1,5.71-11.81,6.7-15.77-1.5,4.76-4.96,13.4-12.94,21.22-4.76,4.67-9.63,7.57-13.29,9.35,2-1.87,4.18-4.26,6.19-7.28,5.63-8.44,6.81-17.01,7.07-21.81Z"/>
  </g>
</svg>