<?xml version="1.0" encoding="UTF-8"?>
<svg id="Layer_2" data-name="Layer 2" xmlns="http://www.w3.org/2000/svg" viewBox="0 0 45.23 39.11">
  <g id="Layer_1-2" data-name="Layer 1">
    <g>
      <path d="M6.12,25.65c-3.19-.01-5.8-2.48-6-5.67.29-4.65-.37-9.74,0-14.35C.36,2.73,2.8.35,5.69.14c6.11-.45,12.77.34,18.94,0,2.93.28,5.25,2.65,5.49,5.57-.29,4.68.37,9.81,0,14.44-.23,2.8-2.6,5.22-5.4,5.47-3.41.31-7.19-.24-10.63.05-1.82,1.2-3.5,2.79-5.31,3.97-.53.34-.77.58-1.46.46-1.84-.3-1.02-3.19-1.19-4.48ZM8.06,7.67c-1.59.45-1.59,2.53,0,2.96,2.26-.17,5.09.31,7.28.01,1.64-.22,1.71-2.6.08-2.97h-7.36ZM8.06,15.17c-1.63.46-1.57,2.62.08,2.97h13.87c1.77-.25,1.84-2.6.09-2.98h-14.03Z" fill="#9b4022"/>
      <path d="M39.82,9.15c2.77.28,5.12,2.82,5.3,5.57-.27,4.68.34,9.72,0,14.35-.23,3.08-2.89,5.61-6,5.57-.12,1.7.74,5.15-2.15,4.35l-5.89-4.33c-3.39-.22-7.03.23-10.39-.02-3.09-.23-5.62-2.9-5.57-6h9.89c3.69,0,8.11-4.42,8.11-8.11v-11.39h6.7Z" fill="#9b4022"/>
    </g>
  </g>
</svg>