<?xml version="1.0" encoding="UTF-8"?>
<svg id="Layer_1" xmlns="http://www.w3.org/2000/svg" version="1.1" viewBox="0 0 800 800">
  <!-- Generator: Adobe Illustrator 29.8.2, SVG Export Plug-In . SVG Version: 2.1.1 Build 3)  -->
  <defs>
    <style>
      .st0, .st1 {
        fill: #131f76;
        fill-rule: evenodd;
      }

      .st1 {
        isolation: isolate;
      }
    </style>
  </defs>
  <path class="st1" d="M100,475c13.8,0,25,11.2,25,25,0,47.8,0,81.2,3.4,106.4,3.3,24.5,9.3,37.4,18.5,46.6s22.2,15.2,46.6,18.5c25.2,3.4,58.5,3.4,106.4,3.4h200c47.8,0,81.2,0,106.4-3.4,24.5-3.3,37.4-9.3,46.6-18.5s15.2-22.2,18.5-46.6c3.4-25.2,3.4-58.6,3.4-106.4s11.2-25,25-25,25,11.2,25,25v1.8c0,45.6,0,82.3-3.9,111.2-4,30-12.7,55.3-32.7,75.3s-45.3,28.7-75.3,32.7c-28.9,3.9-65.6,3.9-111.2,3.9h-203.7c-45.6,0-82.3,0-111.2-3.9-30-4-55.3-12.7-75.3-32.7-20.1-20.1-28.7-45.3-32.7-75.3-3.9-28.9-3.9-65.6-3.9-111.2v-1.8c0-13.8,11.2-25,25-25Z"/>
  <path class="st0" d="M400,558.3c7,0,13.7-2.9,18.5-8.1l133.3-145.8c9.3-10.2,8.6-26-1.6-35.3s-26-8.6-35.3,1.6l-89.9,98.3V100c0-13.8-11.2-25-25-25s-25,11.2-25,25v368.9l-89.9-98.3c-9.3-10.2-25.1-10.9-35.3-1.6-10.2,9.3-10.9,25.1-1.6,35.3l133.3,145.8c4.7,5.2,11.4,8.1,18.5,8.1Z"/>
</svg>